<svg xmlns="http://www.w3.org/2000/svg" width="56" height="56" fill="none" viewBox="0 0 56 56">
  <rect width="54" height="54" x="1" y="1" fill="#000" rx="11"/>
  <rect width="54" height="54" x="1" y="1" stroke="url(#a)" stroke-width="2" rx="11"/>
  <path fill="#fff" fill-opacity=".7" fill-rule="evenodd" d="M36.493 22.007c-.161 12.679-3.426 13.977-8.088 15.832l-.033.013a1.01 1.01 0 0 1-.745 0l-.033-.013c-4.662-1.855-7.927-3.153-8.088-15.832-.007-.552.442-1.003.993-1.043a13.568 13.568 0 0 0 6.862-2.482c.381-.27.896-.27 1.277 0a13.568 13.568 0 0 0 6.863 2.482c.55.04 1 .49.992 1.043ZM28 29.245l2.133 2.133a.88.88 0 0 0 1.244-1.244L29.244 28l2.133-2.133a.88.88 0 1 0-1.244-1.245L28 26.756l-2.133-2.133a.88.88 0 1 0-1.245 1.245L26.755 28l-2.133 2.133a.88.88 0 1 0 1.245 1.244L28 29.245Z" clip-rule="evenodd"/>
  <path fill="#000" d="M31.377 31.378a.88.88 0 0 1-1.244 0L28 29.245l-2.133 2.133a.88.88 0 1 1-1.245-1.244L26.755 28l-2.133-2.133a.88.88 0 1 1 1.245-1.245L28 26.756l2.133-2.133a.88.88 0 1 1 1.244 1.245L29.244 28l2.133 2.133a.88.88 0 0 1 0 1.244Z"/>
  <defs>
    <linearGradient id="a" x1="0" x2="56" y1="0" y2="56" gradientUnits="userSpaceOnUse">
      <stop offset=".313" stop-color="#E81C26"/>
      <stop offset=".51" stop-color="#FFC093"/>
      <stop offset=".702" stop-color="#E81C26"/>
    </linearGradient>
  </defs>
</svg>
