<svg xmlns="http://www.w3.org/2000/svg" width="46" height="22" fill="none" viewBox="0 0 46 22">
  <rect width="45" height="21" x=".5" y=".5" stroke="#fff" stroke-opacity=".3" rx="3.5"/>
  <path fill="#fff" fill-opacity=".7" d="M13.137 9.2a1.066 1.066 0 0 0-.461-.798c-.268-.19-.617-.285-1.047-.285-.302 0-.561.046-.777.137a1.15 1.15 0 0 0-.497.371.902.902 0 0 0-.062.969c.078.122.184.226.316.312.133.084.28.154.442.211.161.057.324.106.488.145l.75.187c.302.07.593.166.871.285.281.12.533.271.754.454.224.182.401.402.531.66.13.257.196.56.196.906 0 .469-.12.881-.36 1.238-.24.354-.586.632-1.039.832-.45.198-.996.297-1.637.297-.622 0-1.162-.096-1.62-.289a2.414 2.414 0 0 1-1.07-.844c-.256-.37-.394-.82-.415-1.351h1.426c.02.278.107.51.258.695.15.185.347.323.59.414.244.091.518.137.82.137.315 0 .59-.047.828-.14.24-.097.427-.23.562-.4a.962.962 0 0 0 .207-.6.765.765 0 0 0-.183-.516 1.345 1.345 0 0 0-.504-.344 4.857 4.857 0 0 0-.75-.25l-.91-.235c-.66-.169-1.18-.425-1.563-.77-.38-.345-.57-.805-.57-1.378 0-.471.128-.884.383-1.238a2.53 2.53 0 0 1 1.05-.825 3.647 3.647 0 0 1 1.504-.296c.568 0 1.066.099 1.493.296.43.196.767.468 1.011.817.245.346.371.745.38 1.195h-1.395ZM16.83 15h-1.547L18.1 7h1.789l2.82 8h-1.547l-2.137-6.36h-.062L16.83 15Zm.05-3.137h4.22v1.164h-4.22v-1.164ZM27.983 9.2a1.066 1.066 0 0 0-.46-.797c-.269-.19-.618-.285-1.047-.285-.303 0-.562.046-.778.137a1.15 1.15 0 0 0-.496.371.902.902 0 0 0-.062.969c.078.122.183.226.316.312.133.084.28.154.442.211a4.7 4.7 0 0 0 .488.145l.75.187c.302.07.592.166.87.285.282.12.533.271.755.454.224.182.4.402.531.66.13.257.195.56.195.906 0 .469-.12.881-.359 1.238-.24.354-.586.632-1.04.832-.45.198-.995.297-1.636.297-.622 0-1.163-.096-1.62-.289a2.414 2.414 0 0 1-1.071-.844c-.255-.37-.394-.82-.414-1.351h1.425c.021.278.107.51.258.695.151.185.348.323.59.414.245.091.518.137.82.137.316 0 .592-.047.829-.14.24-.097.427-.23.562-.4a.962.962 0 0 0 .207-.6.765.765 0 0 0-.183-.516 1.345 1.345 0 0 0-.504-.344 4.857 4.857 0 0 0-.75-.25l-.91-.235c-.66-.169-1.18-.425-1.563-.77-.38-.345-.57-.805-.57-1.378 0-.471.127-.884.383-1.238a2.53 2.53 0 0 1 1.05-.825 3.647 3.647 0 0 1 1.504-.296c.568 0 1.065.099 1.492.296.43.196.767.468 1.012.817.245.346.371.745.379 1.195h-1.395Zm2.445-.984V7h6.383v1.215h-2.473V15H32.9V8.215h-2.472Z"/>
</svg>
