<svg width="16" height="16" viewBox="0 0 16 16" fill="none" xmlns="http://www.w3.org/2000/svg">
<path d="M12.8002 12.2C12.8002 12.6774 12.6104 13.1351 12.2729 13.4727C11.9353 13.8102 11.4776 14 11.0002 14H5.0002C4.52281 14 4.0651 13.8102 3.72754 13.4727C3.38997 13.1351 3.2002 12.6774 3.2002 12.2V3.8C3.2002 3.32261 3.38997 2.86491 3.72754 2.52734C4.0651 2.18978 4.52281 2 5.0002 2H9.2002L9.25938 2.00293C9.39677 2.01654 9.52593 2.0773 9.62441 2.17578L12.6244 5.17578C12.7369 5.2883 12.8002 5.44087 12.8002 5.6V12.2ZM10.7518 5L9.8002 4.04844V5H10.7518ZM4.4002 12.2L4.40313 12.2592C4.41674 12.3966 4.47749 12.5257 4.57598 12.6242C4.6885 12.7367 4.84107 12.8 5.0002 12.8H11.0002C11.1593 12.8 11.3119 12.7367 11.4244 12.6242C11.5369 12.5117 11.6002 12.3591 11.6002 12.2V6.2H9.8002C9.48194 6.2 9.1768 6.07348 8.95176 5.84844C8.72671 5.62339 8.6002 5.31826 8.6002 5V3.2H5.0002C4.84107 3.2 4.6885 3.26326 4.57598 3.37578C4.46345 3.4883 4.4002 3.64087 4.4002 3.8V12.2Z" fill="white" fill-opacity="0.7"/>
</svg>
