<svg width="383" height="360" viewBox="0 0 383 360" fill="none" xmlns="http://www.w3.org/2000/svg">
<g clip-path="url(#clip0_1223_5130)">
<path fill-rule="evenodd" clip-rule="evenodd" d="M104.213 263.237C99.5149 264.608 94.5954 261.909 93.2253 257.211C91.8551 252.513 94.5532 247.593 99.2516 246.223C103.95 244.853 108.87 247.551 110.24 252.249C111.61 256.948 108.912 261.867 104.213 263.237ZM103.717 261.536C99.9584 262.632 96.0228 260.474 94.9267 256.715C94.4381 255.039 94.5962 253.329 95.2545 251.85L107.485 258.873C106.594 260.113 105.297 261.075 103.717 261.536ZM96.1712 250.333L108.333 257.317C108.887 255.908 108.995 254.311 108.538 252.746C107.442 248.987 103.506 246.828 99.7478 247.924C98.2779 248.353 97.0527 249.216 96.1712 250.333Z" fill="#7097E0" fill-opacity="0.67"/>
</g>
<g clip-path="url(#clip1_1223_5130)">
<path fill-rule="evenodd" clip-rule="evenodd" d="M357.321 97.3561C350.273 99.4113 342.894 95.3642 340.839 88.3166C338.784 81.269 342.831 73.8898 349.878 71.8346C356.926 69.7794 364.305 73.8265 366.36 80.8741C368.416 87.9217 364.368 95.3009 357.321 97.3561ZM356.577 94.804C350.938 96.4481 345.035 93.2104 343.391 87.5724C342.658 85.0591 342.895 82.4931 343.883 80.2752L362.229 90.8102C360.891 92.6698 358.946 94.113 356.577 94.804ZM345.258 77.9992L363.501 88.4751C364.331 86.3615 364.493 83.9669 363.808 81.6183C362.164 75.9803 356.261 72.7425 350.623 74.3867C348.418 75.0297 346.58 76.3241 345.258 77.9992Z" fill="#5978B2" fill-opacity="0.66"/>
</g>
<g clip-path="url(#clip2_1223_5130)">
<path fill-rule="evenodd" clip-rule="evenodd" d="M25.3209 167.356C18.2733 169.411 10.8941 165.364 8.83887 158.317C6.78366 151.269 10.8308 143.89 17.8784 141.835C24.926 139.779 32.3052 143.826 34.3604 150.874C36.4156 157.922 32.3685 165.301 25.3209 167.356ZM24.5767 164.804C18.9386 166.448 13.0352 163.21 11.391 157.572C10.6581 155.059 10.8953 152.493 11.8827 150.275L30.2289 160.81C28.8916 162.67 26.9461 164.113 24.5767 164.804ZM13.2577 147.999L31.501 158.475C32.331 156.361 32.4932 153.967 31.8083 151.618C30.1641 145.98 24.2607 142.743 18.6226 144.387C16.4178 145.03 14.58 146.324 13.2577 147.999Z" fill="#5978B2" fill-opacity="0.47"/>
</g>
<g clip-path="url(#clip3_1223_5130)">
<path fill-rule="evenodd" clip-rule="evenodd" d="M358.466 217.308C359.52 219.657 358.471 222.415 356.123 223.47C353.774 224.525 351.016 223.476 349.961 221.127C348.906 218.779 349.955 216.02 352.304 214.965C354.652 213.911 357.411 214.96 358.466 217.308ZM357.615 217.69C358.459 219.569 357.62 221.776 355.741 222.62C354.903 222.996 354.001 223.037 353.183 222.802L355.955 215.92C356.665 216.295 357.261 216.901 357.615 217.69ZM352.326 222.434L355.082 215.591C354.308 215.405 353.468 215.464 352.686 215.816C350.807 216.66 349.968 218.867 350.812 220.745C351.141 221.48 351.68 222.056 352.326 222.434Z" fill="#AFC6F1" fill-opacity="0.81"/>
</g>
<g clip-path="url(#clip4_1223_5130)">
<path fill-rule="evenodd" clip-rule="evenodd" d="M80.1342 47.4762C80.9146 50.3765 79.196 53.3602 76.2958 54.1406C73.3955 54.921 70.4117 53.2025 69.6313 50.3022C68.8509 47.4019 70.5694 44.4181 73.4697 43.6378C76.37 42.8574 79.3538 44.5759 80.1342 47.4762ZM79.0839 47.7588C79.7082 50.079 78.3334 52.466 76.0132 53.0903C74.9789 53.3686 73.9313 53.2497 73.0326 52.8269L77.4986 45.4126C78.2478 45.9756 78.8215 46.7837 79.0839 47.7588ZM72.1134 52.245L76.5543 44.8723C75.6969 44.5148 74.7188 44.428 73.7523 44.688C71.4321 45.3124 70.0573 47.6994 70.6816 50.0196C70.9257 50.927 71.4395 51.6898 72.1134 52.245Z" fill="#95ADD9"/>
</g>
<path fill-rule="evenodd" clip-rule="evenodd" d="M268.248 33.3305C272.71 34.3489 275.502 38.7916 274.483 43.2536C273.465 47.7155 269.022 50.507 264.56 49.4886C260.098 48.4701 257.307 44.0274 258.325 39.5655C259.343 35.1036 263.786 32.3121 268.248 33.3305ZM267.879 34.9463C271.449 35.761 273.682 39.3152 272.867 42.8847C272.504 44.4759 271.597 45.8016 270.386 46.71L263.589 35.407C264.882 34.7998 266.379 34.6039 267.879 34.9463ZM268.947 47.5326L262.188 36.2929C261.095 37.1924 260.28 38.4474 259.941 39.9343C259.126 43.5038 261.359 47.058 264.929 47.8728C266.325 48.1914 267.718 48.0439 268.947 47.5326Z" fill="#5978B2" fill-opacity="0.34"/>
<path fill-rule="evenodd" clip-rule="evenodd" d="M380.887 359.828C381.017 359.945 381.179 360.002 381.339 360.002C381.523 360.002 381.708 359.927 381.841 359.779C382.093 359.502 382.071 359.074 381.793 358.825C373.932 351.745 365.64 345.092 357.013 338.938L356.569 340.28C365.031 346.336 373.168 352.875 380.887 359.828ZM245.916 293.265L248.951 292.464C248.247 292.327 247.543 292.193 246.838 292.062C232.551 289.403 218.026 287.866 203.332 287.466V288.816C217.711 289.209 231.928 290.697 245.916 293.265Z" fill="#5978B2"/>
<path fill-rule="evenodd" clip-rule="evenodd" d="M10.238 359.828C18.7204 352.187 27.7078 345.046 37.0779 338.496V336.85C27.3831 343.577 18.09 350.936 9.33194 358.825C9.05629 359.074 9.03399 359.502 9.2833 359.779C9.5326 360.055 9.96027 360.077 10.238 359.828ZM190.902 287.398C173.187 287.687 155.709 289.624 138.591 293.184L138.721 294.535C155.796 290.974 173.231 289.037 190.902 288.748V287.398Z" fill="#5978B2"/>
<path d="M55.3109 344.948C55.0028 344.948 54.7251 344.735 54.6521 344.423C54.569 344.06 54.796 343.698 55.1609 343.615C55.3413 343.574 73.5344 339.348 94.7294 328.636C109.896 320.971 121.024 311.782 127.686 305.425C133.37 300.002 136.848 295.677 138.082 294.063L116.897 285.243C116.293 285.184 112.349 284.892 105.259 286.391C92.3843 289.116 79.2238 295.545 70.4516 300.46C53.7238 309.833 39.4081 324.82 37.6609 326.683V337.734C37.6609 338.107 37.3589 338.408 36.986 338.408C36.613 338.408 36.311 338.107 36.311 337.734V326.418C36.311 326.25 36.3739 326.086 36.4894 325.962C36.6414 325.798 51.8348 309.345 69.7928 299.283C78.6806 294.304 92.0194 287.791 105.093 285.046C112.973 283.391 116.99 283.889 117.159 283.912C117.217 283.92 117.276 283.934 117.331 283.958L139.406 293.149C139.596 293.228 139.738 293.388 139.795 293.587C139.851 293.783 139.815 293.996 139.695 294.164C139.659 294.217 135.923 299.435 128.623 306.402C121.893 312.821 110.658 322.099 95.3435 329.842C73.9905 340.633 55.6494 344.891 55.4649 344.931C55.4142 344.944 55.3636 344.948 55.3129 344.948H55.3109Z" fill="#5978B2"/>
<path d="M46.1436 327.328C45.874 327.328 45.6186 327.166 45.5132 326.898C45.3774 326.552 45.5497 326.159 45.8963 326.023C45.9409 326.005 50.6453 324.148 73.1252 313.774C95.4998 303.448 104.084 294.11 104.169 294.016C104.418 293.739 104.846 293.717 105.123 293.968C105.401 294.217 105.423 294.644 105.174 294.922C105.085 295.019 102.957 297.365 97.9928 301.028C93.4365 304.39 85.5236 309.544 73.6948 315.001C51.1358 325.412 46.5753 327.21 46.3929 327.283C46.3118 327.316 46.2287 327.33 46.1476 327.33L46.1436 327.328Z" fill="#5978B2"/>
<path d="M350.235 341.023C347.762 341.023 344.697 340.928 341.112 340.636C331.796 339.879 317.093 337.582 299.942 330.941C290.491 327.283 276.353 321.155 262.676 312.74C254.479 307.698 250.272 304.169 250.231 304.132C249.945 303.891 249.911 303.466 250.15 303.18C250.391 302.895 250.817 302.86 251.103 303.099C251.143 303.134 255.296 306.616 263.42 311.609C270.917 316.218 283.423 323.093 300.433 329.679C317.412 336.253 331.96 338.532 341.175 339.285C348.749 339.905 354.059 339.624 356.208 339.449L347.837 326.004C346.629 324.994 331.703 312.72 307.766 301.624C296.421 296.366 287.14 292.823 279.398 290.793C272.385 288.953 267.905 288.718 264.786 288.718C262.921 288.718 250.634 291.99 246.056 293.252C245.695 293.351 245.324 293.141 245.225 292.78C245.125 292.421 245.336 292.049 245.697 291.949C247.4 291.481 262.398 287.367 264.786 287.367C272.415 287.367 283.557 288.915 308.333 300.401C321.415 306.464 331.711 312.837 338.045 317.113C344.918 321.754 348.753 325.012 348.79 325.044C348.842 325.089 348.889 325.141 348.925 325.2L357.929 339.66C358.05 339.854 358.064 340.1 357.965 340.306C357.866 340.515 357.669 340.657 357.44 340.687C357.28 340.707 354.736 341.023 350.235 341.023Z" fill="#5978B2"/>
<path d="M338.154 326.12C338.13 326.12 338.105 326.12 338.081 326.116C337.894 326.096 319.148 323.979 298.48 314.808C292.521 312.165 283.82 307.913 276.221 302.674C271.65 299.524 269.664 297.529 269.583 297.445C269.322 297.18 269.324 296.753 269.589 296.491C269.855 296.23 270.282 296.232 270.544 296.497C270.641 296.595 278.633 304.525 299.027 313.575C319.493 322.656 338.04 324.753 338.225 324.773C338.596 324.813 338.863 325.146 338.823 325.516C338.784 325.863 338.492 326.118 338.152 326.118L338.154 326.12Z" fill="#5978B2"/>
<path d="M198.151 298.609C200.525 298.821 202.591 296.997 202.673 294.615L209.877 85.4246C209.947 83.3942 208.484 81.6338 206.475 81.3315L200.954 80.5006C199.181 80.2339 197.572 81.5709 197.509 83.3623L190.138 293.948C190.06 296.153 191.721 298.034 193.919 298.231L198.151 298.609Z" stroke="#5978B2" stroke-width="2.0717"/>
<path d="M113.965 100.809L294.133 108.177C295.207 108.221 296.219 108.695 296.939 109.493L315.9 130.502C317.46 132.231 317.22 134.921 315.378 136.346L297.266 150.354C296.486 150.957 295.509 151.251 294.525 151.179L112.453 137.778L113.965 100.809Z" fill="#1D1D1D" stroke="#5978B2" stroke-width="2"/>
<path d="M281.453 161.348L118.262 165.965C117.703 165.981 117.153 166.114 116.648 166.356L99.1345 174.739C96.5883 175.958 96.0716 179.359 98.1409 181.279L115.364 197.258C116.11 197.95 117.091 198.332 118.108 198.326L282.472 197.333L281.453 161.348Z" fill="#1D1D1D" stroke="#5978B2" stroke-width="2"/>
<defs>
<clipPath id="clip0_1223_5130">
<rect width="22.1538" height="22.1538" fill="white" transform="translate(109.268 241) rotate(73.7424)"/>
</clipPath>
<clipPath id="clip1_1223_5130">
<rect width="33.2308" height="33.2308" fill="white" transform="translate(364.902 64) rotate(73.7424)"/>
</clipPath>
<clipPath id="clip2_1223_5130">
<rect width="33.2308" height="33.2308" fill="white" transform="translate(32.9023 134) rotate(73.7424)"/>
</clipPath>
<clipPath id="clip3_1223_5130">
<rect width="12.4302" height="12.4302" fill="white" transform="translate(346 216.094) rotate(-24.1831)"/>
</clipPath>
<clipPath id="clip4_1223_5130">
<rect width="14.5019" height="14.5019" fill="white" transform="translate(66 43.7695) rotate(-15.0601)"/>
</clipPath>
</defs>
</svg>
