<svg width="69" height="22" viewBox="0 0 69 22" fill="none" xmlns="http://www.w3.org/2000/svg">
<rect x="0.5" y="0.5" width="68" height="21" rx="3.5" stroke="white" stroke-opacity="0.3"/>
<path d="M13.1367 9.19922C13.1003 8.85807 12.9466 8.59245 12.6758 8.40234C12.4076 8.21224 12.0586 8.11719 11.6289 8.11719C11.3268 8.11719 11.0677 8.16276 10.8516 8.25391C10.6354 8.34505 10.4701 8.46875 10.3555 8.625C10.2409 8.78125 10.1823 8.95964 10.1797 9.16016C10.1797 9.32682 10.2174 9.47135 10.293 9.59375C10.3711 9.71615 10.4766 9.82031 10.6094 9.90625C10.7422 9.98958 10.8893 10.0599 11.0508 10.1172C11.2122 10.1745 11.375 10.2227 11.5391 10.2617L12.2891 10.4492C12.5911 10.5195 12.8815 10.6146 13.1602 10.7344C13.4414 10.8542 13.6927 11.0052 13.9141 11.1875C14.138 11.3698 14.3151 11.5898 14.4453 11.8477C14.5755 12.1055 14.6406 12.4076 14.6406 12.7539C14.6406 13.2227 14.5208 13.6354 14.2813 13.9922C14.0417 14.3464 13.6953 14.6237 13.2422 14.8242C12.7917 15.0221 12.2461 15.1211 11.6055 15.1211C10.9831 15.1211 10.4427 15.0247 9.98438 14.832C9.52865 14.6393 9.17188 14.3581 8.91406 13.9883C8.65885 13.6185 8.52083 13.168 8.5 12.6367H9.92578C9.94661 12.9154 10.0326 13.1471 10.1836 13.332C10.3346 13.5169 10.5313 13.6549 10.7734 13.7461C11.0182 13.8372 11.2917 13.8828 11.5938 13.8828C11.9089 13.8828 12.1849 13.8359 12.4219 13.7422C12.6615 13.6458 12.849 13.513 12.9844 13.3437C13.1198 13.1719 13.1888 12.9714 13.1914 12.7422C13.1888 12.5339 13.1276 12.362 13.0078 12.2266C12.888 12.0885 12.7201 11.974 12.5039 11.8828C12.2904 11.7891 12.0404 11.7057 11.7539 11.6328L10.8438 11.3984C10.1849 11.2292 9.66406 10.9727 9.28125 10.6289C8.90104 10.2826 8.71094 9.82292 8.71094 9.25C8.71094 8.77865 8.83854 8.36589 9.09375 8.01172C9.35156 7.65755 9.70182 7.38281 10.1445 7.1875C10.5872 6.98958 11.0885 6.89062 11.6484 6.89062C12.2161 6.89062 12.7135 6.98958 13.1406 7.1875C13.5703 7.38281 13.9076 7.65495 14.1523 8.00391C14.3971 8.35026 14.5234 8.7487 14.5312 9.19922H13.1367ZM16.2626 15V7H21.4657V8.21484H17.7118V10.3867H21.1962V11.6016H17.7118V13.7852H21.497V15H16.2626ZM30.1219 9.69922H28.661C28.6193 9.45964 28.5425 9.2474 28.4305 9.0625C28.3185 8.875 28.1792 8.71615 28.0125 8.58594C27.8459 8.45573 27.6558 8.35807 27.4422 8.29297C27.2313 8.22526 27.0034 8.19141 26.7586 8.19141C26.3237 8.19141 25.9383 8.30078 25.6024 8.51953C25.2664 8.73568 25.0034 9.05339 24.8133 9.47266C24.6232 9.88932 24.5282 10.3984 24.5282 11C24.5282 11.612 24.6232 12.1276 24.8133 12.5469C25.006 12.9635 25.269 13.2786 25.6024 13.4922C25.9383 13.7031 26.3224 13.8086 26.7547 13.8086C26.9943 13.8086 27.2183 13.7773 27.4266 13.7148C27.6375 13.6497 27.8263 13.5547 27.993 13.4297C28.1623 13.3047 28.3042 13.151 28.4188 12.9687C28.536 12.7865 28.6167 12.5781 28.661 12.3437L30.1219 12.3516C30.0672 12.7318 29.9487 13.0885 29.7664 13.4219C29.5868 13.7552 29.3511 14.0495 29.0594 14.3047C28.7677 14.5573 28.4266 14.7552 28.036 14.8984C27.6454 15.0391 27.2118 15.1094 26.7352 15.1094C26.0321 15.1094 25.4045 14.9466 24.8524 14.6211C24.3003 14.2956 23.8654 13.8255 23.5477 13.2109C23.23 12.5964 23.0711 11.8594 23.0711 11C23.0711 10.138 23.2313 9.40104 23.5516 8.78906C23.8719 8.17448 24.3081 7.70443 24.8602 7.37891C25.4123 7.05339 26.0373 6.89062 26.7352 6.89062C27.1805 6.89062 27.5946 6.95312 27.9774 7.07812C28.3602 7.20312 28.7013 7.38672 29.0008 7.62891C29.3003 7.86849 29.5464 8.16276 29.7391 8.51172C29.9344 8.85807 30.062 9.25391 30.1219 9.69922ZM31.7791 15V7H34.7791C35.3936 7 35.9093 7.10677 36.3259 7.32031C36.7452 7.53385 37.0616 7.83333 37.2752 8.21875C37.4913 8.60156 37.5994 9.04818 37.5994 9.55859C37.5994 10.0716 37.49 10.5169 37.2713 10.8945C37.0551 11.2695 36.7361 11.5599 36.3142 11.7656C35.8923 11.9687 35.3741 12.0703 34.7595 12.0703H32.6228V10.8672H34.5642C34.9236 10.8672 35.2179 10.8177 35.447 10.7187C35.6762 10.6172 35.8455 10.4701 35.9548 10.2773C36.0668 10.082 36.1228 9.84245 36.1228 9.55859C36.1228 9.27474 36.0668 9.03255 35.9548 8.83203C35.8429 8.62891 35.6723 8.47526 35.4431 8.37109C35.214 8.26432 34.9184 8.21094 34.5564 8.21094H33.2283V15H31.7791ZM35.9119 11.375L37.8923 15H36.2752L34.3298 11.375H35.9119ZM39.2634 15V7H44.4665V8.21484H40.7126V10.3867H44.197V11.6016H40.7126V13.7852H44.4977V15H39.2634ZM45.9234 8.21484V7H52.3063V8.21484H49.8336V15H48.3961V8.21484H45.9234ZM58.2144 9.19922C58.1779 8.85807 58.0243 8.59245 57.7534 8.40234C57.4852 8.21224 57.1362 8.11719 56.7066 8.11719C56.4045 8.11719 56.1454 8.16276 55.9292 8.25391C55.7131 8.34505 55.5477 8.46875 55.4331 8.625C55.3185 8.78125 55.2599 8.95964 55.2573 9.16016C55.2573 9.32682 55.2951 9.47135 55.3706 9.59375C55.4487 9.71615 55.5542 9.82031 55.687 9.90625C55.8198 9.98958 55.967 10.0599 56.1284 10.1172C56.2899 10.1745 56.4527 10.2227 56.6167 10.2617L57.3667 10.4492C57.6688 10.5195 57.9592 10.6146 58.2378 10.7344C58.5191 10.8542 58.7704 11.0052 58.9917 11.1875C59.2157 11.3698 59.3928 11.5898 59.523 11.8477C59.6532 12.1055 59.7183 12.4076 59.7183 12.7539C59.7183 13.2227 59.5985 13.6354 59.3589 13.9922C59.1193 14.3464 58.773 14.6237 58.3198 14.8242C57.8693 15.0221 57.3237 15.1211 56.6831 15.1211C56.0607 15.1211 55.5204 15.0247 55.062 14.832C54.6063 14.6393 54.2495 14.3581 53.9917 13.9883C53.7365 13.6185 53.5985 13.168 53.5777 12.6367H55.0034C55.0243 12.9154 55.1102 13.1471 55.2612 13.332C55.4123 13.5169 55.6089 13.6549 55.8511 13.7461C56.0959 13.8372 56.3693 13.8828 56.6714 13.8828C56.9865 13.8828 57.2626 13.8359 57.4995 13.7422C57.7391 13.6458 57.9266 13.513 58.062 13.3437C58.1974 13.1719 58.2665 12.9714 58.2691 12.7422C58.2665 12.5339 58.2053 12.362 58.0855 12.2266C57.9657 12.0885 57.7977 11.974 57.5816 11.8828C57.368 11.7891 57.118 11.7057 56.8316 11.6328L55.9214 11.3984C55.2626 11.2292 54.7417 10.9727 54.3589 10.6289C53.9787 10.2826 53.7886 9.82292 53.7886 9.25C53.7886 8.77865 53.9162 8.36589 54.1714 8.01172C54.4292 7.65755 54.7795 7.38281 55.2222 7.1875C55.6649 6.98958 56.1662 6.89062 56.7261 6.89062C57.2938 6.89062 57.7912 6.98958 58.2183 7.1875C58.648 7.38281 58.9852 7.65495 59.23 8.00391C59.4748 8.35026 59.6011 8.7487 59.6089 9.19922H58.2144Z" fill="white" fill-opacity="0.7"/>
</svg>
