<svg width="609" height="20" viewBox="0 0 609 20" fill="none" xmlns="http://www.w3.org/2000/svg">
<rect x="0.5" y="0.5" width="82.1739" height="19" rx="1.25744" stroke="url(#paint0_linear_1671_12783)"/>
<path d="M8.81627 6.18758C8.89733 5.98205 9.1882 5.98205 9.26926 6.18758L10.2436 8.65793C10.2683 8.72068 10.318 8.77035 10.3807 8.7951L12.8511 9.76939C13.0566 9.85045 13.0566 10.1413 12.8511 10.2224L10.3807 11.1967C10.318 11.2214 10.2683 11.2711 10.2436 11.3339L9.26926 13.8042C9.1882 14.0097 8.89733 14.0097 8.81627 13.8042L7.84197 11.3339C7.81723 11.2711 7.76755 11.2214 7.7048 11.1967L5.23445 10.2224C5.02892 10.1413 5.02892 9.85045 5.23445 9.76939L7.7048 8.7951C7.76755 8.77035 7.81723 8.72068 7.84197 8.65793L8.81627 6.18758Z" stroke="#343434" stroke-opacity="0.7" stroke-width="0.973913"/>
<path d="M16.2894 10.4939C16.2894 8.33461 17.8143 6.85426 19.8066 6.85426C21.8769 6.85426 23.0233 8.15652 23.1457 9.92626L21.8101 9.98191C21.7099 8.93565 21.0866 8.07861 19.8066 8.07861C18.56 8.07861 17.7363 9.01356 17.7363 10.4939C17.7363 11.9743 18.56 12.9092 19.8066 12.9092C21.0866 12.9092 21.7099 12.0522 21.8101 11.0059L23.1457 11.0616C23.0233 12.8424 21.8769 14.1336 19.8066 14.1336C17.8143 14.1336 16.2894 12.6532 16.2894 10.4939ZM28.6337 9.09148L26.8306 11.4289L28.8341 14H27.3203L26.0737 12.3638L24.8271 14H23.4247L25.3948 11.4845L23.5805 9.09148H25.0831L26.1517 10.5384L27.2313 9.09148H28.6337ZM36.2713 10.4939C36.2713 12.6532 34.7576 14.1336 32.7207 14.1336C30.6727 14.1336 29.159 12.6532 29.159 10.4939C29.159 8.33461 30.6727 6.85426 32.7207 6.85426C34.7576 6.85426 36.2713 8.33461 36.2713 10.4939ZM34.8355 10.4939C34.8355 9.0247 34.0118 8.07861 32.7207 8.07861C31.4296 8.07861 30.6059 9.0247 30.6059 10.4939C30.6059 11.9631 31.4296 12.9092 32.7207 12.9092C34.0118 12.9092 34.8355 11.9631 34.8355 10.4939ZM38.4685 11.3732V14H37.1329V9.09148H38.4685V9.89287C38.7134 9.33635 39.3367 8.95791 40.0713 8.95791C41.3847 8.95791 41.8633 9.84835 41.8633 10.9391V14H40.5277V11.2063C40.5277 10.4494 40.2271 10.0153 39.5704 10.0153C38.8915 10.0153 38.4685 10.5496 38.4685 11.3732ZM46.5323 12.2859L47.612 12.3972C47.356 13.488 46.5101 14.1336 45.2523 14.1336C43.7386 14.1336 42.6478 13.1652 42.6478 11.6181C42.6478 10.071 43.7497 8.95791 45.219 8.95791C46.8217 8.95791 47.6454 10.071 47.6454 11.4066V11.8852H43.9612C44.0057 12.6087 44.5734 13.1207 45.2969 13.1207C45.9536 13.1207 46.3431 12.8424 46.5323 12.2859ZM43.9835 11.0504H46.3431C46.2986 10.4828 45.9536 9.93739 45.2078 9.93739C44.4732 9.93739 44.1059 10.4383 43.9835 11.0504ZM52.8398 6.98783H54.387L57.2475 14H55.7671L55.0659 12.2637H52.083L51.404 14H50.0016L52.8398 6.98783ZM53.541 8.56835L52.5059 11.1951H54.643L53.5856 8.56835H53.541ZM57.5267 12.375L58.6843 12.3304C58.7622 12.9203 59.2074 13.2209 59.8864 13.2209C60.3761 13.2209 60.7768 13.0539 60.7768 12.6977C60.7768 12.3638 60.5542 12.2191 60.0644 12.1412L59.2853 12.0077C58.239 11.8407 57.6603 11.4511 57.6603 10.5384C57.6603 9.60348 58.4505 8.95791 59.6971 8.95791C61.055 8.95791 61.8676 9.57009 61.9566 10.6609L60.8547 10.7054C60.7657 10.1489 60.3872 9.87061 59.686 9.87061C59.2074 9.87061 58.8957 10.0821 58.8957 10.416C58.8957 10.6831 59.0738 10.839 59.43 10.8946L60.365 11.0504C61.4001 11.2174 62.0123 11.6515 62.0123 12.5753C62.0123 13.577 61.1441 14.1336 59.8752 14.1336C58.5952 14.1336 57.6157 13.577 57.5267 12.375ZM62.4941 12.375L63.6517 12.3304C63.7296 12.9203 64.1748 13.2209 64.8537 13.2209C65.3435 13.2209 65.7442 13.0539 65.7442 12.6977C65.7442 12.3638 65.5216 12.2191 65.0318 12.1412L64.2527 12.0077C63.2064 11.8407 62.6277 11.4511 62.6277 10.5384C62.6277 9.60348 63.4179 8.95791 64.6645 8.95791C66.0224 8.95791 66.835 9.57009 66.924 10.6609L65.8221 10.7054C65.733 10.1489 65.3546 9.87061 64.6534 9.87061C64.1748 9.87061 63.8631 10.0821 63.8631 10.416C63.8631 10.6831 64.0412 10.839 64.3974 10.8946L65.3323 11.0504C66.3675 11.2174 66.9797 11.6515 66.9797 12.5753C66.9797 13.577 66.1115 14.1336 64.8426 14.1336C63.5626 14.1336 62.5831 13.577 62.4941 12.375ZM67.8177 9.09148H69.1533V14H67.8177V9.09148ZM67.7954 8.29009V6.98783H69.1644V8.29009H67.7954ZM69.918 12.375L71.0756 12.3304C71.1535 12.9203 71.5987 13.2209 72.2777 13.2209C72.7674 13.2209 73.1681 13.0539 73.1681 12.6977C73.1681 12.3638 72.9455 12.2191 72.4557 12.1412L71.6766 12.0077C70.6304 11.8407 70.0516 11.4511 70.0516 10.5384C70.0516 9.60348 70.8418 8.95791 72.0884 8.95791C73.4464 8.95791 74.2589 9.57009 74.3479 10.6609L73.246 10.7054C73.157 10.1489 72.7785 9.87061 72.0773 9.87061C71.5987 9.87061 71.287 10.0821 71.287 10.416C71.287 10.6831 71.4651 10.839 71.8213 10.8946L72.7563 11.0504C73.7914 11.2174 74.4036 11.6515 74.4036 12.5753C74.4036 13.577 73.5354 14.1336 72.2665 14.1336C70.9865 14.1336 70.007 13.577 69.918 12.375ZM75.4085 12.7534V10.0264H74.7073V9.23617L75.0412 9.18052C75.5198 9.10261 75.6534 8.85774 75.7647 8.40139L75.9205 7.73356H76.733V9.09148H78.0687V10.0264H76.733V12.4529C76.733 12.8758 76.9223 13.065 77.323 13.065C77.5901 13.065 77.8684 12.9649 78.1577 12.8313V13.7106C77.8016 13.9777 77.4009 14.1336 76.7998 14.1336C76.043 14.1336 75.4085 13.7997 75.4085 12.7534Z" fill="#343434" fill-opacity="0.7"/>
<defs>
<linearGradient id="paint0_linear_1671_12783" x1="0" y1="0" x2="73.0086" y2="39.0199" gradientUnits="userSpaceOnUse">
<stop stop-color="#76CFFF"/>
<stop offset="0.8125" stop-color="#1709C2"/>
</linearGradient>
</defs>
</svg>
