<?xml version="1.0" encoding="UTF-8"?>
<svg version="1.1" xmlns="http://www.w3.org/2000/svg" width="150" height="150">
<path d="M0 0 C0.51046875 0.42796875 1.0209375 0.8559375 1.546875 1.296875 C1.546875 1.956875 1.546875 2.616875 1.546875 3.296875 C2.124375 3.544375 2.701875 3.791875 3.296875 4.046875 C5.87627479 5.47987488 7.60809092 7.08112176 9.546875 9.296875 C9.546875 9.956875 9.546875 10.616875 9.546875 11.296875 C10.206875 11.296875 10.866875 11.296875 11.546875 11.296875 C13.09747864 13.3288055 14.49078487 15.33333215 15.859375 17.484375 C16.26164307 18.11496826 16.66391113 18.74556152 17.07836914 19.39526367 C27.85318048 36.80574225 30.44959152 57.84866281 26.859375 77.90625 C24.10422103 88.97278513 18.93210804 100.48798257 11.546875 109.296875 C10.886875 109.296875 10.226875 109.296875 9.546875 109.296875 C9.175625 110.163125 9.175625 110.163125 8.796875 111.046875 C7.36387512 113.62627479 5.76262824 115.35809092 3.546875 117.296875 C2.886875 117.296875 2.226875 117.296875 1.546875 117.296875 C1.546875 117.956875 1.546875 118.616875 1.546875 119.296875 C-0.4850555 120.84747864 -2.48958215 122.24078487 -4.640625 123.609375 C-5.27121826 124.01164307 -5.90181152 124.41391113 -6.55151367 124.82836914 C-23.96199225 135.60318048 -45.00491281 138.19959152 -65.0625 134.609375 C-76.12903513 131.85422103 -87.64423257 126.68210804 -96.453125 119.296875 C-96.453125 118.636875 -96.453125 117.976875 -96.453125 117.296875 C-97.319375 116.925625 -97.319375 116.925625 -98.203125 116.546875 C-100.78252479 115.11387512 -102.51434092 113.51262824 -104.453125 111.296875 C-104.453125 110.636875 -104.453125 109.976875 -104.453125 109.296875 C-105.113125 109.296875 -105.773125 109.296875 -106.453125 109.296875 C-108.00372864 107.2649445 -109.39703487 105.26041785 -110.765625 103.109375 C-111.16789307 102.47878174 -111.57016113 101.84818848 -111.98461914 101.19848633 C-122.75943048 83.78800775 -125.35584152 62.74508719 -121.765625 42.6875 C-119.01047103 31.62096487 -113.83835804 20.10576743 -106.453125 11.296875 C-105.793125 11.296875 -105.133125 11.296875 -104.453125 11.296875 C-104.205625 10.719375 -103.958125 10.141875 -103.703125 9.546875 C-102.27012512 6.96747521 -100.66887824 5.23565908 -98.453125 3.296875 C-97.793125 3.296875 -97.133125 3.296875 -96.453125 3.296875 C-96.453125 2.636875 -96.453125 1.976875 -96.453125 1.296875 C-94.4211945 -0.25372864 -92.41666785 -1.64703487 -90.265625 -3.015625 C-89.63503174 -3.41789307 -89.00443848 -3.82016113 -88.35473633 -4.23461914 C-60.35925837 -21.56016203 -26.63433543 -17.56732762 0 0 Z " fill="#32FAD5" transform="translate(122.453125,14.703125)"/>
<path d="M0 0 C3.41576045 0.49813173 4.81246717 0.7451519 7 3.4375 C7.86090239 6.9426026 8.1058734 8.13105024 7 11.4375 C4.04607942 15.20345452 0.59833494 18.296015 -3 21.4375 C-4.12341797 22.43523438 -4.12341797 22.43523438 -5.26953125 23.453125 C-6.58645363 24.61141237 -7.91144749 25.76061786 -9.24609375 26.8984375 C-10.87396202 28.32690097 -12.3775441 29.81205769 -13.875 31.375 C-16 33.4375 -16 33.4375 -18 33.4375 C-18 34.0975 -18 34.7575 -18 35.4375 C-19.64453125 37.05859375 -19.64453125 37.05859375 -21.8125 38.875 C-23.21343321 40.05647919 -24.6095077 41.2437504 -26 42.4375 C-26.60199219 42.92347656 -27.20398438 43.40945312 -27.82421875 43.91015625 C-29.23640154 45.37401071 -29.23640154 45.37401071 -28.76000977 47.35546875 C-27.87884947 49.76938941 -26.98934782 50.66103262 -25.015625 52.27734375 C-24.40976563 52.78330078 -23.80390625 53.28925781 -23.1796875 53.81054688 C-22.54289062 54.32681641 -21.90609375 54.84308594 -21.25 55.375 C-9.17428284 65.33370865 -9.17428284 65.33370865 -8.4375 70 C-9 73.4375 -9 73.4375 -10.5625 75.9375 C-13.21167335 77.56776052 -14.93291138 78.07789375 -18.015625 77.42578125 C-22.69945958 75.09308411 -25.79086835 70.44070006 -29 66.4375 C-29.77601562 65.48488281 -30.55203125 64.53226562 -31.3515625 63.55078125 C-33.25414077 61.19440781 -35.13610013 58.82451074 -37 56.4375 C-41.3033139 56.90245575 -43.05886238 59.34741016 -45.8125 62.5 C-46.25118408 62.99226074 -46.68986816 63.48452148 -47.1418457 63.99169922 C-49.14576969 66.25037484 -51.0847284 68.54433879 -52.9609375 70.91015625 C-55.80688259 74.45792943 -57.28260999 76.19431695 -61.6875 77.6875 C-65 77.4375 -65 77.4375 -67.4375 75.9375 C-69.66014672 72.38126525 -69.77040262 70.56965952 -69 66.4375 C-67.04839956 63.65775331 -64.59459983 61.60858268 -62 59.4375 C-61.08476563 58.65503906 -60.16953125 57.87257812 -59.2265625 57.06640625 C-51.08556345 50.24586415 -51.08556345 50.24586415 -47 48.4375 C-47 47.4475 -47 46.4575 -47 45.4375 C-47.54914063 45.20675781 -48.09828125 44.97601563 -48.6640625 44.73828125 C-51.65376418 43.07344737 -53.87547118 40.95999401 -56.375 38.625 C-59.40413915 35.81859167 -62.41310653 33.03352069 -65.625 30.4375 C-68.50336908 28.01361025 -68.9260633 27.2877721 -69.25 23.5625 C-69 20.4375 -69 20.4375 -67.9375 18.0625 C-66 16.4375 -66 16.4375 -62.625 15.875 C-58.02614556 16.58861534 -57.12631788 18.05409871 -54 21.4375 C-53.50790039 21.95916748 -53.01580078 22.48083496 -52.50878906 23.01831055 C-50.93258409 24.68999049 -49.37130635 26.37459597 -47.8125 28.0625 C-47.27947266 28.63484375 -46.74644531 29.2071875 -46.19726562 29.796875 C-43.91941297 32.26096718 -41.86520669 34.63968996 -40 37.4375 C-37.02363795 36.10170352 -34.96048142 34.64515397 -32.6875 32.3125 C-32.15511719 31.77367188 -31.62273437 31.23484375 -31.07421875 30.6796875 C-29.26042057 28.71900925 -27.50188575 26.72665699 -25.75 24.7109375 C-22.03283057 20.44455666 -18.19215621 16.30596451 -14.3125 12.1875 C-13.66216797 11.49398437 -13.01183594 10.80046875 -12.34179688 10.0859375 C-11.10188359 8.76639675 -9.85876011 7.44986203 -8.61181641 6.13696289 C-7.30732814 4.76153987 -6.01670817 3.37297235 -4.73046875 1.98046875 C-3 0.4375 -3 0.4375 0 0 Z " fill="#0D1E33" transform="translate(114,33.5625)"/>
</svg>
