<svg width="46" height="22" viewBox="0 0 46 22" fill="none" xmlns="http://www.w3.org/2000/svg">
<rect x="0.5" y="0.5" width="45" height="21" rx="3.5" stroke="#343434" stroke-opacity="0.3"/>
<path d="M13.1367 9.19922C13.1003 8.85807 12.9466 8.59245 12.6758 8.40234C12.4076 8.21224 12.0586 8.11719 11.6289 8.11719C11.3268 8.11719 11.0677 8.16276 10.8516 8.25391C10.6354 8.34505 10.4701 8.46875 10.3555 8.625C10.2409 8.78125 10.1823 8.95964 10.1797 9.16016C10.1797 9.32682 10.2174 9.47135 10.293 9.59375C10.3711 9.71615 10.4766 9.82031 10.6094 9.90625C10.7422 9.98958 10.8893 10.0599 11.0508 10.1172C11.2122 10.1745 11.375 10.2227 11.5391 10.2617L12.2891 10.4492C12.5911 10.5195 12.8815 10.6146 13.1602 10.7344C13.4414 10.8542 13.6927 11.0052 13.9141 11.1875C14.138 11.3698 14.3151 11.5898 14.4453 11.8477C14.5755 12.1055 14.6406 12.4076 14.6406 12.7539C14.6406 13.2227 14.5208 13.6354 14.2813 13.9922C14.0417 14.3464 13.6953 14.6237 13.2422 14.8242C12.7917 15.0221 12.2461 15.1211 11.6055 15.1211C10.9831 15.1211 10.4427 15.0247 9.98438 14.832C9.52865 14.6393 9.17188 14.3581 8.91406 13.9883C8.65885 13.6185 8.52083 13.168 8.5 12.6367H9.92578C9.94661 12.9154 10.0326 13.1471 10.1836 13.332C10.3346 13.5169 10.5313 13.6549 10.7734 13.7461C11.0182 13.8372 11.2917 13.8828 11.5938 13.8828C11.9089 13.8828 12.1849 13.8359 12.4219 13.7422C12.6615 13.6458 12.849 13.513 12.9844 13.3437C13.1198 13.1719 13.1888 12.9714 13.1914 12.7422C13.1888 12.5339 13.1276 12.362 13.0078 12.2266C12.888 12.0885 12.7201 11.974 12.5039 11.8828C12.2904 11.7891 12.0404 11.7057 11.7539 11.6328L10.8438 11.3984C10.1849 11.2292 9.66406 10.9727 9.28125 10.6289C8.90104 10.2826 8.71094 9.82292 8.71094 9.25C8.71094 8.77865 8.83854 8.36589 9.09375 8.01172C9.35156 7.65755 9.70182 7.38281 10.1445 7.1875C10.5872 6.98958 11.0885 6.89062 11.6484 6.89062C12.2161 6.89062 12.7135 6.98958 13.1406 7.1875C13.5703 7.38281 13.9076 7.65495 14.1523 8.00391C14.3971 8.35026 14.5234 8.7487 14.5312 9.19922H13.1367ZM16.8311 15H15.2842L18.1006 7H19.8896L22.71 15H21.1631L19.0264 8.64062H18.9639L16.8311 15ZM16.8818 11.8633H21.1006V13.0273H16.8818V11.8633ZM27.9824 9.19922C27.946 8.85807 27.7923 8.59245 27.5215 8.40234C27.2533 8.21224 26.9043 8.11719 26.4746 8.11719C26.1725 8.11719 25.9134 8.16276 25.6973 8.25391C25.4811 8.34505 25.3158 8.46875 25.2012 8.625C25.0866 8.78125 25.028 8.95964 25.0254 9.16016C25.0254 9.32682 25.0632 9.47135 25.1387 9.59375C25.2168 9.71615 25.3223 9.82031 25.4551 9.90625C25.5879 9.98958 25.735 10.0599 25.8965 10.1172C26.0579 10.1745 26.2207 10.2227 26.3848 10.2617L27.1348 10.4492C27.4368 10.5195 27.7272 10.6146 28.0059 10.7344C28.2871 10.8542 28.5384 11.0052 28.7598 11.1875C28.9837 11.3698 29.1608 11.5898 29.291 11.8477C29.4212 12.1055 29.4863 12.4076 29.4863 12.7539C29.4863 13.2227 29.3665 13.6354 29.127 13.9922C28.8874 14.3464 28.541 14.6237 28.0879 14.8242C27.6374 15.0221 27.0918 15.1211 26.4512 15.1211C25.8288 15.1211 25.2884 15.0247 24.8301 14.832C24.3743 14.6393 24.0176 14.3581 23.7598 13.9883C23.5046 13.6185 23.3665 13.168 23.3457 12.6367H24.7715C24.7923 12.9154 24.8783 13.1471 25.0293 13.332C25.1803 13.5169 25.377 13.6549 25.6191 13.7461C25.8639 13.8372 26.1374 13.8828 26.4395 13.8828C26.7546 13.8828 27.0306 13.8359 27.2676 13.7422C27.5072 13.6458 27.6947 13.513 27.8301 13.3437C27.9655 13.1719 28.0345 12.9714 28.0371 12.7422C28.0345 12.5339 27.9733 12.362 27.8535 12.2266C27.7337 12.0885 27.5658 11.974 27.3496 11.8828C27.1361 11.7891 26.8861 11.7057 26.5996 11.6328L25.6895 11.3984C25.0306 11.2292 24.5098 10.9727 24.127 10.6289C23.7467 10.2826 23.5566 9.82292 23.5566 9.25C23.5566 8.77865 23.6842 8.36589 23.9395 8.01172C24.1973 7.65755 24.5475 7.38281 24.9902 7.1875C25.4329 6.98958 25.9342 6.89062 26.4941 6.89062C27.0618 6.89062 27.5592 6.98958 27.9863 7.1875C28.416 7.38281 28.7533 7.65495 28.998 8.00391C29.2428 8.35026 29.3691 8.7487 29.377 9.19922H27.9824ZM30.4268 8.21484V7H36.8096V8.21484H34.3369V15H32.8994V8.21484H30.4268Z" fill="#343434" fill-opacity="0.7"/>
</svg>
