<svg width="10" height="12" viewBox="0 0 10 12" fill="none" xmlns="http://www.w3.org/2000/svg">
<path d="M9.79922 10.2C9.79922 10.6774 9.60944 11.1351 9.27188 11.4727C8.93431 11.8102 8.47661 12 7.99922 12H1.99922C1.52183 12 1.06413 11.8102 0.726562 11.4727C0.388997 11.1351 0.199219 10.6774 0.199219 10.2V1.8C0.199219 1.32261 0.388997 0.864909 0.726562 0.527344C1.06413 0.189778 1.52183 0 1.99922 0H6.19922L6.2584 0.00292969C6.3958 0.0165437 6.52495 0.0772954 6.62344 0.175781L9.62344 3.17578C9.73596 3.2883 9.79922 3.44087 9.79922 3.6V10.2ZM7.75078 3L6.79922 2.04844V3H7.75078ZM1.39922 10.2L1.40215 10.2592C1.41576 10.3966 1.47651 10.5257 1.575 10.6242C1.68752 10.7367 1.84009 10.8 1.99922 10.8H7.99922C8.15835 10.8 8.31092 10.7367 8.42344 10.6242C8.53596 10.5117 8.59922 10.3591 8.59922 10.2V4.2H6.79922C6.48096 4.2 6.17582 4.07348 5.95078 3.84844C5.72574 3.62339 5.59922 3.31826 5.59922 3V1.2H1.99922C1.84009 1.2 1.68752 1.26326 1.575 1.37578C1.46248 1.4883 1.39922 1.64087 1.39922 1.8V10.2Z" fill="#343434"/>
</svg>
