<svg width="382" height="435" viewBox="0 0 382 435" fill="none" xmlns="http://www.w3.org/2000/svg">
<g clip-path="url(#clip0_1661_11097)">
<path fill-rule="evenodd" clip-rule="evenodd" d="M103.388 263.237C98.6897 264.608 93.7702 261.909 92.4001 257.211C91.0299 252.513 93.728 247.593 98.4264 246.223C103.125 244.853 108.044 247.551 109.414 252.249C110.785 256.948 108.086 261.867 103.388 263.237ZM102.892 261.536C99.1332 262.632 95.1976 260.474 94.1015 256.715C93.6129 255.039 93.771 253.329 94.4293 251.85L106.66 258.873C105.769 260.113 104.472 261.075 102.892 261.536ZM95.346 250.333L107.508 257.317C108.061 255.908 108.17 254.311 107.713 252.746C106.617 248.987 102.681 246.828 98.9226 247.924C97.4527 248.353 96.2275 249.216 95.346 250.333Z" fill="#4696FF" fill-opacity="0.67"/>
</g>
<g clip-path="url(#clip1_1661_11097)">
<path fill-rule="evenodd" clip-rule="evenodd" d="M356.494 97.3561C349.447 99.4113 342.067 95.3642 340.012 88.3166C337.957 81.269 342.004 73.8898 349.052 71.8346C356.099 69.7794 363.479 73.8265 365.534 80.8741C367.589 87.9217 363.542 95.3009 356.494 97.3561ZM355.75 94.804C350.112 96.4481 344.209 93.2104 342.564 87.5724C341.831 85.0591 342.069 82.4931 343.056 80.2752L361.402 90.8102C360.065 92.6698 358.119 94.113 355.75 94.804ZM344.431 77.9992L362.674 88.4751C363.504 86.3615 363.666 83.9669 362.982 81.6183C361.337 75.9803 355.434 72.7425 349.796 74.3867C347.591 75.0297 345.753 76.3241 344.431 77.9992Z" fill="#4696FF" fill-opacity="0.66"/>
</g>
<g clip-path="url(#clip2_1661_11097)">
<path fill-rule="evenodd" clip-rule="evenodd" d="M24.4943 167.356C17.4467 169.411 10.0674 165.364 8.01221 158.317C5.957 151.269 10.0041 143.89 17.0517 141.835C24.0993 139.779 31.4786 143.826 33.5338 150.874C35.589 157.922 31.5419 165.301 24.4943 167.356ZM23.75 164.804C18.1119 166.448 12.2085 163.21 10.5644 157.572C9.83146 155.059 10.0686 152.493 11.056 150.275L29.4023 160.81C28.0649 162.67 26.1194 164.113 23.75 164.804ZM12.4311 147.999L30.6744 158.475C31.5043 156.361 31.6665 153.967 30.9816 151.618C29.3375 145.98 23.434 142.743 17.796 144.387C15.5911 145.03 13.7533 146.324 12.4311 147.999Z" fill="#4696FF" fill-opacity="0.47"/>
</g>
<g clip-path="url(#clip3_1661_11097)">
<path fill-rule="evenodd" clip-rule="evenodd" d="M357.645 217.308C358.699 219.657 357.65 222.415 355.302 223.47C352.953 224.525 350.195 223.476 349.14 221.127C348.085 218.779 349.134 216.02 351.483 214.965C353.831 213.911 356.59 214.96 357.645 217.308ZM356.794 217.69C357.638 219.569 356.799 221.776 354.92 222.62C354.082 222.996 353.18 223.037 352.362 222.802L355.134 215.92C355.844 216.295 356.44 216.901 356.794 217.69ZM351.505 222.434L354.261 215.591C353.487 215.405 352.647 215.464 351.865 215.816C349.986 216.66 349.147 218.867 349.99 220.745C350.32 221.48 350.859 222.056 351.505 222.434Z" fill="#4696FF" fill-opacity="0.81"/>
</g>
<g clip-path="url(#clip4_1661_11097)">
<path fill-rule="evenodd" clip-rule="evenodd" d="M79.3143 47.4762C80.0947 50.3765 78.3762 53.3602 75.4759 54.1406C72.5756 54.921 69.5919 53.2025 68.8115 50.3022C68.0311 47.4019 69.7496 44.4181 72.6499 43.6378C75.5502 42.8574 78.534 44.5759 79.3143 47.4762ZM78.2641 47.7588C78.8884 50.079 77.5136 52.466 75.1933 53.0903C74.1591 53.3686 73.1115 53.2497 72.2127 52.8269L76.6788 45.4126C77.428 45.9756 78.0017 46.7837 78.2641 47.7588ZM71.2935 52.245L75.7345 44.8723C74.8771 44.5148 73.899 44.428 72.9325 44.688C70.6123 45.3124 69.2374 47.6994 69.8618 50.0196C70.1059 50.927 70.6196 51.6898 71.2935 52.245Z" fill="#4696FF"/>
</g>
<path fill-rule="evenodd" clip-rule="evenodd" d="M267.427 33.3305C271.889 34.3489 274.681 38.7916 273.662 43.2536C272.644 47.7155 268.201 50.507 263.739 49.4886C259.277 48.4701 256.486 44.0274 257.504 39.5655C258.523 35.1036 262.965 32.3121 267.427 33.3305ZM267.058 34.9463C270.628 35.761 272.861 39.3152 272.046 42.8847C271.683 44.4759 270.776 45.8016 269.565 46.71L262.768 35.407C264.061 34.7998 265.558 34.6039 267.058 34.9463ZM268.126 47.5326L261.367 36.2929C260.274 37.1924 259.459 38.4474 259.12 39.9343C258.305 43.5038 260.538 47.058 264.108 47.8728C265.504 48.1914 266.898 48.0439 268.126 47.5326Z" fill="#4696FF" fill-opacity="0.34"/>
<path fill-rule="evenodd" clip-rule="evenodd" d="M380.066 359.828C380.196 359.945 380.358 360.002 380.518 360.002C380.702 360.002 380.887 359.927 381.021 359.779C381.272 359.502 381.25 359.074 380.972 358.825C373.111 351.745 364.819 345.092 356.193 338.938L355.748 340.28C364.211 346.336 372.347 352.875 380.066 359.828ZM245.095 293.265L248.13 292.464C247.426 292.327 246.722 292.193 246.017 292.062C231.731 289.403 217.205 287.866 202.511 287.466V288.816C216.89 289.209 231.107 290.697 245.095 293.265Z" fill="#4696FF"/>
<path fill-rule="evenodd" clip-rule="evenodd" d="M9.41715 359.828C17.8996 352.187 26.887 345.046 36.2571 338.496V336.85C26.5623 343.577 17.2692 350.936 8.51114 358.825C8.23549 359.074 8.21319 359.502 8.4625 359.779C8.7118 360.055 9.13947 360.077 9.41715 359.828ZM190.081 287.398C172.367 287.687 154.889 289.624 137.771 293.184L137.9 294.535C154.975 290.974 172.41 289.037 190.081 288.748V287.398Z" fill="#4696FF"/>
<path d="M54.492 344.948C54.1839 344.948 53.9063 344.735 53.8333 344.423C53.7502 344.06 53.9772 343.698 54.342 343.615C54.5224 343.574 72.7156 339.348 93.9105 328.636C109.078 320.971 120.205 311.782 126.867 305.425C132.551 300.002 136.029 295.677 137.263 294.063L116.078 285.243C115.474 285.184 111.53 284.892 104.44 286.391C91.5654 289.116 78.405 295.545 69.6327 300.46C52.905 309.833 38.5892 324.82 36.8421 326.683V337.734C36.8421 338.107 36.5401 338.408 36.1671 338.408C35.7942 338.408 35.4922 338.107 35.4922 337.734V326.418C35.4922 326.25 35.555 326.086 35.6706 325.962C35.8226 325.798 51.016 309.345 68.974 299.283C77.8618 294.304 91.2006 287.791 104.274 285.046C112.154 283.391 116.172 283.889 116.34 283.912C116.399 283.92 116.457 283.934 116.512 283.958L138.587 293.149C138.777 293.228 138.919 293.388 138.976 293.587C139.033 293.783 138.996 293.996 138.877 294.164C138.84 294.217 135.105 299.435 127.804 306.402C121.075 312.821 109.84 322.099 94.5247 329.842C73.1716 340.633 54.8305 344.891 54.6461 344.931C54.5954 344.944 54.5447 344.948 54.4941 344.948H54.492Z" fill="#4696FF"/>
<path d="M45.3213 327.328C45.0518 327.328 44.7964 327.166 44.691 326.898C44.5552 326.552 44.7275 326.159 45.074 326.023C45.1186 326.005 49.823 324.148 72.303 313.774C94.6775 303.448 103.261 294.11 103.346 294.016C103.596 293.739 104.023 293.717 104.301 293.968C104.579 294.217 104.601 294.644 104.352 294.922C104.263 295.019 102.134 297.365 97.1706 301.028C92.6142 304.39 84.7013 309.544 72.8725 315.001C50.3135 325.412 45.7531 327.21 45.5706 327.283C45.4896 327.316 45.4065 327.33 45.3254 327.33L45.3213 327.328Z" fill="#4696FF"/>
<path d="M349.413 341.023C346.941 341.023 343.876 340.928 340.29 340.636C330.975 339.879 316.272 337.582 299.121 330.941C289.669 327.283 275.532 321.155 261.855 312.74C253.658 307.698 249.45 304.169 249.41 304.132C249.124 303.891 249.09 303.466 249.329 303.18C249.57 302.895 249.996 302.86 250.281 303.099C250.322 303.134 254.475 306.616 262.599 311.609C270.096 316.218 282.602 323.093 299.611 329.679C316.59 336.253 331.139 338.532 340.353 339.285C347.928 339.905 353.238 339.624 355.387 339.449L347.016 326.004C345.808 324.994 330.882 312.72 306.944 301.624C295.6 296.366 286.319 292.823 278.576 290.793C271.563 288.953 267.084 288.718 263.965 288.718C262.1 288.718 249.813 291.99 245.234 293.252C244.874 293.351 244.503 293.141 244.403 292.78C244.304 292.421 244.515 292.049 244.876 291.949C246.578 291.481 261.577 287.367 263.965 287.367C271.594 287.367 282.736 288.915 307.512 300.401C320.593 306.464 330.89 312.837 337.224 317.113C344.097 321.754 347.932 325.012 347.968 325.044C348.021 325.089 348.068 325.141 348.104 325.2L357.107 339.66C357.229 339.854 357.243 340.1 357.144 340.306C357.045 340.515 356.848 340.657 356.619 340.687C356.459 340.707 353.915 341.023 349.413 341.023Z" fill="#4696FF"/>
<path d="M337.332 326.12C337.308 326.12 337.283 326.12 337.259 326.116C337.072 326.096 318.326 323.979 297.658 314.808C291.699 312.165 282.998 307.913 275.399 302.674C270.828 299.524 268.842 297.529 268.761 297.445C268.5 297.18 268.502 296.753 268.767 296.491C269.033 296.23 269.46 296.232 269.722 296.497C269.819 296.595 277.811 304.525 298.205 313.575C318.671 322.656 337.218 324.753 337.403 324.773C337.774 324.813 338.041 325.146 338.001 325.516C337.962 325.863 337.67 326.118 337.33 326.118L337.332 326.12Z" fill="#4696FF"/>
<path d="M197.331 298.609C199.705 298.821 201.77 296.997 201.853 294.615L209.057 85.4246C209.127 83.3942 207.664 81.6338 205.655 81.3315L200.133 80.5006C198.361 80.2339 196.751 81.5709 196.689 83.3623L189.317 293.948C189.24 296.153 190.901 298.034 193.099 298.231L197.331 298.609Z" stroke="#4696FF" stroke-width="2.0717"/>
<path d="M113.141 100.809L293.309 108.177C294.383 108.221 295.395 108.695 296.115 109.493L315.076 130.502C316.636 132.231 316.396 134.921 314.554 136.346L296.442 150.354C295.662 150.957 294.685 151.251 293.701 151.179L111.629 137.778L113.141 100.809Z" fill="white" stroke="#4696FF" stroke-width="2"/>
<path d="M280.633 161.348L117.441 165.965C116.882 165.981 116.332 166.114 115.827 166.356L98.3139 174.739C95.7677 175.958 95.251 179.359 97.3204 181.279L114.543 197.258C115.289 197.95 116.27 198.332 117.288 198.326L281.651 197.333L280.633 161.348Z" fill="white" stroke="#4696FF" stroke-width="2"/>
<path d="M56.245 408.545V426H53.4325L45.2081 414.111H45.0632V426H41.9013V408.545H44.7308L52.9467 420.443H53.1001V408.545H56.245ZM65.2642 426.256C63.9858 426.256 62.8778 425.974 61.9403 425.412C61.0028 424.849 60.2756 424.062 59.7585 423.051C59.2472 422.04 58.9915 420.858 58.9915 419.506C58.9915 418.153 59.2472 416.969 59.7585 415.952C60.2756 414.935 61.0028 414.145 61.9403 413.582C62.8778 413.02 63.9858 412.739 65.2642 412.739C66.5426 412.739 67.6506 413.02 68.5881 413.582C69.5256 414.145 70.25 414.935 70.7614 415.952C71.2784 416.969 71.5369 418.153 71.5369 419.506C71.5369 420.858 71.2784 422.04 70.7614 423.051C70.25 424.062 69.5256 424.849 68.5881 425.412C67.6506 425.974 66.5426 426.256 65.2642 426.256ZM65.2812 423.784C65.9744 423.784 66.554 423.594 67.0199 423.213C67.4858 422.827 67.8324 422.31 68.0597 421.662C68.2926 421.014 68.4091 420.293 68.4091 419.497C68.4091 418.696 68.2926 417.972 68.0597 417.324C67.8324 416.67 67.4858 416.151 67.0199 415.764C66.554 415.378 65.9744 415.185 65.2812 415.185C64.571 415.185 63.9801 415.378 63.5085 415.764C63.0426 416.151 62.6932 416.67 62.4602 417.324C62.233 417.972 62.1193 418.696 62.1193 419.497C62.1193 420.293 62.233 421.014 62.4602 421.662C62.6932 422.31 63.0426 422.827 63.5085 423.213C63.9801 423.594 64.571 423.784 65.2812 423.784ZM83.407 408.545V426H80.245V408.545H83.407ZM92.3878 431.182C91.2798 431.182 90.3281 431.031 89.5327 430.73C88.7372 430.435 88.098 430.037 87.6151 429.537C87.1321 429.037 86.7969 428.483 86.6094 427.875L89.3878 427.202C89.5128 427.457 89.6946 427.71 89.9332 427.96C90.1719 428.216 90.4929 428.426 90.8963 428.591C91.3054 428.761 91.8196 428.847 92.4389 428.847C93.3139 428.847 94.0384 428.634 94.6122 428.207C95.1861 427.787 95.473 427.094 95.473 426.128V423.648H95.3196C95.1605 423.966 94.9276 424.293 94.6207 424.628C94.3196 424.963 93.919 425.244 93.419 425.472C92.9247 425.699 92.3026 425.812 91.5526 425.812C90.5469 425.812 89.6349 425.577 88.8168 425.105C88.0043 424.628 87.3565 423.918 86.8736 422.974C86.3963 422.026 86.1577 420.838 86.1577 419.412C86.1577 417.974 86.3963 416.761 86.8736 415.773C87.3565 414.778 88.0071 414.026 88.8253 413.514C89.6435 412.997 90.5554 412.739 91.5611 412.739C92.3281 412.739 92.9588 412.869 93.4531 413.131C93.9531 413.386 94.3509 413.696 94.6463 414.06C94.9418 414.418 95.1662 414.756 95.3196 415.074H95.4901V412.909H98.5327V426.213C98.5327 427.332 98.2656 428.259 97.7315 428.991C97.1974 429.724 96.4673 430.273 95.5412 430.636C94.6151 431 93.5639 431.182 92.3878 431.182ZM92.4134 423.392C93.0668 423.392 93.6236 423.233 94.0838 422.915C94.544 422.597 94.8935 422.139 95.1321 421.543C95.3707 420.946 95.4901 420.23 95.4901 419.395C95.4901 418.571 95.3707 417.849 95.1321 417.23C94.8991 416.611 94.5526 416.131 94.0923 415.79C93.6378 415.443 93.0781 415.27 92.4134 415.27C91.7259 415.27 91.152 415.449 90.6918 415.807C90.2315 416.165 89.8849 416.656 89.652 417.281C89.419 417.901 89.3026 418.605 89.3026 419.395C89.3026 420.196 89.419 420.898 89.652 421.5C89.8906 422.097 90.2401 422.562 90.7003 422.898C91.1662 423.227 91.7372 423.392 92.4134 423.392ZM104.78 418.33V426H101.695V412.909H104.643V415.134H104.797C105.098 414.401 105.578 413.818 106.237 413.386C106.902 412.955 107.723 412.739 108.7 412.739C109.604 412.739 110.391 412.932 111.061 413.318C111.737 413.705 112.26 414.264 112.629 414.997C113.004 415.73 113.189 416.619 113.183 417.665V426H110.098V418.142C110.098 417.267 109.871 416.582 109.416 416.088C108.967 415.594 108.345 415.347 107.55 415.347C107.01 415.347 106.53 415.466 106.109 415.705C105.695 415.937 105.368 416.276 105.129 416.719C104.896 417.162 104.78 417.699 104.78 418.33ZM122.03 426.256C120.751 426.256 119.643 425.974 118.706 425.412C117.768 424.849 117.041 424.062 116.524 423.051C116.013 422.04 115.757 420.858 115.757 419.506C115.757 418.153 116.013 416.969 116.524 415.952C117.041 414.935 117.768 414.145 118.706 413.582C119.643 413.02 120.751 412.739 122.03 412.739C123.308 412.739 124.416 413.02 125.354 413.582C126.291 414.145 127.016 414.935 127.527 415.952C128.044 416.969 128.303 418.153 128.303 419.506C128.303 420.858 128.044 422.04 127.527 423.051C127.016 424.062 126.291 424.849 125.354 425.412C124.416 425.974 123.308 426.256 122.03 426.256ZM122.047 423.784C122.74 423.784 123.32 423.594 123.786 423.213C124.251 422.827 124.598 422.31 124.825 421.662C125.058 421.014 125.175 420.293 125.175 419.497C125.175 418.696 125.058 417.972 124.825 417.324C124.598 416.67 124.251 416.151 123.786 415.764C123.32 415.378 122.74 415.185 122.047 415.185C121.337 415.185 120.746 415.378 120.274 415.764C119.808 416.151 119.459 416.67 119.226 417.324C118.999 417.972 118.885 418.696 118.885 419.497C118.885 420.293 118.999 421.014 119.226 421.662C119.459 422.31 119.808 422.827 120.274 423.213C120.746 423.594 121.337 423.784 122.047 423.784ZM130.921 426V412.909H133.913V415.091H134.049C134.288 414.335 134.697 413.753 135.276 413.344C135.862 412.929 136.529 412.722 137.279 412.722C137.45 412.722 137.64 412.73 137.85 412.747C138.066 412.759 138.245 412.778 138.387 412.807V415.645C138.256 415.599 138.049 415.56 137.765 415.526C137.487 415.486 137.217 415.466 136.955 415.466C136.393 415.466 135.887 415.588 135.438 415.832C134.995 416.071 134.646 416.403 134.39 416.83C134.134 417.256 134.006 417.747 134.006 418.304V426H130.921ZM145.693 426.256C144.381 426.256 143.247 425.983 142.293 425.438C141.344 424.886 140.614 424.108 140.102 423.102C139.591 422.091 139.335 420.901 139.335 419.531C139.335 418.185 139.591 417.003 140.102 415.986C140.619 414.963 141.341 414.168 142.267 413.599C143.193 413.026 144.281 412.739 145.531 412.739C146.338 412.739 147.099 412.869 147.815 413.131C148.537 413.386 149.173 413.784 149.724 414.324C150.281 414.864 150.719 415.551 151.037 416.386C151.355 417.216 151.514 418.205 151.514 419.352V420.298H140.784V418.219H148.557C148.551 417.628 148.423 417.102 148.173 416.642C147.923 416.176 147.574 415.81 147.125 415.543C146.682 415.276 146.165 415.142 145.574 415.142C144.943 415.142 144.389 415.295 143.912 415.602C143.435 415.903 143.063 416.301 142.795 416.795C142.534 417.284 142.401 417.821 142.395 418.406V420.222C142.395 420.983 142.534 421.636 142.812 422.182C143.091 422.722 143.48 423.136 143.98 423.426C144.48 423.71 145.065 423.852 145.736 423.852C146.185 423.852 146.591 423.79 146.955 423.665C147.318 423.534 147.634 423.344 147.901 423.094C148.168 422.844 148.369 422.534 148.506 422.165L151.386 422.489C151.205 423.25 150.858 423.915 150.347 424.483C149.841 425.045 149.193 425.483 148.403 425.795C147.614 426.102 146.71 426.256 145.693 426.256ZM158.982 426.23C157.954 426.23 157.033 425.966 156.221 425.438C155.408 424.909 154.766 424.142 154.295 423.136C153.823 422.131 153.587 420.909 153.587 419.472C153.587 418.017 153.826 416.79 154.303 415.79C154.786 414.784 155.437 414.026 156.255 413.514C157.073 412.997 157.985 412.739 158.991 412.739C159.758 412.739 160.388 412.869 160.883 413.131C161.377 413.386 161.769 413.696 162.059 414.06C162.349 414.418 162.573 414.756 162.732 415.074H162.86V408.545H165.954V426H162.92V423.938H162.732C162.573 424.256 162.343 424.594 162.042 424.952C161.741 425.304 161.343 425.605 160.849 425.855C160.354 426.105 159.732 426.23 158.982 426.23ZM159.843 423.699C160.496 423.699 161.053 423.523 161.513 423.17C161.974 422.812 162.323 422.315 162.562 421.679C162.8 421.043 162.92 420.301 162.92 419.455C162.92 418.608 162.8 417.872 162.562 417.247C162.329 416.622 161.982 416.136 161.522 415.79C161.067 415.443 160.508 415.27 159.843 415.27C159.156 415.27 158.582 415.449 158.121 415.807C157.661 416.165 157.315 416.659 157.082 417.29C156.849 417.92 156.732 418.642 156.732 419.455C156.732 420.273 156.849 421.003 157.082 421.645C157.32 422.281 157.67 422.784 158.13 423.153C158.596 423.517 159.167 423.699 159.843 423.699ZM177.666 408.545L182.209 422.284H182.388L186.922 408.545H190.399L184.246 426H180.342L174.197 408.545H177.666ZM200.906 420.494V412.909H203.991V426H200.999V423.673H200.863C200.567 424.406 200.082 425.006 199.406 425.472C198.735 425.937 197.908 426.17 196.925 426.17C196.067 426.17 195.309 425.98 194.65 425.599C193.996 425.213 193.485 424.653 193.116 423.92C192.746 423.182 192.562 422.29 192.562 421.244V412.909H195.647V420.767C195.647 421.597 195.874 422.256 196.329 422.744C196.783 423.233 197.38 423.477 198.119 423.477C198.573 423.477 199.013 423.366 199.44 423.145C199.866 422.923 200.215 422.594 200.488 422.156C200.766 421.713 200.906 421.159 200.906 420.494ZM210.249 408.545V426H207.163V408.545H210.249ZM216.506 418.33V426H213.421V412.909H216.37V415.134H216.523C216.825 414.401 217.305 413.818 217.964 413.386C218.629 412.955 219.45 412.739 220.427 412.739C221.33 412.739 222.117 412.932 222.788 413.318C223.464 413.705 223.987 414.264 224.356 414.997C224.731 415.73 224.915 416.619 224.91 417.665V426H221.825V418.142C221.825 417.267 221.597 416.582 221.143 416.088C220.694 415.594 220.072 415.347 219.276 415.347C218.737 415.347 218.256 415.466 217.836 415.705C217.421 415.937 217.094 416.276 216.856 416.719C216.623 417.162 216.506 417.699 216.506 418.33ZM233.842 426.256C232.529 426.256 231.396 425.983 230.441 425.438C229.492 424.886 228.762 424.108 228.251 423.102C227.739 422.091 227.484 420.901 227.484 419.531C227.484 418.185 227.739 417.003 228.251 415.986C228.768 414.963 229.489 414.168 230.415 413.599C231.342 413.026 232.43 412.739 233.68 412.739C234.487 412.739 235.248 412.869 235.964 413.131C236.685 413.386 237.322 413.784 237.873 414.324C238.43 414.864 238.867 415.551 239.185 416.386C239.504 417.216 239.663 418.205 239.663 419.352V420.298H228.933V418.219H236.705C236.7 417.628 236.572 417.102 236.322 416.642C236.072 416.176 235.722 415.81 235.273 415.543C234.83 415.276 234.313 415.142 233.722 415.142C233.092 415.142 232.538 415.295 232.06 415.602C231.583 415.903 231.211 416.301 230.944 416.795C230.683 417.284 230.549 417.821 230.543 418.406V420.222C230.543 420.983 230.683 421.636 230.961 422.182C231.239 422.722 231.629 423.136 232.129 423.426C232.629 423.71 233.214 423.852 233.884 423.852C234.333 423.852 234.739 423.79 235.103 423.665C235.467 423.534 235.782 423.344 236.049 423.094C236.316 422.844 236.518 422.534 236.654 422.165L239.535 422.489C239.353 423.25 239.006 423.915 238.495 424.483C237.989 425.045 237.342 425.483 236.552 425.795C235.762 426.102 234.859 426.256 233.842 426.256ZM242.273 426V412.909H245.264V415.091H245.401C245.639 414.335 246.048 413.753 246.628 413.344C247.213 412.929 247.881 412.722 248.631 412.722C248.801 412.722 248.991 412.73 249.202 412.747C249.418 412.759 249.597 412.778 249.739 412.807V415.645C249.608 415.599 249.401 415.56 249.116 415.526C248.838 415.486 248.568 415.466 248.307 415.466C247.744 415.466 247.239 415.588 246.79 415.832C246.347 416.071 245.997 416.403 245.741 416.83C245.486 417.256 245.358 417.747 245.358 418.304V426H242.273ZM255.321 426.264C254.491 426.264 253.744 426.116 253.08 425.821C252.42 425.52 251.898 425.077 251.511 424.491C251.131 423.906 250.94 423.185 250.94 422.327C250.94 421.588 251.077 420.977 251.349 420.494C251.622 420.011 251.994 419.625 252.466 419.335C252.938 419.045 253.469 418.827 254.06 418.679C254.656 418.526 255.273 418.415 255.909 418.347C256.676 418.267 257.298 418.196 257.776 418.134C258.253 418.065 258.599 417.963 258.815 417.827C259.037 417.685 259.148 417.466 259.148 417.17V417.119C259.148 416.477 258.957 415.98 258.577 415.628C258.196 415.276 257.648 415.099 256.932 415.099C256.176 415.099 255.577 415.264 255.134 415.594C254.696 415.923 254.401 416.312 254.247 416.761L251.366 416.352C251.594 415.557 251.969 414.892 252.491 414.358C253.014 413.818 253.653 413.415 254.409 413.148C255.165 412.875 256 412.739 256.915 412.739C257.545 412.739 258.173 412.812 258.798 412.96C259.423 413.108 259.994 413.352 260.511 413.693C261.028 414.028 261.443 414.486 261.756 415.065C262.074 415.645 262.233 416.369 262.233 417.239V426H259.267V424.202H259.165C258.977 424.565 258.713 424.906 258.372 425.224C258.037 425.537 257.614 425.79 257.102 425.983C256.597 426.17 256.003 426.264 255.321 426.264ZM256.122 423.997C256.741 423.997 257.278 423.875 257.733 423.631C258.188 423.381 258.537 423.051 258.781 422.642C259.031 422.233 259.156 421.787 259.156 421.304V419.761C259.06 419.841 258.895 419.915 258.662 419.983C258.435 420.051 258.179 420.111 257.895 420.162C257.611 420.213 257.33 420.259 257.051 420.298C256.773 420.338 256.531 420.372 256.327 420.401C255.866 420.463 255.455 420.565 255.091 420.707C254.727 420.849 254.44 421.048 254.23 421.304C254.02 421.554 253.915 421.878 253.915 422.276C253.915 422.844 254.122 423.273 254.537 423.562C254.952 423.852 255.48 423.997 256.122 423.997ZM265.472 426V408.545H268.557V415.074H268.685C268.844 414.756 269.068 414.418 269.358 414.06C269.648 413.696 270.04 413.386 270.534 413.131C271.028 412.869 271.659 412.739 272.426 412.739C273.438 412.739 274.349 412.997 275.162 413.514C275.98 414.026 276.628 414.784 277.105 415.79C277.588 416.79 277.83 418.017 277.83 419.472C277.83 420.909 277.594 422.131 277.122 423.136C276.651 424.142 276.009 424.909 275.196 425.438C274.384 425.966 273.463 426.23 272.435 426.23C271.685 426.23 271.063 426.105 270.568 425.855C270.074 425.605 269.676 425.304 269.375 424.952C269.08 424.594 268.849 424.256 268.685 423.938H268.506V426H265.472ZM268.497 419.455C268.497 420.301 268.616 421.043 268.855 421.679C269.099 422.315 269.449 422.812 269.903 423.17C270.364 423.523 270.92 423.699 271.574 423.699C272.256 423.699 272.827 423.517 273.287 423.153C273.747 422.784 274.094 422.281 274.327 421.645C274.565 421.003 274.685 420.273 274.685 419.455C274.685 418.642 274.568 417.92 274.335 417.29C274.102 416.659 273.756 416.165 273.295 415.807C272.835 415.449 272.261 415.27 271.574 415.27C270.915 415.27 270.355 415.443 269.895 415.79C269.435 416.136 269.085 416.622 268.847 417.247C268.614 417.872 268.497 418.608 268.497 419.455ZM280.452 426V412.909H283.538V426H280.452ZM282.004 411.051C281.515 411.051 281.094 410.889 280.742 410.565C280.39 410.236 280.214 409.841 280.214 409.381C280.214 408.915 280.39 408.52 280.742 408.196C281.094 407.866 281.515 407.702 282.004 407.702C282.498 407.702 282.918 407.866 283.265 408.196C283.617 408.52 283.793 408.915 283.793 409.381C283.793 409.841 283.617 410.236 283.265 410.565C282.918 410.889 282.498 411.051 282.004 411.051ZM289.795 408.545V426H286.71V408.545H289.795ZM292.968 426V412.909H296.053V426H292.968ZM294.519 411.051C294.031 411.051 293.61 410.889 293.258 410.565C292.906 410.236 292.729 409.841 292.729 409.381C292.729 408.915 292.906 408.52 293.258 408.196C293.61 407.866 294.031 407.702 294.519 407.702C295.013 407.702 295.434 407.866 295.781 408.196C296.133 408.52 296.309 408.915 296.309 409.381C296.309 409.841 296.133 410.236 295.781 410.565C295.434 410.889 295.013 411.051 294.519 411.051ZM305.763 412.909V415.295H298.237V412.909H305.763ZM300.095 409.773H303.18V422.062C303.18 422.477 303.243 422.795 303.368 423.017C303.499 423.233 303.669 423.381 303.879 423.46C304.089 423.54 304.322 423.58 304.578 423.58C304.771 423.58 304.947 423.565 305.107 423.537C305.271 423.509 305.396 423.483 305.482 423.46L306.001 425.872C305.837 425.929 305.601 425.991 305.294 426.06C304.993 426.128 304.624 426.168 304.186 426.179C303.413 426.202 302.717 426.085 302.098 425.83C301.479 425.568 300.987 425.165 300.624 424.619C300.266 424.074 300.089 423.392 300.095 422.574V409.773ZM308.343 426V412.909H311.428V426H308.343ZM309.894 411.051C309.406 411.051 308.985 410.889 308.633 410.565C308.281 410.236 308.104 409.841 308.104 409.381C308.104 408.915 308.281 408.52 308.633 408.196C308.985 407.866 309.406 407.702 309.894 407.702C310.388 407.702 310.809 407.866 311.156 408.196C311.508 408.52 311.684 408.915 311.684 409.381C311.684 409.841 311.508 410.236 311.156 410.565C310.809 410.889 310.388 411.051 309.894 411.051ZM320.396 426.256C319.084 426.256 317.95 425.983 316.996 425.438C316.047 424.886 315.317 424.108 314.805 423.102C314.294 422.091 314.038 420.901 314.038 419.531C314.038 418.185 314.294 417.003 314.805 415.986C315.322 414.963 316.044 414.168 316.97 413.599C317.896 413.026 318.984 412.739 320.234 412.739C321.041 412.739 321.803 412.869 322.518 413.131C323.24 413.386 323.876 413.784 324.428 414.324C324.984 414.864 325.422 415.551 325.74 416.386C326.058 417.216 326.217 418.205 326.217 419.352V420.298H315.487V418.219H323.26C323.254 417.628 323.126 417.102 322.876 416.642C322.626 416.176 322.277 415.81 321.828 415.543C321.385 415.276 320.868 415.142 320.277 415.142C319.646 415.142 319.092 415.295 318.615 415.602C318.138 415.903 317.766 416.301 317.499 416.795C317.237 417.284 317.104 417.821 317.098 418.406V420.222C317.098 420.983 317.237 421.636 317.516 422.182C317.794 422.722 318.183 423.136 318.683 423.426C319.183 423.71 319.768 423.852 320.439 423.852C320.888 423.852 321.294 423.79 321.658 423.665C322.021 423.534 322.337 423.344 322.604 423.094C322.871 422.844 323.072 422.534 323.209 422.165L326.089 422.489C325.908 423.25 325.561 423.915 325.05 424.483C324.544 425.045 323.896 425.483 323.107 425.795C322.317 426.102 321.413 426.256 320.396 426.256ZM339.174 416.369L336.362 416.676C336.282 416.392 336.143 416.125 335.944 415.875C335.751 415.625 335.489 415.423 335.16 415.27C334.83 415.116 334.427 415.04 333.95 415.04C333.308 415.04 332.768 415.179 332.33 415.457C331.898 415.736 331.685 416.097 331.691 416.54C331.685 416.92 331.825 417.23 332.109 417.469C332.398 417.707 332.876 417.903 333.54 418.057L335.773 418.534C337.012 418.801 337.933 419.224 338.535 419.804C339.143 420.384 339.45 421.142 339.455 422.08C339.45 422.903 339.208 423.631 338.731 424.261C338.259 424.886 337.603 425.375 336.762 425.727C335.921 426.08 334.955 426.256 333.864 426.256C332.262 426.256 330.972 425.92 329.995 425.25C329.018 424.574 328.435 423.634 328.248 422.429L331.256 422.139C331.393 422.73 331.683 423.176 332.126 423.477C332.569 423.778 333.146 423.929 333.856 423.929C334.589 423.929 335.177 423.778 335.62 423.477C336.069 423.176 336.293 422.804 336.293 422.361C336.293 421.986 336.148 421.676 335.859 421.432C335.575 421.187 335.131 421 334.529 420.869L332.296 420.401C331.04 420.139 330.112 419.699 329.509 419.08C328.907 418.455 328.609 417.665 328.614 416.71C328.609 415.903 328.827 415.205 329.271 414.614C329.719 414.017 330.342 413.557 331.137 413.233C331.938 412.903 332.862 412.739 333.907 412.739C335.441 412.739 336.648 413.065 337.529 413.719C338.415 414.372 338.964 415.256 339.174 416.369Z" fill="#343434" fill-opacity="0.7"/>
<defs>
<clipPath id="clip0_1661_11097">
<rect width="22.1538" height="22.1538" fill="white" transform="translate(108.445 241) rotate(73.7424)"/>
</clipPath>
<clipPath id="clip1_1661_11097">
<rect width="33.2308" height="33.2308" fill="white" transform="translate(364.078 64) rotate(73.7424)"/>
</clipPath>
<clipPath id="clip2_1661_11097">
<rect width="33.2308" height="33.2308" fill="white" transform="translate(32.0781 134) rotate(73.7424)"/>
</clipPath>
<clipPath id="clip3_1661_11097">
<rect width="12.4302" height="12.4302" fill="white" transform="translate(345.18 216.094) rotate(-24.1831)"/>
</clipPath>
<clipPath id="clip4_1661_11097">
<rect width="14.5019" height="14.5019" fill="white" transform="translate(65.1797 43.7695) rotate(-15.0601)"/>
</clipPath>
</defs>
</svg>
