<svg width="16" height="16" viewBox="0 0 16 16" fill="none" xmlns="http://www.w3.org/2000/svg">
<path fill-rule="evenodd" clip-rule="evenodd" d="M1.83441 1.83392C2.14683 1.5215 2.65336 1.5215 2.96578 1.83392L8.0001 6.86824L13.0344 1.83392C13.3468 1.5215 13.8534 1.5215 14.1658 1.83392C14.4782 2.14634 14.4782 2.65288 14.1658 2.96529L9.13147 7.99961L14.1658 13.0339C14.4782 13.3463 14.4782 13.8529 14.1658 14.1653C13.8534 14.4777 13.3468 14.4777 13.0344 14.1653L8.0001 9.13098L2.96578 14.1653C2.65336 14.4777 2.14683 14.4777 1.83441 14.1653C1.52199 13.8529 1.52199 13.3463 1.83441 13.0339L6.86873 7.99961L1.83441 2.96529C1.52199 2.65288 1.52199 2.14634 1.83441 1.83392Z" fill="white" fill-opacity="0.7"/>
</svg>
