<svg xmlns="http://www.w3.org/2000/svg" width="88" height="22" fill="none" viewBox="0 0 88 22">
  <rect width="87" height="21" x=".5" y=".5" stroke="#fff" stroke-opacity=".3" rx="3.5"/>
  <path fill="#fff" fill-opacity=".7" d="M15.637 9.7h-1.461a1.819 1.819 0 0 0-.23-.637 1.712 1.712 0 0 0-.989-.77 2.225 2.225 0 0 0-.684-.102c-.434 0-.82.11-1.156.329-.336.216-.599.533-.789.953-.19.416-.285.925-.285 1.527 0 .612.095 1.128.285 1.547.193.416.456.732.79.945.335.211.72.317 1.152.317.24 0 .463-.032.671-.094.211-.065.4-.16.567-.285a1.74 1.74 0 0 0 .668-1.086l1.46.008a3.12 3.12 0 0 1-.355 1.07c-.18.333-.415.627-.707.883a3.26 3.26 0 0 1-1.023.593c-.39.141-.824.211-1.301.211-.703 0-1.33-.162-1.883-.488-.552-.325-.987-.796-1.305-1.41-.317-.615-.476-1.352-.476-2.211 0-.862.16-1.599.48-2.21.32-.616.757-1.086 1.309-1.411.552-.326 1.177-.488 1.875-.488.445 0 .86.062 1.242.187a3.21 3.21 0 0 1 1.024.55c.3.24.545.535.738.884.195.346.323.742.383 1.187Zm8.475 1.3c0 .862-.161 1.6-.484 2.215a3.43 3.43 0 0 1-1.313 1.406c-.552.326-1.178.488-1.879.488-.7 0-1.328-.162-1.882-.488a3.493 3.493 0 0 1-1.313-1.41c-.32-.615-.48-1.352-.48-2.211 0-.862.16-1.599.48-2.21.323-.616.76-1.086 1.313-1.411.554-.326 1.182-.488 1.883-.488.7 0 1.326.162 1.878.488.555.325.993.795 1.313 1.41.323.612.484 1.349.484 2.211Zm-1.457 0c0-.607-.095-1.118-.285-1.535-.187-.42-.448-.736-.781-.95a2.071 2.071 0 0 0-1.152-.324 2.07 2.07 0 0 0-1.153.325c-.333.213-.595.53-.785.949-.188.417-.281.928-.281 1.535 0 .607.093 1.12.281 1.54.19.416.452.732.785.948.334.214.718.32 1.152.32a2.09 2.09 0 0 0 1.153-.32c.333-.216.594-.532.781-.949.19-.42.285-.932.285-1.539Zm9.402-4v8h-1.29l-3.769-5.45h-.066V15h-1.45V7h1.297l3.766 5.453h.07V7h1.442Zm1.227 1.215V7h6.383v1.215h-2.473V15h-1.437V8.215h-2.473ZM40.958 15h-1.547l2.816-8h1.79l2.82 8H45.29l-2.137-6.36h-.062L40.958 15Zm.05-3.137h4.22v1.164h-4.22v-1.164ZM49.34 7v8h-1.45V7h1.45Zm8.143 0v8h-1.289l-3.77-5.45h-.066V15H50.91V7h1.297l3.766 5.453h.07V7h1.441Zm1.58 8V7h5.203v1.215h-3.754v2.172h3.484v1.215h-3.484v2.183h3.785V15h-5.234Zm6.681 0V7h3c.615 0 1.13.107 1.547.32.42.214.736.513.95.899.215.383.323.83.323 1.34 0 .513-.109.958-.328 1.336a2.165 2.165 0 0 1-.957.87c-.422.204-.94.305-1.554.305h-2.137v-1.203h1.941c.36 0 .654-.05.883-.148a1.05 1.05 0 0 0 .508-.442c.112-.195.168-.435.168-.718 0-.284-.056-.526-.168-.727a1.068 1.068 0 0 0-.512-.46c-.229-.108-.525-.161-.886-.161h-1.329V15h-1.449Zm4.133-3.625L71.857 15H70.24l-1.945-3.625h1.582Zm7.37-2.176a1.067 1.067 0 0 0-.462-.797c-.268-.19-.617-.285-1.047-.285a2 2 0 0 0-.777.137 1.151 1.151 0 0 0-.496.371.903.903 0 0 0-.063.969c.079.122.184.226.317.312.133.084.28.154.441.211.162.057.324.106.488.145l.75.187c.303.07.593.166.871.285.282.12.533.271.754.454.224.182.401.402.532.66.13.257.195.56.195.906 0 .469-.12.881-.36 1.238-.239.354-.585.632-1.038.832-.451.198-.996.297-1.637.297-.623 0-1.163-.096-1.621-.289a2.415 2.415 0 0 1-1.07-.844c-.256-.37-.394-.82-.415-1.351h1.426c.021.278.107.51.258.695.151.185.348.323.59.414.245.091.518.137.82.137.315 0 .591-.047.828-.14.24-.097.427-.23.563-.4a.962.962 0 0 0 .207-.6.765.765 0 0 0-.184-.516 1.345 1.345 0 0 0-.504-.344 4.864 4.864 0 0 0-.75-.25l-.91-.235c-.659-.169-1.18-.425-1.562-.77-.38-.345-.57-.805-.57-1.378 0-.471.127-.884.382-1.238a2.53 2.53 0 0 1 1.05-.825 3.647 3.647 0 0 1 1.505-.296c.568 0 1.065.099 1.492.296.43.196.767.468 1.012.817.245.346.37.745.379 1.195h-1.395Z"/>
</svg>
