<svg width="56" height="56" viewBox="0 0 56 56" fill="none" xmlns="http://www.w3.org/2000/svg">
<rect x="1" y="1" width="54" height="54" rx="11" fill="#171717"/>
<rect x="1" y="1" width="54" height="54" rx="11" stroke="#BB2A31" stroke-width="2"/>
<path fill-rule="evenodd" clip-rule="evenodd" d="M27.3499 18.2068C25.2348 19.7088 22.8175 20.5509 20.3634 20.733C19.8027 20.7746 19.3455 21.2329 19.3526 21.7952C19.5171 34.7037 22.8407 36.0259 27.5874 37.9141L27.6212 37.9275C27.8641 38.0242 28.1363 38.0242 28.3793 37.9275L28.413 37.9141C33.1597 36.0259 36.4833 34.7037 36.6478 21.7952C36.655 21.2329 36.1977 20.7746 35.637 20.733C33.183 20.5509 30.7656 19.7088 28.6505 18.2068C28.2623 17.9311 27.7381 17.9311 27.3499 18.2068ZM25.8164 31.6221C26.4023 31.9807 27.1037 32.1601 27.9205 32.1601C28.6058 32.1601 29.2024 32.0358 29.7102 31.7872C30.218 31.5351 30.6193 31.1871 30.9141 30.7432C31.2088 30.2957 31.3793 29.7826 31.4254 29.2037H29.5824C29.5256 29.4985 29.4208 29.7488 29.2681 29.9548C29.1154 30.1608 28.9254 30.3188 28.6982 30.4289C28.4744 30.5354 28.2205 30.5887 27.9364 30.5887C27.5352 30.5887 27.1854 30.4822 26.8871 30.2691C26.5923 30.0525 26.3633 29.7453 26.1999 29.3476C26.0366 28.9463 25.9549 28.4669 25.9549 27.9094C25.9549 27.3589 26.0366 26.8866 26.1999 26.4925C26.3668 26.0983 26.5994 25.7964 26.8977 25.5869C27.196 25.3738 27.5423 25.2673 27.9364 25.2673C28.4016 25.2673 28.7727 25.4005 29.0497 25.6668C29.3303 25.9296 29.5078 26.2581 29.5824 26.6523H31.4254C31.3828 26.0628 31.2088 25.5479 30.9034 25.1075C30.598 24.6636 30.1879 24.3209 29.6729 24.0795C29.1616 23.8344 28.5739 23.7119 27.9098 23.7119C27.1108 23.7119 26.4183 23.8912 25.8324 24.2499C25.25 24.605 24.799 25.1022 24.4794 25.7414C24.1598 26.377 24 27.1104 24 27.9413C24 28.7687 24.1562 29.5003 24.4688 30.1359C24.7848 30.768 25.234 31.2634 25.8164 31.6221Z" fill="#BB2A31"/>
<path d="M27.9205 32.1601C27.1037 32.1601 26.4023 31.9807 25.8164 31.6221C25.234 31.2634 24.7848 30.768 24.4688 30.1359C24.1562 29.5003 24 28.7687 24 27.9413C24 27.1104 24.1598 26.377 24.4794 25.7414C24.799 25.1022 25.25 24.605 25.8324 24.2499C26.4183 23.8912 27.1108 23.7119 27.9098 23.7119C28.5739 23.7119 29.1616 23.8344 29.6729 24.0795C30.1879 24.3209 30.598 24.6636 30.9034 25.1075C31.2088 25.5479 31.3828 26.0628 31.4254 26.6523H29.5824C29.5078 26.2581 29.3303 25.9296 29.0497 25.6668C28.7727 25.4005 28.4016 25.2673 27.9364 25.2673C27.5423 25.2673 27.196 25.3738 26.8977 25.5869C26.5994 25.7964 26.3668 26.0983 26.1999 26.4925C26.0366 26.8866 25.9549 27.3589 25.9549 27.9094C25.9549 28.4669 26.0366 28.9463 26.1999 29.3476C26.3633 29.7453 26.5923 30.0525 26.8871 30.2691C27.1854 30.4822 27.5352 30.5887 27.9364 30.5887C28.2205 30.5887 28.4744 30.5354 28.6982 30.4289C28.9254 30.3188 29.1154 30.1608 29.2681 29.9548C29.4208 29.7488 29.5256 29.4985 29.5824 29.2037H31.4254C31.3793 29.7826 31.2088 30.2957 30.9141 30.7432C30.6193 31.1871 30.218 31.5351 29.7102 31.7872C29.2024 32.0358 28.6058 32.1601 27.9205 32.1601Z" fill="black"/>
</svg>
