<svg xmlns="http://www.w3.org/2000/svg" width="34" height="22" fill="none" viewBox="0 0 34 22">
  <rect width="33" height="21" x=".5" y=".5" stroke="#fff" stroke-opacity=".3" rx="3.5"/>
  <path fill="#fff" fill-opacity=".7" d="M10.238 7v8H8.79V7h1.45Zm3.234 8.121c-.38 0-.723-.068-1.028-.203a1.678 1.678 0 0 1-.718-.61c-.175-.268-.262-.598-.262-.992 0-.338.062-.618.187-.84a1.45 1.45 0 0 1 .512-.53 2.58 2.58 0 0 1 .73-.301 5.96 5.96 0 0 1 .848-.153c.352-.036.637-.069.856-.098.218-.03.377-.078.476-.14.102-.065.153-.165.153-.3v-.024c0-.295-.088-.522-.262-.684-.175-.161-.426-.242-.754-.242-.346 0-.621.075-.824.226-.2.152-.336.33-.406.536l-1.32-.188a2.09 2.09 0 0 1 .515-.914c.24-.247.532-.432.879-.555a3.36 3.36 0 0 1 1.148-.187c.29 0 .577.034.863.101.287.068.549.18.786.336.237.154.427.364.57.63.146.265.219.597.219.995V15h-1.36v-.824h-.047a1.725 1.725 0 0 1-.363.469 1.728 1.728 0 0 1-.582.347 2.347 2.347 0 0 1-.816.13Zm.367-1.039c.284 0 .53-.056.738-.168.209-.114.369-.266.48-.453.115-.188.172-.392.172-.613v-.707a.665.665 0 0 1-.226.101 3.205 3.205 0 0 1-.352.082c-.13.024-.259.044-.386.063a88.48 88.48 0 0 1-.332.047 2.45 2.45 0 0 0-.567.14.94.94 0 0 0-.394.274.668.668 0 0 0-.145.445c0 .26.095.457.285.59.19.133.433.199.727.199Zm11.133-4.383H23.51a1.816 1.816 0 0 0-.23-.636 1.712 1.712 0 0 0-.989-.77 2.225 2.225 0 0 0-.684-.102c-.434 0-.82.11-1.156.329-.336.216-.599.533-.789.953-.19.416-.285.925-.285 1.527 0 .612.095 1.128.285 1.547.193.416.456.732.79.945.335.211.72.317 1.152.317.24 0 .463-.032.671-.094.211-.065.4-.16.567-.285a1.74 1.74 0 0 0 .668-1.086l1.46.008a3.12 3.12 0 0 1-.355 1.07c-.18.333-.415.627-.707.883a3.26 3.26 0 0 1-1.023.593 3.81 3.81 0 0 1-1.301.211c-.703 0-1.33-.162-1.883-.488-.552-.325-.987-.796-1.305-1.41-.317-.615-.476-1.352-.476-2.211 0-.862.16-1.599.48-2.21.32-.616.757-1.086 1.309-1.411.552-.326 1.177-.488 1.875-.488.445 0 .86.062 1.242.187a3.21 3.21 0 0 1 1.024.55c.3.24.545.535.738.884.195.346.323.742.383 1.187Z"/>
</svg>
