<svg width="56" height="56" viewBox="0 0 56 56" fill="none" xmlns="http://www.w3.org/2000/svg">
<rect x="1" y="1" width="54" height="54" rx="11" fill="#400202"/>
<rect x="1" y="1" width="54" height="54" rx="11" stroke="#BB2A31" stroke-width="2"/>
<path fill-rule="evenodd" clip-rule="evenodd" d="M19.2503 27.3745C19.2503 22.9624 23.0908 19.2499 27.9999 19.2499C32.9091 19.2499 36.7496 22.9624 36.7496 27.3745C36.7496 29.4097 35.9433 31.2788 34.5893 32.7177C34.3712 32.9495 34.2497 33.2559 34.2497 33.5743V36.7491H31.75V34.2502C31.75 33.5599 31.1904 33.0003 30.5001 33.0003C29.8098 33.0003 29.2501 33.5599 29.2501 34.2502V36.7491H26.75V34.2502C26.75 33.5599 26.1904 33.0003 25.5 33.0003C24.8097 33.0003 24.2501 33.5599 24.2501 34.2502V36.7491H21.7502V33.5743C21.7502 33.2557 21.6286 32.9492 21.4102 32.7173C20.0567 31.28 19.2503 29.4111 19.2503 27.3745ZM22.4827 24.9819C22.9515 24.5131 23.5873 24.2497 24.2503 24.2497C24.9134 24.2497 25.5492 24.5131 26.018 24.9819C26.4869 25.4507 26.7502 26.0866 26.7502 26.7496C26.7502 27.4126 26.4869 28.0484 26.018 28.5173C25.5492 28.9861 24.9134 29.2495 24.2503 29.2495C23.5873 29.2495 22.9515 28.9861 22.4827 28.5173C22.0138 28.0484 21.7505 27.4126 21.7505 26.7496C21.7505 26.0866 22.0138 25.4507 22.4827 24.9819ZM31.75 24.2497C31.087 24.2497 30.4512 24.5131 29.9823 24.9819C29.5135 25.4507 29.2501 26.0866 29.2501 26.7496C29.2501 27.4126 29.5135 28.0484 29.9823 28.5173C30.4512 28.9861 31.087 29.2495 31.75 29.2495C32.413 29.2495 33.0489 28.9861 33.5177 28.5173C33.9865 28.0484 34.2499 27.4126 34.2499 26.7496C34.2499 26.0866 33.9865 25.4507 33.5177 24.9819C33.0489 24.5131 32.413 24.2497 31.75 24.2497Z" fill="white"/>
</svg>
