<svg width="56" height="56" viewBox="0 0 56 56" fill="none" xmlns="http://www.w3.org/2000/svg">
<rect x="1" y="1" width="54" height="54" rx="11" fill="#171717"/>
<rect x="1" y="1" width="54" height="54" rx="11" stroke="#BE8C19" stroke-width="2"/>
<path d="M20.3632 20.733C22.8172 20.5509 25.2346 19.7088 27.3496 18.2068C27.7379 17.9311 28.262 17.9311 28.6503 18.2068C30.7653 19.7088 33.1827 20.5509 35.6367 20.733C36.1975 20.7746 36.6547 21.2329 36.6475 21.7952C36.4831 34.7037 33.1594 36.0259 28.4128 37.9141L28.379 37.9275C28.1361 38.0242 27.8638 38.0242 27.6209 37.9275L27.5871 37.9141C22.8405 36.0259 19.5169 34.7037 19.3524 21.7952C19.3452 21.2329 19.8024 20.7746 20.3632 20.733Z" fill="#DD8800"/>
<path d="M23.5348 23.825H25.6585L27.9015 29.2974H27.997L30.24 23.825H32.3637V31.9699H30.6934V26.6686H30.6258L28.518 31.9302H27.3805L25.2727 26.6487H25.2051V31.9699H23.5348V23.825Z" fill="black"/>
</svg>
