<svg width="24" height="25" viewBox="0 0 24 25" fill="none" xmlns="http://www.w3.org/2000/svg">
<path d="M19.9331 13.5397C19.7442 14.9797 19.167 16.341 18.2632 17.4779C17.3595 18.6147 16.1633 19.4841 14.803 19.9927C13.4427 20.5014 11.9696 20.6302 10.5417 20.3653C9.1138 20.1004 7.78492 19.4518 6.69761 18.489C5.6103 17.5263 4.80557 16.2857 4.36973 14.9004C3.93389 13.515 3.88338 12.0372 4.22362 10.6253C4.56385 9.21342 5.282 7.9208 6.30104 6.88606C7.32007 5.85132 8.60156 5.11349 10.0081 4.7517C13.9071 3.7517 17.9431 5.7587 19.4331 9.4987M20.0001 4.5V9.5H15.0001" stroke="#4696FF" stroke-width="2" stroke-linecap="round" stroke-linejoin="round"/>
</svg>
