<?xml version="1.0" encoding="UTF-8" standalone="no"?>
<svg
   fill="#BDBDBD"
   width="13.031"
   height="16"
   version="1.1"
   id="svg464"
   sodipodi:docname="low_toggle.svg"
   inkscape:version="1.1.1 (3bf5ae0d25, 2021-09-20)"
   xmlns:inkscape="http://www.inkscape.org/namespaces/inkscape"
   xmlns:sodipodi="http://sodipodi.sourceforge.net/DTD/sodipodi-0.dtd"
   xmlns="http://www.w3.org/2000/svg"
   xmlns:svg="http://www.w3.org/2000/svg">
  <defs
     id="defs468" />
  <sodipodi:namedview
     id="namedview466"
     pagecolor="#ffffff"
     bordercolor="#666666"
     borderopacity="1.0"
     inkscape:pageshadow="2"
     inkscape:pageopacity="0.0"
     inkscape:pagecheckerboard="0"
     showgrid="false"
     inkscape:zoom="52"
     inkscape:cx="3.2019231"
     inkscape:cy="8.0096154"
     inkscape:window-width="2560"
     inkscape:window-height="1017"
     inkscape:window-x="1912"
     inkscape:window-y="-8"
     inkscape:window-maximized="1"
     inkscape:current-layer="svg464" />
  <rect
     id="backgroundrect"
     width="100%"
     height="100%"
     x="0"
     y="0"
     fill="none"
     stroke="none"
     class=""
     style="" />
  <g
     class="currentLayer"
     id="g462"
     transform="matrix(0.9,0,0,0.9,0.6499567,0.79988914)">
    <title
       id="title458">Layer 1</title>
    <path
       d="M 0.02799988,2.5190001 C 2.4749999,2.5040001 4.6750002,1.825 6.4749999,0 8.2679999,1.8099999 10.475,2.5039999 12.979,2.5120001 c 0,0.508 -0.014,0.98 0,1.452 0.042,1.646 0.042,3.2920001 -0.24,4.9159999 -0.498,2.898 -1.975,5.08 -4.5830001,6.419 -0.478,0.243 -0.985,0.45 -1.477,0.658 a 0.48000002,0.48000002 0 0 1 -0.33,0.021 C 4.183,15.206 2.3689999,13.968 1.223,11.878 A 9.0419998,9.0419998 0 0 1 0.10500002,8 C 0.00700001,6.233 0.02800001,4.4579999 1.4901161e-8,2.6830001 c 0,-0.05 0.01400000509884,-0.093 0.02799986509884,-0.164 z"
       id="svg_1"
       class=""
       fill="#919191"
       fill-opacity="1" />
    <path
       d="M 4.5159998,11 V 4.4549999 h 1.383 V 9.8589997 H 8.706 V 11 Z"
       fill="#ffffff"
       id="svg_2"
       class="" />
  </g>
</svg>
