<svg width="374" height="89" viewBox="0 0 374 89" fill="none" xmlns="http://www.w3.org/2000/svg">
<rect x="0.5" y="0.5" width="373" height="88" rx="3.5" fill="#312B21"/>
<rect x="0.5" y="0.5" width="373" height="88" rx="3.5" stroke="#885102"/>
<path fill-rule="evenodd" clip-rule="evenodd" d="M26 18C21.5817 18 18 21.5817 18 26C18 30.4183 21.5817 34 26 34C30.4183 34 34 30.4183 34 26C34 21.5817 30.4183 18 26 18Z" fill="#C37242"/>
<path fill-rule="evenodd" clip-rule="evenodd" d="M25.0812 29.4907C25.0656 30.0092 25.4817 30.4381 26.0005 30.4381C26.5195 30.4381 26.9357 30.0088 26.9197 29.49L26.8026 25.69C26.7892 25.2558 26.4334 24.9108 25.999 24.9108C25.5644 24.9108 25.2085 25.2562 25.1954 25.6906L25.0812 29.4907ZM26.7231 21.8983C26.5214 21.6994 26.2799 21.6 25.9987 21.6C25.726 21.6 25.4888 21.6994 25.2871 21.8983C25.0825 22.0972 24.9788 22.3386 24.976 22.6227C24.9788 22.9011 25.0825 23.1398 25.2871 23.3386C25.4888 23.5375 25.726 23.6369 25.9987 23.6369C26.2799 23.6369 26.5214 23.5375 26.7231 23.3386C26.9248 23.1398 27.0243 22.9011 27.0214 22.6227C27.0243 22.3386 26.9248 22.0972 26.7231 21.8983Z" fill="#C37242"/>
<path d="M25.9987 21.6C26.2799 21.6 26.5214 21.6994 26.7231 21.8983C26.9248 22.0972 27.0243 22.3386 27.0214 22.6227C27.0243 22.9011 26.9248 23.1398 26.7231 23.3386C26.5214 23.5375 26.2799 23.6369 25.9987 23.6369C25.726 23.6369 25.4888 23.5375 25.2871 23.3386C25.0825 23.1398 24.9788 22.9011 24.976 22.6227C24.9788 22.3386 25.0825 22.0972 25.2871 21.8983C25.4888 21.6994 25.726 21.6 25.9987 21.6Z" fill="white"/>
<path d="M26.0005 30.4381C25.4817 30.4381 25.0656 30.0092 25.0812 29.4907L25.1954 25.6906C25.2085 25.2562 25.5644 24.9108 25.999 24.9108C26.4334 24.9108 26.7892 25.2558 26.8026 25.69L26.9197 29.49C26.9357 30.0088 26.5195 30.4381 26.0005 30.4381Z" fill="white"/>
<path d="M44.5724 21.7734V20.5455H51.8896V21.7734H48.9396V30H47.5178V21.7734H44.5724ZM55.3542 30.1431C54.6895 30.1431 54.1093 29.9908 53.6138 29.6861C53.1183 29.3814 52.7336 28.9551 52.4597 28.4073C52.1858 27.8595 52.0488 27.2193 52.0488 26.4869C52.0488 25.7513 52.1858 25.1081 52.4597 24.5572C52.7336 24.0063 53.1183 23.5785 53.6138 23.2738C54.1093 22.9691 54.6895 22.8168 55.3542 22.8168C56.019 22.8168 56.5991 22.9691 57.0946 23.2738C57.5901 23.5785 57.9748 24.0063 58.2488 24.5572C58.5227 25.1081 58.6596 25.7513 58.6596 26.4869C58.6596 27.2193 58.5227 27.8595 58.2488 28.4073C57.9748 28.9551 57.5901 29.3814 57.0946 29.6861C56.5991 29.9908 56.019 30.1431 55.3542 30.1431ZM55.3588 28.9844C55.7897 28.9844 56.1467 28.8705 56.4299 28.6428C56.713 28.415 56.9223 28.1119 57.0577 27.7333C57.1962 27.3548 57.2654 26.9377 57.2654 26.4822C57.2654 26.0298 57.1962 25.6143 57.0577 25.2358C56.9223 24.8542 56.713 24.5479 56.4299 24.3171C56.1467 24.0863 55.7897 23.9709 55.3588 23.9709C54.9249 23.9709 54.5648 24.0863 54.2786 24.3171C53.9954 24.5479 53.7846 24.8542 53.6461 25.2358C53.5107 25.6143 53.443 26.0298 53.443 26.4822C53.443 26.9377 53.5107 27.3548 53.6461 27.7333C53.7846 28.1119 53.9954 28.415 54.2786 28.6428C54.5648 28.8705 54.9249 28.9844 55.3588 28.9844ZM65.7044 30.157C65.255 30.157 64.8488 30.0739 64.4856 29.9077C64.1225 29.7384 63.8347 29.4937 63.6223 29.1737C63.4131 28.8536 63.3084 28.4612 63.3084 27.9964C63.3084 27.5964 63.3854 27.267 63.5392 27.0085C63.6931 26.75 63.9009 26.5453 64.1625 26.3945C64.4241 26.2437 64.7164 26.1299 65.0396 26.0529C65.3627 25.976 65.6921 25.9175 66.0275 25.8775C66.4522 25.8282 66.7969 25.7882 67.0616 25.7575C67.3263 25.7236 67.5186 25.6697 67.6387 25.5959C67.7587 25.522 67.8187 25.402 67.8187 25.2358V25.2035C67.8187 24.8003 67.7048 24.4879 67.4771 24.2663C67.2524 24.0447 66.917 23.9339 66.4707 23.9339C66.006 23.9339 65.6397 24.037 65.372 24.2433C65.1073 24.4464 64.9242 24.6726 64.8226 24.9219L63.5254 24.6264C63.6793 24.1955 63.9039 23.8478 64.1994 23.5831C64.4979 23.3153 64.8411 23.1214 65.2289 23.0014C65.6167 22.8783 66.0244 22.8168 66.4522 22.8168C66.7354 22.8168 67.0355 22.8506 67.3525 22.9183C67.6725 22.983 67.9711 23.103 68.248 23.2784C68.5281 23.4538 68.7574 23.7047 68.9359 24.0309C69.1144 24.354 69.2037 24.7741 69.2037 25.2912V30H67.8556V29.0305H67.8002C67.711 29.209 67.5771 29.3845 67.3986 29.5568C67.2201 29.7292 66.9908 29.8723 66.7108 29.9862C66.4307 30.1 66.0952 30.157 65.7044 30.157ZM66.0044 29.049C66.3861 29.049 66.7123 28.9736 66.9831 28.8228C67.257 28.672 67.4648 28.475 67.6064 28.2319C67.751 27.9857 67.8233 27.7225 67.8233 27.4425V26.5284C67.7741 26.5777 67.6787 26.6238 67.5371 26.6669C67.3986 26.7069 67.2401 26.7423 67.0616 26.7731C66.8831 26.8008 66.7092 26.8269 66.54 26.8516C66.3707 26.8731 66.2291 26.8916 66.1152 26.907C65.8475 26.9408 65.6028 26.9978 65.3812 27.0778C65.1627 27.1578 64.9873 27.2732 64.8549 27.424C64.7257 27.5717 64.661 27.7687 64.661 28.0149C64.661 28.3565 64.7872 28.6151 65.0396 28.7905C65.292 28.9628 65.6136 29.049 66.0044 29.049ZM74.029 30.1431C73.3427 30.1431 72.7518 29.9877 72.2563 29.6768C71.7639 29.3629 71.3853 28.9305 71.1206 28.3796C70.856 27.8287 70.7236 27.1978 70.7236 26.4869C70.7236 25.7667 70.859 25.1312 71.1299 24.5803C71.4007 24.0263 71.7823 23.5939 72.2748 23.283C72.7672 22.9722 73.3473 22.8168 74.0152 22.8168C74.5538 22.8168 75.0339 22.9168 75.4555 23.1168C75.8772 23.3138 76.2172 23.5908 76.4758 23.9478C76.7374 24.3048 76.8928 24.7218 76.942 25.1989H75.5986C75.5248 24.8665 75.3555 24.5803 75.0908 24.3402C74.8292 24.1001 74.4784 23.9801 74.0383 23.9801C73.6536 23.9801 73.3166 24.0817 73.0273 24.2848C72.741 24.4848 72.5179 24.7711 72.3579 25.1435C72.1978 25.5128 72.1178 25.9498 72.1178 26.4545C72.1178 26.9716 72.1963 27.4179 72.3532 27.7933C72.5102 28.1688 72.7318 28.4596 73.018 28.6658C73.3073 28.872 73.6474 28.9751 74.0383 28.9751C74.2999 28.9751 74.5368 28.9274 74.7492 28.832C74.9646 28.7335 75.1447 28.5935 75.2893 28.4119C75.4371 28.2304 75.5402 28.0118 75.5986 27.7564H76.942C76.8928 28.215 76.7435 28.6243 76.4942 28.9844C76.2449 29.3445 75.911 29.6276 75.4925 29.8338C75.077 30.04 74.5892 30.1431 74.029 30.1431ZM81.405 30.1431C80.7187 30.1431 80.1278 29.9877 79.6323 29.6768C79.1399 29.3629 78.7613 28.9305 78.4966 28.3796C78.2319 27.8287 78.0996 27.1978 78.0996 26.4869C78.0996 25.7667 78.235 25.1312 78.5059 24.5803C78.7767 24.0263 79.1583 23.5939 79.6507 23.283C80.1432 22.9722 80.7233 22.8168 81.3912 22.8168C81.9297 22.8168 82.4099 22.9168 82.8315 23.1168C83.2531 23.3138 83.5932 23.5908 83.8517 23.9478C84.1133 24.3048 84.2688 24.7218 84.318 25.1989H82.9746C82.9007 24.8665 82.7315 24.5803 82.4668 24.3402C82.2052 24.1001 81.8543 23.9801 81.4142 23.9801C81.0295 23.9801 80.6925 24.0817 80.4032 24.2848C80.117 24.4848 79.8939 24.7711 79.7338 25.1435C79.5738 25.5128 79.4938 25.9498 79.4938 26.4545C79.4938 26.9716 79.5723 27.4179 79.7292 27.7933C79.8862 28.1688 80.1078 28.4596 80.394 28.6658C80.6833 28.872 81.0234 28.9751 81.4142 28.9751C81.6758 28.9751 81.9128 28.9274 82.1252 28.832C82.3406 28.7335 82.5207 28.5935 82.6653 28.4119C82.813 28.2304 82.9161 28.0118 82.9746 27.7564H84.318C84.2688 28.215 84.1195 28.6243 83.8702 28.9844C83.6209 29.3445 83.287 29.6276 82.8684 29.8338C82.4529 30.04 81.9651 30.1431 81.405 30.1431ZM88.8502 30.1431C88.1516 30.1431 87.5499 29.9938 87.0452 29.6953C86.5435 29.3937 86.1557 28.9705 85.8818 28.4258C85.611 27.878 85.4756 27.2363 85.4756 26.5007C85.4756 25.7744 85.611 25.1342 85.8818 24.5803C86.1557 24.0263 86.5374 23.5939 87.0267 23.283C87.5191 22.9722 88.0947 22.8168 88.7533 22.8168C89.1534 22.8168 89.5412 22.8829 89.9166 23.0153C90.2921 23.1476 90.6291 23.3554 90.9276 23.6385C91.2262 23.9216 91.4616 24.2894 91.634 24.7418C91.8063 25.1912 91.8925 25.7375 91.8925 26.3807V26.87H86.2558V25.8359H90.5399C90.5399 25.4728 90.466 25.1512 90.3183 24.8711C90.1705 24.5879 89.9628 24.3648 89.695 24.2017C89.4304 24.0386 89.1195 23.957 88.7625 23.957C88.3747 23.957 88.0362 24.0524 87.7469 24.2433C87.4607 24.431 87.2391 24.6772 87.0821 24.9819C86.9282 25.2835 86.8513 25.6113 86.8513 25.9652V26.7731C86.8513 27.247 86.9344 27.6502 87.1006 27.9826C87.2699 28.315 87.5053 28.5689 87.8069 28.7443C88.1085 28.9167 88.4609 29.0028 88.8641 29.0028C89.1257 29.0028 89.3642 28.9659 89.5796 28.892C89.7951 28.8151 89.9813 28.7012 90.1382 28.5504C90.2952 28.3996 90.4152 28.2134 90.4983 27.9918L91.8048 28.2273C91.7001 28.612 91.5124 28.949 91.2416 29.2383C90.9738 29.5245 90.6368 29.7476 90.2306 29.9077C89.8274 30.0646 89.3673 30.1431 88.8502 30.1431ZM98.7376 24.6403L97.4865 24.8619C97.4342 24.7018 97.3511 24.5495 97.2372 24.4048C97.1264 24.2602 96.9756 24.1417 96.7848 24.0494C96.594 23.957 96.3555 23.9109 96.0692 23.9109C95.6784 23.9109 95.3522 23.9986 95.0906 24.174C94.829 24.3464 94.6982 24.5695 94.6982 24.8434C94.6982 25.0804 94.7859 25.2712 94.9613 25.4158C95.1367 25.5605 95.4199 25.679 95.8107 25.7713L96.9371 26.0298C97.5896 26.1806 98.0759 26.413 98.396 26.7269C98.716 27.0408 98.8761 27.4486 98.8761 27.9503C98.8761 28.375 98.753 28.7536 98.5067 29.0859C98.2636 29.4152 97.9235 29.6738 97.4865 29.8615C97.0526 30.0492 96.5494 30.1431 95.9769 30.1431C95.1829 30.1431 94.535 29.9738 94.0334 29.6353C93.5317 29.2937 93.224 28.8089 93.1101 28.1811L94.4442 27.978C94.5273 28.3258 94.6982 28.5889 94.9567 28.7674C95.2152 28.9428 95.5522 29.0305 95.9677 29.0305C96.4201 29.0305 96.7817 28.9367 97.0526 28.7489C97.3234 28.5581 97.4588 28.3258 97.4588 28.0518C97.4588 27.8303 97.3757 27.6441 97.2095 27.4933C97.0464 27.3424 96.7956 27.2286 96.457 27.1516L95.2567 26.8885C94.5951 26.7377 94.1057 26.4976 93.7887 26.1683C93.4748 25.839 93.3178 25.422 93.3178 24.9173C93.3178 24.4987 93.4348 24.1325 93.6687 23.8185C93.9026 23.5046 94.2257 23.2599 94.6381 23.0845C95.0505 22.906 95.523 22.8168 96.0554 22.8168C96.8217 22.8168 97.425 22.983 97.8651 23.3153C98.3052 23.6446 98.596 24.0863 98.7376 24.6403ZM105.707 24.6403L104.456 24.8619C104.404 24.7018 104.321 24.5495 104.207 24.4048C104.096 24.2602 103.945 24.1417 103.755 24.0494C103.564 23.957 103.325 23.9109 103.039 23.9109C102.648 23.9109 102.322 23.9986 102.06 24.174C101.799 24.3464 101.668 24.5695 101.668 24.8434C101.668 25.0804 101.756 25.2712 101.931 25.4158C102.106 25.5605 102.39 25.679 102.78 25.7713L103.907 26.0298C104.559 26.1806 105.046 26.413 105.366 26.7269C105.686 27.0408 105.846 27.4486 105.846 27.9503C105.846 28.375 105.723 28.7536 105.476 29.0859C105.233 29.4152 104.893 29.6738 104.456 29.8615C104.022 30.0492 103.519 30.1431 102.947 30.1431C102.153 30.1431 101.505 29.9738 101.003 29.6353C100.501 29.2937 100.194 28.8089 100.08 28.1811L101.414 27.978C101.497 28.3258 101.668 28.5889 101.926 28.7674C102.185 28.9428 102.522 29.0305 102.937 29.0305C103.39 29.0305 103.751 28.9367 104.022 28.7489C104.293 28.5581 104.429 28.3258 104.429 28.0518C104.429 27.8303 104.345 27.6441 104.179 27.4933C104.016 27.3424 103.765 27.2286 103.427 27.1516L102.226 26.8885C101.565 26.7377 101.075 26.4976 100.758 26.1683C100.445 25.839 100.288 25.422 100.288 24.9173C100.288 24.4987 100.405 24.1325 100.638 23.8185C100.872 23.5046 101.195 23.2599 101.608 23.0845C102.02 22.906 102.493 22.8168 103.025 22.8168C103.791 22.8168 104.395 22.983 104.835 23.3153C105.275 23.6446 105.566 24.0863 105.707 24.6403ZM118.767 23.62H117.327C117.272 23.3123 117.168 23.0414 117.018 22.8075C116.867 22.5736 116.682 22.3751 116.464 22.212C116.245 22.0489 116.001 21.9258 115.73 21.8427C115.462 21.7596 115.177 21.718 114.876 21.718C114.331 21.718 113.843 21.855 113.412 22.1289C112.984 22.4028 112.646 22.8045 112.397 23.3338C112.15 23.8632 112.027 24.5095 112.027 25.2727C112.027 26.0421 112.15 26.6915 112.397 27.2209C112.646 27.7502 112.986 28.1503 113.417 28.4212C113.848 28.692 114.332 28.8274 114.871 28.8274C115.17 28.8274 115.453 28.7874 115.72 28.7074C115.991 28.6243 116.236 28.5027 116.454 28.3427C116.673 28.1826 116.858 27.9872 117.008 27.7564C117.162 27.5225 117.268 27.2547 117.327 26.9531L118.767 26.9577C118.69 27.4225 118.541 27.8503 118.32 28.2411C118.101 28.6289 117.819 28.9644 117.475 29.2475C117.133 29.5276 116.742 29.7446 116.302 29.8984C115.862 30.0523 115.382 30.1293 114.862 30.1293C114.043 30.1293 113.314 29.9354 112.674 29.5476C112.033 29.1567 111.529 28.5981 111.159 27.8718C110.793 27.1455 110.61 26.2791 110.61 25.2727C110.61 24.2633 110.795 23.3969 111.164 22.6737C111.533 21.9473 112.038 21.3903 112.678 21.0025C113.318 20.6116 114.046 20.4162 114.862 20.4162C115.363 20.4162 115.831 20.4885 116.265 20.6332C116.702 20.7747 117.095 20.984 117.442 21.261C117.79 21.5349 118.078 21.8704 118.306 22.2674C118.533 22.6613 118.687 23.1122 118.767 23.62ZM121.744 25.7898V30H120.363V20.5455H121.725V24.0632H121.813C121.979 23.6816 122.233 23.3784 122.575 23.1538C122.916 22.9291 123.363 22.8168 123.914 22.8168C124.4 22.8168 124.825 22.9168 125.188 23.1168C125.554 23.3169 125.837 23.6154 126.037 24.0124C126.24 24.4064 126.342 24.8988 126.342 25.4897V30H124.961V25.6559C124.961 25.1358 124.828 24.7326 124.56 24.4464C124.292 24.1571 123.92 24.0124 123.443 24.0124C123.116 24.0124 122.824 24.0817 122.566 24.2202C122.31 24.3587 122.108 24.5618 121.961 24.8295C121.816 25.0942 121.744 25.4143 121.744 25.7898ZM131.24 30.1431C130.541 30.1431 129.94 29.9938 129.435 29.6953C128.933 29.3937 128.545 28.9705 128.271 28.4258C128.001 27.878 127.865 27.2363 127.865 26.5007C127.865 25.7744 128.001 25.1342 128.271 24.5803C128.545 24.0263 128.927 23.5939 129.416 23.283C129.909 22.9722 130.484 22.8168 131.143 22.8168C131.543 22.8168 131.931 22.8829 132.306 23.0153C132.682 23.1476 133.019 23.3554 133.317 23.6385C133.616 23.9216 133.851 24.2894 134.024 24.7418C134.196 25.1912 134.282 25.7375 134.282 26.3807V26.87H128.645V25.8359H132.93C132.93 25.4728 132.856 25.1512 132.708 24.8711C132.56 24.5879 132.352 24.3648 132.085 24.2017C131.82 24.0386 131.509 23.957 131.152 23.957C130.764 23.957 130.426 24.0524 130.137 24.2433C129.85 24.431 129.629 24.6772 129.472 24.9819C129.318 25.2835 129.241 25.6113 129.241 25.9652V26.7731C129.241 27.247 129.324 27.6502 129.49 27.9826C129.66 28.315 129.895 28.5689 130.197 28.7443C130.498 28.9167 130.851 29.0028 131.254 29.0028C131.515 29.0028 131.754 28.9659 131.969 28.892C132.185 28.8151 132.371 28.7012 132.528 28.5504C132.685 28.3996 132.805 28.2134 132.888 27.9918L134.194 28.2273C134.09 28.612 133.902 28.949 133.631 29.2383C133.363 29.5245 133.026 29.7476 132.62 29.9077C132.217 30.0646 131.757 30.1431 131.24 30.1431ZM138.801 30.1431C138.114 30.1431 137.523 29.9877 137.028 29.6768C136.535 29.3629 136.157 28.9305 135.892 28.3796C135.627 27.8287 135.495 27.1978 135.495 26.4869C135.495 25.7667 135.631 25.1312 135.901 24.5803C136.172 24.0263 136.554 23.5939 137.046 23.283C137.539 22.9722 138.119 22.8168 138.787 22.8168C139.325 22.8168 139.805 22.9168 140.227 23.1168C140.649 23.3138 140.989 23.5908 141.247 23.9478C141.509 24.3048 141.664 24.7218 141.714 25.1989H140.37C140.296 24.8665 140.127 24.5803 139.862 24.3402C139.601 24.1001 139.25 23.9801 138.81 23.9801C138.425 23.9801 138.088 24.0817 137.799 24.2848C137.513 24.4848 137.289 24.7711 137.129 25.1435C136.969 25.5128 136.889 25.9498 136.889 26.4545C136.889 26.9716 136.968 27.4179 137.125 27.7933C137.282 28.1688 137.503 28.4596 137.79 28.6658C138.079 28.872 138.419 28.9751 138.81 28.9751C139.071 28.9751 139.308 28.9274 139.521 28.832C139.736 28.7335 139.916 28.5935 140.061 28.4119C140.209 28.2304 140.312 28.0118 140.37 27.7564H141.714C141.664 28.215 141.515 28.6243 141.266 28.9844C141.016 29.3445 140.682 29.6276 140.264 29.8338C139.848 30.04 139.361 30.1431 138.801 30.1431ZM144.459 27.5948L144.45 25.9098H144.69L147.515 22.9091H149.168L145.946 26.3253H145.729L144.459 27.5948ZM143.19 30V20.5455H144.57V30H143.19ZM147.668 30L145.129 26.63L146.08 25.6651L149.362 30H147.668ZM150.426 30V22.9091H151.751V24.0632H151.839C151.986 23.6723 152.228 23.3677 152.563 23.1491C152.899 22.9276 153.3 22.8168 153.768 22.8168C154.242 22.8168 154.639 22.9276 154.959 23.1491C155.282 23.3707 155.521 23.6754 155.675 24.0632H155.749C155.918 23.6847 156.187 23.383 156.557 23.1584C156.926 22.9306 157.366 22.8168 157.877 22.8168C158.52 22.8168 159.045 23.0183 159.451 23.4215C159.86 23.8247 160.065 24.4325 160.065 25.245V30H158.685V25.3743C158.685 24.8942 158.554 24.5464 158.292 24.331C158.031 24.1155 157.718 24.0078 157.355 24.0078C156.906 24.0078 156.557 24.1463 156.307 24.4233C156.058 24.6972 155.933 25.0496 155.933 25.4805V30H154.558V25.2866C154.558 24.9019 154.438 24.5926 154.198 24.3587C153.958 24.1248 153.645 24.0078 153.26 24.0078C152.999 24.0078 152.757 24.0771 152.536 24.2156C152.317 24.351 152.14 24.5402 152.005 24.7834C151.872 25.0265 151.806 25.3081 151.806 25.6282V30H150.426ZM163.979 30.157C163.529 30.157 163.123 30.0739 162.76 29.9077C162.397 29.7384 162.109 29.4937 161.897 29.1737C161.687 28.8536 161.583 28.4612 161.583 27.9964C161.583 27.5964 161.66 27.267 161.814 27.0085C161.968 26.75 162.175 26.5453 162.437 26.3945C162.698 26.2437 162.991 26.1299 163.314 26.0529C163.637 25.976 163.966 25.9175 164.302 25.8775C164.727 25.8282 165.071 25.7882 165.336 25.7575C165.601 25.7236 165.793 25.6697 165.913 25.5959C166.033 25.522 166.093 25.402 166.093 25.2358V25.2035C166.093 24.8003 165.979 24.4879 165.752 24.2663C165.527 24.0447 165.191 23.9339 164.745 23.9339C164.28 23.9339 163.914 24.037 163.646 24.2433C163.382 24.4464 163.199 24.6726 163.097 24.9219L161.8 24.6264C161.954 24.1955 162.178 23.8478 162.474 23.5831C162.772 23.3153 163.116 23.1214 163.503 23.0014C163.891 22.8783 164.299 22.8168 164.727 22.8168C165.01 22.8168 165.31 22.8506 165.627 22.9183C165.947 22.983 166.245 23.103 166.522 23.2784C166.803 23.4538 167.032 23.7047 167.21 24.0309C167.389 24.354 167.478 24.7741 167.478 25.2912V30H166.13V29.0305H166.075C165.985 29.209 165.852 29.3845 165.673 29.5568C165.495 29.7292 165.265 29.8723 164.985 29.9862C164.705 30.1 164.37 30.157 163.979 30.157ZM164.279 29.049C164.66 29.049 164.987 28.9736 165.258 28.8228C165.531 28.672 165.739 28.475 165.881 28.2319C166.025 27.9857 166.098 27.7225 166.098 27.4425V26.5284C166.049 26.5777 165.953 26.6238 165.812 26.6669C165.673 26.7069 165.515 26.7423 165.336 26.7731C165.158 26.8008 164.984 26.8269 164.814 26.8516C164.645 26.8731 164.504 26.8916 164.39 26.907C164.122 26.9408 163.877 26.9978 163.656 27.0778C163.437 27.1578 163.262 27.2732 163.129 27.424C163 27.5717 162.935 27.7687 162.935 28.0149C162.935 28.3565 163.062 28.6151 163.314 28.7905C163.566 28.9628 163.888 29.049 164.279 29.049ZM169.317 30V22.9091H170.651V24.0355H170.725C170.854 23.6539 171.082 23.3538 171.408 23.1353C171.737 22.9137 172.11 22.8029 172.525 22.8029C172.611 22.8029 172.713 22.806 172.83 22.8121C172.95 22.8183 173.044 22.826 173.111 22.8352V24.1555C173.056 24.1402 172.957 24.1232 172.816 24.1048C172.674 24.0832 172.533 24.0724 172.391 24.0724C172.065 24.0724 171.774 24.1417 171.519 24.2802C171.266 24.4156 171.066 24.6049 170.919 24.848C170.771 25.0881 170.697 25.362 170.697 25.6697V30H169.317ZM175.611 22.9091L177.176 25.6697L178.755 22.9091H180.265L178.053 26.4545L180.283 30H178.773L177.176 27.3501L175.583 30H174.069L176.276 26.4545L174.097 22.9091H175.611ZM188.294 30H185.233V20.5455H188.391C189.317 20.5455 190.113 20.7347 190.777 21.1133C191.442 21.4888 191.952 22.0289 192.305 22.7337C192.662 23.4354 192.841 24.2771 192.841 25.2589C192.841 26.2437 192.661 27.0901 192.301 27.7979C191.944 28.5058 191.427 29.0505 190.75 29.4322C190.073 29.8107 189.254 30 188.294 30ZM186.66 28.7536H188.215C188.935 28.7536 189.534 28.6181 190.011 28.3473C190.488 28.0734 190.845 27.6779 191.082 27.1609C191.319 26.6407 191.438 26.0067 191.438 25.2589C191.438 24.5172 191.319 23.8878 191.082 23.3707C190.848 22.8537 190.499 22.4613 190.034 22.1935C189.569 21.9258 188.992 21.7919 188.303 21.7919H186.66V28.7536ZM197.56 30.1431C196.862 30.1431 196.26 29.9938 195.755 29.6953C195.253 29.3937 194.866 28.9705 194.592 28.4258C194.321 27.878 194.186 27.2363 194.186 26.5007C194.186 25.7744 194.321 25.1342 194.592 24.5803C194.866 24.0263 195.247 23.5939 195.737 23.283C196.229 22.9722 196.805 22.8168 197.463 22.8168C197.863 22.8168 198.251 22.8829 198.627 23.0153C199.002 23.1476 199.339 23.3554 199.638 23.6385C199.936 23.9216 200.172 24.2894 200.344 24.7418C200.516 25.1912 200.602 25.7375 200.602 26.3807V26.87H194.966V25.8359H199.25C199.25 25.4728 199.176 25.1512 199.028 24.8711C198.881 24.5879 198.673 24.3648 198.405 24.2017C198.14 24.0386 197.829 23.957 197.472 23.957C197.085 23.957 196.746 24.0524 196.457 24.2433C196.171 24.431 195.949 24.6772 195.792 24.9819C195.638 25.2835 195.561 25.6113 195.561 25.9652V26.7731C195.561 27.247 195.644 27.6502 195.811 27.9826C195.98 28.315 196.215 28.5689 196.517 28.7443C196.818 28.9167 197.171 29.0028 197.574 29.0028C197.836 29.0028 198.074 28.9659 198.29 28.892C198.505 28.8151 198.691 28.7012 198.848 28.5504C199.005 28.3996 199.125 28.2134 199.208 27.9918L200.515 28.2273C200.41 28.612 200.222 28.949 199.952 29.2383C199.684 29.5245 199.347 29.7476 198.941 29.9077C198.537 30.0646 198.077 30.1431 197.56 30.1431ZM207.997 22.9091L205.426 30H203.948L201.372 22.9091H202.854L204.65 28.3658H204.724L206.515 22.9091H207.997ZM212.109 30.1431C211.41 30.1431 210.809 29.9938 210.304 29.6953C209.802 29.3937 209.415 28.9705 209.141 28.4258C208.87 27.878 208.734 27.2363 208.734 26.5007C208.734 25.7744 208.87 25.1342 209.141 24.5803C209.415 24.0263 209.796 23.5939 210.286 23.283C210.778 22.9722 211.353 22.8168 212.012 22.8168C212.412 22.8168 212.8 22.8829 213.175 23.0153C213.551 23.1476 213.888 23.3554 214.186 23.6385C214.485 23.9216 214.72 24.2894 214.893 24.7418C215.065 25.1912 215.151 25.7375 215.151 26.3807V26.87H209.515V25.8359H213.799C213.799 25.4728 213.725 25.1512 213.577 24.8711C213.429 24.5879 213.222 24.3648 212.954 24.2017C212.689 24.0386 212.378 23.957 212.021 23.957C211.634 23.957 211.295 24.0524 211.006 24.2433C210.719 24.431 210.498 24.6772 210.341 24.9819C210.187 25.2835 210.11 25.6113 210.11 25.9652V26.7731C210.11 27.247 210.193 27.6502 210.359 27.9826C210.529 28.315 210.764 28.5689 211.066 28.7443C211.367 28.9167 211.72 29.0028 212.123 29.0028C212.384 29.0028 212.623 28.9659 212.838 28.892C213.054 28.8151 213.24 28.7012 213.397 28.5504C213.554 28.3996 213.674 28.2134 213.757 27.9918L215.064 28.2273C214.959 28.612 214.771 28.949 214.5 29.2383C214.233 29.5245 213.896 29.7476 213.489 29.9077C213.086 30.0646 212.626 30.1431 212.109 30.1431ZM218.063 20.5455V30H216.683V20.5455H218.063ZM222.907 30.1431C222.242 30.1431 221.662 29.9908 221.167 29.6861C220.671 29.3814 220.286 28.9551 220.012 28.4073C219.739 27.8595 219.602 27.2193 219.602 26.4869C219.602 25.7513 219.739 25.1081 220.012 24.5572C220.286 24.0063 220.671 23.5785 221.167 23.2738C221.662 22.9691 222.242 22.8168 222.907 22.8168C223.572 22.8168 224.152 22.9691 224.647 23.2738C225.143 23.5785 225.528 24.0063 225.801 24.5572C226.075 25.1081 226.212 25.7513 226.212 26.4869C226.212 27.2193 226.075 27.8595 225.801 28.4073C225.528 28.9551 225.143 29.3814 224.647 29.6861C224.152 29.9908 223.572 30.1431 222.907 30.1431ZM222.912 28.9844C223.342 28.9844 223.699 28.8705 223.983 28.6428C224.266 28.415 224.475 28.1119 224.61 27.7333C224.749 27.3548 224.818 26.9377 224.818 26.4822C224.818 26.0298 224.749 25.6143 224.61 25.2358C224.475 24.8542 224.266 24.5479 223.983 24.3171C223.699 24.0863 223.342 23.9709 222.912 23.9709C222.478 23.9709 222.118 24.0863 221.831 24.3171C221.548 24.5479 221.337 24.8542 221.199 25.2358C221.063 25.6143 220.996 26.0298 220.996 26.4822C220.996 26.9377 221.063 27.3548 221.199 27.7333C221.337 28.1119 221.548 28.415 221.831 28.6428C222.118 28.8705 222.478 28.9844 222.912 28.9844ZM227.753 32.6591V22.9091H229.101V24.0586H229.217C229.297 23.9109 229.412 23.7401 229.563 23.5462C229.714 23.3523 229.923 23.183 230.191 23.0384C230.458 22.8906 230.812 22.8168 231.252 22.8168C231.825 22.8168 232.336 22.9614 232.785 23.2507C233.234 23.54 233.587 23.957 233.842 24.5018C234.101 25.0465 234.23 25.7021 234.23 26.4684C234.23 27.2347 234.102 27.8918 233.847 28.4396C233.591 28.9844 233.241 29.4045 232.794 29.6999C232.348 29.9923 231.839 30.1385 231.266 30.1385C230.835 30.1385 230.483 30.0662 230.209 29.9215C229.938 29.7769 229.726 29.6076 229.572 29.4137C229.418 29.2198 229.3 29.0475 229.217 28.8967H229.133V32.6591H227.753ZM229.106 26.4545C229.106 26.9531 229.178 27.3902 229.323 27.7656C229.467 28.1411 229.677 28.435 229.951 28.6474C230.224 28.8567 230.56 28.9613 230.957 28.9613C231.369 28.9613 231.714 28.852 231.991 28.6335C232.268 28.4119 232.477 28.1119 232.619 27.7333C232.764 27.3548 232.836 26.9285 232.836 26.4545C232.836 25.9867 232.765 25.5666 232.623 25.1942C232.485 24.8219 232.276 24.5279 231.996 24.3125C231.719 24.0971 231.372 23.9893 230.957 23.9893C230.557 23.9893 230.218 24.0924 229.941 24.2987C229.667 24.5049 229.46 24.7926 229.318 25.1619C229.177 25.5312 229.106 25.9621 229.106 26.4545ZM238.833 30.1431C238.134 30.1431 237.532 29.9938 237.028 29.6953C236.526 29.3937 236.138 28.9705 235.864 28.4258C235.593 27.878 235.458 27.2363 235.458 26.5007C235.458 25.7744 235.593 25.1342 235.864 24.5803C236.138 24.0263 236.52 23.5939 237.009 23.283C237.502 22.9722 238.077 22.8168 238.736 22.8168C239.136 22.8168 239.524 22.8829 239.899 23.0153C240.275 23.1476 240.612 23.3554 240.91 23.6385C241.209 23.9216 241.444 24.2894 241.616 24.7418C241.789 25.1912 241.875 25.7375 241.875 26.3807V26.87H236.238V25.8359H240.522C240.522 25.4728 240.448 25.1512 240.301 24.8711C240.153 24.5879 239.945 24.3648 239.677 24.2017C239.413 24.0386 239.102 23.957 238.745 23.957C238.357 23.957 238.019 24.0524 237.729 24.2433C237.443 24.431 237.222 24.6772 237.065 24.9819C236.911 25.2835 236.834 25.6113 236.834 25.9652V26.7731C236.834 27.247 236.917 27.6502 237.083 27.9826C237.252 28.315 237.488 28.5689 237.789 28.7443C238.091 28.9167 238.443 29.0028 238.847 29.0028C239.108 29.0028 239.347 28.9659 239.562 28.892C239.777 28.8151 239.964 28.7012 240.121 28.5504C240.278 28.3996 240.398 28.2134 240.481 27.9918L241.787 28.2273C241.683 28.612 241.495 28.949 241.224 29.2383C240.956 29.5245 240.619 29.7476 240.213 29.9077C239.81 30.0646 239.35 30.1431 238.833 30.1431ZM243.406 30V22.9091H244.741V24.0355H244.814C244.944 23.6539 245.171 23.3538 245.498 23.1353C245.827 22.9137 246.199 22.8029 246.615 22.8029C246.701 22.8029 246.803 22.806 246.92 22.8121C247.04 22.8183 247.133 22.826 247.201 22.8352V24.1555C247.146 24.1402 247.047 24.1232 246.906 24.1048C246.764 24.0832 246.623 24.0724 246.481 24.0724C246.155 24.0724 245.864 24.1417 245.608 24.2802C245.356 24.4156 245.156 24.6049 245.008 24.848C244.861 25.0881 244.787 25.362 244.787 25.6697V30H243.406ZM252.746 30H251.231L254.634 20.5455H256.282L259.684 30H258.17L255.497 22.2628H255.423L252.746 30ZM252.999 26.2976H257.911V27.4979H252.999V26.2976ZM266.201 24.6403L264.95 24.8619C264.898 24.7018 264.815 24.5495 264.701 24.4048C264.59 24.2602 264.439 24.1417 264.249 24.0494C264.058 23.957 263.819 23.9109 263.533 23.9109C263.142 23.9109 262.816 23.9986 262.554 24.174C262.293 24.3464 262.162 24.5695 262.162 24.8434C262.162 25.0804 262.25 25.2712 262.425 25.4158C262.601 25.5605 262.884 25.679 263.275 25.7713L264.401 26.0298C265.053 26.1806 265.54 26.413 265.86 26.7269C266.18 27.0408 266.34 27.4486 266.34 27.9503C266.34 28.375 266.217 28.7536 265.971 29.0859C265.727 29.4152 265.387 29.6738 264.95 29.8615C264.516 30.0492 264.013 30.1431 263.441 30.1431C262.647 30.1431 261.999 29.9738 261.497 29.6353C260.996 29.2937 260.688 28.8089 260.574 28.1811L261.908 27.978C261.991 28.3258 262.162 28.5889 262.421 28.7674C262.679 28.9428 263.016 29.0305 263.432 29.0305C263.884 29.0305 264.246 28.9367 264.516 28.7489C264.787 28.5581 264.923 28.3258 264.923 28.0518C264.923 27.8303 264.84 27.6441 264.673 27.4933C264.51 27.3424 264.259 27.2286 263.921 27.1516L262.721 26.8885C262.059 26.7377 261.57 26.4976 261.253 26.1683C260.939 25.839 260.782 25.422 260.782 24.9173C260.782 24.4987 260.899 24.1325 261.133 23.8185C261.366 23.5046 261.69 23.2599 262.102 23.0845C262.514 22.906 262.987 22.8168 263.519 22.8168C264.286 22.8168 264.889 22.983 265.329 23.3153C265.769 23.6446 266.06 24.0863 266.201 24.6403ZM273.171 24.6403L271.92 24.8619C271.868 24.7018 271.785 24.5495 271.671 24.4048C271.56 24.2602 271.409 24.1417 271.218 24.0494C271.028 23.957 270.789 23.9109 270.503 23.9109C270.112 23.9109 269.786 23.9986 269.524 24.174C269.263 24.3464 269.132 24.5695 269.132 24.8434C269.132 25.0804 269.219 25.2712 269.395 25.4158C269.57 25.5605 269.853 25.679 270.244 25.7713L271.371 26.0298C272.023 26.1806 272.509 26.413 272.83 26.7269C273.15 27.0408 273.31 27.4486 273.31 27.9503C273.31 28.375 273.187 28.7536 272.94 29.0859C272.697 29.4152 272.357 29.6738 271.92 29.8615C271.486 30.0492 270.983 30.1431 270.411 30.1431C269.616 30.1431 268.969 29.9738 268.467 29.6353C267.965 29.2937 267.658 28.8089 267.544 28.1811L268.878 27.978C268.961 28.3258 269.132 28.5889 269.39 28.7674C269.649 28.9428 269.986 29.0305 270.401 29.0305C270.854 29.0305 271.215 28.9367 271.486 28.7489C271.757 28.5581 271.892 28.3258 271.892 28.0518C271.892 27.8303 271.809 27.6441 271.643 27.4933C271.48 27.3424 271.229 27.2286 270.891 27.1516L269.69 26.8885C269.029 26.7377 268.539 26.4976 268.222 26.1683C267.908 25.839 267.751 25.422 267.751 24.9173C267.751 24.4987 267.868 24.1325 268.102 23.8185C268.336 23.5046 268.659 23.2599 269.072 23.0845C269.484 22.906 269.957 22.8168 270.489 22.8168C271.255 22.8168 271.859 22.983 272.299 23.3153C272.739 23.6446 273.03 24.0863 273.171 24.6403ZM274.827 30V22.9091H276.208V30H274.827ZM275.524 21.815C275.284 21.815 275.078 21.735 274.906 21.5749C274.737 21.4118 274.652 21.2179 274.652 20.9933C274.652 20.7655 274.737 20.5716 274.906 20.4116C275.078 20.2485 275.284 20.1669 275.524 20.1669C275.764 20.1669 275.969 20.2485 276.138 20.4116C276.311 20.5716 276.397 20.7655 276.397 20.9933C276.397 21.2179 276.311 21.4118 276.138 21.5749C275.969 21.735 275.764 21.815 275.524 21.815ZM283.378 24.6403L282.127 24.8619C282.075 24.7018 281.992 24.5495 281.878 24.4048C281.767 24.2602 281.616 24.1417 281.425 24.0494C281.235 23.957 280.996 23.9109 280.71 23.9109C280.319 23.9109 279.993 23.9986 279.731 24.174C279.47 24.3464 279.339 24.5695 279.339 24.8434C279.339 25.0804 279.426 25.2712 279.602 25.4158C279.777 25.5605 280.06 25.679 280.451 25.7713L281.578 26.0298C282.23 26.1806 282.717 26.413 283.037 26.7269C283.357 27.0408 283.517 27.4486 283.517 27.9503C283.517 28.375 283.394 28.7536 283.147 29.0859C282.904 29.4152 282.564 29.6738 282.127 29.8615C281.693 30.0492 281.19 30.1431 280.618 30.1431C279.824 30.1431 279.176 29.9738 278.674 29.6353C278.172 29.2937 277.865 28.8089 277.751 28.1811L279.085 27.978C279.168 28.3258 279.339 28.5889 279.597 28.7674C279.856 28.9428 280.193 29.0305 280.608 29.0305C281.061 29.0305 281.422 28.9367 281.693 28.7489C281.964 28.5581 282.099 28.3258 282.099 28.0518C282.099 27.8303 282.016 27.6441 281.85 27.4933C281.687 27.3424 281.436 27.2286 281.098 27.1516L279.897 26.8885C279.236 26.7377 278.746 26.4976 278.429 26.1683C278.115 25.839 277.958 25.422 277.958 24.9173C277.958 24.4987 278.075 24.1325 278.309 23.8185C278.543 23.5046 278.866 23.2599 279.279 23.0845C279.691 22.906 280.164 22.8168 280.696 22.8168C281.462 22.8168 282.066 22.983 282.506 23.3153C282.946 23.6446 283.237 24.0863 283.378 24.6403ZM288.344 22.9091V24.017H284.471V22.9091H288.344ZM285.51 21.2102H286.89V27.918C286.89 28.1857 286.93 28.3873 287.01 28.5227C287.09 28.6551 287.193 28.7459 287.32 28.7951C287.449 28.8413 287.589 28.8643 287.74 28.8643C287.85 28.8643 287.947 28.8567 288.03 28.8413C288.114 28.8259 288.178 28.8136 288.224 28.8043L288.474 29.9446C288.394 29.9754 288.28 30.0062 288.132 30.0369C287.984 30.0708 287.8 30.0893 287.578 30.0923C287.215 30.0985 286.876 30.0339 286.562 29.8984C286.248 29.763 285.995 29.5537 285.801 29.2706C285.607 28.9875 285.51 28.632 285.51 28.2042V21.2102ZM296.686 22.9091V24.017H292.679V22.9091H296.686ZM293.778 30V22.0874C293.778 21.6442 293.875 21.2764 294.069 20.984C294.263 20.6886 294.52 20.4685 294.84 20.3239C295.16 20.1761 295.508 20.1023 295.883 20.1023C296.16 20.1023 296.397 20.1254 296.594 20.1715C296.791 20.2146 296.937 20.2546 297.033 20.2915L296.709 21.4087C296.645 21.3903 296.562 21.3687 296.46 21.3441C296.359 21.3164 296.235 21.3026 296.091 21.3026C295.755 21.3026 295.515 21.3857 295.371 21.5518C295.229 21.718 295.158 21.9581 295.158 22.272V30H293.778ZM300.887 30.1431C300.189 30.1431 299.587 29.9938 299.082 29.6953C298.581 29.3937 298.193 28.9705 297.919 28.4258C297.648 27.878 297.513 27.2363 297.513 26.5007C297.513 25.7744 297.648 25.1342 297.919 24.5803C298.193 24.0263 298.574 23.5939 299.064 23.283C299.556 22.9722 300.132 22.8168 300.79 22.8168C301.19 22.8168 301.578 22.8829 301.954 23.0153C302.329 23.1476 302.666 23.3554 302.965 23.6385C303.263 23.9216 303.499 24.2894 303.671 24.7418C303.843 25.1912 303.93 25.7375 303.93 26.3807V26.87H298.293V25.8359H302.577C302.577 25.4728 302.503 25.1512 302.355 24.8711C302.208 24.5879 302 24.3648 301.732 24.2017C301.467 24.0386 301.157 23.957 300.8 23.957C300.412 23.957 300.073 24.0524 299.784 24.2433C299.498 24.431 299.276 24.6772 299.119 24.9819C298.965 25.2835 298.888 25.6113 298.888 25.9652V26.7731C298.888 27.247 298.972 27.6502 299.138 27.9826C299.307 28.315 299.542 28.5689 299.844 28.7443C300.146 28.9167 300.498 29.0028 300.901 29.0028C301.163 29.0028 301.401 28.9659 301.617 28.892C301.832 28.8151 302.018 28.7012 302.175 28.5504C302.332 28.3996 302.452 28.2134 302.535 27.9918L303.842 28.2273C303.737 28.612 303.55 28.949 303.279 29.2383C303.011 29.5245 302.674 29.7476 302.268 29.9077C301.864 30.0646 301.404 30.1431 300.887 30.1431ZM307.525 30.157C307.075 30.157 306.669 30.0739 306.306 29.9077C305.943 29.7384 305.655 29.4937 305.443 29.1737C305.233 28.8536 305.129 28.4612 305.129 27.9964C305.129 27.5964 305.206 27.267 305.36 27.0085C305.513 26.75 305.721 26.5453 305.983 26.3945C306.244 26.2437 306.537 26.1299 306.86 26.0529C307.183 25.976 307.512 25.9175 307.848 25.8775C308.273 25.8282 308.617 25.7882 308.882 25.7575C309.147 25.7236 309.339 25.6697 309.459 25.5959C309.579 25.522 309.639 25.402 309.639 25.2358V25.2035C309.639 24.8003 309.525 24.4879 309.297 24.2663C309.073 24.0447 308.737 23.9339 308.291 23.9339C307.826 23.9339 307.46 24.037 307.192 24.2433C306.928 24.4464 306.744 24.6726 306.643 24.9219L305.346 24.6264C305.5 24.1955 305.724 23.8478 306.02 23.5831C306.318 23.3153 306.661 23.1214 307.049 23.0014C307.437 22.8783 307.845 22.8168 308.273 22.8168C308.556 22.8168 308.856 22.8506 309.173 22.9183C309.493 22.983 309.791 23.103 310.068 23.2784C310.348 23.4538 310.578 23.7047 310.756 24.0309C310.935 24.354 311.024 24.7741 311.024 25.2912V30H309.676V29.0305H309.621C309.531 29.209 309.397 29.3845 309.219 29.5568C309.04 29.7292 308.811 29.8723 308.531 29.9862C308.251 30.1 307.916 30.157 307.525 30.157ZM307.825 29.049C308.206 29.049 308.533 28.9736 308.803 28.8228C309.077 28.672 309.285 28.475 309.427 28.2319C309.571 27.9857 309.644 27.7225 309.644 27.4425V26.5284C309.594 26.5777 309.499 26.6238 309.357 26.6669C309.219 26.7069 309.06 26.7423 308.882 26.7731C308.703 26.8008 308.53 26.8269 308.36 26.8516C308.191 26.8731 308.049 26.8916 307.936 26.907C307.668 26.9408 307.423 26.9978 307.202 27.0778C306.983 27.1578 306.808 27.2732 306.675 27.424C306.546 27.5717 306.481 27.7687 306.481 28.0149C306.481 28.3565 306.608 28.6151 306.86 28.7905C307.112 28.9628 307.434 29.049 307.825 29.049ZM316.172 22.9091V24.017H312.299V22.9091H316.172ZM313.338 21.2102H314.718V27.918C314.718 28.1857 314.758 28.3873 314.838 28.5227C314.918 28.6551 315.021 28.7459 315.148 28.7951C315.277 28.8413 315.417 28.8643 315.568 28.8643C315.679 28.8643 315.775 28.8567 315.859 28.8413C315.942 28.8259 316.006 28.8136 316.052 28.8043L316.302 29.9446C316.222 29.9754 316.108 30.0062 315.96 30.0369C315.812 30.0708 315.628 30.0893 315.406 30.0923C315.043 30.0985 314.704 30.0339 314.391 29.8984C314.077 29.763 313.823 29.5537 313.629 29.2706C313.435 28.9875 313.338 28.632 313.338 28.2042V21.2102ZM322.191 27.0593V22.9091H323.576V30H322.219V28.772H322.145C321.982 29.1506 321.72 29.466 321.36 29.7184C321.003 29.9677 320.559 30.0923 320.026 30.0923C319.571 30.0923 319.167 29.9923 318.817 29.7923C318.469 29.5891 318.195 29.2891 317.995 28.892C317.798 28.495 317.699 28.0041 317.699 27.4194V22.9091H319.08V27.2532C319.08 27.7364 319.214 28.1211 319.481 28.4073C319.749 28.6935 320.097 28.8366 320.525 28.8366C320.783 28.8366 321.04 28.772 321.296 28.6428C321.554 28.5135 321.768 28.3181 321.937 28.0565C322.11 27.7949 322.194 27.4625 322.191 27.0593ZM325.431 30V22.9091H326.765V24.0355H326.839C326.968 23.6539 327.196 23.3538 327.522 23.1353C327.851 22.9137 328.224 22.8029 328.639 22.8029C328.725 22.8029 328.827 22.806 328.944 22.8121C329.064 22.8183 329.158 22.826 329.226 22.8352V24.1555C329.17 24.1402 329.072 24.1232 328.93 24.1048C328.789 24.0832 328.647 24.0724 328.505 24.0724C328.179 24.0724 327.888 24.1417 327.633 24.2802C327.381 24.4156 327.18 24.6049 327.033 24.848C326.885 25.0881 326.811 25.362 326.811 25.6697V30H325.431ZM333.222 30.1431C332.524 30.1431 331.922 29.9938 331.417 29.6953C330.916 29.3937 330.528 28.9705 330.254 28.4258C329.983 27.878 329.848 27.2363 329.848 26.5007C329.848 25.7744 329.983 25.1342 330.254 24.5803C330.528 24.0263 330.909 23.5939 331.399 23.283C331.891 22.9722 332.467 22.8168 333.125 22.8168C333.525 22.8168 333.913 22.8829 334.289 23.0153C334.664 23.1476 335.001 23.3554 335.3 23.6385C335.598 23.9216 335.834 24.2894 336.006 24.7418C336.178 25.1912 336.265 25.7375 336.265 26.3807V26.87H330.628V25.8359H334.912C334.912 25.4728 334.838 25.1512 334.69 24.8711C334.543 24.5879 334.335 24.3648 334.067 24.2017C333.802 24.0386 333.492 23.957 333.135 23.957C332.747 23.957 332.408 24.0524 332.119 24.2433C331.833 24.431 331.611 24.6772 331.454 24.9819C331.3 25.2835 331.223 25.6113 331.223 25.9652V26.7731C331.223 27.247 331.306 27.6502 331.473 27.9826C331.642 28.315 331.877 28.5689 332.179 28.7443C332.481 28.9167 332.833 29.0028 333.236 29.0028C333.498 29.0028 333.736 28.9659 333.952 28.892C334.167 28.8151 334.353 28.7012 334.51 28.5504C334.667 28.3996 334.787 28.2134 334.87 27.9918L336.177 28.2273C336.072 28.612 335.884 28.949 335.614 29.2383C335.346 29.5245 335.009 29.7476 334.603 29.9077C334.199 30.0646 333.739 30.1431 333.222 30.1431ZM343.11 24.6403L341.859 24.8619C341.806 24.7018 341.723 24.5495 341.609 24.4048C341.498 24.2602 341.348 24.1417 341.157 24.0494C340.966 23.957 340.728 23.9109 340.441 23.9109C340.05 23.9109 339.724 23.9986 339.463 24.174C339.201 24.3464 339.07 24.5695 339.07 24.8434C339.07 25.0804 339.158 25.2712 339.333 25.4158C339.509 25.5605 339.792 25.679 340.183 25.7713L341.309 26.0298C341.962 26.1806 342.448 26.413 342.768 26.7269C343.088 27.0408 343.248 27.4486 343.248 27.9503C343.248 28.375 343.125 28.7536 342.879 29.0859C342.636 29.4152 342.296 29.6738 341.859 29.8615C341.425 30.0492 340.921 30.1431 340.349 30.1431C339.555 30.1431 338.907 29.9738 338.405 29.6353C337.904 29.2937 337.596 28.8089 337.482 28.1811L338.816 27.978C338.899 28.3258 339.07 28.5889 339.329 28.7674C339.587 28.9428 339.924 29.0305 340.34 29.0305C340.792 29.0305 341.154 28.9367 341.425 28.7489C341.695 28.5581 341.831 28.3258 341.831 28.0518C341.831 27.8303 341.748 27.6441 341.582 27.4933C341.418 27.3424 341.168 27.2286 340.829 27.1516L339.629 26.8885C338.967 26.7377 338.478 26.4976 338.161 26.1683C337.847 25.839 337.69 25.422 337.69 24.9173C337.69 24.4987 337.807 24.1325 338.041 23.8185C338.275 23.5046 338.598 23.2599 339.01 23.0845C339.423 22.906 339.895 22.8168 340.427 22.8168C341.194 22.8168 341.797 22.983 342.237 23.3153C342.677 23.6446 342.968 24.0863 343.11 24.6403ZM346.562 28.7074L346.492 29.2106C346.446 29.5799 346.368 29.9646 346.257 30.3647C346.149 30.7679 346.037 31.1418 345.92 31.4865C345.806 31.8312 345.712 32.1051 345.638 32.3082H344.66C344.7 32.1174 344.755 31.8589 344.826 31.5327C344.897 31.2095 344.966 30.8479 345.034 30.4478C345.101 30.0477 345.152 29.6399 345.186 29.2244L345.232 28.7074H346.562ZM45.8004 51.6591C45.5942 51.6591 45.4065 51.6422 45.2372 51.6083C45.0679 51.5775 44.9418 51.5437 44.8587 51.5067L45.1911 50.3757C45.4434 50.4434 45.6681 50.4727 45.8651 50.4634C46.062 50.4542 46.2359 50.3803 46.3867 50.2418C46.5406 50.1033 46.676 49.8771 46.793 49.5632L46.9638 49.0923L44.3693 41.9091H45.8466L47.6424 47.4119H47.7163L49.5121 41.9091H50.994L48.0717 49.9464C47.9363 50.3157 47.764 50.6281 47.5547 50.8835C47.3454 51.142 47.0961 51.3359 46.8068 51.4652C46.5175 51.5945 46.1821 51.6591 45.8004 51.6591ZM55.0368 49.1431C54.3721 49.1431 53.7919 48.9908 53.2964 48.6861C52.8009 48.3814 52.4162 47.9551 52.1423 47.4073C51.8684 46.8595 51.7314 46.2193 51.7314 45.4869C51.7314 44.7513 51.8684 44.1081 52.1423 43.5572C52.4162 43.0063 52.8009 42.5785 53.2964 42.2738C53.7919 41.9691 54.3721 41.8168 55.0368 41.8168C55.7016 41.8168 56.2818 41.9691 56.7773 42.2738C57.2728 42.5785 57.6575 43.0063 57.9314 43.5572C58.2053 44.1081 58.3422 44.7513 58.3422 45.4869C58.3422 46.2193 58.2053 46.8595 57.9314 47.4073C57.6575 47.9551 57.2728 48.3814 56.7773 48.6861C56.2818 48.9908 55.7016 49.1431 55.0368 49.1431ZM55.0415 47.9844C55.4723 47.9844 55.8293 47.8705 56.1125 47.6428C56.3956 47.415 56.6049 47.1119 56.7403 46.7333C56.8788 46.3548 56.9481 45.9377 56.9481 45.4822C56.9481 45.0298 56.8788 44.6143 56.7403 44.2358C56.6049 43.8542 56.3956 43.5479 56.1125 43.3171C55.8293 43.0863 55.4723 42.9709 55.0415 42.9709C54.6075 42.9709 54.2474 43.0863 53.9612 43.3171C53.6781 43.5479 53.4672 43.8542 53.3287 44.2358C53.1933 44.6143 53.1256 45.0298 53.1256 45.4822C53.1256 45.9377 53.1933 46.3548 53.3287 46.7333C53.4672 47.1119 53.6781 47.415 53.9612 47.6428C54.2474 47.8705 54.6075 47.9844 55.0415 47.9844ZM64.3748 46.0593V41.9091H65.7598V49H64.4025V47.772H64.3287C64.1655 48.1506 63.9039 48.466 63.5439 48.7184C63.1868 48.9677 62.7421 49.0923 62.2097 49.0923C61.7542 49.0923 61.351 48.9923 61.0002 48.7923C60.6524 48.5891 60.3785 48.2891 60.1784 47.892C59.9815 47.495 59.883 47.0041 59.883 46.4194V41.9091H61.2633V46.2532C61.2633 46.7364 61.3972 47.1211 61.665 47.4073C61.9327 47.6935 62.2805 47.8366 62.7083 47.8366C62.9668 47.8366 63.2238 47.772 63.4792 47.6428C63.7377 47.5135 63.9516 47.3181 64.1209 47.0565C64.2933 46.7949 64.3779 46.4625 64.3748 46.0593ZM72.4352 44.7898V49H71.0549V41.9091H72.3798V43.0632H72.4675C72.6306 42.6877 72.8861 42.3861 73.2338 42.1584C73.5847 41.9306 74.0263 41.8168 74.5588 41.8168C75.042 41.8168 75.4651 41.9183 75.8283 42.1214C76.1915 42.3215 76.4731 42.62 76.6731 43.017C76.8732 43.4141 76.9732 43.9049 76.9732 44.4897V49H75.5929V44.6559C75.5929 44.1419 75.459 43.7403 75.1912 43.451C74.9235 43.1586 74.5557 43.0124 74.0879 43.0124C73.7678 43.0124 73.4831 43.0817 73.2338 43.2202C72.9876 43.3587 72.7922 43.5618 72.6475 43.8295C72.506 44.0942 72.4352 44.4143 72.4352 44.7898ZM81.8805 49.1431C81.1819 49.1431 80.5802 48.9938 80.0755 48.6953C79.5738 48.3937 79.186 47.9705 78.9121 47.4258C78.6413 46.878 78.5059 46.2363 78.5059 45.5007C78.5059 44.7744 78.6413 44.1342 78.9121 43.5803C79.186 43.0263 79.5676 42.5939 80.057 42.283C80.5494 41.9722 81.1249 41.8168 81.7836 41.8168C82.1837 41.8168 82.5714 41.8829 82.9469 42.0153C83.3224 42.1476 83.6594 42.3554 83.9579 42.6385C84.2565 42.9216 84.4919 43.2894 84.6642 43.7418C84.8366 44.1912 84.9228 44.7375 84.9228 45.3807V45.87H79.286V44.8359H83.5701C83.5701 44.4728 83.4963 44.1512 83.3485 43.8711C83.2008 43.5879 82.9931 43.3648 82.7253 43.2017C82.4606 43.0386 82.1498 42.957 81.7928 42.957C81.405 42.957 81.0665 43.0524 80.7772 43.2433C80.4909 43.431 80.2694 43.6772 80.1124 43.9819C79.9585 44.2835 79.8816 44.6113 79.8816 44.9652V45.7731C79.8816 46.247 79.9647 46.6502 80.1309 46.9826C80.3001 47.315 80.5356 47.5689 80.8372 47.7443C81.1388 47.9167 81.4912 48.0028 81.8944 48.0028C82.156 48.0028 82.3945 47.9659 82.6099 47.892C82.8253 47.8151 83.0115 47.7012 83.1685 47.5504C83.3255 47.3996 83.4455 47.2134 83.5286 46.9918L84.835 47.2273C84.7304 47.612 84.5427 47.949 84.2718 48.2383C84.0041 48.5245 83.6671 48.7476 83.2608 48.9077C82.8577 49.0646 82.3975 49.1431 81.8805 49.1431ZM89.5104 49.1431C88.8118 49.1431 88.2101 48.9938 87.7053 48.6953C87.2037 48.3937 86.8159 47.9705 86.542 47.4258C86.2712 46.878 86.1357 46.2363 86.1357 45.5007C86.1357 44.7744 86.2712 44.1342 86.542 43.5803C86.8159 43.0263 87.1975 42.5939 87.6869 42.283C88.1793 41.9722 88.7548 41.8168 89.4134 41.8168C89.8135 41.8168 90.2013 41.8829 90.5768 42.0153C90.9523 42.1476 91.2893 42.3554 91.5878 42.6385C91.8863 42.9216 92.1218 43.2894 92.2941 43.7418C92.4665 44.1912 92.5526 44.7375 92.5526 45.3807V45.87H86.9159V44.8359H91.2C91.2 44.4728 91.1262 44.1512 90.9784 43.8711C90.8307 43.5879 90.623 43.3648 90.3552 43.2017C90.0905 43.0386 89.7797 42.957 89.4227 42.957C89.0349 42.957 88.6963 43.0524 88.407 43.2433C88.1208 43.431 87.8992 43.6772 87.7423 43.9819C87.5884 44.2835 87.5115 44.6113 87.5115 44.9652V45.7731C87.5115 46.247 87.5945 46.6502 87.7607 46.9826C87.93 47.315 88.1655 47.5689 88.4671 47.7443C88.7687 47.9167 89.1211 48.0028 89.5242 48.0028C89.7858 48.0028 90.0244 47.9659 90.2398 47.892C90.4552 47.8151 90.6414 47.7012 90.7984 47.5504C90.9553 47.3996 91.0754 47.2134 91.1585 46.9918L92.4649 47.2273C92.3603 47.612 92.1726 47.949 91.9017 48.2383C91.634 48.5245 91.297 48.7476 90.8907 48.9077C90.4875 49.0646 90.0274 49.1431 89.5104 49.1431ZM96.7386 49.1385C96.1662 49.1385 95.6553 48.9923 95.206 48.6999C94.7597 48.4045 94.4089 47.9844 94.1534 47.4396C93.901 46.8918 93.7749 46.2347 93.7749 45.4684C93.7749 44.7021 93.9026 44.0465 94.158 43.5018C94.4165 42.957 94.7705 42.54 95.2198 42.2507C95.6692 41.9614 96.1785 41.8168 96.7479 41.8168C97.188 41.8168 97.5419 41.8906 97.8097 42.0384C98.0805 42.183 98.2898 42.3523 98.4375 42.5462C98.5883 42.7401 98.7053 42.9109 98.7884 43.0586H98.8714V39.5455H100.252V49H98.9038V47.8967H98.7884C98.7053 48.0475 98.5852 48.2198 98.4283 48.4137C98.2744 48.6076 98.062 48.7769 97.7912 48.9215C97.5204 49.0662 97.1695 49.1385 96.7386 49.1385ZM97.0433 47.9613C97.4403 47.9613 97.7758 47.8567 98.0497 47.6474C98.3267 47.435 98.536 47.1411 98.6776 46.7656C98.8222 46.3902 98.8945 45.9531 98.8945 45.4545C98.8945 44.9621 98.8237 44.5312 98.6822 44.1619C98.5406 43.7926 98.3329 43.5049 98.0589 43.2987C97.785 43.0924 97.4465 42.9893 97.0433 42.9893C96.6278 42.9893 96.2816 43.0971 96.0046 43.3125C95.7276 43.5279 95.5183 43.8219 95.3768 44.1942C95.2383 44.5666 95.169 44.9867 95.169 45.4545C95.169 45.9285 95.2398 46.3548 95.3814 46.7333C95.523 47.1119 95.7322 47.4119 96.0092 47.6335C96.2893 47.852 96.634 47.9613 97.0433 47.9613ZM108.972 41.9091V43.017H105.099V41.9091H108.972ZM106.138 40.2102H107.518V46.918C107.518 47.1857 107.558 47.3873 107.638 47.5227C107.718 47.6551 107.821 47.7459 107.947 47.7951C108.077 47.8413 108.217 47.8643 108.368 47.8643C108.478 47.8643 108.575 47.8567 108.658 47.8413C108.741 47.8259 108.806 47.8136 108.852 47.8043L109.102 48.9446C109.022 48.9754 108.908 49.0062 108.76 49.0369C108.612 49.0708 108.428 49.0893 108.206 49.0923C107.843 49.0985 107.504 49.0339 107.19 48.8984C106.876 48.763 106.623 48.5537 106.429 48.2706C106.235 47.9875 106.138 47.632 106.138 47.2042V40.2102ZM113.41 49.1431C112.745 49.1431 112.165 48.9908 111.669 48.6861C111.174 48.3814 110.789 47.9551 110.515 47.4073C110.241 46.8595 110.104 46.2193 110.104 45.4869C110.104 44.7513 110.241 44.1081 110.515 43.5572C110.789 43.0063 111.174 42.5785 111.669 42.2738C112.165 41.9691 112.745 41.8168 113.41 41.8168C114.075 41.8168 114.655 41.9691 115.15 42.2738C115.646 42.5785 116.031 43.0063 116.304 43.5572C116.578 44.1081 116.715 44.7513 116.715 45.4869C116.715 46.2193 116.578 46.8595 116.304 47.4073C116.031 47.9551 115.646 48.3814 115.15 48.6861C114.655 48.9908 114.075 49.1431 113.41 49.1431ZM113.415 47.9844C113.845 47.9844 114.202 47.8705 114.486 47.6428C114.769 47.415 114.978 47.1119 115.113 46.7333C115.252 46.3548 115.321 45.9377 115.321 45.4822C115.321 45.0298 115.252 44.6143 115.113 44.2358C114.978 43.8542 114.769 43.5479 114.486 43.3171C114.202 43.0863 113.845 42.9709 113.415 42.9709C112.981 42.9709 112.62 43.0863 112.334 43.3171C112.051 43.5479 111.84 43.8542 111.702 44.2358C111.566 44.6143 111.499 45.0298 111.499 45.4822C111.499 45.9377 111.566 46.3548 111.702 46.7333C111.84 47.1119 112.051 47.415 112.334 47.6428C112.62 47.8705 112.981 47.9844 113.415 47.9844ZM125.006 41.9091V43.017H121.133V41.9091H125.006ZM122.172 40.2102H123.552V46.918C123.552 47.1857 123.592 47.3873 123.672 47.5227C123.752 47.6551 123.855 47.7459 123.982 47.7951C124.111 47.8413 124.251 47.8643 124.402 47.8643C124.513 47.8643 124.609 47.8567 124.693 47.8413C124.776 47.8259 124.84 47.8136 124.886 47.8043L125.136 48.9446C125.056 48.9754 124.942 49.0062 124.794 49.0369C124.646 49.0708 124.462 49.0893 124.24 49.0923C123.877 49.0985 123.538 49.0339 123.225 48.8984C122.911 48.763 122.657 48.5537 122.463 48.2706C122.269 47.9875 122.172 47.632 122.172 47.2042V40.2102ZM131.025 46.0593V41.9091H132.41V49H131.053V47.772H130.979C130.816 48.1506 130.554 48.466 130.194 48.7184C129.837 48.9677 129.393 49.0923 128.86 49.0923C128.405 49.0923 128.001 48.9923 127.651 48.7923C127.303 48.5891 127.029 48.2891 126.829 47.892C126.632 47.495 126.533 47.0041 126.533 46.4194V41.9091H127.914V46.2532C127.914 46.7364 128.048 47.1211 128.315 47.4073C128.583 47.6935 128.931 47.8366 129.359 47.8366C129.617 47.8366 129.874 47.772 130.13 47.6428C130.388 47.5135 130.602 47.3181 130.771 47.0565C130.944 46.7949 131.028 46.4625 131.025 46.0593ZM134.265 49V41.9091H135.599V43.0355H135.673C135.802 42.6539 136.03 42.3538 136.356 42.1353C136.685 41.9137 137.058 41.8029 137.473 41.8029C137.559 41.8029 137.661 41.806 137.778 41.8121C137.898 41.8183 137.992 41.826 138.06 41.8352V43.1555C138.004 43.1402 137.906 43.1232 137.764 43.1048C137.623 43.0832 137.481 43.0724 137.339 43.0724C137.013 43.0724 136.722 43.1417 136.467 43.2802C136.215 43.4156 136.014 43.6049 135.867 43.848C135.719 44.0881 135.645 44.362 135.645 44.6697V49H134.265ZM140.634 44.7898V49H139.254V41.9091H140.579V43.0632H140.667C140.83 42.6877 141.085 42.3861 141.433 42.1584C141.784 41.9306 142.226 41.8168 142.758 41.8168C143.241 41.8168 143.664 41.9183 144.028 42.1214C144.391 42.3215 144.672 42.62 144.872 43.017C145.072 43.4141 145.172 43.9049 145.172 44.4897V49H143.792V44.6559C143.792 44.1419 143.658 43.7403 143.39 43.451C143.123 43.1586 142.755 43.0124 142.287 43.0124C141.967 43.0124 141.682 43.0817 141.433 43.2202C141.187 43.3587 140.991 43.5618 140.847 43.8295C140.705 44.0942 140.634 44.4143 140.634 44.7898ZM153.451 49.1431C152.786 49.1431 152.206 48.9908 151.71 48.6861C151.215 48.3814 150.83 47.9551 150.556 47.4073C150.282 46.8595 150.146 46.2193 150.146 45.4869C150.146 44.7513 150.282 44.1081 150.556 43.5572C150.83 43.0063 151.215 42.5785 151.71 42.2738C152.206 41.9691 152.786 41.8168 153.451 41.8168C154.116 41.8168 154.696 41.9691 155.191 42.2738C155.687 42.5785 156.072 43.0063 156.345 43.5572C156.619 44.1081 156.756 44.7513 156.756 45.4869C156.756 46.2193 156.619 46.8595 156.345 47.4073C156.072 47.9551 155.687 48.3814 155.191 48.6861C154.696 48.9908 154.116 49.1431 153.451 49.1431ZM153.456 47.9844C153.886 47.9844 154.243 47.8705 154.527 47.6428C154.81 47.415 155.019 47.1119 155.154 46.7333C155.293 46.3548 155.362 45.9377 155.362 45.4822C155.362 45.0298 155.293 44.6143 155.154 44.2358C155.019 43.8542 154.81 43.5479 154.527 43.3171C154.243 43.0863 153.886 42.9709 153.456 42.9709C153.022 42.9709 152.661 43.0863 152.375 43.3171C152.092 43.5479 151.881 43.8542 151.743 44.2358C151.607 44.6143 151.54 45.0298 151.54 45.4822C151.54 45.9377 151.607 46.3548 151.743 46.7333C151.881 47.1119 152.092 47.415 152.375 47.6428C152.661 47.8705 153.022 47.9844 153.456 47.9844ZM159.677 44.7898V49H158.297V41.9091H159.622V43.0632H159.71C159.873 42.6877 160.128 42.3861 160.476 42.1584C160.827 41.9306 161.269 41.8168 161.801 41.8168C162.284 41.8168 162.707 41.9183 163.07 42.1214C163.434 42.3215 163.715 42.62 163.915 43.017C164.115 43.4141 164.215 43.9049 164.215 44.4897V49H162.835V44.6559C162.835 44.1419 162.701 43.7403 162.433 43.451C162.166 43.1586 161.798 43.0124 161.33 43.0124C161.01 43.0124 160.725 43.0817 160.476 43.2202C160.23 43.3587 160.034 43.5618 159.89 43.8295C159.748 44.0942 159.677 44.4143 159.677 44.7898ZM172.817 41.9091V43.017H168.944V41.9091H172.817ZM169.983 40.2102H171.363V46.918C171.363 47.1857 171.403 47.3873 171.483 47.5227C171.563 47.6551 171.666 47.7459 171.792 47.7951C171.921 47.8413 172.061 47.8643 172.212 47.8643C172.323 47.8643 172.42 47.8567 172.503 47.8413C172.586 47.8259 172.651 47.8136 172.697 47.8043L172.946 48.9446C172.866 48.9754 172.752 49.0062 172.605 49.0369C172.457 49.0708 172.272 49.0893 172.051 49.0923C171.688 49.0985 171.349 49.0339 171.035 48.8984C170.721 48.763 170.467 48.5537 170.273 48.2706C170.079 47.9875 169.983 47.632 169.983 47.2042V40.2102ZM175.877 44.7898V49H174.496V39.5455H175.858V43.0632H175.946C176.112 42.6816 176.366 42.3784 176.708 42.1538C177.049 41.9291 177.495 41.8168 178.046 41.8168C178.533 41.8168 178.957 41.9168 179.32 42.1168C179.687 42.3169 179.97 42.6154 180.17 43.0124C180.373 43.4064 180.475 43.8988 180.475 44.4897V49H179.094V44.6559C179.094 44.1358 178.96 43.7326 178.693 43.4464C178.425 43.1571 178.052 43.0124 177.575 43.0124C177.249 43.0124 176.957 43.0817 176.698 43.2202C176.443 43.3587 176.241 43.5618 176.094 43.8295C175.949 44.0942 175.877 44.4143 175.877 44.7898ZM185.373 49.1431C184.674 49.1431 184.072 48.9938 183.568 48.6953C183.066 48.3937 182.678 47.9705 182.404 47.4258C182.133 46.878 181.998 46.2363 181.998 45.5007C181.998 44.7744 182.133 44.1342 182.404 43.5803C182.678 43.0263 183.06 42.5939 183.549 42.283C184.042 41.9722 184.617 41.8168 185.276 41.8168C185.676 41.8168 186.064 41.8829 186.439 42.0153C186.815 42.1476 187.152 42.3554 187.45 42.6385C187.749 42.9216 187.984 43.2894 188.156 43.7418C188.329 44.1912 188.415 44.7375 188.415 45.3807V45.87H182.778V44.8359H187.062C187.062 44.4728 186.988 44.1512 186.841 43.8711C186.693 43.5879 186.485 43.3648 186.218 43.2017C185.953 43.0386 185.642 42.957 185.285 42.957C184.897 42.957 184.559 43.0524 184.269 43.2433C183.983 43.431 183.762 43.6772 183.605 43.9819C183.451 44.2835 183.374 44.6113 183.374 44.9652V45.7731C183.374 46.247 183.457 46.6502 183.623 46.9826C183.792 47.315 184.028 47.5689 184.329 47.7443C184.631 47.9167 184.983 48.0028 185.387 48.0028C185.648 48.0028 185.887 47.9659 186.102 47.892C186.318 47.8151 186.504 47.7012 186.661 47.5504C186.818 47.3996 186.938 47.2134 187.021 46.9918L188.327 47.2273C188.223 47.612 188.035 47.949 187.764 48.2383C187.496 48.5245 187.159 48.7476 186.753 48.9077C186.35 49.0646 185.89 49.1431 185.373 49.1431ZM201.35 42.62H199.91C199.855 42.3123 199.751 42.0414 199.601 41.8075C199.45 41.5736 199.265 41.3751 199.047 41.212C198.828 41.0489 198.584 40.9258 198.313 40.8427C198.045 40.7596 197.76 40.718 197.459 40.718C196.914 40.718 196.426 40.855 195.995 41.1289C195.567 41.4028 195.229 41.8045 194.98 42.3338C194.733 42.8632 194.61 43.5095 194.61 44.2727C194.61 45.0421 194.733 45.6915 194.98 46.2209C195.229 46.7502 195.569 47.1503 196 47.4212C196.431 47.692 196.915 47.8274 197.454 47.8274C197.753 47.8274 198.036 47.7874 198.303 47.7074C198.574 47.6243 198.819 47.5027 199.037 47.3427C199.256 47.1826 199.441 46.9872 199.591 46.7564C199.745 46.5225 199.852 46.2547 199.91 45.9531L201.35 45.9577C201.273 46.4225 201.124 46.8503 200.903 47.2411C200.684 47.6289 200.402 47.9644 200.058 48.2475C199.716 48.5276 199.325 48.7446 198.885 48.8984C198.445 49.0523 197.965 49.1293 197.445 49.1293C196.626 49.1293 195.897 48.9354 195.257 48.5476C194.616 48.1567 194.112 47.5981 193.742 46.8718C193.376 46.1455 193.193 45.2791 193.193 44.2727C193.193 43.2633 193.378 42.3969 193.747 41.6737C194.116 40.9473 194.621 40.3903 195.261 40.0025C195.901 39.6116 196.629 39.4162 197.445 39.4162C197.946 39.4162 198.414 39.4885 198.848 39.6332C199.285 39.7747 199.678 39.984 200.025 40.261C200.373 40.5349 200.661 40.8704 200.889 41.2674C201.116 41.6613 201.27 42.1122 201.35 42.62ZM204.327 44.7898V49H202.946V39.5455H204.308V43.0632H204.396C204.562 42.6816 204.816 42.3784 205.158 42.1538C205.499 41.9291 205.946 41.8168 206.497 41.8168C206.983 41.8168 207.408 41.9168 207.771 42.1168C208.137 42.3169 208.42 42.6154 208.62 43.0124C208.823 43.4064 208.925 43.8988 208.925 44.4897V49H207.544V44.6559C207.544 44.1358 207.411 43.7326 207.143 43.4464C206.875 43.1571 206.503 43.0124 206.026 43.0124C205.699 43.0124 205.407 43.0817 205.149 43.2202C204.893 43.3587 204.691 43.5618 204.544 43.8295C204.399 44.0942 204.327 44.4143 204.327 44.7898ZM213.823 49.1431C213.124 49.1431 212.523 48.9938 212.018 48.6953C211.516 48.3937 211.128 47.9705 210.854 47.4258C210.584 46.878 210.448 46.2363 210.448 45.5007C210.448 44.7744 210.584 44.1342 210.854 43.5803C211.128 43.0263 211.51 42.5939 211.999 42.283C212.492 41.9722 213.067 41.8168 213.726 41.8168C214.126 41.8168 214.514 41.8829 214.889 42.0153C215.265 42.1476 215.602 42.3554 215.9 42.6385C216.199 42.9216 216.434 43.2894 216.607 43.7418C216.779 44.1912 216.865 44.7375 216.865 45.3807V45.87H211.228V44.8359H215.513C215.513 44.4728 215.439 44.1512 215.291 43.8711C215.143 43.5879 214.935 43.3648 214.668 43.2017C214.403 43.0386 214.092 42.957 213.735 42.957C213.347 42.957 213.009 43.0524 212.72 43.2433C212.433 43.431 212.212 43.6772 212.055 43.9819C211.901 44.2835 211.824 44.6113 211.824 44.9652V45.7731C211.824 46.247 211.907 46.6502 212.073 46.9826C212.243 47.315 212.478 47.5689 212.78 47.7443C213.081 47.9167 213.434 48.0028 213.837 48.0028C214.098 48.0028 214.337 47.9659 214.552 47.892C214.768 47.8151 214.954 47.7012 215.111 47.5504C215.268 47.3996 215.388 47.2134 215.471 46.9918L216.777 47.2273C216.673 47.612 216.485 47.949 216.214 48.2383C215.946 48.5245 215.609 48.7476 215.203 48.9077C214.8 49.0646 214.34 49.1431 213.823 49.1431ZM221.384 49.1431C220.697 49.1431 220.106 48.9877 219.611 48.6768C219.118 48.3629 218.74 47.9305 218.475 47.3796C218.21 46.8287 218.078 46.1978 218.078 45.4869C218.078 44.7667 218.214 44.1312 218.484 43.5803C218.755 43.0263 219.137 42.5939 219.629 42.283C220.122 41.9722 220.702 41.8168 221.37 41.8168C221.908 41.8168 222.388 41.9168 222.81 42.1168C223.232 42.3138 223.572 42.5908 223.83 42.9478C224.092 43.3048 224.247 43.7218 224.297 44.1989H222.953C222.879 43.8665 222.71 43.5803 222.445 43.3402C222.184 43.1001 221.833 42.9801 221.393 42.9801C221.008 42.9801 220.671 43.0817 220.382 43.2848C220.096 43.4848 219.872 43.7711 219.712 44.1435C219.552 44.5128 219.472 44.9498 219.472 45.4545C219.472 45.9716 219.551 46.4179 219.708 46.7933C219.865 47.1688 220.086 47.4596 220.373 47.6658C220.662 47.872 221.002 47.9751 221.393 47.9751C221.654 47.9751 221.891 47.9274 222.104 47.832C222.319 47.7335 222.499 47.5935 222.644 47.4119C222.792 47.2304 222.895 47.0118 222.953 46.7564H224.297C224.247 47.215 224.098 47.6243 223.849 47.9844C223.599 48.3445 223.266 48.6276 222.847 48.8338C222.431 49.04 221.944 49.1431 221.384 49.1431ZM227.042 46.5948L227.033 44.9098H227.273L230.098 41.9091H231.751L228.529 45.3253H228.312L227.042 46.5948ZM225.773 49V39.5455H227.153V49H225.773ZM230.251 49L227.712 45.63L228.663 44.6651L231.945 49H230.251ZM233.009 49V41.9091H234.334V43.0632H234.422C234.569 42.6723 234.811 42.3677 235.146 42.1491C235.482 41.9276 235.883 41.8168 236.351 41.8168C236.825 41.8168 237.222 41.9276 237.542 42.1491C237.866 42.3707 238.104 42.6754 238.258 43.0632H238.332C238.501 42.6847 238.77 42.383 239.14 42.1584C239.509 41.9306 239.949 41.8168 240.46 41.8168C241.103 41.8168 241.628 42.0183 242.034 42.4215C242.444 42.8247 242.648 43.4325 242.648 44.245V49H241.268V44.3743C241.268 43.8942 241.137 43.5464 240.875 43.331C240.614 43.1155 240.301 43.0078 239.938 43.0078C239.489 43.0078 239.14 43.1463 238.89 43.4233C238.641 43.6972 238.516 44.0496 238.516 44.4805V49H237.141V44.2866C237.141 43.9019 237.021 43.5926 236.781 43.3587C236.541 43.1248 236.228 43.0078 235.843 43.0078C235.582 43.0078 235.34 43.0771 235.119 43.2156C234.9 43.351 234.723 43.5402 234.588 43.7834C234.455 44.0265 234.389 44.3081 234.389 44.6282V49H233.009ZM246.562 49.157C246.112 49.157 245.706 49.0739 245.343 48.9077C244.98 48.7384 244.692 48.4937 244.48 48.1737C244.27 47.8536 244.166 47.4612 244.166 46.9964C244.166 46.5964 244.243 46.267 244.397 46.0085C244.551 45.75 244.758 45.5453 245.02 45.3945C245.281 45.2437 245.574 45.1299 245.897 45.0529C246.22 44.976 246.549 44.9175 246.885 44.8775C247.31 44.8282 247.654 44.7882 247.919 44.7575C248.184 44.7236 248.376 44.6697 248.496 44.5959C248.616 44.522 248.676 44.402 248.676 44.2358V44.2035C248.676 43.8003 248.562 43.4879 248.335 43.2663C248.11 43.0447 247.774 42.9339 247.328 42.9339C246.863 42.9339 246.497 43.037 246.229 43.2433C245.965 43.4464 245.782 43.6726 245.68 43.9219L244.383 43.6264C244.537 43.1955 244.761 42.8478 245.057 42.5831C245.355 42.3153 245.699 42.1214 246.086 42.0014C246.474 41.8783 246.882 41.8168 247.31 41.8168C247.593 41.8168 247.893 41.8506 248.21 41.9183C248.53 41.983 248.828 42.103 249.105 42.2784C249.386 42.4538 249.615 42.7047 249.793 43.0309C249.972 43.354 250.061 43.7741 250.061 44.2912V49H248.713V48.0305H248.658C248.568 48.209 248.435 48.3845 248.256 48.5568C248.078 48.7292 247.848 48.8723 247.568 48.9862C247.288 49.1 246.953 49.157 246.562 49.157ZM246.862 48.049C247.243 48.049 247.57 47.9736 247.841 47.8228C248.114 47.672 248.322 47.475 248.464 47.2319C248.608 46.9857 248.681 46.7225 248.681 46.4425V45.5284C248.632 45.5777 248.536 45.6238 248.395 45.6669C248.256 45.7069 248.098 45.7423 247.919 45.7731C247.741 45.8008 247.567 45.8269 247.397 45.8516C247.228 45.8731 247.087 45.8916 246.973 45.907C246.705 45.9408 246.46 45.9978 246.239 46.0778C246.02 46.1578 245.845 46.2732 245.712 46.424C245.583 46.5717 245.518 46.7687 245.518 47.0149C245.518 47.3565 245.645 47.6151 245.897 47.7905C246.149 47.9628 246.471 48.049 246.862 48.049ZM251.9 49V41.9091H253.234V43.0355H253.308C253.437 42.6539 253.665 42.3538 253.991 42.1353C254.32 41.9137 254.693 41.8029 255.108 41.8029C255.194 41.8029 255.296 41.806 255.413 41.8121C255.533 41.8183 255.627 41.826 255.694 41.8352V43.1555C255.639 43.1402 255.54 43.1232 255.399 43.1048C255.257 43.0832 255.116 43.0724 254.974 43.0724C254.648 43.0724 254.357 43.1417 254.102 43.2802C253.849 43.4156 253.649 43.6049 253.502 43.848C253.354 44.0881 253.28 44.362 253.28 44.6697V49H251.9ZM258.194 41.9091L259.759 44.6697L261.338 41.9091H262.848L260.636 45.4545L262.866 49H261.356L259.759 46.3501L258.166 49H256.652L258.859 45.4545L256.68 41.9091H258.194ZM267.816 39.5455H269.547L272.557 46.8949H272.668L275.678 39.5455H277.409V49H276.052V42.1584H275.964L273.176 48.9862H272.049L269.261 42.1538H269.173V49H267.816V39.5455ZM287.336 42.62H285.895C285.84 42.3123 285.737 42.0414 285.586 41.8075C285.435 41.5736 285.251 41.3751 285.032 41.212C284.814 41.0489 284.569 40.9258 284.298 40.8427C284.03 40.7596 283.746 40.718 283.444 40.718C282.899 40.718 282.411 40.855 281.981 41.1289C281.553 41.4028 281.214 41.8045 280.965 42.3338C280.719 42.8632 280.596 43.5095 280.596 44.2727C280.596 45.0421 280.719 45.6915 280.965 46.2209C281.214 46.7502 281.554 47.1503 281.985 47.4212C282.416 47.692 282.901 47.8274 283.439 47.8274C283.738 47.8274 284.021 47.7874 284.289 47.7074C284.56 47.6243 284.804 47.5027 285.023 47.3427C285.241 47.1826 285.426 46.9872 285.577 46.7564C285.731 46.5225 285.837 46.2547 285.895 45.9531L287.336 45.9577C287.259 46.4225 287.109 46.8503 286.888 47.2411C286.669 47.6289 286.388 47.9644 286.043 48.2475C285.701 48.5276 285.311 48.7446 284.87 48.8984C284.43 49.0523 283.95 49.1293 283.43 49.1293C282.611 49.1293 281.882 48.9354 281.242 48.5476C280.602 48.1567 280.097 47.5981 279.728 46.8718C279.361 46.1455 279.178 45.2791 279.178 44.2727C279.178 43.2633 279.363 42.3969 279.732 41.6737C280.102 40.9473 280.606 40.3903 281.247 40.0025C281.887 39.6116 282.615 39.4162 283.43 39.4162C283.932 39.4162 284.4 39.4885 284.834 39.6332C285.271 39.7747 285.663 39.984 286.011 40.261C286.359 40.5349 286.646 40.8704 286.874 41.2674C287.102 41.6613 287.256 42.1122 287.336 42.62ZM289.043 49V39.5455H292.413C293.148 39.5455 293.758 39.6793 294.241 39.9471C294.724 40.2148 295.086 40.5811 295.326 41.0458C295.566 41.5075 295.686 42.0276 295.686 42.6062C295.686 43.1879 295.564 43.7111 295.321 44.1758C295.081 44.6374 294.718 45.0037 294.232 45.2745C293.748 45.5423 293.141 45.6761 292.408 45.6761H290.091V44.4666H292.279C292.743 44.4666 293.121 44.3866 293.41 44.2266C293.699 44.0634 293.911 43.8419 294.047 43.5618C294.182 43.2817 294.25 42.9632 294.25 42.6062C294.25 42.2492 294.182 41.9322 294.047 41.6552C293.911 41.3782 293.698 41.1612 293.405 41.0043C293.116 40.8473 292.734 40.7688 292.26 40.7688H290.469V49H289.043ZM303.675 49.1431C303.01 49.1431 302.43 48.9908 301.934 48.6861C301.439 48.3814 301.054 47.9551 300.78 47.4073C300.506 46.8595 300.369 46.2193 300.369 45.4869C300.369 44.7513 300.506 44.1081 300.78 43.5572C301.054 43.0063 301.439 42.5785 301.934 42.2738C302.43 41.9691 303.01 41.8168 303.675 41.8168C304.339 41.8168 304.919 41.9691 305.415 42.2738C305.91 42.5785 306.295 43.0063 306.569 43.5572C306.843 44.1081 306.98 44.7513 306.98 45.4869C306.98 46.2193 306.843 46.8595 306.569 47.4073C306.295 47.9551 305.91 48.3814 305.415 48.6861C304.919 48.9908 304.339 49.1431 303.675 49.1431ZM303.679 47.9844C304.11 47.9844 304.467 47.8705 304.75 47.6428C305.033 47.415 305.243 47.1119 305.378 46.7333C305.517 46.3548 305.586 45.9377 305.586 45.4822C305.586 45.0298 305.517 44.6143 305.378 44.2358C305.243 43.8542 305.033 43.5479 304.75 43.3171C304.467 43.0863 304.11 42.9709 303.679 42.9709C303.245 42.9709 302.885 43.0863 302.599 43.3171C302.316 43.5479 302.105 43.8542 301.966 44.2358C301.831 44.6143 301.763 45.0298 301.763 45.4822C301.763 45.9377 301.831 46.3548 301.966 46.7333C302.105 47.1119 302.316 47.415 302.599 47.6428C302.885 47.8705 303.245 47.9844 303.679 47.9844ZM308.521 51.6591V41.9091H309.869V43.0586H309.984C310.064 42.9109 310.18 42.7401 310.33 42.5462C310.481 42.3523 310.69 42.183 310.958 42.0384C311.226 41.8906 311.58 41.8168 312.02 41.8168C312.592 41.8168 313.103 41.9614 313.553 42.2507C314.002 42.54 314.354 42.957 314.61 43.5018C314.868 44.0465 314.998 44.7021 314.998 45.4684C314.998 46.2347 314.87 46.8918 314.614 47.4396C314.359 47.9844 314.008 48.4045 313.562 48.6999C313.116 48.9923 312.606 49.1385 312.034 49.1385C311.603 49.1385 311.251 49.0662 310.977 48.9215C310.706 48.7769 310.493 48.6076 310.34 48.4137C310.186 48.2198 310.067 48.0475 309.984 47.8967H309.901V51.6591H308.521ZM309.873 45.4545C309.873 45.9531 309.946 46.3902 310.09 46.7656C310.235 47.1411 310.444 47.435 310.718 47.6474C310.992 47.8567 311.328 47.9613 311.725 47.9613C312.137 47.9613 312.482 47.852 312.759 47.6335C313.036 47.4119 313.245 47.1119 313.386 46.7333C313.531 46.3548 313.603 45.9285 313.603 45.4545C313.603 44.9867 313.533 44.5666 313.391 44.1942C313.253 43.8219 313.043 43.5279 312.763 43.3125C312.486 43.0971 312.14 42.9893 311.725 42.9893C311.324 42.9893 310.986 43.0924 310.709 43.2987C310.435 43.5049 310.227 43.7926 310.086 44.1619C309.944 44.5312 309.873 44.9621 309.873 45.4545ZM319.854 41.9091V43.017H315.981V41.9091H319.854ZM317.02 40.2102H318.4V46.918C318.4 47.1857 318.44 47.3873 318.52 47.5227C318.6 47.6551 318.703 47.7459 318.829 47.7951C318.959 47.8413 319.099 47.8643 319.249 47.8643C319.36 47.8643 319.457 47.8567 319.54 47.8413C319.623 47.8259 319.688 47.8136 319.734 47.8043L319.983 48.9446C319.903 48.9754 319.79 49.0062 319.642 49.0369C319.494 49.0708 319.309 49.0893 319.088 49.0923C318.725 49.0985 318.386 49.0339 318.072 48.8984C317.758 48.763 317.504 48.5537 317.31 48.2706C317.117 47.9875 317.02 47.632 317.02 47.2042V40.2102ZM321.381 49V41.9091H322.761V49H321.381ZM322.078 40.815C321.838 40.815 321.632 40.735 321.46 40.5749C321.29 40.4118 321.206 40.2179 321.206 39.9933C321.206 39.7655 321.29 39.5716 321.46 39.4116C321.632 39.2485 321.838 39.1669 322.078 39.1669C322.318 39.1669 322.523 39.2485 322.692 39.4116C322.864 39.5716 322.951 39.7655 322.951 39.9933C322.951 40.2179 322.864 40.4118 322.692 40.5749C322.523 40.735 322.318 40.815 322.078 40.815ZM327.605 49.1431C326.94 49.1431 326.36 48.9908 325.865 48.6861C325.369 48.3814 324.985 47.9551 324.711 47.4073C324.437 46.8595 324.3 46.2193 324.3 45.4869C324.3 44.7513 324.437 44.1081 324.711 43.5572C324.985 43.0063 325.369 42.5785 325.865 42.2738C326.36 41.9691 326.94 41.8168 327.605 41.8168C328.27 41.8168 328.85 41.9691 329.346 42.2738C329.841 42.5785 330.226 43.0063 330.5 43.5572C330.774 44.1081 330.911 44.7513 330.911 45.4869C330.911 46.2193 330.774 46.8595 330.5 47.4073C330.226 47.9551 329.841 48.3814 329.346 48.6861C328.85 48.9908 328.27 49.1431 327.605 49.1431ZM327.61 47.9844C328.041 47.9844 328.398 47.8705 328.681 47.6428C328.964 47.415 329.173 47.1119 329.309 46.7333C329.447 46.3548 329.516 45.9377 329.516 45.4822C329.516 45.0298 329.447 44.6143 329.309 44.2358C329.173 43.8542 328.964 43.5479 328.681 43.3171C328.398 43.0863 328.041 42.9709 327.61 42.9709C327.176 42.9709 326.816 43.0863 326.53 43.3171C326.246 43.5479 326.036 43.8542 325.897 44.2358C325.762 44.6143 325.694 45.0298 325.694 45.4822C325.694 45.9377 325.762 46.3548 325.897 46.7333C326.036 47.1119 326.246 47.415 326.53 47.6428C326.816 47.8705 327.176 47.9844 327.61 47.9844ZM333.832 44.7898V49H332.451V41.9091H333.776V43.0632H333.864C334.027 42.6877 334.283 42.3861 334.63 42.1584C334.981 41.9306 335.423 41.8168 335.955 41.8168C336.438 41.8168 336.862 41.9183 337.225 42.1214C337.588 42.3215 337.87 42.62 338.07 43.017C338.27 43.4141 338.37 43.9049 338.37 44.4897V49H336.989V44.6559C336.989 44.1419 336.855 43.7403 336.588 43.451C336.32 43.1586 335.952 43.0124 335.484 43.0124C335.164 43.0124 334.88 43.0817 334.63 43.2202C334.384 43.3587 334.189 43.5618 334.044 43.8295C333.902 44.0942 333.832 44.4143 333.832 44.7898ZM343.661 49V41.9091H345.042V49H343.661ZM344.358 40.815C344.118 40.815 343.912 40.735 343.74 40.5749C343.571 40.4118 343.486 40.2179 343.486 39.9933C343.486 39.7655 343.571 39.5716 343.74 39.4116C343.912 39.2485 344.118 39.1669 344.358 39.1669C344.598 39.1669 344.803 39.2485 344.972 39.4116C345.145 39.5716 345.231 39.7655 345.231 39.9933C345.231 40.2179 345.145 40.4118 344.972 40.5749C344.803 40.735 344.598 40.815 344.358 40.815ZM348.279 44.7898V49H346.899V41.9091H348.224V43.0632H348.311C348.474 42.6877 348.73 42.3861 349.078 42.1584C349.428 41.9306 349.87 41.8168 350.403 41.8168C350.886 41.8168 351.309 41.9183 351.672 42.1214C352.035 42.3215 352.317 42.62 352.517 43.017C352.717 43.4141 352.817 43.9049 352.817 44.4897V49H351.437V44.6559C351.437 44.1419 351.303 43.7403 351.035 43.451C350.767 43.1586 350.399 43.0124 349.932 43.0124C349.612 43.0124 349.327 43.0817 349.078 43.2202C348.831 43.3587 348.636 43.5618 348.491 43.8295C348.35 44.0942 348.279 44.4143 348.279 44.7898ZM45.8004 70.6591C45.5942 70.6591 45.4065 70.6422 45.2372 70.6083C45.0679 70.5775 44.9418 70.5437 44.8587 70.5067L45.1911 69.3757C45.4434 69.4434 45.6681 69.4727 45.8651 69.4634C46.062 69.4542 46.2359 69.3803 46.3867 69.2418C46.5406 69.1033 46.676 68.8771 46.793 68.5632L46.9638 68.0923L44.3693 60.9091H45.8466L47.6424 66.4119H47.7163L49.5121 60.9091H50.994L48.0717 68.9464C47.9363 69.3157 47.764 69.6281 47.5547 69.8835C47.3454 70.142 47.0961 70.3359 46.8068 70.4652C46.5175 70.5945 46.1821 70.6591 45.8004 70.6591ZM55.0368 68.1431C54.3721 68.1431 53.7919 67.9908 53.2964 67.6861C52.8009 67.3814 52.4162 66.9551 52.1423 66.4073C51.8684 65.8595 51.7314 65.2193 51.7314 64.4869C51.7314 63.7513 51.8684 63.1081 52.1423 62.5572C52.4162 62.0063 52.8009 61.5785 53.2964 61.2738C53.7919 60.9691 54.3721 60.8168 55.0368 60.8168C55.7016 60.8168 56.2818 60.9691 56.7773 61.2738C57.2728 61.5785 57.6575 62.0063 57.9314 62.5572C58.2053 63.1081 58.3422 63.7513 58.3422 64.4869C58.3422 65.2193 58.2053 65.8595 57.9314 66.4073C57.6575 66.9551 57.2728 67.3814 56.7773 67.6861C56.2818 67.9908 55.7016 68.1431 55.0368 68.1431ZM55.0415 66.9844C55.4723 66.9844 55.8293 66.8705 56.1125 66.6428C56.3956 66.415 56.6049 66.1119 56.7403 65.7333C56.8788 65.3548 56.9481 64.9377 56.9481 64.4822C56.9481 64.0298 56.8788 63.6143 56.7403 63.2358C56.6049 62.8542 56.3956 62.5479 56.1125 62.3171C55.8293 62.0863 55.4723 61.9709 55.0415 61.9709C54.6075 61.9709 54.2474 62.0863 53.9612 62.3171C53.6781 62.5479 53.4672 62.8542 53.3287 63.2358C53.1933 63.6143 53.1256 64.0298 53.1256 64.4822C53.1256 64.9377 53.1933 65.3548 53.3287 65.7333C53.4672 66.1119 53.6781 66.415 53.9612 66.6428C54.2474 66.8705 54.6075 66.9844 55.0415 66.9844ZM64.3748 65.0593V60.9091H65.7598V68H64.4025V66.772H64.3287C64.1655 67.1506 63.9039 67.466 63.5439 67.7184C63.1868 67.9677 62.7421 68.0923 62.2097 68.0923C61.7542 68.0923 61.351 67.9923 61.0002 67.7923C60.6524 67.5891 60.3785 67.2891 60.1784 66.892C59.9815 66.495 59.883 66.0041 59.883 65.4194V60.9091H61.2633V65.2532C61.2633 65.7364 61.3972 66.1211 61.665 66.4073C61.9327 66.6935 62.2805 66.8366 62.7083 66.8366C62.9668 66.8366 63.2238 66.772 63.4792 66.6428C63.7377 66.5135 63.9516 66.3181 64.1209 66.0565C64.2933 65.7949 64.3779 65.4625 64.3748 65.0593ZM67.6144 68V60.9091H68.9486V62.0355H69.0225C69.1517 61.6539 69.3795 61.3538 69.7057 61.1353C70.035 60.9137 70.4074 60.8029 70.8229 60.8029C70.9091 60.8029 71.0106 60.806 71.1276 60.8121C71.2476 60.8183 71.3415 60.826 71.4092 60.8352V62.1555C71.3538 62.1402 71.2553 62.1232 71.1137 62.1048C70.9722 62.0832 70.8306 62.0724 70.689 62.0724C70.3628 62.0724 70.0719 62.1417 69.8165 62.2802C69.5641 62.4156 69.3641 62.6049 69.2164 62.848C69.0686 63.0881 68.9948 63.362 68.9948 63.6697V68H67.6144ZM84.0075 61.62H82.5672C82.5118 61.3123 82.4087 61.0414 82.2579 60.8075C82.1071 60.5736 81.9224 60.3751 81.7039 60.212C81.4854 60.0489 81.2407 59.9258 80.9699 59.8427C80.7021 59.7596 80.4175 59.718 80.1159 59.718C79.5711 59.718 79.0833 59.855 78.6524 60.1289C78.2246 60.4028 77.8861 60.8045 77.6368 61.3338C77.3906 61.8632 77.2675 62.5095 77.2675 63.2727C77.2675 64.0421 77.3906 64.6915 77.6368 65.2209C77.8861 65.7502 78.2262 66.1503 78.657 66.4212C79.0879 66.692 79.5727 66.8274 80.1112 66.8274C80.4098 66.8274 80.6929 66.7874 80.9607 66.7074C81.2315 66.6243 81.4762 66.5027 81.6947 66.3427C81.9132 66.1826 82.0979 65.9872 82.2487 65.7564C82.4026 65.5225 82.5087 65.2547 82.5672 64.9531L84.0075 64.9577C83.9306 65.4225 83.7813 65.8503 83.5597 66.2411C83.3412 66.6289 83.0596 66.9644 82.7149 67.2475C82.3733 67.5276 81.9825 67.7446 81.5423 67.8984C81.1022 68.0523 80.6221 68.1293 80.102 68.1293C79.2834 68.1293 78.5539 67.9354 77.9138 67.5476C77.2736 67.1567 76.7689 66.5981 76.3996 65.8718C76.0334 65.1455 75.8502 64.2791 75.8502 63.2727C75.8502 62.2633 76.0349 61.3969 76.4042 60.6737C76.7735 59.9473 77.2783 59.3903 77.9184 59.0025C78.5586 58.6116 79.2864 58.4162 80.102 58.4162C80.6037 58.4162 81.0715 58.4885 81.5054 58.6332C81.9424 58.7747 82.3348 58.984 82.6826 59.261C83.0304 59.5349 83.3182 59.8704 83.5459 60.2674C83.7736 60.6613 83.9275 61.1122 84.0075 61.62ZM86.984 63.7898V68H85.6037V58.5455H86.9656V62.0632H87.0533C87.2195 61.6816 87.4734 61.3784 87.815 61.1538C88.1566 60.9291 88.6029 60.8168 89.1538 60.8168C89.64 60.8168 90.0647 60.9168 90.4279 61.1168C90.7942 61.3169 91.0773 61.6154 91.2773 62.0124C91.4805 62.4064 91.582 62.8988 91.582 63.4897V68H90.2017V63.6559C90.2017 63.1358 90.0678 62.7326 89.8001 62.4464C89.5323 62.1571 89.1599 62.0124 88.6829 62.0124C88.3567 62.0124 88.0643 62.0817 87.8058 62.2202C87.5503 62.3587 87.3487 62.5618 87.201 62.8295C87.0563 63.0942 86.984 63.4143 86.984 63.7898ZM96.4801 68.1431C95.7815 68.1431 95.1798 67.9938 94.6751 67.6953C94.1734 67.3937 93.7856 66.9705 93.5117 66.4258C93.2409 65.878 93.1055 65.2363 93.1055 64.5007C93.1055 63.7744 93.2409 63.1342 93.5117 62.5803C93.7856 62.0263 94.1673 61.5939 94.6566 61.283C95.149 60.9722 95.7246 60.8168 96.3832 60.8168C96.7833 60.8168 97.171 60.8829 97.5465 61.0153C97.922 61.1476 98.259 61.3554 98.5575 61.6385C98.8561 61.9216 99.0915 62.2894 99.2638 62.7418C99.4362 63.1912 99.5224 63.7375 99.5224 64.3807V64.87H93.8857V63.8359H98.1697C98.1697 63.4728 98.0959 63.1512 97.9482 62.8711C97.8004 62.5879 97.5927 62.3648 97.3249 62.2017C97.0603 62.0386 96.7494 61.957 96.3924 61.957C96.0046 61.957 95.6661 62.0524 95.3768 62.2433C95.0906 62.431 94.869 62.6772 94.712 62.9819C94.5581 63.2835 94.4812 63.6113 94.4812 63.9652V64.7731C94.4812 65.247 94.5643 65.6502 94.7305 65.9826C94.8997 66.315 95.1352 66.5689 95.4368 66.7443C95.7384 66.9167 96.0908 67.0028 96.494 67.0028C96.7556 67.0028 96.9941 66.9659 97.2095 66.892C97.425 66.8151 97.6112 66.7012 97.7681 66.5504C97.9251 66.3996 98.0451 66.2134 98.1282 65.9918L99.4347 66.2273C99.33 66.612 99.1423 66.949 98.8714 67.2383C98.6037 67.5245 98.2667 67.7476 97.8604 67.9077C97.4573 68.0646 96.9972 68.1431 96.4801 68.1431ZM104.041 68.1431C103.354 68.1431 102.764 67.9877 102.268 67.6768C101.776 67.3629 101.397 66.9305 101.132 66.3796C100.868 65.8287 100.735 65.1978 100.735 64.4869C100.735 63.7667 100.871 63.1312 101.142 62.5803C101.412 62.0263 101.794 61.5939 102.286 61.283C102.779 60.9722 103.359 60.8168 104.027 60.8168C104.565 60.8168 105.046 60.9168 105.467 61.1168C105.889 61.3138 106.229 61.5908 106.487 61.9478C106.749 62.3048 106.905 62.7218 106.954 63.1989H105.61C105.536 62.8665 105.367 62.5803 105.103 62.3402C104.841 62.1001 104.49 61.9801 104.05 61.9801C103.665 61.9801 103.328 62.0817 103.039 62.2848C102.753 62.4848 102.53 62.7711 102.37 63.1435C102.21 63.5128 102.13 63.9498 102.13 64.4545C102.13 64.9716 102.208 65.4179 102.365 65.7933C102.522 66.1688 102.744 66.4596 103.03 66.6658C103.319 66.872 103.659 66.9751 104.05 66.9751C104.312 66.9751 104.549 66.9274 104.761 66.832C104.976 66.7335 105.156 66.5935 105.301 66.4119C105.449 66.2304 105.552 66.0118 105.61 65.7564H106.954C106.905 66.215 106.755 66.6243 106.506 66.9844C106.257 67.3445 105.923 67.6276 105.504 67.8338C105.089 68.04 104.601 68.1431 104.041 68.1431ZM109.699 65.5948L109.69 63.9098H109.93L112.756 60.9091H114.408L111.186 64.3253H110.969L109.699 65.5948ZM108.43 68V58.5455H109.81V68H108.43ZM112.908 68L110.369 64.63L111.32 63.6651L114.602 68H112.908ZM115.666 68V60.9091H116.991V62.0632H117.079C117.227 61.6723 117.468 61.3677 117.804 61.1491C118.139 60.9276 118.541 60.8168 119.009 60.8168C119.482 60.8168 119.879 60.9276 120.2 61.1491C120.523 61.3707 120.761 61.6754 120.915 62.0632H120.989C121.158 61.6847 121.428 61.383 121.797 61.1584C122.166 60.9306 122.606 60.8168 123.117 60.8168C123.76 60.8168 124.285 61.0183 124.691 61.4215C125.101 61.8247 125.305 62.4325 125.305 63.245V68H123.925V63.3743C123.925 62.8942 123.794 62.5464 123.533 62.331C123.271 62.1155 122.959 62.0078 122.596 62.0078C122.146 62.0078 121.797 62.1463 121.548 62.4233C121.298 62.6972 121.174 63.0496 121.174 63.4805V68H119.798V63.2866C119.798 62.9019 119.678 62.5926 119.438 62.3587C119.198 62.1248 118.885 62.0078 118.501 62.0078C118.239 62.0078 117.998 62.0771 117.776 62.2156C117.557 62.351 117.38 62.5402 117.245 62.7834C117.113 63.0265 117.047 63.3081 117.047 63.6282V68H115.666ZM129.219 68.157C128.77 68.157 128.363 68.0739 128 67.9077C127.637 67.7384 127.349 67.4937 127.137 67.1737C126.928 66.8536 126.823 66.4612 126.823 65.9964C126.823 65.5964 126.9 65.267 127.054 65.0085C127.208 64.75 127.416 64.5453 127.677 64.3945C127.939 64.2437 128.231 64.1299 128.554 64.0529C128.877 63.976 129.207 63.9175 129.542 63.8775C129.967 63.8282 130.312 63.7882 130.576 63.7575C130.841 63.7236 131.033 63.6697 131.153 63.5959C131.273 63.522 131.333 63.402 131.333 63.2358V63.2035C131.333 62.8003 131.219 62.4879 130.992 62.2663C130.767 62.0447 130.432 61.9339 129.985 61.9339C129.521 61.9339 129.154 62.037 128.887 62.2433C128.622 62.4464 128.439 62.6726 128.337 62.9219L127.04 62.6264C127.194 62.1955 127.419 61.8478 127.714 61.5831C128.013 61.3153 128.356 61.1214 128.744 61.0014C129.131 60.8783 129.539 60.8168 129.967 60.8168C130.25 60.8168 130.55 60.8506 130.867 60.9183C131.187 60.983 131.486 61.103 131.763 61.2784C132.043 61.4538 132.272 61.7047 132.451 62.0309C132.629 62.354 132.718 62.7741 132.718 63.2912V68H131.37V67.0305H131.315C131.226 67.209 131.092 67.3845 130.913 67.5568C130.735 67.7292 130.505 67.8723 130.225 67.9862C129.945 68.1 129.61 68.157 129.219 68.157ZM129.519 67.049C129.901 67.049 130.227 66.9736 130.498 66.8228C130.772 66.672 130.979 66.475 131.121 66.2319C131.266 65.9857 131.338 65.7225 131.338 65.4425V64.5284C131.289 64.5777 131.193 64.6238 131.052 64.6669C130.913 64.7069 130.755 64.7423 130.576 64.7731C130.398 64.8008 130.224 64.8269 130.055 64.8516C129.885 64.8731 129.744 64.8916 129.63 64.907C129.362 64.9408 129.117 64.9978 128.896 65.0778C128.677 65.1578 128.502 65.2732 128.37 65.424C128.24 65.5717 128.176 65.7687 128.176 66.0149C128.176 66.3565 128.302 66.6151 128.554 66.7905C128.807 66.9628 129.128 67.049 129.519 67.049ZM134.557 68V60.9091H135.891V62.0355H135.965C136.094 61.6539 136.322 61.3538 136.648 61.1353C136.977 60.9137 137.35 60.8029 137.765 60.8029C137.851 60.8029 137.953 60.806 138.07 60.8121C138.19 60.8183 138.284 60.826 138.352 60.8352V62.1555C138.296 62.1402 138.198 62.1232 138.056 62.1048C137.915 62.0832 137.773 62.0724 137.631 62.0724C137.305 62.0724 137.014 62.1417 136.759 62.2802C136.507 62.4156 136.306 62.6049 136.159 62.848C136.011 63.0881 135.937 63.362 135.937 63.6697V68H134.557ZM140.851 60.9091L142.416 63.6697L143.995 60.9091H145.505L143.294 64.4545L145.523 68H144.014L142.416 65.3501L140.824 68H139.309L141.516 64.4545L139.337 60.9091H140.851ZM158.686 63.2727C158.686 64.2822 158.501 65.1501 158.132 65.8764C157.763 66.5997 157.256 67.1567 156.613 67.5476C155.973 67.9354 155.245 68.1293 154.43 68.1293C153.611 68.1293 152.88 67.9354 152.237 67.5476C151.597 67.1567 151.092 66.5981 150.723 65.8718C150.353 65.1455 150.169 64.2791 150.169 63.2727C150.169 62.2633 150.353 61.3969 150.723 60.6737C151.092 59.9473 151.597 59.3903 152.237 59.0025C152.88 58.6116 153.611 58.4162 154.43 58.4162C155.245 58.4162 155.973 58.6116 156.613 59.0025C157.256 59.3903 157.763 59.9473 158.132 60.6737C158.501 61.3969 158.686 62.2633 158.686 63.2727ZM157.273 63.2727C157.273 62.5033 157.149 61.8555 156.899 61.3292C156.653 60.7998 156.315 60.3997 155.884 60.1289C155.456 59.855 154.971 59.718 154.43 59.718C153.885 59.718 153.399 59.855 152.971 60.1289C152.543 60.3997 152.204 60.7998 151.955 61.3292C151.709 61.8555 151.586 62.5033 151.586 63.2727C151.586 64.0421 151.709 64.6915 151.955 65.2209C152.204 65.7472 152.543 66.1473 152.971 66.4212C153.399 66.692 153.885 66.8274 154.43 66.8274C154.971 66.8274 155.456 66.692 155.884 66.4212C156.315 66.1473 156.653 65.7472 156.899 65.2209C157.149 64.6915 157.273 64.0421 157.273 63.2727ZM161.734 63.7898V68H160.354V60.9091H161.679V62.0632H161.766C161.929 61.6877 162.185 61.3861 162.533 61.1584C162.884 60.9306 163.325 60.8168 163.858 60.8168C164.341 60.8168 164.764 60.9183 165.127 61.1214C165.49 61.3215 165.772 61.62 165.972 62.017C166.172 62.4141 166.272 62.9049 166.272 63.4897V68H164.892V63.6559C164.892 63.1419 164.758 62.7403 164.49 62.451C164.222 62.1586 163.855 62.0124 163.387 62.0124C163.067 62.0124 162.782 62.0817 162.533 62.2202C162.286 62.3587 162.091 62.5618 161.946 62.8295C161.805 63.0942 161.734 63.4143 161.734 63.7898ZM171.179 68.1431C170.481 68.1431 169.879 67.9938 169.374 67.6953C168.873 67.3937 168.485 66.9705 168.211 66.4258C167.94 65.878 167.805 65.2363 167.805 64.5007C167.805 63.7744 167.94 63.1342 168.211 62.5803C168.485 62.0263 168.866 61.5939 169.356 61.283C169.848 60.9722 170.424 60.8168 171.082 60.8168C171.482 60.8168 171.87 60.8829 172.246 61.0153C172.621 61.1476 172.958 61.3554 173.257 61.6385C173.555 61.9216 173.791 62.2894 173.963 62.7418C174.135 63.1912 174.222 63.7375 174.222 64.3807V64.87H168.585V63.8359H172.869C172.869 63.4728 172.795 63.1512 172.647 62.8711C172.5 62.5879 172.292 62.3648 172.024 62.2017C171.759 62.0386 171.449 61.957 171.092 61.957C170.704 61.957 170.365 62.0524 170.076 62.2433C169.79 62.431 169.568 62.6772 169.411 62.9819C169.257 63.2835 169.18 63.6113 169.18 63.9652V64.7731C169.18 65.247 169.263 65.6502 169.43 65.9826C169.599 66.315 169.834 66.5689 170.136 66.7443C170.438 66.9167 170.79 67.0028 171.193 67.0028C171.455 67.0028 171.693 66.9659 171.909 66.892C172.124 66.8151 172.31 66.7012 172.467 66.5504C172.624 66.3996 172.744 66.2134 172.827 65.9918L174.134 66.2273C174.029 66.612 173.842 66.949 173.571 67.2383C173.303 67.5245 172.966 67.7476 172.56 67.9077C172.156 68.0646 171.696 68.1431 171.179 68.1431ZM182.504 60.9091V62.017H178.63V60.9091H182.504ZM179.669 59.2102H181.049V65.918C181.049 66.1857 181.089 66.3873 181.169 66.5227C181.249 66.6551 181.353 66.7459 181.479 66.7951C181.608 66.8413 181.748 66.8643 181.899 66.8643C182.01 66.8643 182.107 66.8567 182.19 66.8413C182.273 66.8259 182.337 66.8136 182.384 66.8043L182.633 67.9446C182.553 67.9754 182.439 68.0062 182.291 68.0369C182.143 68.0708 181.959 68.0893 181.737 68.0923C181.374 68.0985 181.036 68.0339 180.722 67.8984C180.408 67.763 180.154 67.5537 179.96 67.2706C179.766 66.9875 179.669 66.632 179.669 66.2042V59.2102ZM187.01 68.1431C186.312 68.1431 185.71 67.9938 185.205 67.6953C184.704 67.3937 184.316 66.9705 184.042 66.4258C183.771 65.878 183.636 65.2363 183.636 64.5007C183.636 63.7744 183.771 63.1342 184.042 62.5803C184.316 62.0263 184.698 61.5939 185.187 61.283C185.679 60.9722 186.255 60.8168 186.913 60.8168C187.314 60.8168 187.701 60.8829 188.077 61.0153C188.452 61.1476 188.789 61.3554 189.088 61.6385C189.386 61.9216 189.622 62.2894 189.794 62.7418C189.966 63.1912 190.053 63.7375 190.053 64.3807V64.87H184.416V63.8359H188.7C188.7 63.4728 188.626 63.1512 188.478 62.8711C188.331 62.5879 188.123 62.3648 187.855 62.2017C187.591 62.0386 187.28 61.957 186.923 61.957C186.535 61.957 186.196 62.0524 185.907 62.2433C185.621 62.431 185.399 62.6772 185.242 62.9819C185.088 63.2835 185.011 63.6113 185.011 63.9652V64.7731C185.011 65.247 185.095 65.6502 185.261 65.9826C185.43 66.315 185.665 66.5689 185.967 66.7443C186.269 66.9167 186.621 67.0028 187.024 67.0028C187.286 67.0028 187.524 66.9659 187.74 66.892C187.955 66.8151 188.141 66.7012 188.298 66.5504C188.455 66.3996 188.575 66.2134 188.658 65.9918L189.965 66.2273C189.86 66.612 189.673 66.949 189.402 67.2383C189.134 67.5245 188.797 67.7476 188.391 67.9077C187.988 68.0646 187.527 68.1431 187.01 68.1431ZM192.964 63.7898V68H191.584V60.9091H192.909V62.0632H192.997C193.16 61.6877 193.415 61.3861 193.763 61.1584C194.114 60.9306 194.556 60.8168 195.088 60.8168C195.571 60.8168 195.994 60.9183 196.358 61.1214C196.721 61.3215 197.002 61.62 197.202 62.017C197.402 62.4141 197.502 62.9049 197.502 63.4897V68H196.122V63.6559C196.122 63.1419 195.988 62.7403 195.721 62.451C195.453 62.1586 195.085 62.0124 194.617 62.0124C194.297 62.0124 194.012 62.0817 193.763 62.2202C193.517 62.3587 193.321 62.5618 193.177 62.8295C193.035 63.0942 192.964 63.4143 192.964 63.7898ZM201.417 68.157C200.968 68.157 200.562 68.0739 200.199 67.9077C199.835 67.7384 199.548 67.4937 199.335 67.1737C199.126 66.8536 199.021 66.4612 199.021 65.9964C199.021 65.5964 199.098 65.267 199.252 65.0085C199.406 64.75 199.614 64.5453 199.875 64.3945C200.137 64.2437 200.429 64.1299 200.752 64.0529C201.076 63.976 201.405 63.9175 201.74 63.8775C202.165 63.8282 202.51 63.7882 202.775 63.7575C203.039 63.7236 203.232 63.6697 203.352 63.5959C203.472 63.522 203.532 63.402 203.532 63.2358V63.2035C203.532 62.8003 203.418 62.4879 203.19 62.2663C202.965 62.0447 202.63 61.9339 202.184 61.9339C201.719 61.9339 201.353 62.037 201.085 62.2433C200.82 62.4464 200.637 62.6726 200.536 62.9219L199.238 62.6264C199.392 62.1955 199.617 61.8478 199.912 61.5831C200.211 61.3153 200.554 61.1214 200.942 61.0014C201.33 60.8783 201.737 60.8168 202.165 60.8168C202.448 60.8168 202.748 60.8506 203.065 60.9183C203.385 60.983 203.684 61.103 203.961 61.2784C204.241 61.4538 204.47 61.7047 204.649 62.0309C204.827 62.354 204.917 62.7741 204.917 63.2912V68H203.569V67.0305H203.513C203.424 67.209 203.29 67.3845 203.112 67.5568C202.933 67.7292 202.704 67.8723 202.424 67.9862C202.144 68.1 201.808 68.157 201.417 68.157ZM201.717 67.049C202.099 67.049 202.425 66.9736 202.696 66.8228C202.97 66.672 203.178 66.475 203.319 66.2319C203.464 65.9857 203.536 65.7225 203.536 65.4425V64.5284C203.487 64.5777 203.392 64.6238 203.25 64.6669C203.112 64.7069 202.953 64.7423 202.775 64.7731C202.596 64.8008 202.422 64.8269 202.253 64.8516C202.084 64.8731 201.942 64.8916 201.828 64.907C201.56 64.9408 201.316 64.9978 201.094 65.0778C200.876 65.1578 200.7 65.2732 200.568 65.424C200.439 65.5717 200.374 65.7687 200.374 66.0149C200.374 66.3565 200.5 66.6151 200.752 66.7905C201.005 66.9628 201.326 67.049 201.717 67.049ZM208.135 63.7898V68H206.755V60.9091H208.08V62.0632H208.168C208.331 61.6877 208.586 61.3861 208.934 61.1584C209.285 60.9306 209.727 60.8168 210.259 60.8168C210.742 60.8168 211.165 60.9183 211.528 61.1214C211.892 61.3215 212.173 61.62 212.373 62.017C212.573 62.4141 212.673 62.9049 212.673 63.4897V68H211.293V63.6559C211.293 63.1419 211.159 62.7403 210.891 62.451C210.624 62.1586 210.256 62.0124 209.788 62.0124C209.468 62.0124 209.183 62.0817 208.934 62.2202C208.688 62.3587 208.492 62.5618 208.348 62.8295C208.206 63.0942 208.135 63.4143 208.135 63.7898ZM217.835 60.9091V62.017H213.961V60.9091H217.835ZM215 59.2102H216.38V65.918C216.38 66.1857 216.42 66.3873 216.5 66.5227C216.58 66.6551 216.684 66.7459 216.81 66.7951C216.939 66.8413 217.079 66.8643 217.23 66.8643C217.341 66.8643 217.438 66.8567 217.521 66.8413C217.604 66.8259 217.668 66.8136 217.715 66.8043L217.964 67.9446C217.884 67.9754 217.77 68.0062 217.622 68.0369C217.475 68.0708 217.29 68.0893 217.068 68.0923C216.705 68.0985 216.367 68.0339 216.053 67.8984C215.739 67.763 215.485 67.5537 215.291 67.2706C215.097 66.9875 215 66.632 215 66.2042V59.2102ZM228.116 62.6403L226.864 62.8619C226.812 62.7018 226.729 62.5495 226.615 62.4048C226.504 62.2602 226.354 62.1417 226.163 62.0494C225.972 61.957 225.733 61.9109 225.447 61.9109C225.056 61.9109 224.73 61.9986 224.468 62.174C224.207 62.3464 224.076 62.5695 224.076 62.8434C224.076 63.0804 224.164 63.2712 224.339 63.4158C224.515 63.5605 224.798 63.679 225.189 63.7713L226.315 64.0298C226.968 64.1806 227.454 64.413 227.774 64.7269C228.094 65.0408 228.254 65.4486 228.254 65.9503C228.254 66.375 228.131 66.7536 227.885 67.0859C227.642 67.4152 227.301 67.6738 226.864 67.8615C226.43 68.0492 225.927 68.1431 225.355 68.1431C224.561 68.1431 223.913 67.9738 223.411 67.6353C222.91 67.2937 222.602 66.8089 222.488 66.1811L223.822 65.978C223.905 66.3258 224.076 66.5889 224.335 66.7674C224.593 66.9428 224.93 67.0305 225.346 67.0305C225.798 67.0305 226.16 66.9367 226.43 66.7489C226.701 66.5581 226.837 66.3258 226.837 66.0518C226.837 65.8303 226.754 65.6441 226.587 65.4933C226.424 65.3424 226.174 65.2286 225.835 65.1516L224.635 64.8885C223.973 64.7377 223.484 64.4976 223.167 64.1683C222.853 63.839 222.696 63.422 222.696 62.9173C222.696 62.4987 222.813 62.1325 223.047 61.8185C223.281 61.5046 223.604 61.2599 224.016 61.0845C224.428 60.906 224.901 60.8168 225.433 60.8168C226.2 60.8168 226.803 60.983 227.243 61.3153C227.683 61.6446 227.974 62.0863 228.116 62.6403ZM232.828 68.1431C232.129 68.1431 231.527 67.9938 231.023 67.6953C230.521 67.3937 230.133 66.9705 229.859 66.4258C229.589 65.878 229.453 65.2363 229.453 64.5007C229.453 63.7744 229.589 63.1342 229.859 62.5803C230.133 62.0263 230.515 61.5939 231.004 61.283C231.497 60.9722 232.072 60.8168 232.731 60.8168C233.131 60.8168 233.519 60.8829 233.894 61.0153C234.27 61.1476 234.607 61.3554 234.905 61.6385C235.204 61.9216 235.439 62.2894 235.612 62.7418C235.784 63.1912 235.87 63.7375 235.87 64.3807V64.87H230.233V63.8359H234.517C234.517 63.4728 234.444 63.1512 234.296 62.8711C234.148 62.5879 233.94 62.3648 233.673 62.2017C233.408 62.0386 233.097 61.957 232.74 61.957C232.352 61.957 232.014 62.0524 231.724 62.2433C231.438 62.431 231.217 62.6772 231.06 62.9819C230.906 63.2835 230.829 63.6113 230.829 63.9652V64.7731C230.829 65.247 230.912 65.6502 231.078 65.9826C231.247 66.315 231.483 66.5689 231.784 66.7443C232.086 66.9167 232.438 67.0028 232.842 67.0028C233.103 67.0028 233.342 66.9659 233.557 66.892C233.773 66.8151 233.959 66.7012 234.116 66.5504C234.273 66.3996 234.393 66.2134 234.476 65.9918L235.782 66.2273C235.678 66.612 235.49 66.949 235.219 67.2383C234.951 67.5245 234.614 67.7476 234.208 67.9077C233.805 68.0646 233.345 68.1431 232.828 68.1431ZM240.712 60.9091V62.017H236.838V60.9091H240.712ZM237.877 59.2102H239.257V65.918C239.257 66.1857 239.297 66.3873 239.377 66.5227C239.457 66.6551 239.561 66.7459 239.687 66.7951C239.816 66.8413 239.956 66.8643 240.107 66.8643C240.218 66.8643 240.315 66.8567 240.398 66.8413C240.481 66.8259 240.545 66.8136 240.592 66.8043L240.841 67.9446C240.761 67.9754 240.647 68.0062 240.499 68.0369C240.351 68.0708 240.167 68.0893 239.945 68.0923C239.582 68.0985 239.244 68.0339 238.93 67.8984C238.616 67.763 238.362 67.5537 238.168 67.2706C237.974 66.9875 237.877 66.632 237.877 66.2042V59.2102ZM245.548 60.9091V62.017H241.675V60.9091H245.548ZM242.714 59.2102H244.094V65.918C244.094 66.1857 244.134 66.3873 244.214 66.5227C244.294 66.6551 244.397 66.7459 244.524 66.7951C244.653 66.8413 244.793 66.8643 244.944 66.8643C245.055 66.8643 245.151 66.8567 245.235 66.8413C245.318 66.8259 245.382 66.8136 245.428 66.8043L245.678 67.9446C245.598 67.9754 245.484 68.0062 245.336 68.0369C245.188 68.0708 245.004 68.0893 244.782 68.0923C244.419 68.0985 244.08 68.0339 243.767 67.8984C243.453 67.763 243.199 67.5537 243.005 67.2706C242.811 66.9875 242.714 66.632 242.714 66.2042V59.2102ZM247.075 68V60.9091H248.456V68H247.075ZM247.772 59.815C247.532 59.815 247.326 59.735 247.154 59.5749C246.985 59.4118 246.9 59.2179 246.9 58.9933C246.9 58.7655 246.985 58.5716 247.154 58.4116C247.326 58.2485 247.532 58.1669 247.772 58.1669C248.013 58.1669 248.217 58.2485 248.386 58.4116C248.559 58.5716 248.645 58.7655 248.645 58.9933C248.645 59.2179 248.559 59.4118 248.386 59.5749C248.217 59.735 248.013 59.815 247.772 59.815ZM251.693 63.7898V68H250.313V60.9091H251.638V62.0632H251.725C251.888 61.6877 252.144 61.3861 252.492 61.1584C252.843 60.9306 253.284 60.8168 253.817 60.8168C254.3 60.8168 254.723 60.9183 255.086 61.1214C255.449 61.3215 255.731 61.62 255.931 62.017C256.131 62.4141 256.231 62.9049 256.231 63.4897V68H254.851V63.6559C254.851 63.1419 254.717 62.7403 254.449 62.451C254.181 62.1586 253.814 62.0124 253.346 62.0124C253.026 62.0124 252.741 62.0817 252.492 62.2202C252.245 62.3587 252.05 62.5618 251.905 62.8295C251.764 63.0942 251.693 63.4143 251.693 63.7898ZM261.055 70.8068C260.492 70.8068 260.007 70.733 259.601 70.5852C259.198 70.4375 258.869 70.2421 258.613 69.9989C258.358 69.7558 258.167 69.4896 258.041 69.2003L259.227 68.7109C259.31 68.8464 259.421 68.9895 259.559 69.1403C259.701 69.2942 259.892 69.425 260.132 69.5327C260.375 69.6404 260.687 69.6942 261.069 69.6942C261.592 69.6942 262.025 69.5665 262.366 69.3111C262.708 69.0587 262.879 68.6555 262.879 68.1016V66.7074H262.791C262.708 66.8582 262.588 67.0259 262.431 67.2106C262.277 67.3952 262.065 67.5553 261.794 67.6907C261.523 67.8261 261.171 67.8938 260.737 67.8938C260.177 67.8938 259.672 67.763 259.222 67.5014C258.776 67.2367 258.422 66.8474 258.161 66.3335C257.902 65.8164 257.773 65.1809 257.773 64.4268C257.773 63.6728 257.901 63.0265 258.156 62.4879C258.415 61.9493 258.769 61.5369 259.218 61.2507C259.667 60.9614 260.177 60.8168 260.746 60.8168C261.186 60.8168 261.541 60.8906 261.812 61.0384C262.083 61.183 262.294 61.3523 262.445 61.5462C262.599 61.7401 262.717 61.9109 262.8 62.0586H262.902V60.9091H264.254V68.157C264.254 68.7663 264.113 69.2665 263.83 69.6573C263.547 70.0482 263.163 70.3375 262.68 70.5252C262.2 70.7129 261.658 70.8068 261.055 70.8068ZM261.041 66.7489C261.438 66.7489 261.774 66.6566 262.048 66.4719C262.325 66.2842 262.534 66.0165 262.676 65.6687C262.82 65.3178 262.893 64.8977 262.893 64.4084C262.893 63.9313 262.822 63.5112 262.68 63.1481C262.539 62.7849 262.331 62.5018 262.057 62.2987C261.783 62.0924 261.445 61.9893 261.041 61.9893C260.626 61.9893 260.28 62.0971 260.003 62.3125C259.726 62.5249 259.516 62.8142 259.375 63.1804C259.236 63.5466 259.167 63.956 259.167 64.4084C259.167 64.8731 259.238 65.2809 259.379 65.6317C259.521 65.9826 259.73 66.2565 260.007 66.4535C260.287 66.6504 260.632 66.7489 261.041 66.7489ZM271.419 62.6403L270.168 62.8619C270.116 62.7018 270.033 62.5495 269.919 62.4048C269.808 62.2602 269.657 62.1417 269.466 62.0494C269.276 61.957 269.037 61.9109 268.751 61.9109C268.36 61.9109 268.034 61.9986 267.772 62.174C267.511 62.3464 267.38 62.5695 267.38 62.8434C267.38 63.0804 267.468 63.2712 267.643 63.4158C267.818 63.5605 268.102 63.679 268.492 63.7713L269.619 64.0298C270.271 64.1806 270.758 64.413 271.078 64.7269C271.398 65.0408 271.558 65.4486 271.558 65.9503C271.558 66.375 271.435 66.7536 271.188 67.0859C270.945 67.4152 270.605 67.6738 270.168 67.8615C269.734 68.0492 269.231 68.1431 268.659 68.1431C267.865 68.1431 267.217 67.9738 266.715 67.6353C266.213 67.2937 265.906 66.8089 265.792 66.1811L267.126 65.978C267.209 66.3258 267.38 66.5889 267.638 66.7674C267.897 66.9428 268.234 67.0305 268.649 67.0305C269.102 67.0305 269.463 66.9367 269.734 66.7489C270.005 66.5581 270.14 66.3258 270.14 66.0518C270.14 65.8303 270.057 65.6441 269.891 65.4933C269.728 65.3424 269.477 65.2286 269.139 65.1516L267.938 64.8885C267.277 64.7377 266.787 64.4976 266.47 64.1683C266.156 63.839 265.999 63.422 265.999 62.9173C265.999 62.4987 266.116 62.1325 266.35 61.8185C266.584 61.5046 266.907 61.2599 267.32 61.0845C267.732 60.906 268.205 60.8168 268.737 60.8168C269.503 60.8168 270.107 60.983 270.547 61.3153C270.987 61.6446 271.278 62.0863 271.419 62.6403ZM273.985 68.0877C273.732 68.0877 273.515 67.9985 273.334 67.82C273.152 67.6384 273.062 67.4199 273.062 67.1644C273.062 66.9121 273.152 66.6966 273.334 66.5181C273.515 66.3365 273.732 66.2457 273.985 66.2457C274.237 66.2457 274.454 66.3365 274.636 66.5181C274.817 66.6966 274.908 66.9121 274.908 67.1644C274.908 67.3337 274.865 67.4891 274.779 67.6307C274.696 67.7692 274.585 67.88 274.446 67.9631C274.308 68.0462 274.154 68.0877 273.985 68.0877Z" fill="white" fill-opacity="0.7"/>
</svg>
