<svg width="12" height="12" viewBox="0 0 12 12" fill="none" xmlns="http://www.w3.org/2000/svg">
<path fill-rule="evenodd" clip-rule="evenodd" d="M0.175736 0.175808C0.410051 -0.0585061 0.790054 -0.0585061 1.02437 0.175808L11.8242 10.9756L11.8652 11.0215C12.0574 11.2572 12.0438 11.6046 11.8242 11.8242C11.6045 12.0439 11.2571 12.0574 11.0214 11.8653L10.9755 11.8242L9.3066 10.1553C8.48917 11.0542 7.44554 11.4729 6.248 11.9492L6.22749 11.9571C6.08175 12.015 5.91815 12.015 5.77242 11.9571L5.75191 11.9492C2.90405 10.8164 0.910168 10.0223 0.811478 2.27737C0.809355 2.10719 0.878295 1.9531 0.990189 1.83889L0.175736 1.02444C-0.0585786 0.790127 -0.0585786 0.410123 0.175736 0.175808Z" fill="white" fill-opacity="0.5"/>
<path d="M5.60933 0.124051C5.84226 -0.041363 6.15764 -0.0413374 6.39058 0.124051C7.65957 1.02521 9.10963 1.53137 10.582 1.64065C10.9184 1.66562 11.1926 1.9401 11.1884 2.27737C11.1557 4.84631 10.9117 6.64971 10.5 7.95511L9.50777 6.96194L4.62495 2.07913L3.68745 1.14163C4.35768 0.89199 5.00429 0.5537 5.60933 0.124051Z" fill="white" fill-opacity="0.5"/>
</svg>
