<svg xmlns="http://www.w3.org/2000/svg" width="16" height="16" fill="none" viewBox="0 0 16 16">
  <path fill="#343434" fill-opacity=".3" fill-rule="evenodd" d="M2.176 2.176a.6.6 0 0 1 .848 0l10.8 10.8.041.045a.6.6 0 0 1-.844.844l-.046-.04-1.668-1.67c-.818.9-1.861 1.318-3.059 1.794l-.02.008a.618.618 0 0 1-.456 0l-.02-.008c-2.848-1.133-4.842-1.927-4.94-9.672a.613.613 0 0 1 .178-.438l-.814-.815a.6.6 0 0 1 0-.848Z" clip-rule="evenodd"/>
  <path fill="#343434" fill-opacity=".3" d="M7.61 2.124a.677.677 0 0 1 .78 0 8.289 8.289 0 0 0 4.192 1.517c.336.025.61.3.606.636-.032 2.57-.276 4.373-.688 5.678l-.992-.993-4.883-4.883-.938-.937A8.35 8.35 0 0 0 7.61 2.124Z"/>
</svg>
