<svg width="16" height="16" viewBox="0 0 16 16" fill="none" xmlns="http://www.w3.org/2000/svg">
<path fill-rule="evenodd" clip-rule="evenodd" d="M2 3.2C2 2.53726 2.53726 2 3.2 2H5.6C5.93137 2 6.2 2.26863 6.2 2.6C6.2 2.93137 5.93137 3.2 5.6 3.2H3.2V12.8H5.6C5.93137 12.8 6.2 13.0686 6.2 13.4C6.2 13.7314 5.93137 14 5.6 14H3.2C2.53726 14 2 13.4627 2 12.8V3.2Z" fill="#FFFFFF"/>
<path fill-rule="evenodd" clip-rule="evenodd" d="M9.97574 4.57574C10.2101 4.34142 10.5899 4.34142 10.8243 4.57574L13.8243 7.57574C14.0586 7.81005 14.0586 8.18995 13.8243 8.42426L10.8243 11.4243C10.5899 11.6586 10.2101 11.6586 9.97574 11.4243C9.74142 11.1899 9.74142 10.8101 9.97574 10.5757L11.9515 8.6H5.6C5.26863 8.6 5 8.33137 5 8C5 7.66863 5.26863 7.4 5.6 7.4H11.9515L9.97574 5.42426C9.74142 5.18995 9.74142 4.81005 9.97574 4.57574Z" fill="#FFFFFF"/>
</svg>