<?xml version="1.0" encoding="UTF-8" standalone="no"?>
<svg
   fill="#F9AE4D"
   width="13.014"
   height="16.124"
   version="1.1"
   id="svg349"
   sodipodi:docname="medium_toggle.svg"
   inkscape:version="1.1.1 (3bf5ae0d25, 2021-09-20)"
   xmlns:inkscape="http://www.inkscape.org/namespaces/inkscape"
   xmlns:sodipodi="http://sodipodi.sourceforge.net/DTD/sodipodi-0.dtd"
   xmlns="http://www.w3.org/2000/svg"
   xmlns:svg="http://www.w3.org/2000/svg">
  <defs
     id="defs353" />
  <sodipodi:namedview
     id="namedview351"
     pagecolor="#ffffff"
     bordercolor="#666666"
     borderopacity="1.0"
     inkscape:pageshadow="2"
     inkscape:pageopacity="0.0"
     inkscape:pagecheckerboard="0"
     showgrid="false"
     inkscape:zoom="51.600097"
     inkscape:cx="3.1685987"
     inkscape:cy="8.0716902"
     inkscape:window-width="2560"
     inkscape:window-height="1017"
     inkscape:window-x="1912"
     inkscape:window-y="-8"
     inkscape:window-maximized="1"
     inkscape:current-layer="svg349" />
  <rect
     id="backgroundrect"
     width="100%"
     height="100%"
     x="0"
     y="0"
     fill="none"
     stroke="none" />
  <g
     class="currentLayer"
     id="g347"
     transform="matrix(0.9,0,0,0.9,0.6499567,0.79988914)">
    <title
       id="title343">Layer 1</title>
    <path
       d="M 0.02799988,2.5190001 C 2.4749999,2.5040001 4.6750002,1.825 6.4749999,0 8.2679999,1.8099999 10.475,2.5039999 12.979,2.5120001 c 0,0.508 -0.014,0.98 0,1.452 0.042,1.646 0.042,3.2920001 -0.24,4.9159999 -0.498,2.898 -1.975,5.08 -4.5830001,6.419 -0.478,0.243 -0.985,0.45 -1.477,0.658 a 0.48000002,0.48000002 0 0 1 -0.33,0.021 C 4.183,15.206 2.3689999,13.968 1.223,11.878 A 9.0419998,9.0419998 0 0 1 0.10500002,8 C 0.00700001,6.233 0.02800001,4.4579999 1.4901161e-8,2.6830001 c 0,-0.05 0.01400000509884,-0.093 0.02799986509884,-0.164 z"
       id="svg_1"
       class=""
       fill="#919191"
       fill-opacity="1" />
    <path
       d="m 2.9510002,4.4549999 h 1.707 l 1.8020001,4.3969999 h 0.077 l 1.803,-4.3969999 H 10.046 V 11 H 8.7040002 V 6.7399998 h -0.054 l -1.694,4.2280002 h -0.914 l -1.694,-4.244 h -0.055 V 11 h -1.342 z"
       fill="#ffffff"
       id="svg_2"
       class="" />
  </g>
</svg>
