<svg width="20" height="20" viewBox="0 0 20 20" fill="none" xmlns="http://www.w3.org/2000/svg">
<path fill-rule="evenodd" clip-rule="evenodd" d="M10 18C14.4183 18 18 14.4183 18 10C18 5.58172 14.4183 2 10 2C5.58172 2 2 5.58172 2 10C2 14.4183 5.58172 18 10 18ZM14.084 7.88282C14.3349 7.62762 14.326 7.22249 14.0643 6.97793C13.8026 6.73337 13.387 6.74199 13.1362 6.99718L8.56767 11.6452L6.85377 9.97412C6.59742 9.72418 6.18181 9.72418 5.92546 9.97412C5.66912 10.2241 5.66912 10.6293 5.92546 10.8792L8.1135 13.0125C8.23831 13.1342 8.40813 13.2018 8.58463 13.2C8.76113 13.1981 8.92944 13.1271 9.05157 13.0028L14.084 7.88282Z" fill="#4DBB40"/>
<path d="M14.0643 6.97793C14.326 7.22249 14.3349 7.62762 14.084 7.88282L9.05157 13.0028C8.92944 13.1271 8.76113 13.1981 8.58463 13.2C8.40813 13.2018 8.23831 13.1342 8.1135 13.0125L5.92546 10.8792C5.66912 10.6293 5.66912 10.2241 5.92546 9.97412C6.18181 9.72418 6.59742 9.72418 6.85377 9.97412L8.56767 11.6452L13.1362 6.99718C13.387 6.74199 13.8026 6.73337 14.0643 6.97793Z" fill="white"/>
</svg>
