<?xml version="1.0" encoding="UTF-8"?>
<svg id="Layer_1" data-name="Layer 1" xmlns="http://www.w3.org/2000/svg" viewBox="0 0 624.97 625.64">
  <defs>
    <style>
      .cls-1 {
        fill: #121185;
        fill-rule: evenodd;
      }
    </style>
  </defs>
  <path class="cls-1" d="M258.42,304.93L523.72,17.86c11.52-11.5,26.83-17.86,42.3-17.86.91,0,1.81,0,2.72.06,16.7.76,32.42,8.62,43.12,21.56,9.46,11.55,14.15,26.35,12.92,41.65-1.15,14.74-7.65,28.6-18.1,39.12l-286.78,265c-2.39,2.43-3.87,6.19-3.87,10.11s1.48,7.57,4.2,10.4l156.6,134.81c11.69,11.61,18.27,27.33,18.52,43.45.25,16.93-6.25,32.42-18.27,43.57-5.51,5.14-11.93,9.18-19.01,11.9-6.91,2.66-14.07,3.99-21.39,3.99s-15.14-1.45-22.22-4.34c-7.32-3-13.91-7.34-19.58-13l-.74-.69-136.35-158.09c-5.1-4.91-14.81-4.91-20.41.46l-136.19,157.98c-6.01,6.02-12.67,10.4-20,13.41-13.83,5.6-29.71,5.73-43.61.35-7.08-2.72-13.5-6.7-19.01-11.9C6.53,598.65.03,583.22.28,566.28c.25-16.06,6.83-31.84,18.19-43.1l.66-.69,156.68-134.99c2.3-2.37,3.78-6.06,3.78-10s-1.48-7.63-4.2-10.4L18.63,232.12C7.77,221.26,1.35,207.39.2,192.66c-1.23-15.31,3.37-30.11,12.92-41.66,10.7-12.94,26.41-20.8,43.12-21.55,16.62-.81,32.83,5.49,44.52,17.27l.74.76,136.35,158.09c5.1,4.91,15.14,4.8,20.57-.63Z"/>
</svg>