<?xml version="1.0" encoding="UTF-8"?>
<svg version="1.1" xmlns="http://www.w3.org/2000/svg" width="35" height="35">
<path d="M0 0 C2.18359375 0.4609375 2.18359375 0.4609375 3.18359375 1.4609375 C3.54955759 4.48871648 3.58149162 5.93413289 1.71484375 8.40551758 C0.709375 9.30886841 0.709375 9.30886841 -0.31640625 10.23046875 C-1.39921875 11.22143555 -1.39921875 11.22143555 -2.50390625 12.23242188 C-3.26703125 12.90595703 -4.03015625 13.57949219 -4.81640625 14.2734375 C-5.57953125 14.96630859 -6.34265625 15.65917969 -7.12890625 16.37304688 C-9.01409806 18.08150195 -10.90978507 19.77648079 -12.81640625 21.4609375 C-11.841875 22.24017578 -11.841875 22.24017578 -10.84765625 23.03515625 C-10.01234375 23.73253906 -9.17703125 24.42992188 -8.31640625 25.1484375 C-7.48109375 25.83292969 -6.64578125 26.51742188 -5.78515625 27.22265625 C-3.81640625 29.4609375 -3.81640625 29.4609375 -3.47265625 32.16796875 C-3.81640625 34.4609375 -3.81640625 34.4609375 -4.81640625 35.4609375 C-7.140625 35.7734375 -7.140625 35.7734375 -9.81640625 35.4609375 C-11.8359375 33.7109375 -11.8359375 33.7109375 -13.62890625 31.4609375 C-14.23347656 30.7184375 -14.83804687 29.9759375 -15.4609375 29.2109375 C-15.90824219 28.6334375 -16.35554688 28.0559375 -16.81640625 27.4609375 C-20.02871923 28.85995753 -20.97906094 29.66946915 -23.25390625 32.5859375 C-25.81640625 35.4609375 -25.81640625 35.4609375 -28.56640625 35.8984375 C-30.81640625 35.4609375 -30.81640625 35.4609375 -31.81640625 34.4609375 C-32.12890625 32.13671875 -32.12890625 32.13671875 -31.81640625 29.4609375 C-30.06640625 27.44140625 -30.06640625 27.44140625 -27.81640625 25.6484375 C-27.07390625 25.04386719 -26.33140625 24.43929688 -25.56640625 23.81640625 C-24.98890625 23.36910156 -24.41140625 22.92179687 -23.81640625 22.4609375 C-25.21542628 19.24862452 -26.0249379 18.29828281 -28.94140625 16.0234375 C-31.81640625 13.4609375 -31.81640625 13.4609375 -32.25390625 10.7109375 C-31.81640625 8.4609375 -31.81640625 8.4609375 -30.81640625 7.4609375 C-28.4921875 7.1484375 -28.4921875 7.1484375 -25.81640625 7.4609375 C-23.796875 9.2109375 -23.796875 9.2109375 -22.00390625 11.4609375 C-21.39933594 12.2034375 -20.79476563 12.9459375 -20.171875 13.7109375 C-19.72457031 14.2884375 -19.27726562 14.8659375 -18.81640625 15.4609375 C-13.72539918 13.62963999 -10.69277266 8.99888763 -7.32617188 4.984375 C-3.44310819 0.56350453 -3.44310819 0.56350453 0 0 Z " fill="#111084" transform="translate(31.81640625,-0.4609375)"/>
</svg>
