<svg width="80" height="80" viewBox="0 0 80 80" fill="none" xmlns="http://www.w3.org/2000/svg">
<mask id="mask0_4401_11217" style="mask-type:alpha" maskUnits="userSpaceOnUse" x="0" y="0" width="80" height="80">
<path d="M78.3694 2.75539C76.9918 1.10629 74.9714 0.0985107 72.8591 0.00689431C70.7468 -0.0847221 68.6345 0.739825 67.0733 2.2973L33.0929 39.0355C32.3582 39.7684 31.0725 39.7684 30.4297 39.1271L12.9803 18.8799L12.8884 18.7882C11.419 17.3224 9.3067 16.4978 7.19441 16.5895C5.08212 16.6811 3.06167 17.6889 1.68409 19.3379C0.490185 20.8038 -0.152675 22.7278 0.0310021 24.6517C0.21468 26.5756 1.04126 28.3164 2.41884 29.6906L22.5315 46.9145C22.8988 47.2809 23.0826 47.739 23.0826 48.2887C23.0826 48.8384 22.8989 49.2965 22.6234 49.5713L2.51066 66.7952L2.41884 66.8868C0.949423 68.3527 0.122875 70.3683 0.122875 72.3838C0.122875 74.5826 0.949423 76.5066 2.41884 77.9724C3.15355 78.6137 3.98006 79.1634 4.89844 79.5299C6.64338 80.1712 8.7557 80.1712 10.5006 79.4383C11.419 79.0718 12.2456 78.5221 13.0721 77.6976L30.5215 57.4504C31.2562 56.7174 32.4501 56.7174 33.0929 57.3587L50.5423 77.6059L50.6342 77.6976C51.3689 78.4305 52.1954 78.9802 53.1138 79.3467C54.0322 79.7131 54.9506 79.8964 55.9608 79.8964C56.8792 79.8964 57.7976 79.7131 58.716 79.3467C59.6344 78.9802 60.4609 78.5221 61.1956 77.7892C62.7569 76.3233 63.5834 74.3994 63.4916 72.2006C63.4916 70.185 62.5732 68.1695 61.1038 66.612L40.9911 49.3881C40.6238 49.0217 40.44 48.5636 40.44 48.0139C40.44 47.4642 40.6237 47.0061 40.8992 46.7312L77.6347 12.8332C79.0123 11.4589 79.8389 9.71823 79.9307 7.79429C80.2062 6.14519 79.6552 4.22125 78.3694 2.75539Z" fill="#231F20"/>
</mask>
<g mask="url(#mask0_4401_11217)">
<path d="M4.33525 47.69H96.9902L91.0663 -22.9272L5.32841 -6.80233L-8.72803 15.6321L4.33525 47.69Z" fill="#6B6874"/>
<path d="M1.67748 86.7122L65.0542 80.9463L59.8133 47.4914L5.22959 47.4907L-8.74339 74.2395L1.67748 86.7122Z" fill="#6B6874"/>
</g>
</svg>
