<svg width="32" height="32" viewBox="0 0 32 32" fill="none" xmlns="http://www.w3.org/2000/svg">
<path fill-rule="evenodd" clip-rule="evenodd" d="M5.33325 10.4062C5.33325 7.60434 7.57722 5.33301 10.3453 5.33301H21.1405C23.9086 5.33301 26.1525 7.60434 26.1525 10.4062C26.1525 12.003 25.4098 13.5066 24.1477 14.4647L17.1565 19.772C16.3656 20.3725 15.254 20.2699 14.5834 19.5345L11.4991 16.1524C10.777 15.3606 10.8257 14.1261 11.6081 13.3952C12.3904 12.6642 13.6099 12.7136 14.3321 13.5055L16.2358 15.593L21.8345 11.3428C22.1257 11.1217 22.2971 10.7747 22.2971 10.4062C22.2971 9.7596 21.7793 9.23545 21.1405 9.23545H10.3453C9.70651 9.23545 9.18867 9.7596 9.18867 10.4062V21.5932C9.18867 22.2397 9.70651 22.7639 10.3453 22.7639H21.6545C22.2933 22.7639 22.8112 22.2397 22.8112 21.5932V20.2924C22.8112 19.2147 23.6742 18.3411 24.7389 18.3411C25.8035 18.3411 26.6666 19.2147 26.6666 20.2924V21.5932C26.6666 24.395 24.4226 26.6663 21.6545 26.6663H10.3453C7.57722 26.6663 5.33325 24.395 5.33325 21.5932V10.4062Z" fill="#7A797A"/>
</svg>
