<svg width="40" height="40" viewBox="0 0 40 40" fill="none" xmlns="http://www.w3.org/2000/svg">
<g clip-path="url(#clip0_61_763)">
<path d="M39.1847 1.37769C38.4959 0.553145 37.4857 0.0492553 36.4296 0.00344715C35.3734 -0.042361 34.3173 0.369913 33.5366 1.14865L16.5465 19.5177C16.1791 19.8842 15.5363 19.8842 15.2148 19.5635L6.49015 9.43993L6.44421 9.39412C5.7095 8.66119 4.65335 8.24892 3.59721 8.29473C2.54106 8.34054 1.53083 8.84443 0.842044 9.66897C0.245092 10.4019 -0.0763377 11.3639 0.0155011 12.3258C0.10734 13.2878 0.520631 14.1582 1.20942 14.8453L11.2657 23.4572C11.4494 23.6405 11.5413 23.8695 11.5413 24.1444C11.5413 24.4192 11.4494 24.6482 11.3117 24.7857L1.25533 33.3976L1.20942 33.4434C0.474712 34.1763 0.0614373 35.1841 0.0614373 36.1919C0.0614373 37.2913 0.474712 38.2533 1.20942 38.9862C1.57678 39.3069 1.99003 39.5817 2.44922 39.7649C3.32169 40.0856 4.37785 40.0856 5.25032 39.7191C5.70951 39.5359 6.12278 39.2611 6.53606 38.8488L15.2607 28.7252C15.6281 28.3587 16.225 28.3587 16.5465 28.6794L25.2711 38.803L25.3171 38.8488C25.6844 39.2153 26.0977 39.4901 26.5569 39.6733C27.0161 39.8566 27.4753 39.9482 27.9804 39.9482C28.4396 39.9482 28.8988 39.8566 29.358 39.6733C29.8172 39.4901 30.2305 39.2611 30.5978 38.8946C31.3784 38.1617 31.7917 37.1997 31.7458 36.1003C31.7458 35.0925 31.2866 34.0847 30.5519 33.306L20.4956 24.6941C20.3119 24.5108 20.22 24.2818 20.22 24.0069C20.22 23.7321 20.3119 23.503 20.4496 23.3656L38.8174 6.41659C39.5062 5.72947 39.9194 4.85911 39.9653 3.89714C40.1031 3.0726 39.8276 2.11062 39.1847 1.37769Z" fill="#6B34FD"/>
</g>
<defs>
<clipPath id="clip0_61_763">
<rect width="40" height="40" fill="white"/>
</clipPath>
</defs>
</svg>
