<svg xmlns="http://www.w3.org/2000/svg" width="18" height="20" fill="currentColor" aria-hidden="true" focusable="false" style=""><rect id="backgroundrect" width="100%" height="100%" x="0" y="0" fill="none" stroke="none"/><g class="currentLayer" style=""><title>Layer 1</title><path d="M8.568 14.16c-.817 0-1.518-.18-2.104-.538a3.593 3.593 0 0 1-1.348-1.486c-.312-.636-.469-1.367-.469-2.195 0-.83.16-1.564.48-2.2.32-.639.77-1.136 1.353-1.491.586-.359 1.278-.538 2.077-.538.664 0 1.252.122 1.763.367.515.242.925.585 1.23 1.029.306.44.48.955.523 1.544H10.23a1.762 1.762 0 0 0-.533-.985c-.277-.267-.648-.4-1.113-.4-.394 0-.74.107-1.039.32-.298.21-.53.511-.698.905-.163.395-.245.867-.245 1.417 0 .558.082 1.037.245 1.439.164.397.393.704.688.921.298.213.648.32 1.049.32.284 0 .538-.054.762-.16.227-.11.417-.268.57-.474a1.82 1.82 0 0 0 .314-.751h1.843a3.213 3.213 0 0 1-.511 1.54 3.027 3.027 0 0 1-1.204 1.043c-.508.249-1.105.373-1.79.373Z" fill="#fff" id="svg_1"/><path fill-rule="evenodd" clip-rule="evenodd" d="M7.997.207a13.814 13.814 0 0 1-6.986 2.526c-.56.042-1.018.5-1.01 1.062.164 12.909 3.487 14.23 8.234 16.12l.034.012c.243.097.515.097.758 0l.034-.013c4.746-1.888 8.07-3.21 8.234-16.119.007-.562-.45-1.02-1.01-1.062A13.814 13.814 0 0 1 9.298.207a1.126 1.126 0 0 0-1.3 0ZM6.464 13.622c.586.359 1.287.538 2.104.538.685 0 1.282-.124 1.79-.373.508-.252.909-.6 1.204-1.044.294-.447.465-.96.51-1.54H10.23a1.82 1.82 0 0 1-.314.752 1.532 1.532 0 0 1-.57.474c-.224.106-.478.16-.762.16-.401 0-.751-.107-1.05-.32-.294-.216-.523-.524-.687-.921-.163-.402-.245-.881-.245-1.439 0-.55.082-1.022.245-1.417.167-.394.4-.696.698-.905a1.74 1.74 0 0 1 1.039-.32c.465 0 .836.133 1.113.4.28.263.458.591.533.985h1.843c-.043-.59-.217-1.104-.522-1.544a3.012 3.012 0 0 0-1.23-1.029c-.512-.245-1.1-.367-1.764-.367-.799 0-1.491.18-2.077.538A3.578 3.578 0 0 0 5.127 7.74c-.32.636-.48 1.37-.48 2.2 0 .828.157 1.56.47 2.195a3.593 3.593 0 0 0 1.347 1.486Z" id="svg_2" class="" fill="#bb2a31" fill-opacity="1"/></g></svg>