<svg width="12" height="12" viewBox="0 0 12 12" fill="none" xmlns="http://www.w3.org/2000/svg">
<path fill-rule="evenodd" clip-rule="evenodd" d="M5.60994 0.125046C4.3409 1.02625 2.89047 1.53149 1.41805 1.64076C1.0816 1.66573 0.807275 1.94074 0.811573 2.27808C0.910267 10.0232 2.90443 10.8165 5.75243 11.9494L5.77269 11.9575C5.91844 12.0155 6.08181 12.0155 6.22756 11.9575L6.24782 11.9494C9.09582 10.8165 11.09 10.0232 11.1887 2.27808C11.193 1.94074 10.9186 1.66573 10.5822 1.64076C9.10977 1.53149 7.65935 1.02625 6.39031 0.125046C6.15737 -0.04038 5.84288 -0.04038 5.60994 0.125046ZM4.68984 8.17422C5.04141 8.38942 5.46222 8.49702 5.95227 8.49702C6.36349 8.49702 6.72145 8.42244 7.02614 8.2733C7.33082 8.12202 7.57159 7.91321 7.74844 7.64688C7.92528 7.37841 8.02756 7.07053 8.05526 6.72322H6.94943C6.91534 6.90007 6.85249 7.05028 6.76087 7.17386C6.66925 7.29744 6.55526 7.39226 6.41889 7.45831C6.28466 7.52223 6.13232 7.55419 5.96186 7.55419C5.72109 7.55419 5.51122 7.49027 5.33224 7.36243C5.1554 7.23246 5.01797 7.04815 4.91996 6.80952C4.82195 6.56875 4.77294 6.28111 4.77294 5.94659C4.77294 5.61633 4.82195 5.33295 4.91996 5.09645C5.0201 4.85994 5.15966 4.67883 5.33864 4.55312C5.51761 4.42528 5.72536 4.36136 5.96186 4.36136C6.24098 4.36136 6.46364 4.44126 6.62983 4.60107C6.79815 4.75874 6.90469 4.95582 6.94943 5.19233H8.05526C8.02969 4.83864 7.92528 4.52969 7.74205 4.26548C7.55881 3.99915 7.31271 3.79354 7.00377 3.64865C6.69695 3.50163 6.34432 3.42813 5.94588 3.42813C5.46648 3.42813 5.05099 3.53572 4.69943 3.75092C4.35 3.96399 4.0794 4.26229 3.88764 4.64581C3.69588 5.0272 3.6 5.46719 3.6 5.96577C3.6 6.46222 3.69375 6.90114 3.88125 7.28253C4.07088 7.66179 4.34041 7.95902 4.68984 8.17422Z" fill="#E81C26"/>
<path d="M5.95227 8.49702C5.46222 8.49702 5.04141 8.38942 4.68984 8.17422C4.34041 7.95902 4.07088 7.66179 3.88125 7.28253C3.69375 6.90114 3.6 6.46222 3.6 5.96577C3.6 5.46719 3.69588 5.0272 3.88764 4.64581C4.0794 4.26229 4.35 3.96399 4.69943 3.75092C5.05099 3.53572 5.46648 3.42813 5.94588 3.42813C6.34432 3.42813 6.69695 3.50163 7.00377 3.64865C7.31271 3.79354 7.55881 3.99915 7.74205 4.26548C7.92528 4.52969 8.02969 4.83864 8.05526 5.19233H6.94943C6.90469 4.95582 6.79815 4.75874 6.62983 4.60107C6.46364 4.44126 6.24098 4.36136 5.96186 4.36136C5.72536 4.36136 5.51761 4.42528 5.33864 4.55312C5.15966 4.67883 5.0201 4.85994 4.91996 5.09645C4.82195 5.33295 4.77294 5.61633 4.77294 5.94659C4.77294 6.28111 4.82195 6.56875 4.91996 6.80952C5.01797 7.04815 5.1554 7.23246 5.33224 7.36243C5.51122 7.49027 5.72109 7.55419 5.96186 7.55419C6.13232 7.55419 6.28466 7.52223 6.41889 7.45831C6.55526 7.39226 6.66925 7.29744 6.76087 7.17386C6.85249 7.05028 6.91534 6.90007 6.94943 6.72322H8.05526C8.02756 7.07053 7.92528 7.37841 7.74844 7.64688C7.57159 7.91321 7.33082 8.12202 7.02614 8.2733C6.72145 8.42244 6.36349 8.49702 5.95227 8.49702Z" fill="black"/>
</svg>
