<svg width="374" height="89" viewBox="0 0 374 89" fill="none" xmlns="http://www.w3.org/2000/svg">
<rect x="0.5" y="0.5" width="373" height="88" rx="3.5" fill="#312B21"/>
<rect x="0.5" y="0.5" width="373" height="88" rx="3.5" stroke="#885102"/>
<path fill-rule="evenodd" clip-rule="evenodd" d="M26 18C21.5817 18 18 21.5817 18 26C18 30.4183 21.5817 34 26 34C30.4183 34 34 30.4183 34 26C34 21.5817 30.4183 18 26 18Z" fill="#C37242"/>
<path fill-rule="evenodd" clip-rule="evenodd" d="M25.0812 29.4907C25.0656 30.0092 25.4817 30.4381 26.0005 30.4381C26.5195 30.4381 26.9357 30.0088 26.9197 29.49L26.8026 25.69C26.7892 25.2558 26.4334 24.9108 25.999 24.9108C25.5644 24.9108 25.2085 25.2562 25.1954 25.6906L25.0812 29.4907ZM26.7231 21.8983C26.5214 21.6994 26.2799 21.6 25.9987 21.6C25.726 21.6 25.4888 21.6994 25.2871 21.8983C25.0825 22.0972 24.9788 22.3386 24.976 22.6227C24.9788 22.9011 25.0825 23.1398 25.2871 23.3386C25.4888 23.5375 25.726 23.6369 25.9987 23.6369C26.2799 23.6369 26.5214 23.5375 26.7231 23.3386C26.9248 23.1398 27.0243 22.9011 27.0214 22.6227C27.0243 22.3386 26.9248 22.0972 26.7231 21.8983Z" fill="#C37242"/>
<path d="M25.9987 21.6C26.2799 21.6 26.5214 21.6994 26.7231 21.8983C26.9248 22.0972 27.0243 22.3386 27.0214 22.6227C27.0243 22.9011 26.9248 23.1398 26.7231 23.3386C26.5214 23.5375 26.2799 23.6369 25.9987 23.6369C25.726 23.6369 25.4888 23.5375 25.2871 23.3386C25.0825 23.1398 24.9788 22.9011 24.976 22.6227C24.9788 22.3386 25.0825 22.0972 25.2871 21.8983C25.4888 21.6994 25.726 21.6 25.9987 21.6Z" fill="white"/>
<path d="M26.0005 30.4381C25.4817 30.4381 25.0656 30.0092 25.0812 29.4907L25.1954 25.6906C25.2085 25.2562 25.5644 24.9108 25.999 24.9108C26.4334 24.9108 26.7892 25.2558 26.8026 25.69L26.9197 29.49C26.9357 30.0088 26.5195 30.4381 26.0005 30.4381Z" fill="white"/>
<path d="M44.5724 21.7734V20.5455H51.8896V21.7734H48.9396V30H47.5178V21.7734H44.5724ZM55.3542 30.1431C54.6895 30.1431 54.1093 29.9908 53.6138 29.6861C53.1183 29.3814 52.7336 28.9551 52.4597 28.4073C52.1858 27.8595 52.0488 27.2193 52.0488 26.4869C52.0488 25.7513 52.1858 25.1081 52.4597 24.5572C52.7336 24.0063 53.1183 23.5785 53.6138 23.2738C54.1093 22.9691 54.6895 22.8168 55.3542 22.8168C56.019 22.8168 56.5991 22.9691 57.0946 23.2738C57.5901 23.5785 57.9748 24.0063 58.2488 24.5572C58.5227 25.1081 58.6596 25.7513 58.6596 26.4869C58.6596 27.2193 58.5227 27.8595 58.2488 28.4073C57.9748 28.9551 57.5901 29.3814 57.0946 29.6861C56.5991 29.9908 56.019 30.1431 55.3542 30.1431ZM55.3588 28.9844C55.7897 28.9844 56.1467 28.8705 56.4299 28.6428C56.713 28.415 56.9223 28.1119 57.0577 27.7333C57.1962 27.3548 57.2654 26.9377 57.2654 26.4822C57.2654 26.0298 57.1962 25.6143 57.0577 25.2358C56.9223 24.8542 56.713 24.5479 56.4299 24.3171C56.1467 24.0863 55.7897 23.9709 55.3588 23.9709C54.9249 23.9709 54.5648 24.0863 54.2786 24.3171C53.9954 24.5479 53.7846 24.8542 53.6461 25.2358C53.5107 25.6143 53.443 26.0298 53.443 26.4822C53.443 26.9377 53.5107 27.3548 53.6461 27.7333C53.7846 28.1119 53.9954 28.415 54.2786 28.6428C54.5648 28.8705 54.9249 28.9844 55.3588 28.9844ZM65.7044 30.157C65.255 30.157 64.8488 30.0739 64.4856 29.9077C64.1225 29.7384 63.8347 29.4937 63.6223 29.1737C63.4131 28.8536 63.3084 28.4612 63.3084 27.9964C63.3084 27.5964 63.3854 27.267 63.5392 27.0085C63.6931 26.75 63.9009 26.5453 64.1625 26.3945C64.4241 26.2437 64.7164 26.1299 65.0396 26.0529C65.3627 25.976 65.6921 25.9175 66.0275 25.8775C66.4522 25.8282 66.7969 25.7882 67.0616 25.7575C67.3263 25.7236 67.5186 25.6697 67.6387 25.5959C67.7587 25.522 67.8187 25.402 67.8187 25.2358V25.2035C67.8187 24.8003 67.7048 24.4879 67.4771 24.2663C67.2524 24.0447 66.917 23.9339 66.4707 23.9339C66.006 23.9339 65.6397 24.037 65.372 24.2433C65.1073 24.4464 64.9242 24.6726 64.8226 24.9219L63.5254 24.6264C63.6793 24.1955 63.9039 23.8478 64.1994 23.5831C64.4979 23.3153 64.8411 23.1214 65.2289 23.0014C65.6167 22.8783 66.0244 22.8168 66.4522 22.8168C66.7354 22.8168 67.0355 22.8506 67.3525 22.9183C67.6725 22.983 67.9711 23.103 68.248 23.2784C68.5281 23.4538 68.7574 23.7047 68.9359 24.0309C69.1144 24.354 69.2037 24.7741 69.2037 25.2912V30H67.8556V29.0305H67.8002C67.711 29.209 67.5771 29.3845 67.3986 29.5568C67.2201 29.7292 66.9908 29.8723 66.7108 29.9862C66.4307 30.1 66.0952 30.157 65.7044 30.157ZM66.0044 29.049C66.3861 29.049 66.7123 28.9736 66.9831 28.8228C67.257 28.672 67.4648 28.475 67.6064 28.2319C67.751 27.9857 67.8233 27.7225 67.8233 27.4425V26.5284C67.7741 26.5777 67.6787 26.6238 67.5371 26.6669C67.3986 26.7069 67.2401 26.7423 67.0616 26.7731C66.8831 26.8008 66.7092 26.8269 66.54 26.8516C66.3707 26.8731 66.2291 26.8916 66.1152 26.907C65.8475 26.9408 65.6028 26.9978 65.3812 27.0778C65.1627 27.1578 64.9873 27.2732 64.8549 27.424C64.7257 27.5717 64.661 27.7687 64.661 28.0149C64.661 28.3565 64.7872 28.6151 65.0396 28.7905C65.292 28.9628 65.6136 29.049 66.0044 29.049ZM74.029 30.1431C73.3427 30.1431 72.7518 29.9877 72.2563 29.6768C71.7639 29.3629 71.3853 28.9305 71.1206 28.3796C70.856 27.8287 70.7236 27.1978 70.7236 26.4869C70.7236 25.7667 70.859 25.1312 71.1299 24.5803C71.4007 24.0263 71.7823 23.5939 72.2748 23.283C72.7672 22.9722 73.3473 22.8168 74.0152 22.8168C74.5538 22.8168 75.0339 22.9168 75.4555 23.1168C75.8772 23.3138 76.2172 23.5908 76.4758 23.9478C76.7374 24.3048 76.8928 24.7218 76.942 25.1989H75.5986C75.5248 24.8665 75.3555 24.5803 75.0908 24.3402C74.8292 24.1001 74.4784 23.9801 74.0383 23.9801C73.6536 23.9801 73.3166 24.0817 73.0273 24.2848C72.741 24.4848 72.5179 24.7711 72.3579 25.1435C72.1978 25.5128 72.1178 25.9498 72.1178 26.4545C72.1178 26.9716 72.1963 27.4179 72.3532 27.7933C72.5102 28.1688 72.7318 28.4596 73.018 28.6658C73.3073 28.872 73.6474 28.9751 74.0383 28.9751C74.2999 28.9751 74.5368 28.9274 74.7492 28.832C74.9646 28.7335 75.1447 28.5935 75.2893 28.4119C75.4371 28.2304 75.5402 28.0118 75.5986 27.7564H76.942C76.8928 28.215 76.7435 28.6243 76.4942 28.9844C76.2449 29.3445 75.911 29.6276 75.4925 29.8338C75.077 30.04 74.5892 30.1431 74.029 30.1431ZM81.405 30.1431C80.7187 30.1431 80.1278 29.9877 79.6323 29.6768C79.1399 29.3629 78.7613 28.9305 78.4966 28.3796C78.2319 27.8287 78.0996 27.1978 78.0996 26.4869C78.0996 25.7667 78.235 25.1312 78.5059 24.5803C78.7767 24.0263 79.1583 23.5939 79.6507 23.283C80.1432 22.9722 80.7233 22.8168 81.3912 22.8168C81.9297 22.8168 82.4099 22.9168 82.8315 23.1168C83.2531 23.3138 83.5932 23.5908 83.8517 23.9478C84.1133 24.3048 84.2688 24.7218 84.318 25.1989H82.9746C82.9007 24.8665 82.7315 24.5803 82.4668 24.3402C82.2052 24.1001 81.8543 23.9801 81.4142 23.9801C81.0295 23.9801 80.6925 24.0817 80.4032 24.2848C80.117 24.4848 79.8939 24.7711 79.7338 25.1435C79.5738 25.5128 79.4938 25.9498 79.4938 26.4545C79.4938 26.9716 79.5723 27.4179 79.7292 27.7933C79.8862 28.1688 80.1078 28.4596 80.394 28.6658C80.6833 28.872 81.0234 28.9751 81.4142 28.9751C81.6758 28.9751 81.9128 28.9274 82.1252 28.832C82.3406 28.7335 82.5207 28.5935 82.6653 28.4119C82.813 28.2304 82.9161 28.0118 82.9746 27.7564H84.318C84.2688 28.215 84.1195 28.6243 83.8702 28.9844C83.6209 29.3445 83.287 29.6276 82.8684 29.8338C82.4529 30.04 81.9651 30.1431 81.405 30.1431ZM88.8502 30.1431C88.1516 30.1431 87.5499 29.9938 87.0452 29.6953C86.5435 29.3937 86.1557 28.9705 85.8818 28.4258C85.611 27.878 85.4756 27.2363 85.4756 26.5007C85.4756 25.7744 85.611 25.1342 85.8818 24.5803C86.1557 24.0263 86.5374 23.5939 87.0267 23.283C87.5191 22.9722 88.0947 22.8168 88.7533 22.8168C89.1534 22.8168 89.5412 22.8829 89.9166 23.0153C90.2921 23.1476 90.6291 23.3554 90.9276 23.6385C91.2262 23.9216 91.4616 24.2894 91.634 24.7418C91.8063 25.1912 91.8925 25.7375 91.8925 26.3807V26.87H86.2558V25.8359H90.5399C90.5399 25.4728 90.466 25.1512 90.3183 24.8711C90.1705 24.5879 89.9628 24.3648 89.695 24.2017C89.4304 24.0386 89.1195 23.957 88.7625 23.957C88.3747 23.957 88.0362 24.0524 87.7469 24.2433C87.4607 24.431 87.2391 24.6772 87.0821 24.9819C86.9282 25.2835 86.8513 25.6113 86.8513 25.9652V26.7731C86.8513 27.247 86.9344 27.6502 87.1006 27.9826C87.2699 28.315 87.5053 28.5689 87.8069 28.7443C88.1085 28.9167 88.4609 29.0028 88.8641 29.0028C89.1257 29.0028 89.3642 28.9659 89.5796 28.892C89.7951 28.8151 89.9813 28.7012 90.1382 28.5504C90.2952 28.3996 90.4152 28.2134 90.4983 27.9918L91.8048 28.2273C91.7001 28.612 91.5124 28.949 91.2416 29.2383C90.9738 29.5245 90.6368 29.7476 90.2306 29.9077C89.8274 30.0646 89.3673 30.1431 88.8502 30.1431ZM98.7376 24.6403L97.4865 24.8619C97.4342 24.7018 97.3511 24.5495 97.2372 24.4048C97.1264 24.2602 96.9756 24.1417 96.7848 24.0494C96.594 23.957 96.3555 23.9109 96.0692 23.9109C95.6784 23.9109 95.3522 23.9986 95.0906 24.174C94.829 24.3464 94.6982 24.5695 94.6982 24.8434C94.6982 25.0804 94.7859 25.2712 94.9613 25.4158C95.1367 25.5605 95.4199 25.679 95.8107 25.7713L96.9371 26.0298C97.5896 26.1806 98.0759 26.413 98.396 26.7269C98.716 27.0408 98.8761 27.4486 98.8761 27.9503C98.8761 28.375 98.753 28.7536 98.5067 29.0859C98.2636 29.4152 97.9235 29.6738 97.4865 29.8615C97.0526 30.0492 96.5494 30.1431 95.9769 30.1431C95.1829 30.1431 94.535 29.9738 94.0334 29.6353C93.5317 29.2937 93.224 28.8089 93.1101 28.1811L94.4442 27.978C94.5273 28.3258 94.6982 28.5889 94.9567 28.7674C95.2152 28.9428 95.5522 29.0305 95.9677 29.0305C96.4201 29.0305 96.7817 28.9367 97.0526 28.7489C97.3234 28.5581 97.4588 28.3258 97.4588 28.0518C97.4588 27.8303 97.3757 27.6441 97.2095 27.4933C97.0464 27.3424 96.7956 27.2286 96.457 27.1516L95.2567 26.8885C94.5951 26.7377 94.1057 26.4976 93.7887 26.1683C93.4748 25.839 93.3178 25.422 93.3178 24.9173C93.3178 24.4987 93.4348 24.1325 93.6687 23.8185C93.9026 23.5046 94.2257 23.2599 94.6381 23.0845C95.0505 22.906 95.523 22.8168 96.0554 22.8168C96.8217 22.8168 97.425 22.983 97.8651 23.3153C98.3052 23.6446 98.596 24.0863 98.7376 24.6403ZM105.707 24.6403L104.456 24.8619C104.404 24.7018 104.321 24.5495 104.207 24.4048C104.096 24.2602 103.945 24.1417 103.755 24.0494C103.564 23.957 103.325 23.9109 103.039 23.9109C102.648 23.9109 102.322 23.9986 102.06 24.174C101.799 24.3464 101.668 24.5695 101.668 24.8434C101.668 25.0804 101.756 25.2712 101.931 25.4158C102.106 25.5605 102.39 25.679 102.78 25.7713L103.907 26.0298C104.559 26.1806 105.046 26.413 105.366 26.7269C105.686 27.0408 105.846 27.4486 105.846 27.9503C105.846 28.375 105.723 28.7536 105.476 29.0859C105.233 29.4152 104.893 29.6738 104.456 29.8615C104.022 30.0492 103.519 30.1431 102.947 30.1431C102.153 30.1431 101.505 29.9738 101.003 29.6353C100.501 29.2937 100.194 28.8089 100.08 28.1811L101.414 27.978C101.497 28.3258 101.668 28.5889 101.926 28.7674C102.185 28.9428 102.522 29.0305 102.937 29.0305C103.39 29.0305 103.751 28.9367 104.022 28.7489C104.293 28.5581 104.429 28.3258 104.429 28.0518C104.429 27.8303 104.345 27.6441 104.179 27.4933C104.016 27.3424 103.765 27.2286 103.427 27.1516L102.226 26.8885C101.565 26.7377 101.075 26.4976 100.758 26.1683C100.445 25.839 100.288 25.422 100.288 24.9173C100.288 24.4987 100.405 24.1325 100.638 23.8185C100.872 23.5046 101.195 23.2599 101.608 23.0845C102.02 22.906 102.493 22.8168 103.025 22.8168C103.791 22.8168 104.395 22.983 104.835 23.3153C105.275 23.6446 105.566 24.0863 105.707 24.6403ZM118.767 23.62H117.327C117.272 23.3123 117.168 23.0414 117.018 22.8075C116.867 22.5736 116.682 22.3751 116.464 22.212C116.245 22.0489 116.001 21.9258 115.73 21.8427C115.462 21.7596 115.177 21.718 114.876 21.718C114.331 21.718 113.843 21.855 113.412 22.1289C112.984 22.4028 112.646 22.8045 112.397 23.3338C112.15 23.8632 112.027 24.5095 112.027 25.2727C112.027 26.0421 112.15 26.6915 112.397 27.2209C112.646 27.7502 112.986 28.1503 113.417 28.4212C113.848 28.692 114.332 28.8274 114.871 28.8274C115.17 28.8274 115.453 28.7874 115.72 28.7074C115.991 28.6243 116.236 28.5027 116.454 28.3427C116.673 28.1826 116.858 27.9872 117.008 27.7564C117.162 27.5225 117.268 27.2547 117.327 26.9531L118.767 26.9577C118.69 27.4225 118.541 27.8503 118.32 28.2411C118.101 28.6289 117.819 28.9644 117.475 29.2475C117.133 29.5276 116.742 29.7446 116.302 29.8984C115.862 30.0523 115.382 30.1293 114.862 30.1293C114.043 30.1293 113.314 29.9354 112.674 29.5476C112.033 29.1567 111.529 28.5981 111.159 27.8718C110.793 27.1455 110.61 26.2791 110.61 25.2727C110.61 24.2633 110.795 23.3969 111.164 22.6737C111.533 21.9473 112.038 21.3903 112.678 21.0025C113.318 20.6116 114.046 20.4162 114.862 20.4162C115.363 20.4162 115.831 20.4885 116.265 20.6332C116.702 20.7747 117.095 20.984 117.442 21.261C117.79 21.5349 118.078 21.8704 118.306 22.2674C118.533 22.6613 118.687 23.1122 118.767 23.62ZM121.453 22.9091L123.018 25.6697L124.597 22.9091H126.106L123.895 26.4545L126.125 30H124.615L123.018 27.3501L121.425 30H119.911L122.118 26.4545L119.939 22.9091H121.453ZM128.433 30H126.919L130.321 20.5455H131.969L135.372 30H133.857L131.184 22.2628H131.111L128.433 30ZM128.687 26.2976H133.599V27.4979H128.687V26.2976ZM138.163 20.5455V30H136.737V20.5455H138.163ZM146.945 22.9091V24.017H142.938V22.9091H146.945ZM144.037 30V22.0874C144.037 21.6442 144.134 21.2764 144.328 20.984C144.521 20.6886 144.778 20.4685 145.099 20.3239C145.419 20.1761 145.766 20.1023 146.142 20.1023C146.419 20.1023 146.656 20.1254 146.853 20.1715C147.05 20.2146 147.196 20.2546 147.291 20.2915L146.968 21.4087C146.904 21.3903 146.82 21.3687 146.719 21.3441C146.617 21.3164 146.494 21.3026 146.35 21.3026C146.014 21.3026 145.774 21.3857 145.629 21.5518C145.488 21.718 145.417 21.9581 145.417 22.272V30H144.037ZM151.146 30.1431C150.448 30.1431 149.846 29.9938 149.341 29.6953C148.839 29.3937 148.452 28.9705 148.178 28.4258C147.907 27.878 147.771 27.2363 147.771 26.5007C147.771 25.7744 147.907 25.1342 148.178 24.5803C148.452 24.0263 148.833 23.5939 149.323 23.283C149.815 22.9722 150.391 22.8168 151.049 22.8168C151.449 22.8168 151.837 22.8829 152.213 23.0153C152.588 23.1476 152.925 23.3554 153.224 23.6385C153.522 23.9216 153.758 24.2894 153.93 24.7418C154.102 25.1912 154.188 25.7375 154.188 26.3807V26.87H148.552V25.8359H152.836C152.836 25.4728 152.762 25.1512 152.614 24.8711C152.466 24.5879 152.259 24.3648 151.991 24.2017C151.726 24.0386 151.415 23.957 151.058 23.957C150.671 23.957 150.332 24.0524 150.043 24.2433C149.757 24.431 149.535 24.6772 149.378 24.9819C149.224 25.2835 149.147 25.6113 149.147 25.9652V26.7731C149.147 27.247 149.23 27.6502 149.396 27.9826C149.566 28.315 149.801 28.5689 150.103 28.7443C150.404 28.9167 150.757 29.0028 151.16 29.0028C151.422 29.0028 151.66 28.9659 151.876 28.892C152.091 28.8151 152.277 28.7012 152.434 28.5504C152.591 28.3996 152.711 28.2134 152.794 27.9918L154.101 28.2273C153.996 28.612 153.808 28.949 153.537 29.2383C153.27 29.5245 152.933 29.7476 152.526 29.9077C152.123 30.0646 151.663 30.1431 151.146 30.1431ZM157.783 30.157C157.334 30.157 156.928 30.0739 156.565 29.9077C156.202 29.7384 155.914 29.4937 155.701 29.1737C155.492 28.8536 155.388 28.4612 155.388 27.9964C155.388 27.5964 155.464 27.267 155.618 27.0085C155.772 26.75 155.98 26.5453 156.242 26.3945C156.503 26.2437 156.796 26.1299 157.119 26.0529C157.442 25.976 157.771 25.9175 158.107 25.8775C158.531 25.8282 158.876 25.7882 159.141 25.7575C159.405 25.7236 159.598 25.6697 159.718 25.5959C159.838 25.522 159.898 25.402 159.898 25.2358V25.2035C159.898 24.8003 159.784 24.4879 159.556 24.2663C159.332 24.0447 158.996 23.9339 158.55 23.9339C158.085 23.9339 157.719 24.037 157.451 24.2433C157.186 24.4464 157.003 24.6726 156.902 24.9219L155.604 24.6264C155.758 24.1955 155.983 23.8478 156.278 23.5831C156.577 23.3153 156.92 23.1214 157.308 23.0014C157.696 22.8783 158.104 22.8168 158.531 22.8168C158.814 22.8168 159.115 22.8506 159.432 22.9183C159.752 22.983 160.05 23.103 160.327 23.2784C160.607 23.4538 160.836 23.7047 161.015 24.0309C161.194 24.354 161.283 24.7741 161.283 25.2912V30H159.935V29.0305H159.879C159.79 29.209 159.656 29.3845 159.478 29.5568C159.299 29.7292 159.07 29.8723 158.79 29.9862C158.51 30.1 158.174 30.157 157.783 30.157ZM158.084 29.049C158.465 29.049 158.791 28.9736 159.062 28.8228C159.336 28.672 159.544 28.475 159.685 28.2319C159.83 27.9857 159.902 27.7225 159.902 27.4425V26.5284C159.853 26.5777 159.758 26.6238 159.616 26.6669C159.478 26.7069 159.319 26.7423 159.141 26.7731C158.962 26.8008 158.788 26.8269 158.619 26.8516C158.45 26.8731 158.308 26.8916 158.194 26.907C157.927 26.9408 157.682 26.9978 157.46 27.0778C157.242 27.1578 157.066 27.2732 156.934 27.424C156.805 27.5717 156.74 27.7687 156.74 28.0149C156.74 28.3565 156.866 28.6151 157.119 28.7905C157.371 28.9628 157.693 29.049 158.084 29.049ZM166.431 22.9091V24.017H162.558V22.9091H166.431ZM163.597 21.2102H164.977V27.918C164.977 28.1857 165.017 28.3873 165.097 28.5227C165.177 28.6551 165.28 28.7459 165.406 28.7951C165.536 28.8413 165.676 28.8643 165.827 28.8643C165.937 28.8643 166.034 28.8567 166.117 28.8413C166.2 28.8259 166.265 28.8136 166.311 28.8043L166.561 29.9446C166.481 29.9754 166.367 30.0062 166.219 30.0369C166.071 30.0708 165.887 30.0893 165.665 30.0923C165.302 30.0985 164.963 30.0339 164.649 29.8984C164.335 29.763 164.081 29.5537 163.888 29.2706C163.694 28.9875 163.597 28.632 163.597 28.2042V21.2102ZM172.45 27.0593V22.9091H173.835V30H172.478V28.772H172.404C172.241 29.1506 171.979 29.466 171.619 29.7184C171.262 29.9677 170.817 30.0923 170.285 30.0923C169.829 30.0923 169.426 29.9923 169.075 29.7923C168.728 29.5891 168.454 29.2891 168.254 28.892C168.057 28.495 167.958 28.0041 167.958 27.4194V22.9091H169.339V27.2532C169.339 27.7364 169.472 28.1211 169.74 28.4073C170.008 28.6935 170.356 28.8366 170.783 28.8366C171.042 28.8366 171.299 28.772 171.554 28.6428C171.813 28.5135 172.027 28.3181 172.196 28.0565C172.368 27.7949 172.453 27.4625 172.45 27.0593ZM175.69 30V22.9091H177.024V24.0355H177.098C177.227 23.6539 177.455 23.3538 177.781 23.1353C178.11 22.9137 178.483 22.8029 178.898 22.8029C178.984 22.8029 179.086 22.806 179.203 22.8121C179.323 22.8183 179.417 22.826 179.484 22.8352V24.1555C179.429 24.1402 179.33 24.1232 179.189 24.1048C179.047 24.0832 178.906 24.0724 178.764 24.0724C178.438 24.0724 178.147 24.1417 177.892 24.2802C177.639 24.4156 177.439 24.6049 177.292 24.848C177.144 25.0881 177.07 25.362 177.07 25.6697V30H175.69ZM183.481 30.1431C182.782 30.1431 182.181 29.9938 181.676 29.6953C181.174 29.3937 180.787 28.9705 180.513 28.4258C180.242 27.878 180.106 27.2363 180.106 26.5007C180.106 25.7744 180.242 25.1342 180.513 24.5803C180.787 24.0263 181.168 23.5939 181.658 23.283C182.15 22.9722 182.726 22.8168 183.384 22.8168C183.784 22.8168 184.172 22.8829 184.547 23.0153C184.923 23.1476 185.26 23.3554 185.559 23.6385C185.857 23.9216 186.092 24.2894 186.265 24.7418C186.437 25.1912 186.523 25.7375 186.523 26.3807V26.87H180.887V25.8359H185.171C185.171 25.4728 185.097 25.1512 184.949 24.8711C184.801 24.5879 184.594 24.3648 184.326 24.2017C184.061 24.0386 183.75 23.957 183.393 23.957C183.006 23.957 182.667 24.0524 182.378 24.2433C182.092 24.431 181.87 24.6772 181.713 24.9819C181.559 25.2835 181.482 25.6113 181.482 25.9652V26.7731C181.482 27.247 181.565 27.6502 181.731 27.9826C181.901 28.315 182.136 28.5689 182.438 28.7443C182.739 28.9167 183.092 29.0028 183.495 29.0028C183.757 29.0028 183.995 28.9659 184.21 28.892C184.426 28.8151 184.612 28.7012 184.769 28.5504C184.926 28.3996 185.046 28.2134 185.129 27.9918L186.436 28.2273C186.331 28.612 186.143 28.949 185.872 29.2383C185.605 29.5245 185.268 29.7476 184.861 29.9077C184.458 30.0646 183.998 30.1431 183.481 30.1431ZM193.368 24.6403L192.117 24.8619C192.065 24.7018 191.982 24.5495 191.868 24.4048C191.757 24.2602 191.606 24.1417 191.416 24.0494C191.225 23.957 190.986 23.9109 190.7 23.9109C190.309 23.9109 189.983 23.9986 189.721 24.174C189.46 24.3464 189.329 24.5695 189.329 24.8434C189.329 25.0804 189.417 25.2712 189.592 25.4158C189.768 25.5605 190.051 25.679 190.442 25.7713L191.568 26.0298C192.22 26.1806 192.707 26.413 193.027 26.7269C193.347 27.0408 193.507 27.4486 193.507 27.9503C193.507 28.375 193.384 28.7536 193.138 29.0859C192.894 29.4152 192.554 29.6738 192.117 29.8615C191.683 30.0492 191.18 30.1431 190.608 30.1431C189.814 30.1431 189.166 29.9738 188.664 29.6353C188.163 29.2937 187.855 28.8089 187.741 28.1811L189.075 27.978C189.158 28.3258 189.329 28.5889 189.588 28.7674C189.846 28.9428 190.183 29.0305 190.599 29.0305C191.051 29.0305 191.413 28.9367 191.683 28.7489C191.954 28.5581 192.09 28.3258 192.09 28.0518C192.09 27.8303 192.007 27.6441 191.84 27.4933C191.677 27.3424 191.426 27.2286 191.088 27.1516L189.888 26.8885C189.226 26.7377 188.737 26.4976 188.42 26.1683C188.106 25.839 187.949 25.422 187.949 24.9173C187.949 24.4987 188.066 24.1325 188.3 23.8185C188.533 23.5046 188.857 23.2599 189.269 23.0845C189.681 22.906 190.154 22.8168 190.686 22.8168C191.453 22.8168 192.056 22.983 192.496 23.3153C192.936 23.6446 193.227 24.0863 193.368 24.6403ZM196.82 28.7074L196.751 29.2106C196.705 29.5799 196.627 29.9646 196.516 30.3647C196.408 30.7679 196.296 31.1418 196.179 31.4865C196.065 31.8312 195.971 32.1051 195.897 32.3082H194.918C194.958 32.1174 195.014 31.8589 195.085 31.5327C195.155 31.2095 195.225 30.8479 195.292 30.4478C195.36 30.0477 195.411 29.6399 195.445 29.2244L195.491 28.7074H196.82ZM202.93 32.6591C202.724 32.6591 202.536 32.6422 202.367 32.6083C202.198 32.5775 202.072 32.5437 201.989 32.5067L202.321 31.3757C202.573 31.4434 202.798 31.4727 202.995 31.4634C203.192 31.4542 203.366 31.3803 203.517 31.2418C203.67 31.1033 203.806 30.8771 203.923 30.5632L204.094 30.0923L201.499 22.9091H202.976L204.772 28.4119H204.846L206.642 22.9091H208.124L205.202 30.9464C205.066 31.3157 204.894 31.6281 204.685 31.8835C204.475 32.142 204.226 32.3359 203.937 32.4652C203.647 32.5945 203.312 32.6591 202.93 32.6591ZM212.167 30.1431C211.502 30.1431 210.922 29.9908 210.426 29.6861C209.931 29.3814 209.546 28.9551 209.272 28.4073C208.998 27.8595 208.861 27.2193 208.861 26.4869C208.861 25.7513 208.998 25.1081 209.272 24.5572C209.546 24.0063 209.931 23.5785 210.426 23.2738C210.922 22.9691 211.502 22.8168 212.167 22.8168C212.831 22.8168 213.412 22.9691 213.907 23.2738C214.403 23.5785 214.787 24.0063 215.061 24.5572C215.335 25.1081 215.472 25.7513 215.472 26.4869C215.472 27.2193 215.335 27.8595 215.061 28.4073C214.787 28.9551 214.403 29.3814 213.907 29.6861C213.412 29.9908 212.831 30.1431 212.167 30.1431ZM212.171 28.9844C212.602 28.9844 212.959 28.8705 213.242 28.6428C213.526 28.415 213.735 28.1119 213.87 27.7333C214.009 27.3548 214.078 26.9377 214.078 26.4822C214.078 26.0298 214.009 25.6143 213.87 25.2358C213.735 24.8542 213.526 24.5479 213.242 24.3171C212.959 24.0863 212.602 23.9709 212.171 23.9709C211.737 23.9709 211.377 24.0863 211.091 24.3171C210.808 24.5479 210.597 24.8542 210.459 25.2358C210.323 25.6143 210.256 26.0298 210.256 26.4822C210.256 26.9377 210.323 27.3548 210.459 27.7333C210.597 28.1119 210.808 28.415 211.091 28.6428C211.377 28.8705 211.737 28.9844 212.171 28.9844ZM221.505 27.0593V22.9091H222.89V30H221.532V28.772H221.459C221.295 29.1506 221.034 29.466 220.674 29.7184C220.317 29.9677 219.872 30.0923 219.34 30.0923C218.884 30.0923 218.481 29.9923 218.13 29.7923C217.782 29.5891 217.508 29.2891 217.308 28.892C217.111 28.495 217.013 28.0041 217.013 27.4194V22.9091H218.393V27.2532C218.393 27.7364 218.527 28.1211 218.795 28.4073C219.063 28.6935 219.41 28.8366 219.838 28.8366C220.097 28.8366 220.354 28.772 220.609 28.6428C220.868 28.5135 221.082 28.3181 221.251 28.0565C221.423 27.7949 221.508 27.4625 221.505 27.0593ZM229.565 25.7898V30H228.185V22.9091H229.51V24.0632H229.597C229.761 23.6877 230.016 23.3861 230.364 23.1584C230.715 22.9306 231.156 22.8168 231.689 22.8168C232.172 22.8168 232.595 22.9183 232.958 23.1214C233.321 23.3215 233.603 23.62 233.803 24.017C234.003 24.4141 234.103 24.9049 234.103 25.4897V30H232.723V25.6559C232.723 25.1419 232.589 24.7403 232.321 24.451C232.053 24.1586 231.686 24.0124 231.218 24.0124C230.898 24.0124 230.613 24.0817 230.364 24.2202C230.118 24.3587 229.922 24.5618 229.777 24.8295C229.636 25.0942 229.565 25.4143 229.565 25.7898ZM239.01 30.1431C238.312 30.1431 237.71 29.9938 237.205 29.6953C236.704 29.3937 236.316 28.9705 236.042 28.4258C235.771 27.878 235.636 27.2363 235.636 26.5007C235.636 25.7744 235.771 25.1342 236.042 24.5803C236.316 24.0263 236.698 23.5939 237.187 23.283C237.679 22.9722 238.255 22.8168 238.913 22.8168C239.314 22.8168 239.701 22.8829 240.077 23.0153C240.452 23.1476 240.789 23.3554 241.088 23.6385C241.386 23.9216 241.622 24.2894 241.794 24.7418C241.966 25.1912 242.053 25.7375 242.053 26.3807V26.87H236.416V25.8359H240.7C240.7 25.4728 240.626 25.1512 240.478 24.8711C240.331 24.5879 240.123 24.3648 239.855 24.2017C239.591 24.0386 239.28 23.957 238.923 23.957C238.535 23.957 238.196 24.0524 237.907 24.2433C237.621 24.431 237.399 24.6772 237.242 24.9819C237.088 25.2835 237.011 25.6113 237.011 25.9652V26.7731C237.011 27.247 237.095 27.6502 237.261 27.9826C237.43 28.315 237.665 28.5689 237.967 28.7443C238.269 28.9167 238.621 29.0028 239.024 29.0028C239.286 29.0028 239.524 28.9659 239.74 28.892C239.955 28.8151 240.141 28.7012 240.298 28.5504C240.455 28.3996 240.575 28.2134 240.658 27.9918L241.965 28.2273C241.86 28.612 241.673 28.949 241.402 29.2383C241.134 29.5245 240.797 29.7476 240.391 29.9077C239.988 30.0646 239.527 30.1431 239.01 30.1431ZM246.64 30.1431C245.942 30.1431 245.34 29.9938 244.835 29.6953C244.334 29.3937 243.946 28.9705 243.672 28.4258C243.401 27.878 243.266 27.2363 243.266 26.5007C243.266 25.7744 243.401 25.1342 243.672 24.5803C243.946 24.0263 244.327 23.5939 244.817 23.283C245.309 22.9722 245.885 22.8168 246.543 22.8168C246.943 22.8168 247.331 22.8829 247.707 23.0153C248.082 23.1476 248.419 23.3554 248.718 23.6385C249.016 23.9216 249.252 24.2894 249.424 24.7418C249.596 25.1912 249.683 25.7375 249.683 26.3807V26.87H244.046V25.8359H248.33C248.33 25.4728 248.256 25.1512 248.108 24.8711C247.961 24.5879 247.753 24.3648 247.485 24.2017C247.22 24.0386 246.91 23.957 246.553 23.957C246.165 23.957 245.826 24.0524 245.537 24.2433C245.251 24.431 245.029 24.6772 244.872 24.9819C244.718 25.2835 244.641 25.6113 244.641 25.9652V26.7731C244.641 27.247 244.724 27.6502 244.891 27.9826C245.06 28.315 245.295 28.5689 245.597 28.7443C245.899 28.9167 246.251 29.0028 246.654 29.0028C246.916 29.0028 247.154 28.9659 247.37 28.892C247.585 28.8151 247.771 28.7012 247.928 28.5504C248.085 28.3996 248.205 28.2134 248.288 27.9918L249.595 28.2273C249.49 28.612 249.302 28.949 249.032 29.2383C248.764 29.5245 248.427 29.7476 248.021 29.9077C247.617 30.0646 247.157 30.1431 246.64 30.1431ZM253.869 30.1385C253.296 30.1385 252.785 29.9923 252.336 29.6999C251.89 29.4045 251.539 28.9844 251.283 28.4396C251.031 27.8918 250.905 27.2347 250.905 26.4684C250.905 25.7021 251.032 25.0465 251.288 24.5018C251.546 23.957 251.9 23.54 252.35 23.2507C252.799 22.9614 253.308 22.8168 253.878 22.8168C254.318 22.8168 254.672 22.8906 254.94 23.0384C255.21 23.183 255.42 23.3523 255.567 23.5462C255.718 23.7401 255.835 23.9109 255.918 24.0586H256.001V20.5455H257.382V30H256.034V28.8967H255.918C255.835 29.0475 255.715 29.2198 255.558 29.4137C255.404 29.6076 255.192 29.7769 254.921 29.9215C254.65 30.0662 254.299 30.1385 253.869 30.1385ZM254.173 28.9613C254.57 28.9613 254.906 28.8567 255.18 28.6474C255.457 28.435 255.666 28.1411 255.807 27.7656C255.952 27.3902 256.024 26.9531 256.024 26.4545C256.024 25.9621 255.954 25.5312 255.812 25.1619C255.67 24.7926 255.463 24.5049 255.189 24.2987C254.915 24.0924 254.576 23.9893 254.173 23.9893C253.758 23.9893 253.411 24.0971 253.134 24.3125C252.858 24.5279 252.648 24.8219 252.507 25.1942C252.368 25.5666 252.299 25.9867 252.299 26.4545C252.299 26.9285 252.37 27.3548 252.511 27.7333C252.653 28.1119 252.862 28.4119 253.139 28.6335C253.419 28.852 253.764 28.9613 254.173 28.9613ZM266.102 22.9091V24.017H262.229V22.9091H266.102ZM263.268 21.2102H264.648V27.918C264.648 28.1857 264.688 28.3873 264.768 28.5227C264.848 28.6551 264.951 28.7459 265.077 28.7951C265.207 28.8413 265.347 28.8643 265.497 28.8643C265.608 28.8643 265.705 28.8567 265.788 28.8413C265.871 28.8259 265.936 28.8136 265.982 28.8043L266.231 29.9446C266.151 29.9754 266.038 30.0062 265.89 30.0369C265.742 30.0708 265.557 30.0893 265.336 30.0923C264.973 30.0985 264.634 30.0339 264.32 29.8984C264.006 29.763 263.752 29.5537 263.559 29.2706C263.365 28.9875 263.268 28.632 263.268 28.2042V21.2102ZM270.54 30.1431C269.875 30.1431 269.295 29.9908 268.799 29.6861C268.304 29.3814 267.919 28.9551 267.645 28.4073C267.371 27.8595 267.234 27.2193 267.234 26.4869C267.234 25.7513 267.371 25.1081 267.645 24.5572C267.919 24.0063 268.304 23.5785 268.799 23.2738C269.295 22.9691 269.875 22.8168 270.54 22.8168C271.205 22.8168 271.785 22.9691 272.28 23.2738C272.776 23.5785 273.16 24.0063 273.434 24.5572C273.708 25.1081 273.845 25.7513 273.845 26.4869C273.845 27.2193 273.708 27.8595 273.434 28.4073C273.16 28.9551 272.776 29.3814 272.28 29.6861C271.785 29.9908 271.205 30.1431 270.54 30.1431ZM270.544 28.9844C270.975 28.9844 271.332 28.8705 271.615 28.6428C271.899 28.415 272.108 28.1119 272.243 27.7333C272.382 27.3548 272.451 26.9377 272.451 26.4822C272.451 26.0298 272.382 25.6143 272.243 25.2358C272.108 24.8542 271.899 24.5479 271.615 24.3171C271.332 24.0863 270.975 23.9709 270.544 23.9709C270.11 23.9709 269.75 24.0863 269.464 24.3171C269.181 24.5479 268.97 24.8542 268.832 25.2358C268.696 25.6143 268.629 26.0298 268.629 26.4822C268.629 26.9377 268.696 27.3548 268.832 27.7333C268.97 28.1119 269.181 28.415 269.464 28.6428C269.75 28.8705 270.11 28.9844 270.544 28.9844ZM282.136 22.9091V24.017H278.263V22.9091H282.136ZM279.302 21.2102H280.682V27.918C280.682 28.1857 280.722 28.3873 280.802 28.5227C280.882 28.6551 280.985 28.7459 281.112 28.7951C281.241 28.8413 281.381 28.8643 281.532 28.8643C281.642 28.8643 281.739 28.8567 281.822 28.8413C281.906 28.8259 281.97 28.8136 282.016 28.8043L282.266 29.9446C282.186 29.9754 282.072 30.0062 281.924 30.0369C281.776 30.0708 281.592 30.0893 281.37 30.0923C281.007 30.0985 280.668 30.0339 280.354 29.8984C280.04 29.763 279.787 29.5537 279.593 29.2706C279.399 28.9875 279.302 28.632 279.302 28.2042V21.2102ZM288.155 27.0593V22.9091H289.54V30H288.183V28.772H288.109C287.946 29.1506 287.684 29.466 287.324 29.7184C286.967 29.9677 286.522 30.0923 285.99 30.0923C285.534 30.0923 285.131 29.9923 284.78 29.7923C284.433 29.5891 284.159 29.2891 283.959 28.892C283.762 28.495 283.663 28.0041 283.663 27.4194V22.9091H285.044V27.2532C285.044 27.7364 285.177 28.1211 285.445 28.4073C285.713 28.6935 286.061 28.8366 286.489 28.8366C286.747 28.8366 287.004 28.772 287.259 28.6428C287.518 28.5135 287.732 28.3181 287.901 28.0565C288.074 27.7949 288.158 27.4625 288.155 27.0593ZM291.395 30V22.9091H292.729V24.0355H292.803C292.932 23.6539 293.16 23.3538 293.486 23.1353C293.815 22.9137 294.188 22.8029 294.603 22.8029C294.689 22.8029 294.791 22.806 294.908 22.8121C295.028 22.8183 295.122 22.826 295.189 22.8352V24.1555C295.134 24.1402 295.036 24.1232 294.894 24.1048C294.752 24.0832 294.611 24.0724 294.469 24.0724C294.143 24.0724 293.852 24.1417 293.597 24.2802C293.344 24.4156 293.144 24.6049 292.997 24.848C292.849 25.0881 292.775 25.362 292.775 25.6697V30H291.395ZM297.764 25.7898V30H296.384V22.9091H297.709V24.0632H297.797C297.96 23.6877 298.215 23.3861 298.563 23.1584C298.914 22.9306 299.355 22.8168 299.888 22.8168C300.371 22.8168 300.794 22.9183 301.157 23.1214C301.521 23.3215 301.802 23.62 302.002 24.017C302.202 24.4141 302.302 24.9049 302.302 25.4897V30H300.922V25.6559C300.922 25.1419 300.788 24.7403 300.52 24.451C300.253 24.1586 299.885 24.0124 299.417 24.0124C299.097 24.0124 298.812 24.0817 298.563 24.2202C298.317 24.3587 298.121 24.5618 297.977 24.8295C297.835 25.0942 297.764 25.4143 297.764 25.7898ZM310.581 30.1431C309.916 30.1431 309.336 29.9908 308.84 29.6861C308.345 29.3814 307.96 28.9551 307.686 28.4073C307.412 27.8595 307.275 27.2193 307.275 26.4869C307.275 25.7513 307.412 25.1081 307.686 24.5572C307.96 24.0063 308.345 23.5785 308.84 23.2738C309.336 22.9691 309.916 22.8168 310.581 22.8168C311.246 22.8168 311.826 22.9691 312.321 23.2738C312.817 23.5785 313.201 24.0063 313.475 24.5572C313.749 25.1081 313.886 25.7513 313.886 26.4869C313.886 27.2193 313.749 27.8595 313.475 28.4073C313.201 28.9551 312.817 29.3814 312.321 29.6861C311.826 29.9908 311.246 30.1431 310.581 30.1431ZM310.585 28.9844C311.016 28.9844 311.373 28.8705 311.656 28.6428C311.94 28.415 312.149 28.1119 312.284 27.7333C312.423 27.3548 312.492 26.9377 312.492 26.4822C312.492 26.0298 312.423 25.6143 312.284 25.2358C312.149 24.8542 311.94 24.5479 311.656 24.3171C311.373 24.0863 311.016 23.9709 310.585 23.9709C310.151 23.9709 309.791 24.0863 309.505 24.3171C309.222 24.5479 309.011 24.8542 308.873 25.2358C308.737 25.6143 308.67 26.0298 308.67 26.4822C308.67 26.9377 308.737 27.3548 308.873 27.7333C309.011 28.1119 309.222 28.415 309.505 28.6428C309.791 28.8705 310.151 28.9844 310.585 28.9844ZM316.807 25.7898V30H315.427V22.9091H316.752V24.0632H316.84C317.003 23.6877 317.258 23.3861 317.606 23.1584C317.957 22.9306 318.398 22.8168 318.931 22.8168C319.414 22.8168 319.837 22.9183 320.2 23.1214C320.564 23.3215 320.845 23.62 321.045 24.017C321.245 24.4141 321.345 24.9049 321.345 25.4897V30H319.965V25.6559C319.965 25.1419 319.831 24.7403 319.563 24.451C319.296 24.1586 318.928 24.0124 318.46 24.0124C318.14 24.0124 317.855 24.0817 317.606 24.2202C317.36 24.3587 317.164 24.5618 317.02 24.8295C316.878 25.0942 316.807 25.4143 316.807 25.7898ZM329.947 22.9091V24.017H326.074V22.9091H329.947ZM327.112 21.2102H328.493V27.918C328.493 28.1857 328.533 28.3873 328.613 28.5227C328.693 28.6551 328.796 28.7459 328.922 28.7951C329.051 28.8413 329.191 28.8643 329.342 28.8643C329.453 28.8643 329.55 28.8567 329.633 28.8413C329.716 28.8259 329.781 28.8136 329.827 28.8043L330.076 29.9446C329.996 29.9754 329.882 30.0062 329.735 30.0369C329.587 30.0708 329.402 30.0893 329.181 30.0923C328.817 30.0985 328.479 30.0339 328.165 29.8984C327.851 29.763 327.597 29.5537 327.403 29.2706C327.209 28.9875 327.112 28.632 327.112 28.2042V21.2102ZM333.006 25.7898V30H331.626V20.5455H332.988V24.0632H333.076C333.242 23.6816 333.496 23.3784 333.837 23.1538C334.179 22.9291 334.625 22.8168 335.176 22.8168C335.662 22.8168 336.087 22.9168 336.45 23.1168C336.817 23.3169 337.1 23.6154 337.3 24.0124C337.503 24.4064 337.604 24.8988 337.604 25.4897V30H336.224V25.6559C336.224 25.1358 336.09 24.7326 335.823 24.4464C335.555 24.1571 335.182 24.0124 334.705 24.0124C334.379 24.0124 334.087 24.0817 333.828 24.2202C333.573 24.3587 333.371 24.5618 333.223 24.8295C333.079 25.0942 333.006 25.4143 333.006 25.7898ZM342.503 30.1431C341.804 30.1431 341.202 29.9938 340.698 29.6953C340.196 29.3937 339.808 28.9705 339.534 28.4258C339.263 27.878 339.128 27.2363 339.128 26.5007C339.128 25.7744 339.263 25.1342 339.534 24.5803C339.808 24.0263 340.19 23.5939 340.679 23.283C341.171 22.9722 341.747 22.8168 342.406 22.8168C342.806 22.8168 343.194 22.8829 343.569 23.0153C343.944 23.1476 344.281 23.3554 344.58 23.6385C344.879 23.9216 345.114 24.2894 345.286 24.7418C345.459 25.1912 345.545 25.7375 345.545 26.3807V26.87H339.908V25.8359H344.192C344.192 25.4728 344.118 25.1512 343.971 24.8711C343.823 24.5879 343.615 24.3648 343.347 24.2017C343.083 24.0386 342.772 23.957 342.415 23.957C342.027 23.957 341.689 24.0524 341.399 24.2433C341.113 24.431 340.891 24.6772 340.734 24.9819C340.581 25.2835 340.504 25.6113 340.504 25.9652V26.7731C340.504 27.247 340.587 27.6502 340.753 27.9826C340.922 28.315 341.158 28.5689 341.459 28.7443C341.761 28.9167 342.113 29.0028 342.516 29.0028C342.778 29.0028 343.017 28.9659 343.232 28.892C343.447 28.8151 343.634 28.7012 343.791 28.5504C343.948 28.3996 344.068 28.2134 344.151 27.9918L345.457 28.2273C345.352 28.612 345.165 28.949 344.894 29.2383C344.626 29.5245 344.289 29.7476 343.883 29.9077C343.48 30.0646 343.02 30.1431 342.503 30.1431ZM52.8913 42.62H51.451C51.3956 42.3123 51.2925 42.0414 51.1417 41.8075C50.9909 41.5736 50.8062 41.3751 50.5877 41.212C50.3692 41.0489 50.1245 40.9258 49.8537 40.8427C49.5859 40.7596 49.3013 40.718 48.9996 40.718C48.4549 40.718 47.9671 40.855 47.5362 41.1289C47.1084 41.4028 46.7699 41.8045 46.5206 42.3338C46.2744 42.8632 46.1513 43.5095 46.1513 44.2727C46.1513 45.0421 46.2744 45.6915 46.5206 46.2209C46.7699 46.7502 47.11 47.1503 47.5408 47.4212C47.9717 47.692 48.4564 47.8274 48.995 47.8274C49.2936 47.8274 49.5767 47.7874 49.8445 47.7074C50.1153 47.6243 50.36 47.5027 50.5785 47.3427C50.797 47.1826 50.9817 46.9872 51.1325 46.7564C51.2863 46.5225 51.3925 46.2547 51.451 45.9531L52.8913 45.9577C52.8144 46.4225 52.6651 46.8503 52.4435 47.2411C52.225 47.6289 51.9434 47.9644 51.5987 48.2475C51.2571 48.5276 50.8662 48.7446 50.4261 48.8984C49.986 49.0523 49.5059 49.1293 48.9858 49.1293C48.1671 49.1293 47.4377 48.9354 46.7976 48.5476C46.1574 48.1567 45.6527 47.5981 45.2834 46.8718C44.9171 46.1455 44.734 45.2791 44.734 44.2727C44.734 43.2633 44.9187 42.3969 45.288 41.6737C45.6573 40.9473 46.1621 40.3903 46.8022 40.0025C47.4424 39.6116 48.1702 39.4162 48.9858 39.4162C49.4875 39.4162 49.9553 39.4885 50.3892 39.6332C50.8262 39.7747 51.2186 39.984 51.5664 40.261C51.9142 40.5349 52.2019 40.8704 52.4297 41.2674C52.6574 41.6613 52.8113 42.1122 52.8913 42.62ZM55.8678 44.7898V49H54.4875V39.5455H55.8493V43.0632H55.9371C56.1032 42.6816 56.3572 42.3784 56.6988 42.1538C57.0404 41.9291 57.4867 41.8168 58.0376 41.8168C58.5238 41.8168 58.9485 41.9168 59.3117 42.1168C59.6779 42.3169 59.9611 42.6154 60.1611 43.0124C60.3643 43.4064 60.4658 43.8988 60.4658 44.4897V49H59.0855V44.6559C59.0855 44.1358 58.9516 43.7326 58.6839 43.4464C58.4161 43.1571 58.0437 43.0124 57.5667 43.0124C57.2404 43.0124 56.9481 43.0817 56.6895 43.2202C56.4341 43.3587 56.2325 43.5618 56.0848 43.8295C55.9401 44.0942 55.8678 44.4143 55.8678 44.7898ZM65.3639 49.1431C64.6653 49.1431 64.0636 48.9938 63.5589 48.6953C63.0572 48.3937 62.6694 47.9705 62.3955 47.4258C62.1247 46.878 61.9893 46.2363 61.9893 45.5007C61.9893 44.7744 62.1247 44.1342 62.3955 43.5803C62.6694 43.0263 63.051 42.5939 63.5404 42.283C64.0328 41.9722 64.6083 41.8168 65.267 41.8168C65.6671 41.8168 66.0548 41.8829 66.4303 42.0153C66.8058 42.1476 67.1428 42.3554 67.4413 42.6385C67.7398 42.9216 67.9753 43.2894 68.1476 43.7418C68.32 44.1912 68.4062 44.7375 68.4062 45.3807V45.87H62.7694V44.8359H67.0535C67.0535 44.4728 66.9797 44.1512 66.8319 43.8711C66.6842 43.5879 66.4765 43.3648 66.2087 43.2017C65.944 43.0386 65.6332 42.957 65.2762 42.957C64.8884 42.957 64.5499 43.0524 64.2606 43.2433C63.9743 43.431 63.7528 43.6772 63.5958 43.9819C63.4419 44.2835 63.365 44.6113 63.365 44.9652V45.7731C63.365 46.247 63.4481 46.6502 63.6143 46.9826C63.7835 47.315 64.019 47.5689 64.3206 47.7443C64.6222 47.9167 64.9746 48.0028 65.3778 48.0028C65.6394 48.0028 65.8779 47.9659 66.0933 47.892C66.3087 47.8151 66.4949 47.7012 66.6519 47.5504C66.8089 47.3996 66.9289 47.2134 67.012 46.9918L68.3184 47.2273C68.2138 47.612 68.0261 47.949 67.7552 48.2383C67.4875 48.5245 67.1505 48.7476 66.7442 48.9077C66.3411 49.0646 65.8809 49.1431 65.3639 49.1431ZM72.9245 49.1431C72.2382 49.1431 71.6473 48.9877 71.1518 48.6768C70.6594 48.3629 70.2808 47.9305 70.0162 47.3796C69.7515 46.8287 69.6191 46.1978 69.6191 45.4869C69.6191 44.7667 69.7546 44.1312 70.0254 43.5803C70.2962 43.0263 70.6779 42.5939 71.1703 42.283C71.6627 41.9722 72.2428 41.8168 72.9107 41.8168C73.4493 41.8168 73.9294 41.9168 74.351 42.1168C74.7727 42.3138 75.1127 42.5908 75.3713 42.9478C75.6329 43.3048 75.7883 43.7218 75.8375 44.1989H74.4941C74.4203 43.8665 74.251 43.5803 73.9863 43.3402C73.7247 43.1001 73.3739 42.9801 72.9338 42.9801C72.5491 42.9801 72.2121 43.0817 71.9228 43.2848C71.6365 43.4848 71.4134 43.7711 71.2534 44.1435C71.0933 44.5128 71.0133 44.9498 71.0133 45.4545C71.0133 45.9716 71.0918 46.4179 71.2488 46.7933C71.4057 47.1688 71.6273 47.4596 71.9135 47.6658C72.2028 47.872 72.5429 47.9751 72.9338 47.9751C73.1954 47.9751 73.4324 47.9274 73.6447 47.832C73.8601 47.7335 74.0402 47.5935 74.1848 47.4119C74.3326 47.2304 74.4357 47.0118 74.4941 46.7564H75.8375C75.7883 47.215 75.639 47.6243 75.3897 47.9844C75.1404 48.3445 74.8065 48.6276 74.388 48.8338C73.9725 49.04 73.4847 49.1431 72.9245 49.1431ZM78.5832 46.5948L78.574 44.9098H78.814L81.6393 41.9091H83.292L80.0697 45.3253H79.8527L78.5832 46.5948ZM77.3137 49V39.5455H78.694V49H77.3137ZM81.7916 49L79.2526 45.63L80.2036 44.6651L83.4859 49H81.7916ZM84.55 49V41.9091H85.8749V43.0632H85.9626C86.1104 42.6723 86.3519 42.3677 86.6874 42.1491C87.0229 41.9276 87.4245 41.8168 87.8923 41.8168C88.3663 41.8168 88.7633 41.9276 89.0834 42.1491C89.4065 42.3707 89.645 42.6754 89.7989 43.0632H89.8728C90.0421 42.6847 90.3113 42.383 90.6807 42.1584C91.05 41.9306 91.4901 41.8168 92.001 41.8168C92.6442 41.8168 93.1689 42.0183 93.5752 42.4215C93.9845 42.8247 94.1892 43.4325 94.1892 44.245V49H92.8089V44.3743C92.8089 43.8942 92.6781 43.5464 92.4165 43.331C92.1549 43.1155 91.8425 43.0078 91.4793 43.0078C91.03 43.0078 90.6807 43.1463 90.4314 43.4233C90.1821 43.6972 90.0574 44.0496 90.0574 44.4805V49H88.6817V44.2866C88.6817 43.9019 88.5617 43.5926 88.3216 43.3587C88.0816 43.1248 87.7692 43.0078 87.3845 43.0078C87.1229 43.0078 86.8813 43.0771 86.6597 43.2156C86.4412 43.351 86.2642 43.5402 86.1288 43.7834C85.9965 44.0265 85.9303 44.3081 85.9303 44.6282V49H84.55ZM98.1028 49.157C97.6535 49.157 97.2472 49.0739 96.8841 48.9077C96.5209 48.7384 96.2331 48.4937 96.0208 48.1737C95.8115 47.8536 95.7069 47.4612 95.7069 46.9964C95.7069 46.5964 95.7838 46.267 95.9377 46.0085C96.0916 45.75 96.2993 45.5453 96.5609 45.3945C96.8225 45.2437 97.1149 45.1299 97.438 45.0529C97.7612 44.976 98.0905 44.9175 98.426 44.8775C98.8507 44.8282 99.1954 44.7882 99.46 44.7575C99.7247 44.7236 99.9171 44.6697 100.037 44.5959C100.157 44.522 100.217 44.402 100.217 44.2358V44.2035C100.217 43.8003 100.103 43.4879 99.8755 43.2663C99.6509 43.0447 99.3154 42.9339 98.8691 42.9339C98.4044 42.9339 98.0382 43.037 97.7704 43.2433C97.5057 43.4464 97.3226 43.6726 97.2211 43.9219L95.9238 43.6264C96.0777 43.1955 96.3024 42.8478 96.5978 42.5831C96.8964 42.3153 97.2395 42.1214 97.6273 42.0014C98.0151 41.8783 98.4229 41.8168 98.8507 41.8168C99.1338 41.8168 99.4339 41.8506 99.7509 41.9183C100.071 41.983 100.369 42.103 100.646 42.2784C100.927 42.4538 101.156 42.7047 101.334 43.0309C101.513 43.354 101.602 43.7741 101.602 44.2912V49H100.254V48.0305H100.199C100.109 48.209 99.9756 48.3845 99.7971 48.5568C99.6185 48.7292 99.3893 48.8723 99.1092 48.9862C98.8291 49.1 98.4937 49.157 98.1028 49.157ZM98.4029 48.049C98.7845 48.049 99.1107 47.9736 99.3816 47.8228C99.6555 47.672 99.8632 47.475 100.005 47.2319C100.149 46.9857 100.222 46.7225 100.222 46.4425V45.5284C100.173 45.5777 100.077 45.6238 99.9355 45.6669C99.7971 45.7069 99.6386 45.7423 99.46 45.7731C99.2815 45.8008 99.1077 45.8269 98.9384 45.8516C98.7691 45.8731 98.6275 45.8916 98.5137 45.907C98.2459 45.9408 98.0012 45.9978 97.7797 46.0778C97.5611 46.1578 97.3857 46.2732 97.2534 46.424C97.1241 46.5717 97.0595 46.7687 97.0595 47.0149C97.0595 47.3565 97.1857 47.6151 97.438 47.7905C97.6904 47.9628 98.012 48.049 98.4029 48.049ZM103.441 49V41.9091H104.775V43.0355H104.849C104.978 42.6539 105.206 42.3538 105.532 42.1353C105.861 41.9137 106.234 41.8029 106.649 41.8029C106.735 41.8029 106.837 41.806 106.954 41.8121C107.074 41.8183 107.168 41.826 107.235 41.8352V43.1555C107.18 43.1402 107.081 43.1232 106.94 43.1048C106.798 43.0832 106.657 43.0724 106.515 43.0724C106.189 43.0724 105.898 43.1417 105.643 43.2802C105.39 43.4156 105.19 43.6049 105.043 43.848C104.895 44.0881 104.821 44.362 104.821 44.6697V49H103.441ZM109.735 41.9091L111.3 44.6697L112.879 41.9091H114.389L112.177 45.4545L114.407 49H112.897L111.3 46.3501L109.707 49H108.193L110.4 45.4545L108.221 41.9091H109.735ZM119.357 39.5455H121.088L124.098 46.8949H124.209L127.219 39.5455H128.95V49H127.593V42.1584H127.505L124.717 48.9862H123.59L120.802 42.1538H120.714V49H119.357V39.5455ZM138.877 42.62H137.436C137.381 42.3123 137.278 42.0414 137.127 41.8075C136.976 41.5736 136.792 41.3751 136.573 41.212C136.355 41.0489 136.11 40.9258 135.839 40.8427C135.571 40.7596 135.287 40.718 134.985 40.718C134.44 40.718 133.952 40.855 133.522 41.1289C133.094 41.4028 132.755 41.8045 132.506 42.3338C132.26 42.8632 132.137 43.5095 132.137 44.2727C132.137 45.0421 132.26 45.6915 132.506 46.2209C132.755 46.7502 133.095 47.1503 133.526 47.4212C133.957 47.692 134.442 47.8274 134.98 47.8274C135.279 47.8274 135.562 47.7874 135.83 47.7074C136.101 47.6243 136.345 47.5027 136.564 47.3427C136.782 47.1826 136.967 46.9872 137.118 46.7564C137.272 46.5225 137.378 46.2547 137.436 45.9531L138.877 45.9577C138.8 46.4225 138.65 46.8503 138.429 47.2411C138.21 47.6289 137.929 47.9644 137.584 48.2475C137.242 48.5276 136.852 48.7446 136.411 48.8984C135.971 49.0523 135.491 49.1293 134.971 49.1293C134.152 49.1293 133.423 48.9354 132.783 48.5476C132.143 48.1567 131.638 47.5981 131.269 46.8718C130.902 46.1455 130.719 45.2791 130.719 44.2727C130.719 43.2633 130.904 42.3969 131.273 41.6737C131.643 40.9473 132.147 40.3903 132.788 40.0025C133.428 39.6116 134.156 39.4162 134.971 39.4162C135.473 39.4162 135.941 39.4885 136.375 39.6332C136.812 39.7747 137.204 39.984 137.552 40.261C137.9 40.5349 138.187 40.8704 138.415 41.2674C138.643 41.6613 138.797 42.1122 138.877 42.62ZM140.584 49V39.5455H143.954C144.689 39.5455 145.299 39.6793 145.782 39.9471C146.265 40.2148 146.627 40.5811 146.867 41.0458C147.107 41.5075 147.227 42.0276 147.227 42.6062C147.227 43.1879 147.105 43.7111 146.862 44.1758C146.622 44.6374 146.259 45.0037 145.773 45.2745C145.289 45.5423 144.682 45.6761 143.949 45.6761H141.632V44.4666H143.82C144.285 44.4666 144.662 44.3866 144.951 44.2266C145.24 44.0634 145.452 43.8419 145.588 43.5618C145.723 43.2817 145.791 42.9632 145.791 42.6062C145.791 42.2492 145.723 41.9322 145.588 41.6552C145.452 41.3782 145.239 41.1612 144.946 41.0043C144.657 40.8473 144.275 40.7688 143.801 40.7688H142.01V49H140.584ZM155.216 49.1431C154.551 49.1431 153.971 48.9908 153.475 48.6861C152.98 48.3814 152.595 47.9551 152.321 47.4073C152.047 46.8595 151.91 46.2193 151.91 45.4869C151.91 44.7513 152.047 44.1081 152.321 43.5572C152.595 43.0063 152.98 42.5785 153.475 42.2738C153.971 41.9691 154.551 41.8168 155.216 41.8168C155.88 41.8168 156.46 41.9691 156.956 42.2738C157.451 42.5785 157.836 43.0063 158.11 43.5572C158.384 44.1081 158.521 44.7513 158.521 45.4869C158.521 46.2193 158.384 46.8595 158.11 47.4073C157.836 47.9551 157.451 48.3814 156.956 48.6861C156.46 48.9908 155.88 49.1431 155.216 49.1431ZM155.22 47.9844C155.651 47.9844 156.008 47.8705 156.291 47.6428C156.574 47.415 156.784 47.1119 156.919 46.7333C157.058 46.3548 157.127 45.9377 157.127 45.4822C157.127 45.0298 157.058 44.6143 156.919 44.2358C156.784 43.8542 156.574 43.5479 156.291 43.3171C156.008 43.0863 155.651 42.9709 155.22 42.9709C154.786 42.9709 154.426 43.0863 154.14 43.3171C153.857 43.5479 153.646 43.8542 153.507 44.2358C153.372 44.6143 153.304 45.0298 153.304 45.4822C153.304 45.9377 153.372 46.3548 153.507 46.7333C153.646 47.1119 153.857 47.415 154.14 47.6428C154.426 47.8705 154.786 47.9844 155.22 47.9844ZM160.062 51.6591V41.9091H161.41V43.0586H161.525C161.605 42.9109 161.721 42.7401 161.871 42.5462C162.022 42.3523 162.231 42.183 162.499 42.0384C162.767 41.8906 163.121 41.8168 163.561 41.8168C164.133 41.8168 164.644 41.9614 165.094 42.2507C165.543 42.54 165.895 42.957 166.151 43.5018C166.409 44.0465 166.539 44.7021 166.539 45.4684C166.539 46.2347 166.411 46.8918 166.155 47.4396C165.9 47.9844 165.549 48.4045 165.103 48.6999C164.657 48.9923 164.147 49.1385 163.575 49.1385C163.144 49.1385 162.792 49.0662 162.518 48.9215C162.247 48.7769 162.034 48.6076 161.881 48.4137C161.727 48.2198 161.608 48.0475 161.525 47.8967H161.442V51.6591H160.062ZM161.414 45.4545C161.414 45.9531 161.487 46.3902 161.631 46.7656C161.776 47.1411 161.985 47.435 162.259 47.6474C162.533 47.8567 162.869 47.9613 163.266 47.9613C163.678 47.9613 164.023 47.852 164.3 47.6335C164.577 47.4119 164.786 47.1119 164.927 46.7333C165.072 46.3548 165.144 45.9285 165.144 45.4545C165.144 44.9867 165.074 44.5666 164.932 44.1942C164.794 43.8219 164.584 43.5279 164.304 43.3125C164.027 43.0971 163.681 42.9893 163.266 42.9893C162.865 42.9893 162.527 43.0924 162.25 43.2987C161.976 43.5049 161.768 43.7926 161.627 44.1619C161.485 44.5312 161.414 44.9621 161.414 45.4545ZM171.395 41.9091V43.017H167.522V41.9091H171.395ZM168.561 40.2102H169.941V46.918C169.941 47.1857 169.981 47.3873 170.061 47.5227C170.141 47.6551 170.244 47.7459 170.37 47.7951C170.5 47.8413 170.64 47.8643 170.79 47.8643C170.901 47.8643 170.998 47.8567 171.081 47.8413C171.164 47.8259 171.229 47.8136 171.275 47.8043L171.524 48.9446C171.444 48.9754 171.331 49.0062 171.183 49.0369C171.035 49.0708 170.85 49.0893 170.629 49.0923C170.266 49.0985 169.927 49.0339 169.613 48.8984C169.299 48.763 169.045 48.5537 168.851 48.2706C168.658 47.9875 168.561 47.632 168.561 47.2042V40.2102ZM172.922 49V41.9091H174.302V49H172.922ZM173.619 40.815C173.379 40.815 173.173 40.735 173.001 40.5749C172.831 40.4118 172.747 40.2179 172.747 39.9933C172.747 39.7655 172.831 39.5716 173.001 39.4116C173.173 39.2485 173.379 39.1669 173.619 39.1669C173.859 39.1669 174.064 39.2485 174.233 39.4116C174.405 39.5716 174.492 39.7655 174.492 39.9933C174.492 40.2179 174.405 40.4118 174.233 40.5749C174.064 40.735 173.859 40.815 173.619 40.815ZM179.146 49.1431C178.481 49.1431 177.901 48.9908 177.406 48.6861C176.91 48.3814 176.526 47.9551 176.252 47.4073C175.978 46.8595 175.841 46.2193 175.841 45.4869C175.841 44.7513 175.978 44.1081 176.252 43.5572C176.526 43.0063 176.91 42.5785 177.406 42.2738C177.901 41.9691 178.481 41.8168 179.146 41.8168C179.811 41.8168 180.391 41.9691 180.887 42.2738C181.382 42.5785 181.767 43.0063 182.041 43.5572C182.315 44.1081 182.452 44.7513 182.452 45.4869C182.452 46.2193 182.315 46.8595 182.041 47.4073C181.767 47.9551 181.382 48.3814 180.887 48.6861C180.391 48.9908 179.811 49.1431 179.146 49.1431ZM179.151 47.9844C179.582 47.9844 179.939 47.8705 180.222 47.6428C180.505 47.415 180.714 47.1119 180.85 46.7333C180.988 46.3548 181.057 45.9377 181.057 45.4822C181.057 45.0298 180.988 44.6143 180.85 44.2358C180.714 43.8542 180.505 43.5479 180.222 43.3171C179.939 43.0863 179.582 42.9709 179.151 42.9709C178.717 42.9709 178.357 43.0863 178.071 43.3171C177.787 43.5479 177.577 43.8542 177.438 44.2358C177.303 44.6143 177.235 45.0298 177.235 45.4822C177.235 45.9377 177.303 46.3548 177.438 46.7333C177.577 47.1119 177.787 47.415 178.071 47.6428C178.357 47.8705 178.717 47.9844 179.151 47.9844ZM185.373 44.7898V49H183.992V41.9091H185.317V43.0632H185.405C185.568 42.6877 185.824 42.3861 186.171 42.1584C186.522 41.9306 186.964 41.8168 187.496 41.8168C187.979 41.8168 188.403 41.9183 188.766 42.1214C189.129 42.3215 189.411 42.62 189.611 43.017C189.811 43.4141 189.911 43.9049 189.911 44.4897V49H188.53V44.6559C188.53 44.1419 188.396 43.7403 188.129 43.451C187.861 43.1586 187.493 43.0124 187.025 43.0124C186.705 43.0124 186.421 43.0817 186.171 43.2202C185.925 43.3587 185.73 43.5618 185.585 43.8295C185.443 44.0942 185.373 44.4143 185.373 44.7898ZM195.202 49V41.9091H196.583V49H195.202ZM195.899 40.815C195.659 40.815 195.453 40.735 195.281 40.5749C195.112 40.4118 195.027 40.2179 195.027 39.9933C195.027 39.7655 195.112 39.5716 195.281 39.4116C195.453 39.2485 195.659 39.1669 195.899 39.1669C196.139 39.1669 196.344 39.2485 196.513 39.4116C196.686 39.5716 196.772 39.7655 196.772 39.9933C196.772 40.2179 196.686 40.4118 196.513 40.5749C196.344 40.735 196.139 40.815 195.899 40.815ZM199.82 44.7898V49H198.44V41.9091H199.765V43.0632H199.852C200.015 42.6877 200.271 42.3861 200.619 42.1584C200.969 41.9306 201.411 41.8168 201.944 41.8168C202.427 41.8168 202.85 41.9183 203.213 42.1214C203.576 42.3215 203.858 42.62 204.058 43.017C204.258 43.4141 204.358 43.9049 204.358 44.4897V49H202.978V44.6559C202.978 44.1419 202.844 43.7403 202.576 43.451C202.308 43.1586 201.94 43.0124 201.473 43.0124C201.153 43.0124 200.868 43.0817 200.619 43.2202C200.372 43.3587 200.177 43.5618 200.032 43.8295C199.891 44.0942 199.82 44.4143 199.82 44.7898ZM210.522 51.6591C210.316 51.6591 210.128 51.6422 209.959 51.6083C209.79 51.5775 209.663 51.5437 209.58 51.5067L209.913 50.3757C210.165 50.4434 210.39 50.4727 210.587 50.4634C210.784 50.4542 210.958 50.3803 211.108 50.2418C211.262 50.1033 211.398 49.8771 211.515 49.5632L211.685 49.0923L209.091 41.9091H210.568L212.364 47.4119H212.438L214.234 41.9091H215.716L212.793 49.9464C212.658 50.3157 212.486 50.6281 212.276 50.8835C212.067 51.142 211.818 51.3359 211.528 51.4652C211.239 51.5945 210.904 51.6591 210.522 51.6591ZM219.759 49.1431C219.094 49.1431 218.514 48.9908 218.018 48.6861C217.523 48.3814 217.138 47.9551 216.864 47.4073C216.59 46.8595 216.453 46.2193 216.453 45.4869C216.453 44.7513 216.59 44.1081 216.864 43.5572C217.138 43.0063 217.523 42.5785 218.018 42.2738C218.514 41.9691 219.094 41.8168 219.759 41.8168C220.423 41.8168 221.003 41.9691 221.499 42.2738C221.994 42.5785 222.379 43.0063 222.653 43.5572C222.927 44.1081 223.064 44.7513 223.064 45.4869C223.064 46.2193 222.927 46.8595 222.653 47.4073C222.379 47.9551 221.994 48.3814 221.499 48.6861C221.003 48.9908 220.423 49.1431 219.759 49.1431ZM219.763 47.9844C220.194 47.9844 220.551 47.8705 220.834 47.6428C221.117 47.415 221.327 47.1119 221.462 46.7333C221.6 46.3548 221.67 45.9377 221.67 45.4822C221.67 45.0298 221.6 44.6143 221.462 44.2358C221.327 43.8542 221.117 43.5479 220.834 43.3171C220.551 43.0863 220.194 42.9709 219.763 42.9709C219.329 42.9709 218.969 43.0863 218.683 43.3171C218.4 43.5479 218.189 43.8542 218.05 44.2358C217.915 44.6143 217.847 45.0298 217.847 45.4822C217.847 45.9377 217.915 46.3548 218.05 46.7333C218.189 47.1119 218.4 47.415 218.683 47.6428C218.969 47.8705 219.329 47.9844 219.763 47.9844ZM229.097 46.0593V41.9091H230.481V49H229.124V47.772H229.05C228.887 48.1506 228.626 48.466 228.266 48.7184C227.909 48.9677 227.464 49.0923 226.931 49.0923C226.476 49.0923 226.073 48.9923 225.722 48.7923C225.374 48.5891 225.1 48.2891 224.9 47.892C224.703 47.495 224.605 47.0041 224.605 46.4194V41.9091H225.985V46.2532C225.985 46.7364 226.119 47.1211 226.387 47.4073C226.654 47.6935 227.002 47.8366 227.43 47.8366C227.688 47.8366 227.945 47.772 228.201 47.6428C228.459 47.5135 228.673 47.3181 228.843 47.0565C229.015 46.7949 229.1 46.4625 229.097 46.0593ZM232.336 49V41.9091H233.67V43.0355H233.744C233.873 42.6539 234.101 42.3538 234.427 42.1353C234.757 41.9137 235.129 41.8029 235.545 41.8029C235.631 41.8029 235.732 41.806 235.849 41.8121C235.969 41.8183 236.063 41.826 236.131 41.8352V43.1555C236.075 43.1402 235.977 43.1232 235.835 43.1048C235.694 43.0832 235.552 43.0724 235.411 43.0724C235.084 43.0724 234.794 43.1417 234.538 43.2802C234.286 43.4156 234.086 43.6049 233.938 43.848C233.79 44.0881 233.716 44.362 233.716 44.6697V49H232.336ZM248.729 42.62H247.289C247.233 42.3123 247.13 42.0414 246.98 41.8075C246.829 41.5736 246.644 41.3751 246.426 41.212C246.207 41.0489 245.962 40.9258 245.692 40.8427C245.424 40.7596 245.139 40.718 244.838 40.718C244.293 40.718 243.805 40.855 243.374 41.1289C242.946 41.4028 242.608 41.8045 242.358 42.3338C242.112 42.8632 241.989 43.5095 241.989 44.2727C241.989 45.0421 242.112 45.6915 242.358 46.2209C242.608 46.7502 242.948 47.1503 243.379 47.4212C243.81 47.692 244.294 47.8274 244.833 47.8274C245.131 47.8274 245.415 47.7874 245.682 47.7074C245.953 47.6243 246.198 47.5027 246.416 47.3427C246.635 47.1826 246.82 46.9872 246.97 46.7564C247.124 46.5225 247.23 46.2547 247.289 45.9531L248.729 45.9577C248.652 46.4225 248.503 46.8503 248.281 47.2411C248.063 47.6289 247.781 47.9644 247.437 48.2475C247.095 48.5276 246.704 48.7446 246.264 48.8984C245.824 49.0523 245.344 49.1293 244.824 49.1293C244.005 49.1293 243.276 48.9354 242.635 48.5476C241.995 48.1567 241.491 47.5981 241.121 46.8718C240.755 46.1455 240.572 45.2791 240.572 44.2727C240.572 43.2633 240.757 42.3969 241.126 41.6737C241.495 40.9473 242 40.3903 242.64 40.0025C243.28 39.6116 244.008 39.4162 244.824 39.4162C245.325 39.4162 245.793 39.4885 246.227 39.6332C246.664 39.7747 247.057 39.984 247.404 40.261C247.752 40.5349 248.04 40.8704 248.268 41.2674C248.495 41.6613 248.649 42.1122 248.729 42.62ZM251.415 41.9091L252.98 44.6697L254.559 41.9091H256.068L253.857 45.4545L256.087 49H254.577L252.98 46.3501L251.387 49H249.873L252.08 45.4545L249.901 41.9091H251.415ZM265.809 44.2727C265.809 45.2822 265.624 46.1501 265.255 46.8764C264.886 47.5997 264.379 48.1567 263.736 48.5476C263.096 48.9354 262.368 49.1293 261.553 49.1293C260.734 49.1293 260.003 48.9354 259.36 48.5476C258.72 48.1567 258.215 47.5981 257.846 46.8718C257.476 46.1455 257.292 45.2791 257.292 44.2727C257.292 43.2633 257.476 42.3969 257.846 41.6737C258.215 40.9473 258.72 40.3903 259.36 40.0025C260.003 39.6116 260.734 39.4162 261.553 39.4162C262.368 39.4162 263.096 39.6116 263.736 40.0025C264.379 40.3903 264.886 40.9473 265.255 41.6737C265.624 42.3969 265.809 43.2633 265.809 44.2727ZM264.396 44.2727C264.396 43.5033 264.272 42.8555 264.022 42.3292C263.776 41.7998 263.438 41.3997 263.007 41.1289C262.579 40.855 262.094 40.718 261.553 40.718C261.008 40.718 260.522 40.855 260.094 41.1289C259.666 41.3997 259.328 41.7998 259.078 42.3292C258.832 42.8555 258.709 43.5033 258.709 44.2727C258.709 45.0421 258.832 45.6915 259.078 46.2209C259.328 46.7472 259.666 47.1473 260.094 47.4212C260.522 47.692 261.008 47.8274 261.553 47.8274C262.094 47.8274 262.579 47.692 263.007 47.4212C263.438 47.1473 263.776 46.7472 264.022 46.2209C264.272 45.6915 264.396 45.0421 264.396 44.2727ZM268.857 44.7898V49H267.477V41.9091H268.802V43.0632H268.889C269.052 42.6877 269.308 42.3861 269.656 42.1584C270.007 41.9306 270.448 41.8168 270.981 41.8168C271.464 41.8168 271.887 41.9183 272.25 42.1214C272.613 42.3215 272.895 42.62 273.095 43.017C273.295 43.4141 273.395 43.9049 273.395 44.4897V49H272.015V44.6559C272.015 44.1419 271.881 43.7403 271.613 43.451C271.345 43.1586 270.978 43.0124 270.51 43.0124C270.19 43.0124 269.905 43.0817 269.656 43.2202C269.41 43.3587 269.214 43.5618 269.069 43.8295C268.928 44.0942 268.857 44.4143 268.857 44.7898ZM278.302 49.1431C277.604 49.1431 277.002 48.9938 276.497 48.6953C275.996 48.3937 275.608 47.9705 275.334 47.4258C275.063 46.878 274.928 46.2363 274.928 45.5007C274.928 44.7744 275.063 44.1342 275.334 43.5803C275.608 43.0263 275.99 42.5939 276.479 42.283C276.971 41.9722 277.547 41.8168 278.205 41.8168C278.606 41.8168 278.993 41.8829 279.369 42.0153C279.744 42.1476 280.081 42.3554 280.38 42.6385C280.678 42.9216 280.914 43.2894 281.086 43.7418C281.258 44.1912 281.345 44.7375 281.345 45.3807V45.87H275.708V44.8359H279.992C279.992 44.4728 279.918 44.1512 279.77 43.8711C279.623 43.5879 279.415 43.3648 279.147 43.2017C278.883 43.0386 278.572 42.957 278.215 42.957C277.827 42.957 277.488 43.0524 277.199 43.2433C276.913 43.431 276.691 43.6772 276.534 43.9819C276.38 44.2835 276.303 44.6113 276.303 44.9652V45.7731C276.303 46.247 276.387 46.6502 276.553 46.9826C276.722 47.315 276.957 47.5689 277.259 47.7443C277.561 47.9167 277.913 48.0028 278.316 48.0028C278.578 48.0028 278.816 47.9659 279.032 47.892C279.247 47.8151 279.433 47.7012 279.59 47.5504C279.747 47.3996 279.867 47.2134 279.95 46.9918L281.257 47.2273C281.152 47.612 280.965 47.949 280.694 48.2383C280.426 48.5245 280.089 48.7476 279.683 48.9077C279.28 49.0646 278.819 49.1431 278.302 49.1431ZM289.627 41.9091V43.017H285.753V41.9091H289.627ZM286.792 40.2102H288.172V46.918C288.172 47.1857 288.212 47.3873 288.292 47.5227C288.372 47.6551 288.476 47.7459 288.602 47.7951C288.731 47.8413 288.871 47.8643 289.022 47.8643C289.133 47.8643 289.23 47.8567 289.313 47.8413C289.396 47.8259 289.46 47.8136 289.507 47.8043L289.756 48.9446C289.676 48.9754 289.562 49.0062 289.414 49.0369C289.267 49.0708 289.082 49.0893 288.86 49.0923C288.497 49.0985 288.159 49.0339 287.845 48.8984C287.531 48.763 287.277 48.5537 287.083 48.2706C286.889 47.9875 286.792 47.632 286.792 47.2042V40.2102ZM294.133 49.1431C293.435 49.1431 292.833 48.9938 292.328 48.6953C291.827 48.3937 291.439 47.9705 291.165 47.4258C290.894 46.878 290.759 46.2363 290.759 45.5007C290.759 44.7744 290.894 44.1342 291.165 43.5803C291.439 43.0263 291.821 42.5939 292.31 42.283C292.802 41.9722 293.378 41.8168 294.036 41.8168C294.437 41.8168 294.824 41.8829 295.2 42.0153C295.575 42.1476 295.912 42.3554 296.211 42.6385C296.509 42.9216 296.745 43.2894 296.917 43.7418C297.09 44.1912 297.176 44.7375 297.176 45.3807V45.87H291.539V44.8359H295.823C295.823 44.4728 295.749 44.1512 295.601 43.8711C295.454 43.5879 295.246 43.3648 294.978 43.2017C294.714 43.0386 294.403 42.957 294.046 42.957C293.658 42.957 293.319 43.0524 293.03 43.2433C292.744 43.431 292.522 43.6772 292.365 43.9819C292.211 44.2835 292.134 44.6113 292.134 44.9652V45.7731C292.134 46.247 292.218 46.6502 292.384 46.9826C292.553 47.315 292.789 47.5689 293.09 47.7443C293.392 47.9167 293.744 48.0028 294.147 48.0028C294.409 48.0028 294.647 47.9659 294.863 47.892C295.078 47.8151 295.264 47.7012 295.421 47.5504C295.578 47.3996 295.698 47.2134 295.782 46.9918L297.088 47.2273C296.983 47.612 296.796 47.949 296.525 48.2383C296.257 48.5245 295.92 48.7476 295.514 48.9077C295.111 49.0646 294.65 49.1431 294.133 49.1431ZM300.088 44.7898V49H298.707V41.9091H300.032V43.0632H300.12C300.283 42.6877 300.538 42.3861 300.886 42.1584C301.237 41.9306 301.679 41.8168 302.211 41.8168C302.694 41.8168 303.117 41.9183 303.481 42.1214C303.844 42.3215 304.125 42.62 304.325 43.017C304.526 43.4141 304.626 43.9049 304.626 44.4897V49H303.245V44.6559C303.245 44.1419 303.111 43.7403 302.844 43.451C302.576 43.1586 302.208 43.0124 301.74 43.0124C301.42 43.0124 301.135 43.0817 300.886 43.2202C300.64 43.3587 300.445 43.5618 300.3 43.8295C300.158 44.0942 300.088 44.4143 300.088 44.7898ZM308.54 49.157C308.091 49.157 307.685 49.0739 307.322 48.9077C306.958 48.7384 306.671 48.4937 306.458 48.1737C306.249 47.8536 306.144 47.4612 306.144 46.9964C306.144 46.5964 306.221 46.267 306.375 46.0085C306.529 45.75 306.737 45.5453 306.998 45.3945C307.26 45.2437 307.552 45.1299 307.876 45.0529C308.199 44.976 308.528 44.9175 308.863 44.8775C309.288 44.8282 309.633 44.7882 309.898 44.7575C310.162 44.7236 310.355 44.6697 310.475 44.5959C310.595 44.522 310.655 44.402 310.655 44.2358V44.2035C310.655 43.8003 310.541 43.4879 310.313 43.2663C310.088 43.0447 309.753 42.9339 309.307 42.9339C308.842 42.9339 308.476 43.037 308.208 43.2433C307.943 43.4464 307.76 43.6726 307.659 43.9219L306.361 43.6264C306.515 43.1955 306.74 42.8478 307.035 42.5831C307.334 42.3153 307.677 42.1214 308.065 42.0014C308.453 41.8783 308.86 41.8168 309.288 41.8168C309.571 41.8168 309.871 41.8506 310.188 41.9183C310.508 41.983 310.807 42.103 311.084 42.2784C311.364 42.4538 311.593 42.7047 311.772 43.0309C311.95 43.354 312.04 43.7741 312.04 44.2912V49H310.692V48.0305H310.636C310.547 48.209 310.413 48.3845 310.235 48.5568C310.056 48.7292 309.827 48.8723 309.547 48.9862C309.267 49.1 308.931 49.157 308.54 49.157ZM308.84 48.049C309.222 48.049 309.548 47.9736 309.819 47.8228C310.093 47.672 310.301 47.475 310.442 47.2319C310.587 46.9857 310.659 46.7225 310.659 46.4425V45.5284C310.61 45.5777 310.515 45.6238 310.373 45.6669C310.235 45.7069 310.076 45.7423 309.898 45.7731C309.719 45.8008 309.545 45.8269 309.376 45.8516C309.207 45.8731 309.065 45.8916 308.951 45.907C308.683 45.9408 308.439 45.9978 308.217 46.0778C307.999 46.1578 307.823 46.2732 307.691 46.424C307.562 46.5717 307.497 46.7687 307.497 47.0149C307.497 47.3565 307.623 47.6151 307.876 47.7905C308.128 47.9628 308.45 48.049 308.84 48.049ZM315.258 44.7898V49H313.878V41.9091H315.203V43.0632H315.291C315.454 42.6877 315.709 42.3861 316.057 42.1584C316.408 41.9306 316.85 41.8168 317.382 41.8168C317.865 41.8168 318.288 41.9183 318.652 42.1214C319.015 42.3215 319.296 42.62 319.496 43.017C319.696 43.4141 319.796 43.9049 319.796 44.4897V49H318.416V44.6559C318.416 44.1419 318.282 43.7403 318.014 43.451C317.747 43.1586 317.379 43.0124 316.911 43.0124C316.591 43.0124 316.306 43.0817 316.057 43.2202C315.811 43.3587 315.615 43.5618 315.471 43.8295C315.329 44.0942 315.258 44.4143 315.258 44.7898ZM324.958 41.9091V43.017H321.084V41.9091H324.958ZM322.123 40.2102H323.503V46.918C323.503 47.1857 323.543 47.3873 323.623 47.5227C323.704 47.6551 323.807 47.7459 323.933 47.7951C324.062 47.8413 324.202 47.8643 324.353 47.8643C324.464 47.8643 324.561 47.8567 324.644 47.8413C324.727 47.8259 324.791 47.8136 324.838 47.8043L325.087 48.9446C325.007 48.9754 324.893 49.0062 324.745 49.0369C324.598 49.0708 324.413 49.0893 324.191 49.0923C323.828 49.0985 323.49 49.0339 323.176 48.8984C322.862 48.763 322.608 48.5537 322.414 48.2706C322.22 47.9875 322.123 47.632 322.123 47.2042V40.2102ZM50.2415 62.6403L48.9904 62.8619C48.9381 62.7018 48.855 62.5495 48.7411 62.4048C48.6303 62.2602 48.4795 62.1417 48.2887 62.0494C48.0979 61.957 47.8594 61.9109 47.5732 61.9109C47.1823 61.9109 46.8561 61.9986 46.5945 62.174C46.3329 62.3464 46.2021 62.5695 46.2021 62.8434C46.2021 63.0804 46.2898 63.2712 46.4652 63.4158C46.6406 63.5605 46.9238 63.679 47.3146 63.7713L48.4411 64.0298C49.0935 64.1806 49.5798 64.413 49.8999 64.7269C50.2199 65.0408 50.38 65.4486 50.38 65.9503C50.38 66.375 50.2569 66.7536 50.0107 67.0859C49.7675 67.4152 49.4274 67.6738 48.9904 67.8615C48.5565 68.0492 48.0533 68.1431 47.4808 68.1431C46.6868 68.1431 46.0389 67.9738 45.5373 67.6353C45.0356 67.2937 44.7279 66.8089 44.614 66.1811L45.9482 65.978C46.0313 66.3258 46.2021 66.5889 46.4606 66.7674C46.7191 66.9428 47.0561 67.0305 47.4716 67.0305C47.924 67.0305 48.2856 66.9367 48.5565 66.7489C48.8273 66.5581 48.9627 66.3258 48.9627 66.0518C48.9627 65.8303 48.8796 65.6441 48.7134 65.4933C48.5503 65.3424 48.2995 65.2286 47.9609 65.1516L46.7607 64.8885C46.099 64.7377 45.6096 64.4976 45.2926 64.1683C44.9787 63.839 44.8217 63.422 44.8217 62.9173C44.8217 62.4987 44.9387 62.1325 45.1726 61.8185C45.4065 61.5046 45.7296 61.2599 46.142 61.0845C46.5545 60.906 47.0269 60.8168 47.5593 60.8168C48.3256 60.8168 48.9289 60.983 49.369 61.3153C49.8091 61.6446 50.0999 62.0863 50.2415 62.6403ZM54.9537 68.1431C54.2551 68.1431 53.6534 67.9938 53.1487 67.6953C52.647 67.3937 52.2593 66.9705 51.9854 66.4258C51.7145 65.878 51.5791 65.2363 51.5791 64.5007C51.5791 63.7744 51.7145 63.1342 51.9854 62.5803C52.2593 62.0263 52.6409 61.5939 53.1302 61.283C53.6227 60.9722 54.1982 60.8168 54.8568 60.8168C55.2569 60.8168 55.6447 60.8829 56.0202 61.0153C56.3956 61.1476 56.7326 61.3554 57.0312 61.6385C57.3297 61.9216 57.5651 62.2894 57.7375 62.7418C57.9098 63.1912 57.996 63.7375 57.996 64.3807V64.87H52.3593V63.8359H56.6434C56.6434 63.4728 56.5695 63.1512 56.4218 62.8711C56.2741 62.5879 56.0663 62.3648 55.7986 62.2017C55.5339 62.0386 55.223 61.957 54.866 61.957C54.4782 61.957 54.1397 62.0524 53.8504 62.2433C53.5642 62.431 53.3426 62.6772 53.1856 62.9819C53.0318 63.2835 52.9548 63.6113 52.9548 63.9652V64.7731C52.9548 65.247 53.0379 65.6502 53.2041 65.9826C53.3734 66.315 53.6088 66.5689 53.9104 66.7443C54.212 66.9167 54.5644 67.0028 54.9676 67.0028C55.2292 67.0028 55.4677 66.9659 55.6831 66.892C55.8986 66.8151 56.0848 66.7012 56.2417 66.5504C56.3987 66.3996 56.5187 66.2134 56.6018 65.9918L57.9083 66.2273C57.8037 66.612 57.6159 66.949 57.3451 67.2383C57.0773 67.5245 56.7403 67.7476 56.3341 67.9077C55.9309 68.0646 55.4708 68.1431 54.9537 68.1431ZM62.8375 60.9091V62.017H58.9643V60.9091H62.8375ZM60.003 59.2102H61.3833V65.918C61.3833 66.1857 61.4234 66.3873 61.5034 66.5227C61.5834 66.6551 61.6865 66.7459 61.8127 66.7951C61.9419 66.8413 62.082 66.8643 62.2328 66.8643C62.3436 66.8643 62.4405 66.8567 62.5236 66.8413C62.6067 66.8259 62.6713 66.8136 62.7175 66.8043L62.9668 67.9446C62.8868 67.9754 62.7729 68.0062 62.6252 68.0369C62.4775 68.0708 62.2928 68.0893 62.0712 68.0923C61.708 68.0985 61.3695 68.0339 61.0556 67.8984C60.7417 67.763 60.4877 67.5537 60.2939 67.2706C60.1 66.9875 60.003 66.632 60.003 66.2042V59.2102ZM67.6744 60.9091V62.017H63.8012V60.9091H67.6744ZM64.8399 59.2102H66.2203V65.918C66.2203 66.1857 66.2603 66.3873 66.3403 66.5227C66.4203 66.6551 66.5234 66.7459 66.6496 66.7951C66.7789 66.8413 66.9189 66.8643 67.0697 66.8643C67.1805 66.8643 67.2774 66.8567 67.3605 66.8413C67.4436 66.8259 67.5083 66.8136 67.5544 66.8043L67.8037 67.9446C67.7237 67.9754 67.6098 68.0062 67.4621 68.0369C67.3144 68.0708 67.1297 68.0893 66.9081 68.0923C66.545 68.0985 66.2064 68.0339 65.8925 67.8984C65.5786 67.763 65.3247 67.5537 65.1308 67.2706C64.9369 66.9875 64.8399 66.632 64.8399 66.2042V59.2102ZM69.2013 68V60.9091H70.5817V68H69.2013ZM69.8984 59.815C69.6584 59.815 69.4522 59.735 69.2798 59.5749C69.1106 59.4118 69.0259 59.2179 69.0259 58.9933C69.0259 58.7655 69.1106 58.5716 69.2798 58.4116C69.4522 58.2485 69.6584 58.1669 69.8984 58.1669C70.1385 58.1669 70.3432 58.2485 70.5124 58.4116C70.6848 58.5716 70.771 58.7655 70.771 58.9933C70.771 59.2179 70.6848 59.4118 70.5124 59.5749C70.3432 59.735 70.1385 59.815 69.8984 59.815ZM73.819 63.7898V68H72.4387V60.9091H73.7636V62.0632H73.8513C74.0144 61.6877 74.2699 61.3861 74.6176 61.1584C74.9685 60.9306 75.4101 60.8168 75.9426 60.8168C76.4258 60.8168 76.8489 60.9183 77.2121 61.1214C77.5753 61.3215 77.8569 61.62 78.0569 62.017C78.257 62.4141 78.357 62.9049 78.357 63.4897V68H76.9767V63.6559C76.9767 63.1419 76.8428 62.7403 76.575 62.451C76.3073 62.1586 75.9395 62.0124 75.4717 62.0124C75.1516 62.0124 74.8669 62.0817 74.6176 62.2202C74.3714 62.3587 74.176 62.5618 74.0313 62.8295C73.8898 63.0942 73.819 63.4143 73.819 63.7898ZM83.1812 70.8068C82.618 70.8068 82.1333 70.733 81.727 70.5852C81.3238 70.4375 80.9945 70.2421 80.7391 69.9989C80.4836 69.7558 80.2928 69.4896 80.1666 69.2003L81.3531 68.7109C81.4362 68.8464 81.547 68.9895 81.6855 69.1403C81.827 69.2942 82.0178 69.425 82.2579 69.5327C82.501 69.6404 82.8134 69.6942 83.195 69.6942C83.7182 69.6942 84.1507 69.5665 84.4923 69.3111C84.8339 69.0587 85.0047 68.6555 85.0047 68.1016V66.7074H84.917C84.8339 66.8582 84.7139 67.0259 84.5569 67.2106C84.403 67.3952 84.1907 67.5553 83.9198 67.6907C83.649 67.8261 83.2966 67.8938 82.8627 67.8938C82.3025 67.8938 81.7978 67.763 81.3485 67.5014C80.9022 67.2367 80.5483 66.8474 80.2867 66.3335C80.0281 65.8164 79.8989 65.1809 79.8989 64.4268C79.8989 63.6728 80.0266 63.0265 80.282 62.4879C80.5406 61.9493 80.8945 61.5369 81.3438 61.2507C81.7932 60.9614 82.3025 60.8168 82.8719 60.8168C83.312 60.8168 83.6675 60.8906 83.9383 61.0384C84.2091 61.183 84.42 61.3523 84.5708 61.5462C84.7246 61.7401 84.8431 61.9109 84.9262 62.0586H85.0278V60.9091H86.3804V68.157C86.3804 68.7663 86.2388 69.2665 85.9557 69.6573C85.6726 70.0482 85.2894 70.3375 84.8062 70.5252C84.3261 70.7129 83.7844 70.8068 83.1812 70.8068ZM83.1673 66.7489C83.5644 66.7489 83.8998 66.6566 84.1737 66.4719C84.4507 66.2842 84.66 66.0165 84.8016 65.6687C84.9462 65.3178 85.0186 64.8977 85.0186 64.4084C85.0186 63.9313 84.9478 63.5112 84.8062 63.1481C84.6646 62.7849 84.4569 62.5018 84.183 62.2987C83.9091 62.0924 83.5705 61.9893 83.1673 61.9893C82.7519 61.9893 82.4056 62.0971 82.1286 62.3125C81.8517 62.5249 81.6424 62.8142 81.5008 63.1804C81.3623 63.5466 81.2931 63.956 81.2931 64.4084C81.2931 64.8731 81.3638 65.2809 81.5054 65.6317C81.647 65.9826 81.8563 66.2565 82.1333 66.4535C82.4133 66.6504 82.758 66.7489 83.1673 66.7489ZM93.5452 62.6403L92.2941 62.8619C92.2418 62.7018 92.1587 62.5495 92.0448 62.4048C91.934 62.2602 91.7832 62.1417 91.5924 62.0494C91.4016 61.957 91.1631 61.9109 90.8769 61.9109C90.486 61.9109 90.1598 61.9986 89.8982 62.174C89.6366 62.3464 89.5058 62.5695 89.5058 62.8434C89.5058 63.0804 89.5935 63.2712 89.7689 63.4158C89.9443 63.5605 90.2275 63.679 90.6183 63.7713L91.7448 64.0298C92.3972 64.1806 92.8835 64.413 93.2036 64.7269C93.5236 65.0408 93.6837 65.4486 93.6837 65.9503C93.6837 66.375 93.5606 66.7536 93.3144 67.0859C93.0712 67.4152 92.7311 67.6738 92.2941 67.8615C91.8602 68.0492 91.357 68.1431 90.7845 68.1431C89.9905 68.1431 89.3427 67.9738 88.841 67.6353C88.3393 67.2937 88.0316 66.8089 87.9177 66.1811L89.2519 65.978C89.335 66.3258 89.5058 66.5889 89.7643 66.7674C90.0228 66.9428 90.3598 67.0305 90.7753 67.0305C91.2277 67.0305 91.5893 66.9367 91.8602 66.7489C92.131 66.5581 92.2664 66.3258 92.2664 66.0518C92.2664 65.8303 92.1833 65.6441 92.0171 65.4933C91.854 65.3424 91.6032 65.2286 91.2646 65.1516L90.0644 64.8885C89.4027 64.7377 88.9133 64.4976 88.5963 64.1683C88.2824 63.839 88.1254 63.422 88.1254 62.9173C88.1254 62.4987 88.2424 62.1325 88.4763 61.8185C88.7102 61.5046 89.0334 61.2599 89.4458 61.0845C89.8582 60.906 90.3306 60.8168 90.863 60.8168C91.6294 60.8168 92.2326 60.983 92.6727 61.3153C93.1128 61.6446 93.4036 62.0863 93.5452 62.6403ZM96.1108 68.0877C95.8584 68.0877 95.6415 67.9985 95.4599 67.82C95.2783 67.6384 95.1875 67.4199 95.1875 67.1644C95.1875 66.9121 95.2783 66.6966 95.4599 66.5181C95.6415 66.3365 95.8584 66.2457 96.1108 66.2457C96.3632 66.2457 96.5801 66.3365 96.7617 66.5181C96.9433 66.6966 97.0341 66.9121 97.0341 67.1644C97.0341 67.3337 96.991 67.4891 96.9048 67.6307C96.8217 67.7692 96.7109 67.88 96.5724 67.9631C96.4339 68.0462 96.2801 68.0877 96.1108 68.0877Z" fill="white" fill-opacity="0.7"/>
</svg>
