<svg width="374" height="89" viewBox="0 0 374 89" fill="none" xmlns="http://www.w3.org/2000/svg">
<rect x="0.5" y="0.5" width="373" height="88" rx="3.5" fill="#312B21"/>
<rect x="0.5" y="0.5" width="373" height="88" rx="3.5" stroke="#885102"/>
<path fill-rule="evenodd" clip-rule="evenodd" d="M26 18C21.5817 18 18 21.5817 18 26C18 30.4183 21.5817 34 26 34C30.4183 34 34 30.4183 34 26C34 21.5817 30.4183 18 26 18Z" fill="#C37242"/>
<path fill-rule="evenodd" clip-rule="evenodd" d="M25.0812 29.4907C25.0656 30.0092 25.4817 30.4381 26.0005 30.4381C26.5195 30.4381 26.9357 30.0088 26.9197 29.49L26.8026 25.69C26.7892 25.2558 26.4334 24.9108 25.999 24.9108C25.5644 24.9108 25.2085 25.2562 25.1954 25.6906L25.0812 29.4907ZM26.7231 21.8983C26.5214 21.6994 26.2799 21.6 25.9987 21.6C25.726 21.6 25.4888 21.6994 25.2871 21.8983C25.0825 22.0972 24.9788 22.3386 24.976 22.6227C24.9788 22.9011 25.0825 23.1398 25.2871 23.3386C25.4888 23.5375 25.726 23.6369 25.9987 23.6369C26.2799 23.6369 26.5214 23.5375 26.7231 23.3386C26.9248 23.1398 27.0243 22.9011 27.0214 22.6227C27.0243 22.3386 26.9248 22.0972 26.7231 21.8983Z" fill="#C37242"/>
<path d="M25.9987 21.6C26.2799 21.6 26.5214 21.6994 26.7231 21.8983C26.9248 22.0972 27.0243 22.3386 27.0214 22.6227C27.0243 22.9011 26.9248 23.1398 26.7231 23.3386C26.5214 23.5375 26.2799 23.6369 25.9987 23.6369C25.726 23.6369 25.4888 23.5375 25.2871 23.3386C25.0825 23.1398 24.9788 22.9011 24.976 22.6227C24.9788 22.3386 25.0825 22.0972 25.2871 21.8983C25.4888 21.6994 25.726 21.6 25.9987 21.6Z" fill="white"/>
<path d="M26.0005 30.4381C25.4817 30.4381 25.0656 30.0092 25.0812 29.4907L25.1954 25.6906C25.2085 25.2562 25.5644 24.9108 25.999 24.9108C26.4334 24.9108 26.7892 25.2558 26.8026 25.69L26.9197 29.49C26.9357 30.0088 26.5195 30.4381 26.0005 30.4381Z" fill="white"/>
<path d="M44.5724 21.7734V20.5455H51.8896V21.7734H48.9396V30H47.5178V21.7734H44.5724ZM55.3542 30.1431C54.6895 30.1431 54.1093 29.9908 53.6138 29.6861C53.1183 29.3814 52.7336 28.9551 52.4597 28.4073C52.1858 27.8595 52.0488 27.2193 52.0488 26.4869C52.0488 25.7513 52.1858 25.1081 52.4597 24.5572C52.7336 24.0063 53.1183 23.5785 53.6138 23.2738C54.1093 22.9691 54.6895 22.8168 55.3542 22.8168C56.019 22.8168 56.5991 22.9691 57.0946 23.2738C57.5901 23.5785 57.9748 24.0063 58.2488 24.5572C58.5227 25.1081 58.6596 25.7513 58.6596 26.4869C58.6596 27.2193 58.5227 27.8595 58.2488 28.4073C57.9748 28.9551 57.5901 29.3814 57.0946 29.6861C56.5991 29.9908 56.019 30.1431 55.3542 30.1431ZM55.3588 28.9844C55.7897 28.9844 56.1467 28.8705 56.4299 28.6428C56.713 28.415 56.9223 28.1119 57.0577 27.7333C57.1962 27.3548 57.2654 26.9377 57.2654 26.4822C57.2654 26.0298 57.1962 25.6143 57.0577 25.2358C56.9223 24.8542 56.713 24.5479 56.4299 24.3171C56.1467 24.0863 55.7897 23.9709 55.3588 23.9709C54.9249 23.9709 54.5648 24.0863 54.2786 24.3171C53.9954 24.5479 53.7846 24.8542 53.6461 25.2358C53.5107 25.6143 53.443 26.0298 53.443 26.4822C53.443 26.9377 53.5107 27.3548 53.6461 27.7333C53.7846 28.1119 53.9954 28.415 54.2786 28.6428C54.5648 28.8705 54.9249 28.9844 55.3588 28.9844ZM65.7044 30.157C65.255 30.157 64.8488 30.0739 64.4856 29.9077C64.1225 29.7384 63.8347 29.4937 63.6223 29.1737C63.4131 28.8536 63.3084 28.4612 63.3084 27.9964C63.3084 27.5964 63.3854 27.267 63.5392 27.0085C63.6931 26.75 63.9009 26.5453 64.1625 26.3945C64.4241 26.2437 64.7164 26.1299 65.0396 26.0529C65.3627 25.976 65.6921 25.9175 66.0275 25.8775C66.4522 25.8282 66.7969 25.7882 67.0616 25.7575C67.3263 25.7236 67.5186 25.6697 67.6387 25.5959C67.7587 25.522 67.8187 25.402 67.8187 25.2358V25.2035C67.8187 24.8003 67.7048 24.4879 67.4771 24.2663C67.2524 24.0447 66.917 23.9339 66.4707 23.9339C66.006 23.9339 65.6397 24.037 65.372 24.2433C65.1073 24.4464 64.9242 24.6726 64.8226 24.9219L63.5254 24.6264C63.6793 24.1955 63.9039 23.8478 64.1994 23.5831C64.4979 23.3153 64.8411 23.1214 65.2289 23.0014C65.6167 22.8783 66.0244 22.8168 66.4522 22.8168C66.7354 22.8168 67.0355 22.8506 67.3525 22.9183C67.6725 22.983 67.9711 23.103 68.248 23.2784C68.5281 23.4538 68.7574 23.7047 68.9359 24.0309C69.1144 24.354 69.2037 24.7741 69.2037 25.2912V30H67.8556V29.0305H67.8002C67.711 29.209 67.5771 29.3845 67.3986 29.5568C67.2201 29.7292 66.9908 29.8723 66.7108 29.9862C66.4307 30.1 66.0952 30.157 65.7044 30.157ZM66.0044 29.049C66.3861 29.049 66.7123 28.9736 66.9831 28.8228C67.257 28.672 67.4648 28.475 67.6064 28.2319C67.751 27.9857 67.8233 27.7225 67.8233 27.4425V26.5284C67.7741 26.5777 67.6787 26.6238 67.5371 26.6669C67.3986 26.7069 67.2401 26.7423 67.0616 26.7731C66.8831 26.8008 66.7092 26.8269 66.54 26.8516C66.3707 26.8731 66.2291 26.8916 66.1152 26.907C65.8475 26.9408 65.6028 26.9978 65.3812 27.0778C65.1627 27.1578 64.9873 27.2732 64.8549 27.424C64.7257 27.5717 64.661 27.7687 64.661 28.0149C64.661 28.3565 64.7872 28.6151 65.0396 28.7905C65.292 28.9628 65.6136 29.049 66.0044 29.049ZM74.029 30.1431C73.3427 30.1431 72.7518 29.9877 72.2563 29.6768C71.7639 29.3629 71.3853 28.9305 71.1206 28.3796C70.856 27.8287 70.7236 27.1978 70.7236 26.4869C70.7236 25.7667 70.859 25.1312 71.1299 24.5803C71.4007 24.0263 71.7823 23.5939 72.2748 23.283C72.7672 22.9722 73.3473 22.8168 74.0152 22.8168C74.5538 22.8168 75.0339 22.9168 75.4555 23.1168C75.8772 23.3138 76.2172 23.5908 76.4758 23.9478C76.7374 24.3048 76.8928 24.7218 76.942 25.1989H75.5986C75.5248 24.8665 75.3555 24.5803 75.0908 24.3402C74.8292 24.1001 74.4784 23.9801 74.0383 23.9801C73.6536 23.9801 73.3166 24.0817 73.0273 24.2848C72.741 24.4848 72.5179 24.7711 72.3579 25.1435C72.1978 25.5128 72.1178 25.9498 72.1178 26.4545C72.1178 26.9716 72.1963 27.4179 72.3532 27.7933C72.5102 28.1688 72.7318 28.4596 73.018 28.6658C73.3073 28.872 73.6474 28.9751 74.0383 28.9751C74.2999 28.9751 74.5368 28.9274 74.7492 28.832C74.9646 28.7335 75.1447 28.5935 75.2893 28.4119C75.4371 28.2304 75.5402 28.0118 75.5986 27.7564H76.942C76.8928 28.215 76.7435 28.6243 76.4942 28.9844C76.2449 29.3445 75.911 29.6276 75.4925 29.8338C75.077 30.04 74.5892 30.1431 74.029 30.1431ZM81.405 30.1431C80.7187 30.1431 80.1278 29.9877 79.6323 29.6768C79.1399 29.3629 78.7613 28.9305 78.4966 28.3796C78.2319 27.8287 78.0996 27.1978 78.0996 26.4869C78.0996 25.7667 78.235 25.1312 78.5059 24.5803C78.7767 24.0263 79.1583 23.5939 79.6507 23.283C80.1432 22.9722 80.7233 22.8168 81.3912 22.8168C81.9297 22.8168 82.4099 22.9168 82.8315 23.1168C83.2531 23.3138 83.5932 23.5908 83.8517 23.9478C84.1133 24.3048 84.2688 24.7218 84.318 25.1989H82.9746C82.9007 24.8665 82.7315 24.5803 82.4668 24.3402C82.2052 24.1001 81.8543 23.9801 81.4142 23.9801C81.0295 23.9801 80.6925 24.0817 80.4032 24.2848C80.117 24.4848 79.8939 24.7711 79.7338 25.1435C79.5738 25.5128 79.4938 25.9498 79.4938 26.4545C79.4938 26.9716 79.5723 27.4179 79.7292 27.7933C79.8862 28.1688 80.1078 28.4596 80.394 28.6658C80.6833 28.872 81.0234 28.9751 81.4142 28.9751C81.6758 28.9751 81.9128 28.9274 82.1252 28.832C82.3406 28.7335 82.5207 28.5935 82.6653 28.4119C82.813 28.2304 82.9161 28.0118 82.9746 27.7564H84.318C84.2688 28.215 84.1195 28.6243 83.8702 28.9844C83.6209 29.3445 83.287 29.6276 82.8684 29.8338C82.4529 30.04 81.9651 30.1431 81.405 30.1431ZM88.8502 30.1431C88.1516 30.1431 87.5499 29.9938 87.0452 29.6953C86.5435 29.3937 86.1557 28.9705 85.8818 28.4258C85.611 27.878 85.4756 27.2363 85.4756 26.5007C85.4756 25.7744 85.611 25.1342 85.8818 24.5803C86.1557 24.0263 86.5374 23.5939 87.0267 23.283C87.5191 22.9722 88.0947 22.8168 88.7533 22.8168C89.1534 22.8168 89.5412 22.8829 89.9166 23.0153C90.2921 23.1476 90.6291 23.3554 90.9276 23.6385C91.2262 23.9216 91.4616 24.2894 91.634 24.7418C91.8063 25.1912 91.8925 25.7375 91.8925 26.3807V26.87H86.2558V25.8359H90.5399C90.5399 25.4728 90.466 25.1512 90.3183 24.8711C90.1705 24.5879 89.9628 24.3648 89.695 24.2017C89.4304 24.0386 89.1195 23.957 88.7625 23.957C88.3747 23.957 88.0362 24.0524 87.7469 24.2433C87.4607 24.431 87.2391 24.6772 87.0821 24.9819C86.9282 25.2835 86.8513 25.6113 86.8513 25.9652V26.7731C86.8513 27.247 86.9344 27.6502 87.1006 27.9826C87.2699 28.315 87.5053 28.5689 87.8069 28.7443C88.1085 28.9167 88.4609 29.0028 88.8641 29.0028C89.1257 29.0028 89.3642 28.9659 89.5796 28.892C89.7951 28.8151 89.9813 28.7012 90.1382 28.5504C90.2952 28.3996 90.4152 28.2134 90.4983 27.9918L91.8048 28.2273C91.7001 28.612 91.5124 28.949 91.2416 29.2383C90.9738 29.5245 90.6368 29.7476 90.2306 29.9077C89.8274 30.0646 89.3673 30.1431 88.8502 30.1431ZM98.7376 24.6403L97.4865 24.8619C97.4342 24.7018 97.3511 24.5495 97.2372 24.4048C97.1264 24.2602 96.9756 24.1417 96.7848 24.0494C96.594 23.957 96.3555 23.9109 96.0692 23.9109C95.6784 23.9109 95.3522 23.9986 95.0906 24.174C94.829 24.3464 94.6982 24.5695 94.6982 24.8434C94.6982 25.0804 94.7859 25.2712 94.9613 25.4158C95.1367 25.5605 95.4199 25.679 95.8107 25.7713L96.9371 26.0298C97.5896 26.1806 98.0759 26.413 98.396 26.7269C98.716 27.0408 98.8761 27.4486 98.8761 27.9503C98.8761 28.375 98.753 28.7536 98.5067 29.0859C98.2636 29.4152 97.9235 29.6738 97.4865 29.8615C97.0526 30.0492 96.5494 30.1431 95.9769 30.1431C95.1829 30.1431 94.535 29.9738 94.0334 29.6353C93.5317 29.2937 93.224 28.8089 93.1101 28.1811L94.4442 27.978C94.5273 28.3258 94.6982 28.5889 94.9567 28.7674C95.2152 28.9428 95.5522 29.0305 95.9677 29.0305C96.4201 29.0305 96.7817 28.9367 97.0526 28.7489C97.3234 28.5581 97.4588 28.3258 97.4588 28.0518C97.4588 27.8303 97.3757 27.6441 97.2095 27.4933C97.0464 27.3424 96.7956 27.2286 96.457 27.1516L95.2567 26.8885C94.5951 26.7377 94.1057 26.4976 93.7887 26.1683C93.4748 25.839 93.3178 25.422 93.3178 24.9173C93.3178 24.4987 93.4348 24.1325 93.6687 23.8185C93.9026 23.5046 94.2257 23.2599 94.6381 23.0845C95.0505 22.906 95.523 22.8168 96.0554 22.8168C96.8217 22.8168 97.425 22.983 97.8651 23.3153C98.3052 23.6446 98.596 24.0863 98.7376 24.6403ZM105.707 24.6403L104.456 24.8619C104.404 24.7018 104.321 24.5495 104.207 24.4048C104.096 24.2602 103.945 24.1417 103.755 24.0494C103.564 23.957 103.325 23.9109 103.039 23.9109C102.648 23.9109 102.322 23.9986 102.06 24.174C101.799 24.3464 101.668 24.5695 101.668 24.8434C101.668 25.0804 101.756 25.2712 101.931 25.4158C102.106 25.5605 102.39 25.679 102.78 25.7713L103.907 26.0298C104.559 26.1806 105.046 26.413 105.366 26.7269C105.686 27.0408 105.846 27.4486 105.846 27.9503C105.846 28.375 105.723 28.7536 105.476 29.0859C105.233 29.4152 104.893 29.6738 104.456 29.8615C104.022 30.0492 103.519 30.1431 102.947 30.1431C102.153 30.1431 101.505 29.9738 101.003 29.6353C100.501 29.2937 100.194 28.8089 100.08 28.1811L101.414 27.978C101.497 28.3258 101.668 28.5889 101.926 28.7674C102.185 28.9428 102.522 29.0305 102.937 29.0305C103.39 29.0305 103.751 28.9367 104.022 28.7489C104.293 28.5581 104.429 28.3258 104.429 28.0518C104.429 27.8303 104.345 27.6441 104.179 27.4933C104.016 27.3424 103.765 27.2286 103.427 27.1516L102.226 26.8885C101.565 26.7377 101.075 26.4976 100.758 26.1683C100.445 25.839 100.288 25.422 100.288 24.9173C100.288 24.4987 100.405 24.1325 100.638 23.8185C100.872 23.5046 101.195 23.2599 101.608 23.0845C102.02 22.906 102.493 22.8168 103.025 22.8168C103.791 22.8168 104.395 22.983 104.835 23.3153C105.275 23.6446 105.566 24.0863 105.707 24.6403ZM118.767 23.62H117.327C117.272 23.3123 117.168 23.0414 117.018 22.8075C116.867 22.5736 116.682 22.3751 116.464 22.212C116.245 22.0489 116.001 21.9258 115.73 21.8427C115.462 21.7596 115.177 21.718 114.876 21.718C114.331 21.718 113.843 21.855 113.412 22.1289C112.984 22.4028 112.646 22.8045 112.397 23.3338C112.15 23.8632 112.027 24.5095 112.027 25.2727C112.027 26.0421 112.15 26.6915 112.397 27.2209C112.646 27.7502 112.986 28.1503 113.417 28.4212C113.848 28.692 114.332 28.8274 114.871 28.8274C115.17 28.8274 115.453 28.7874 115.72 28.7074C115.991 28.6243 116.236 28.5027 116.454 28.3427C116.673 28.1826 116.858 27.9872 117.008 27.7564C117.162 27.5225 117.268 27.2547 117.327 26.9531L118.767 26.9577C118.69 27.4225 118.541 27.8503 118.32 28.2411C118.101 28.6289 117.819 28.9644 117.475 29.2475C117.133 29.5276 116.742 29.7446 116.302 29.8984C115.862 30.0523 115.382 30.1293 114.862 30.1293C114.043 30.1293 113.314 29.9354 112.674 29.5476C112.033 29.1567 111.529 28.5981 111.159 27.8718C110.793 27.1455 110.61 26.2791 110.61 25.2727C110.61 24.2633 110.795 23.3969 111.164 22.6737C111.533 21.9473 112.038 21.3903 112.678 21.0025C113.318 20.6116 114.046 20.4162 114.862 20.4162C115.363 20.4162 115.831 20.4885 116.265 20.6332C116.702 20.7747 117.095 20.984 117.442 21.261C117.79 21.5349 118.078 21.8704 118.306 22.2674C118.533 22.6613 118.687 23.1122 118.767 23.62ZM121.453 22.9091L123.018 25.6697L124.597 22.9091H126.106L123.895 26.4545L126.125 30H124.615L123.018 27.3501L121.425 30H119.911L122.118 26.4545L119.939 22.9091H121.453ZM135.847 25.2727C135.847 26.2822 135.662 27.1501 135.293 27.8764C134.924 28.5997 134.418 29.1567 133.774 29.5476C133.134 29.9354 132.406 30.1293 131.591 30.1293C130.772 30.1293 130.041 29.9354 129.398 29.5476C128.758 29.1567 128.253 28.5981 127.884 27.8718C127.514 27.1455 127.33 26.2791 127.33 25.2727C127.33 24.2633 127.514 23.3969 127.884 22.6737C128.253 21.9473 128.758 21.3903 129.398 21.0025C130.041 20.6116 130.772 20.4162 131.591 20.4162C132.406 20.4162 133.134 20.6116 133.774 21.0025C134.418 21.3903 134.924 21.9473 135.293 22.6737C135.662 23.3969 135.847 24.2633 135.847 25.2727ZM134.434 25.2727C134.434 24.5033 134.31 23.8555 134.061 23.3292C133.814 22.7998 133.476 22.3997 133.045 22.1289C132.617 21.855 132.132 21.718 131.591 21.718C131.046 21.718 130.56 21.855 130.132 22.1289C129.704 22.3997 129.366 22.7998 129.116 23.3292C128.87 23.8555 128.747 24.5033 128.747 25.2727C128.747 26.0421 128.87 26.6915 129.116 27.2209C129.366 27.7472 129.704 28.1473 130.132 28.4212C130.56 28.692 131.046 28.8274 131.591 28.8274C132.132 28.8274 132.617 28.692 133.045 28.4212C133.476 28.1473 133.814 27.7472 134.061 27.2209C134.31 26.6915 134.434 26.0421 134.434 25.2727ZM138.895 25.7898V30H137.515V22.9091H138.84V24.0632H138.927C139.091 23.6877 139.346 23.3861 139.694 23.1584C140.045 22.9306 140.486 22.8168 141.019 22.8168C141.502 22.8168 141.925 22.9183 142.288 23.1214C142.651 23.3215 142.933 23.62 143.133 24.017C143.333 24.4141 143.433 24.9049 143.433 25.4897V30H142.053V25.6559C142.053 25.1419 141.919 24.7403 141.651 24.451C141.383 24.1586 141.016 24.0124 140.548 24.0124C140.228 24.0124 139.943 24.0817 139.694 24.2202C139.448 24.3587 139.252 24.5618 139.108 24.8295C138.966 25.0942 138.895 25.4143 138.895 25.7898ZM148.34 30.1431C147.642 30.1431 147.04 29.9938 146.535 29.6953C146.034 29.3937 145.646 28.9705 145.372 28.4258C145.101 27.878 144.966 27.2363 144.966 26.5007C144.966 25.7744 145.101 25.1342 145.372 24.5803C145.646 24.0263 146.028 23.5939 146.517 23.283C147.009 22.9722 147.585 22.8168 148.244 22.8168C148.644 22.8168 149.031 22.8829 149.407 23.0153C149.782 23.1476 150.119 23.3554 150.418 23.6385C150.716 23.9216 150.952 24.2894 151.124 24.7418C151.297 25.1912 151.383 25.7375 151.383 26.3807V26.87H145.746V25.8359H150.03C150.03 25.4728 149.956 25.1512 149.809 24.8711C149.661 24.5879 149.453 24.3648 149.185 24.2017C148.921 24.0386 148.61 23.957 148.253 23.957C147.865 23.957 147.526 24.0524 147.237 24.2433C146.951 24.431 146.729 24.6772 146.572 24.9819C146.418 25.2835 146.342 25.6113 146.342 25.9652V26.7731C146.342 27.247 146.425 27.6502 146.591 27.9826C146.76 28.315 146.996 28.5689 147.297 28.7443C147.599 28.9167 147.951 29.0028 148.354 29.0028C148.616 29.0028 148.854 28.9659 149.07 28.892C149.285 28.8151 149.472 28.7012 149.628 28.5504C149.785 28.3996 149.905 28.2134 149.989 27.9918L151.295 28.2273C151.19 28.612 151.003 28.949 150.732 29.2383C150.464 29.5245 150.127 29.7476 149.721 29.9077C149.318 30.0646 148.858 30.1431 148.34 30.1431ZM157.264 30H155.75L159.152 20.5455H160.8L164.203 30H162.688L160.016 22.2628H159.942L157.264 30ZM157.518 26.2976H162.43V27.4979H157.518V26.2976ZM170.72 24.6403L169.469 24.8619C169.417 24.7018 169.334 24.5495 169.22 24.4048C169.109 24.2602 168.958 24.1417 168.767 24.0494C168.576 23.957 168.338 23.9109 168.052 23.9109C167.661 23.9109 167.335 23.9986 167.073 24.174C166.811 24.3464 166.681 24.5695 166.681 24.8434C166.681 25.0804 166.768 25.2712 166.944 25.4158C167.119 25.5605 167.402 25.679 167.793 25.7713L168.92 26.0298C169.572 26.1806 170.058 26.413 170.378 26.7269C170.698 27.0408 170.858 27.4486 170.858 27.9503C170.858 28.375 170.735 28.7536 170.489 29.0859C170.246 29.4152 169.906 29.6738 169.469 29.8615C169.035 30.0492 168.532 30.1431 167.959 30.1431C167.165 30.1431 166.517 29.9738 166.016 29.6353C165.514 29.2937 165.206 28.8089 165.093 28.1811L166.427 27.978C166.51 28.3258 166.681 28.5889 166.939 28.7674C167.198 28.9428 167.535 29.0305 167.95 29.0305C168.403 29.0305 168.764 28.9367 169.035 28.7489C169.306 28.5581 169.441 28.3258 169.441 28.0518C169.441 27.8303 169.358 27.6441 169.192 27.4933C169.029 27.3424 168.778 27.2286 168.439 27.1516L167.239 26.8885C166.577 26.7377 166.088 26.4976 165.771 26.1683C165.457 25.839 165.3 25.422 165.3 24.9173C165.3 24.4987 165.417 24.1325 165.651 23.8185C165.885 23.5046 166.208 23.2599 166.621 23.0845C167.033 22.906 167.505 22.8168 168.038 22.8168C168.804 22.8168 169.407 22.983 169.847 23.3153C170.288 23.6446 170.578 24.0863 170.72 24.6403ZM177.69 24.6403L176.439 24.8619C176.386 24.7018 176.303 24.5495 176.189 24.4048C176.079 24.2602 175.928 24.1417 175.737 24.0494C175.546 23.957 175.308 23.9109 175.021 23.9109C174.631 23.9109 174.304 23.9986 174.043 24.174C173.781 24.3464 173.65 24.5695 173.65 24.8434C173.65 25.0804 173.738 25.2712 173.913 25.4158C174.089 25.5605 174.372 25.679 174.763 25.7713L175.889 26.0298C176.542 26.1806 177.028 26.413 177.348 26.7269C177.668 27.0408 177.828 27.4486 177.828 27.9503C177.828 28.375 177.705 28.7536 177.459 29.0859C177.216 29.4152 176.876 29.6738 176.439 29.8615C176.005 30.0492 175.502 30.1431 174.929 30.1431C174.135 30.1431 173.487 29.9738 172.986 29.6353C172.484 29.2937 172.176 28.8089 172.062 28.1811L173.396 27.978C173.479 28.3258 173.65 28.5889 173.909 28.7674C174.167 28.9428 174.504 29.0305 174.92 29.0305C175.372 29.0305 175.734 28.9367 176.005 28.7489C176.276 28.5581 176.411 28.3258 176.411 28.0518C176.411 27.8303 176.328 27.6441 176.162 27.4933C175.999 27.3424 175.748 27.2286 175.409 27.1516L174.209 26.8885C173.547 26.7377 173.058 26.4976 172.741 26.1683C172.427 25.839 172.27 25.422 172.27 24.9173C172.27 24.4987 172.387 24.1325 172.621 23.8185C172.855 23.5046 173.178 23.2599 173.59 23.0845C174.003 22.906 174.475 22.8168 175.008 22.8168C175.774 22.8168 176.377 22.983 176.817 23.3153C177.257 23.6446 177.548 24.0863 177.69 24.6403ZM179.346 30V22.9091H180.726V30H179.346ZM180.043 21.815C179.803 21.815 179.597 21.735 179.424 21.5749C179.255 21.4118 179.17 21.2179 179.17 20.9933C179.17 20.7655 179.255 20.5716 179.424 20.4116C179.597 20.2485 179.803 20.1669 180.043 20.1669C180.283 20.1669 180.488 20.2485 180.657 20.4116C180.829 20.5716 180.915 20.7655 180.915 20.9933C180.915 21.2179 180.829 21.4118 180.657 21.5749C180.488 21.735 180.283 21.815 180.043 21.815ZM187.897 24.6403L186.646 24.8619C186.593 24.7018 186.51 24.5495 186.396 24.4048C186.286 24.2602 186.135 24.1417 185.944 24.0494C185.753 23.957 185.515 23.9109 185.228 23.9109C184.838 23.9109 184.511 23.9986 184.25 24.174C183.988 24.3464 183.857 24.5695 183.857 24.8434C183.857 25.0804 183.945 25.2712 184.12 25.4158C184.296 25.5605 184.579 25.679 184.97 25.7713L186.096 26.0298C186.749 26.1806 187.235 26.413 187.555 26.7269C187.875 27.0408 188.035 27.4486 188.035 27.9503C188.035 28.375 187.912 28.7536 187.666 29.0859C187.423 29.4152 187.083 29.6738 186.646 29.8615C186.212 30.0492 185.709 30.1431 185.136 30.1431C184.342 30.1431 183.694 29.9738 183.193 29.6353C182.691 29.2937 182.383 28.8089 182.269 28.1811L183.603 27.978C183.687 28.3258 183.857 28.5889 184.116 28.7674C184.374 28.9428 184.711 29.0305 185.127 29.0305C185.579 29.0305 185.941 28.9367 186.212 28.7489C186.483 28.5581 186.618 28.3258 186.618 28.0518C186.618 27.8303 186.535 27.6441 186.369 27.4933C186.206 27.3424 185.955 27.2286 185.616 27.1516L184.416 26.8885C183.754 26.7377 183.265 26.4976 182.948 26.1683C182.634 25.839 182.477 25.422 182.477 24.9173C182.477 24.4987 182.594 24.1325 182.828 23.8185C183.062 23.5046 183.385 23.2599 183.797 23.0845C184.21 22.906 184.682 22.8168 185.215 22.8168C185.981 22.8168 186.584 22.983 187.024 23.3153C187.464 23.6446 187.755 24.0863 187.897 24.6403ZM192.863 22.9091V24.017H188.99V22.9091H192.863ZM190.028 21.2102H191.409V27.918C191.409 28.1857 191.449 28.3873 191.529 28.5227C191.609 28.6551 191.712 28.7459 191.838 28.7951C191.967 28.8413 192.107 28.8643 192.258 28.8643C192.369 28.8643 192.466 28.8567 192.549 28.8413C192.632 28.8259 192.697 28.8136 192.743 28.8043L192.992 29.9446C192.912 29.9754 192.798 30.0062 192.651 30.0369C192.503 30.0708 192.318 30.0893 192.097 30.0923C191.733 30.0985 191.395 30.0339 191.081 29.8984C190.767 29.763 190.513 29.5537 190.319 29.2706C190.125 28.9875 190.028 28.632 190.028 28.2042V21.2102ZM201.205 22.9091V24.017H197.198V22.9091H201.205ZM198.297 30V22.0874C198.297 21.6442 198.393 21.2764 198.587 20.984C198.781 20.6886 199.038 20.4685 199.358 20.3239C199.678 20.1761 200.026 20.1023 200.402 20.1023C200.679 20.1023 200.916 20.1254 201.113 20.1715C201.31 20.2146 201.456 20.2546 201.551 20.2915L201.228 21.4087C201.163 21.3903 201.08 21.3687 200.979 21.3441C200.877 21.3164 200.754 21.3026 200.609 21.3026C200.274 21.3026 200.034 21.3857 199.889 21.5518C199.748 21.718 199.677 21.9581 199.677 22.272V30H198.297ZM205.406 30.1431C204.707 30.1431 204.106 29.9938 203.601 29.6953C203.099 29.3937 202.711 28.9705 202.438 28.4258C202.167 27.878 202.031 27.2363 202.031 26.5007C202.031 25.7744 202.167 25.1342 202.438 24.5803C202.711 24.0263 203.093 23.5939 203.582 23.283C204.075 22.9722 204.65 22.8168 205.309 22.8168C205.709 22.8168 206.097 22.8829 206.472 23.0153C206.848 23.1476 207.185 23.3554 207.483 23.6385C207.782 23.9216 208.017 24.2894 208.19 24.7418C208.362 25.1912 208.448 25.7375 208.448 26.3807V26.87H202.811V25.8359H207.096C207.096 25.4728 207.022 25.1512 206.874 24.8711C206.726 24.5879 206.518 24.3648 206.251 24.2017C205.986 24.0386 205.675 23.957 205.318 23.957C204.93 23.957 204.592 24.0524 204.303 24.2433C204.016 24.431 203.795 24.6772 203.638 24.9819C203.484 25.2835 203.407 25.6113 203.407 25.9652V26.7731C203.407 27.247 203.49 27.6502 203.656 27.9826C203.826 28.315 204.061 28.5689 204.363 28.7443C204.664 28.9167 205.017 29.0028 205.42 29.0028C205.681 29.0028 205.92 28.9659 206.135 28.892C206.351 28.8151 206.537 28.7012 206.694 28.5504C206.851 28.3996 206.971 28.2134 207.054 27.9918L208.36 28.2273C208.256 28.612 208.068 28.949 207.797 29.2383C207.529 29.5245 207.192 29.7476 206.786 29.9077C206.383 30.0646 205.923 30.1431 205.406 30.1431ZM212.043 30.157C211.594 30.157 211.188 30.0739 210.824 29.9077C210.461 29.7384 210.174 29.4937 209.961 29.1737C209.752 28.8536 209.647 28.4612 209.647 27.9964C209.647 27.5964 209.724 27.267 209.878 27.0085C210.032 26.75 210.24 26.5453 210.501 26.3945C210.763 26.2437 211.055 26.1299 211.378 26.0529C211.702 25.976 212.031 25.9175 212.366 25.8775C212.791 25.8282 213.136 25.7882 213.4 25.7575C213.665 25.7236 213.858 25.6697 213.978 25.5959C214.098 25.522 214.158 25.402 214.158 25.2358V25.2035C214.158 24.8003 214.044 24.4879 213.816 24.2663C213.591 24.0447 213.256 23.9339 212.81 23.9339C212.345 23.9339 211.979 24.037 211.711 24.2433C211.446 24.4464 211.263 24.6726 211.161 24.9219L209.864 24.6264C210.018 24.1955 210.243 23.8478 210.538 23.5831C210.837 23.3153 211.18 23.1214 211.568 23.0014C211.956 22.8783 212.363 22.8168 212.791 22.8168C213.074 22.8168 213.374 22.8506 213.691 22.9183C214.011 22.983 214.31 23.103 214.587 23.2784C214.867 23.4538 215.096 23.7047 215.275 24.0309C215.453 24.354 215.543 24.7741 215.543 25.2912V30H214.195V29.0305H214.139C214.05 29.209 213.916 29.3845 213.737 29.5568C213.559 29.7292 213.33 29.8723 213.05 29.9862C212.77 30.1 212.434 30.157 212.043 30.157ZM212.343 29.049C212.725 29.049 213.051 28.9736 213.322 28.8228C213.596 28.672 213.804 28.475 213.945 28.2319C214.09 27.9857 214.162 27.7225 214.162 27.4425V26.5284C214.113 26.5777 214.018 26.6238 213.876 26.6669C213.737 26.7069 213.579 26.7423 213.4 26.7731C213.222 26.8008 213.048 26.8269 212.879 26.8516C212.71 26.8731 212.568 26.8916 212.454 26.907C212.186 26.9408 211.942 26.9978 211.72 27.0778C211.502 27.1578 211.326 27.2732 211.194 27.424C211.065 27.5717 211 27.7687 211 28.0149C211 28.3565 211.126 28.6151 211.378 28.7905C211.631 28.9628 211.952 29.049 212.343 29.049ZM220.691 22.9091V24.017H216.818V22.9091H220.691ZM217.857 21.2102H219.237V27.918C219.237 28.1857 219.277 28.3873 219.357 28.5227C219.437 28.6551 219.54 28.7459 219.666 28.7951C219.795 28.8413 219.935 28.8643 220.086 28.8643C220.197 28.8643 220.294 28.8567 220.377 28.8413C220.46 28.8259 220.525 28.8136 220.571 28.8043L220.82 29.9446C220.74 29.9754 220.626 30.0062 220.479 30.0369C220.331 30.0708 220.146 30.0893 219.925 30.0923C219.562 30.0985 219.223 30.0339 218.909 29.8984C218.595 29.763 218.341 29.5537 218.147 29.2706C217.953 28.9875 217.857 28.632 217.857 28.2042V21.2102ZM226.71 27.0593V22.9091H228.095V30H226.737V28.772H226.664C226.501 29.1506 226.239 29.466 225.879 29.7184C225.522 29.9677 225.077 30.0923 224.545 30.0923C224.089 30.0923 223.686 29.9923 223.335 29.7923C222.987 29.5891 222.713 29.2891 222.513 28.892C222.316 28.495 222.218 28.0041 222.218 27.4194V22.9091H223.598V27.2532C223.598 27.7364 223.732 28.1211 224 28.4073C224.268 28.6935 224.615 28.8366 225.043 28.8366C225.302 28.8366 225.559 28.772 225.814 28.6428C226.073 28.5135 226.287 28.3181 226.456 28.0565C226.628 27.7949 226.713 27.4625 226.71 27.0593ZM229.949 30V22.9091H231.284V24.0355H231.357C231.487 23.6539 231.714 23.3538 232.041 23.1353C232.37 22.9137 232.742 22.8029 233.158 22.8029C233.244 22.8029 233.346 22.806 233.463 22.8121C233.583 22.8183 233.676 22.826 233.744 22.8352V24.1555C233.689 24.1402 233.59 24.1232 233.449 24.1048C233.307 24.0832 233.166 24.0724 233.024 24.0724C232.698 24.0724 232.407 24.1417 232.151 24.2802C231.899 24.4156 231.699 24.6049 231.551 24.848C231.404 25.0881 231.33 25.362 231.33 25.6697V30H229.949ZM237.741 30.1431C237.042 30.1431 236.441 29.9938 235.936 29.6953C235.434 29.3937 235.046 28.9705 234.772 28.4258C234.502 27.878 234.366 27.2363 234.366 26.5007C234.366 25.7744 234.502 25.1342 234.772 24.5803C235.046 24.0263 235.428 23.5939 235.917 23.283C236.41 22.9722 236.985 22.8168 237.644 22.8168C238.044 22.8168 238.432 22.8829 238.807 23.0153C239.183 23.1476 239.52 23.3554 239.818 23.6385C240.117 23.9216 240.352 24.2894 240.525 24.7418C240.697 25.1912 240.783 25.7375 240.783 26.3807V26.87H235.146V25.8359H239.43C239.43 25.4728 239.357 25.1512 239.209 24.8711C239.061 24.5879 238.853 24.3648 238.586 24.2017C238.321 24.0386 238.01 23.957 237.653 23.957C237.265 23.957 236.927 24.0524 236.638 24.2433C236.351 24.431 236.13 24.6772 235.973 24.9819C235.819 25.2835 235.742 25.6113 235.742 25.9652V26.7731C235.742 27.247 235.825 27.6502 235.991 27.9826C236.16 28.315 236.396 28.5689 236.698 28.7443C236.999 28.9167 237.352 29.0028 237.755 29.0028C238.016 29.0028 238.255 28.9659 238.47 28.892C238.686 28.8151 238.872 28.7012 239.029 28.5504C239.186 28.3996 239.306 28.2134 239.389 27.9918L240.695 28.2273C240.591 28.612 240.403 28.949 240.132 29.2383C239.864 29.5245 239.527 29.7476 239.121 29.9077C238.718 30.0646 238.258 30.1431 237.741 30.1431ZM247.628 24.6403L246.377 24.8619C246.325 24.7018 246.242 24.5495 246.128 24.4048C246.017 24.2602 245.866 24.1417 245.675 24.0494C245.485 23.957 245.246 23.9109 244.96 23.9109C244.569 23.9109 244.243 23.9986 243.981 24.174C243.72 24.3464 243.589 24.5695 243.589 24.8434C243.589 25.0804 243.676 25.2712 243.852 25.4158C244.027 25.5605 244.31 25.679 244.701 25.7713L245.828 26.0298C246.48 26.1806 246.967 26.413 247.287 26.7269C247.607 27.0408 247.767 27.4486 247.767 27.9503C247.767 28.375 247.644 28.7536 247.397 29.0859C247.154 29.4152 246.814 29.6738 246.377 29.8615C245.943 30.0492 245.44 30.1431 244.868 30.1431C244.074 30.1431 243.426 29.9738 242.924 29.6353C242.422 29.2937 242.115 28.8089 242.001 28.1811L243.335 27.978C243.418 28.3258 243.589 28.5889 243.847 28.7674C244.106 28.9428 244.443 29.0305 244.858 29.0305C245.311 29.0305 245.672 28.9367 245.943 28.7489C246.214 28.5581 246.349 28.3258 246.349 28.0518C246.349 27.8303 246.266 27.6441 246.1 27.4933C245.937 27.3424 245.686 27.2286 245.348 27.1516L244.147 26.8885C243.486 26.7377 242.996 26.4976 242.679 26.1683C242.365 25.839 242.208 25.422 242.208 24.9173C242.208 24.4987 242.325 24.1325 242.559 23.8185C242.793 23.5046 243.116 23.2599 243.529 23.0845C243.941 22.906 244.414 22.8168 244.946 22.8168C245.712 22.8168 246.316 22.983 246.756 23.3153C247.196 23.6446 247.487 24.0863 247.628 24.6403ZM251.08 28.7074L251.011 29.2106C250.965 29.5799 250.886 29.9646 250.775 30.3647C250.668 30.7679 250.555 31.1418 250.438 31.4865C250.325 31.8312 250.231 32.1051 250.157 32.3082H249.178C249.218 32.1174 249.274 31.8589 249.344 31.5327C249.415 31.2095 249.484 30.8479 249.552 30.4478C249.62 30.0477 249.671 29.6399 249.704 29.2244L249.751 28.7074H251.08ZM257.19 32.6591C256.984 32.6591 256.796 32.6422 256.627 32.6083C256.458 32.5775 256.331 32.5437 256.248 32.5067L256.581 31.3757C256.833 31.4434 257.058 31.4727 257.255 31.4634C257.452 31.4542 257.626 31.3803 257.776 31.2418C257.93 31.1033 258.066 30.8771 258.183 30.5632L258.353 30.0923L255.759 22.9091H257.236L259.032 28.4119H259.106L260.902 22.9091H262.384L259.461 30.9464C259.326 31.3157 259.154 31.6281 258.944 31.8835C258.735 32.142 258.486 32.3359 258.196 32.4652C257.907 32.5945 257.572 32.6591 257.19 32.6591ZM266.426 30.1431C265.762 30.1431 265.182 29.9908 264.686 29.6861C264.191 29.3814 263.806 28.9551 263.532 28.4073C263.258 27.8595 263.121 27.2193 263.121 26.4869C263.121 25.7513 263.258 25.1081 263.532 24.5572C263.806 24.0063 264.191 23.5785 264.686 23.2738C265.182 22.9691 265.762 22.8168 266.426 22.8168C267.091 22.8168 267.671 22.9691 268.167 23.2738C268.662 23.5785 269.047 24.0063 269.321 24.5572C269.595 25.1081 269.732 25.7513 269.732 26.4869C269.732 27.2193 269.595 27.8595 269.321 28.4073C269.047 28.9551 268.662 29.3814 268.167 29.6861C267.671 29.9908 267.091 30.1431 266.426 30.1431ZM266.431 28.9844C266.862 28.9844 267.219 28.8705 267.502 28.6428C267.785 28.415 267.995 28.1119 268.13 27.7333C268.268 27.3548 268.338 26.9377 268.338 26.4822C268.338 26.0298 268.268 25.6143 268.13 25.2358C267.995 24.8542 267.785 24.5479 267.502 24.3171C267.219 24.0863 266.862 23.9709 266.431 23.9709C265.997 23.9709 265.637 24.0863 265.351 24.3171C265.068 24.5479 264.857 24.8542 264.718 25.2358C264.583 25.6143 264.515 26.0298 264.515 26.4822C264.515 26.9377 264.583 27.3548 264.718 27.7333C264.857 28.1119 265.068 28.415 265.351 28.6428C265.637 28.8705 265.997 28.9844 266.431 28.9844ZM275.764 27.0593V22.9091H277.149V30H275.792V28.772H275.718C275.555 29.1506 275.294 29.466 274.934 29.7184C274.576 29.9677 274.132 30.0923 273.599 30.0923C273.144 30.0923 272.741 29.9923 272.39 29.7923C272.042 29.5891 271.768 29.2891 271.568 28.892C271.371 28.495 271.273 28.0041 271.273 27.4194V22.9091H272.653V27.2532C272.653 27.7364 272.787 28.1211 273.055 28.4073C273.322 28.6935 273.67 28.8366 274.098 28.8366C274.356 28.8366 274.613 28.772 274.869 28.6428C275.127 28.5135 275.341 28.3181 275.511 28.0565C275.683 27.7949 275.768 27.4625 275.764 27.0593ZM283.825 25.7898V30H282.445V22.9091H283.769V24.0632H283.857C284.02 23.6877 284.276 23.3861 284.623 23.1584C284.974 22.9306 285.416 22.8168 285.948 22.8168C286.432 22.8168 286.855 22.9183 287.218 23.1214C287.581 23.3215 287.863 23.62 288.063 24.017C288.263 24.4141 288.363 24.9049 288.363 25.4897V30H286.983V25.6559C286.983 25.1419 286.849 24.7403 286.581 24.451C286.313 24.1586 285.945 24.0124 285.478 24.0124C285.157 24.0124 284.873 24.0817 284.623 24.2202C284.377 24.3587 284.182 24.5618 284.037 24.8295C283.896 25.0942 283.825 25.4143 283.825 25.7898ZM293.27 30.1431C292.572 30.1431 291.97 29.9938 291.465 29.6953C290.963 29.3937 290.576 28.9705 290.302 28.4258C290.031 27.878 289.896 27.2363 289.896 26.5007C289.896 25.7744 290.031 25.1342 290.302 24.5803C290.576 24.0263 290.957 23.5939 291.447 23.283C291.939 22.9722 292.515 22.8168 293.173 22.8168C293.573 22.8168 293.961 22.8829 294.337 23.0153C294.712 23.1476 295.049 23.3554 295.348 23.6385C295.646 23.9216 295.882 24.2894 296.054 24.7418C296.226 25.1912 296.312 25.7375 296.312 26.3807V26.87H290.676V25.8359H294.96C294.96 25.4728 294.886 25.1512 294.738 24.8711C294.59 24.5879 294.383 24.3648 294.115 24.2017C293.85 24.0386 293.539 23.957 293.182 23.957C292.795 23.957 292.456 24.0524 292.167 24.2433C291.881 24.431 291.659 24.6772 291.502 24.9819C291.348 25.2835 291.271 25.6113 291.271 25.9652V26.7731C291.271 27.247 291.354 27.6502 291.521 27.9826C291.69 28.315 291.925 28.5689 292.227 28.7443C292.528 28.9167 292.881 29.0028 293.284 29.0028C293.546 29.0028 293.784 28.9659 294 28.892C294.215 28.8151 294.401 28.7012 294.558 28.5504C294.715 28.3996 294.835 28.2134 294.918 27.9918L296.225 28.2273C296.12 28.612 295.932 28.949 295.661 29.2383C295.394 29.5245 295.057 29.7476 294.65 29.9077C294.247 30.0646 293.787 30.1431 293.27 30.1431ZM300.9 30.1431C300.201 30.1431 299.6 29.9938 299.095 29.6953C298.593 29.3937 298.206 28.9705 297.932 28.4258C297.661 27.878 297.525 27.2363 297.525 26.5007C297.525 25.7744 297.661 25.1342 297.932 24.5803C298.206 24.0263 298.587 23.5939 299.077 23.283C299.569 22.9722 300.144 22.8168 300.803 22.8168C301.203 22.8168 301.591 22.8829 301.966 23.0153C302.342 23.1476 302.679 23.3554 302.977 23.6385C303.276 23.9216 303.511 24.2894 303.684 24.7418C303.856 25.1912 303.942 25.7375 303.942 26.3807V26.87H298.306V25.8359H302.59C302.59 25.4728 302.516 25.1512 302.368 24.8711C302.22 24.5879 302.013 24.3648 301.745 24.2017C301.48 24.0386 301.169 23.957 300.812 23.957C300.425 23.957 300.086 24.0524 299.797 24.2433C299.51 24.431 299.289 24.6772 299.132 24.9819C298.978 25.2835 298.901 25.6113 298.901 25.9652V26.7731C298.901 27.247 298.984 27.6502 299.15 27.9826C299.32 28.315 299.555 28.5689 299.857 28.7443C300.158 28.9167 300.511 29.0028 300.914 29.0028C301.175 29.0028 301.414 28.9659 301.629 28.892C301.845 28.8151 302.031 28.7012 302.188 28.5504C302.345 28.3996 302.465 28.2134 302.548 27.9918L303.855 28.2273C303.75 28.612 303.562 28.949 303.291 29.2383C303.024 29.5245 302.687 29.7476 302.28 29.9077C301.877 30.0646 301.417 30.1431 300.9 30.1431ZM308.128 30.1385C307.556 30.1385 307.045 29.9923 306.596 29.6999C306.149 29.4045 305.799 28.9844 305.543 28.4396C305.291 27.8918 305.165 27.2347 305.165 26.4684C305.165 25.7021 305.292 25.0465 305.548 24.5018C305.806 23.957 306.16 23.54 306.609 23.2507C307.059 22.9614 307.568 22.8168 308.138 22.8168C308.578 22.8168 308.932 22.8906 309.199 23.0384C309.47 23.183 309.679 23.3523 309.827 23.5462C309.978 23.7401 310.095 23.9109 310.178 24.0586H310.261V20.5455H311.641V30H310.293V28.8967H310.178C310.095 29.0475 309.975 29.2198 309.818 29.4137C309.664 29.6076 309.452 29.7769 309.181 29.9215C308.91 30.0662 308.559 30.1385 308.128 30.1385ZM308.433 28.9613C308.83 28.9613 309.165 28.8567 309.439 28.6474C309.716 28.435 309.926 28.1411 310.067 27.7656C310.212 27.3902 310.284 26.9531 310.284 26.4545C310.284 25.9621 310.213 25.5312 310.072 25.1619C309.93 24.7926 309.723 24.5049 309.449 24.2987C309.175 24.0924 308.836 23.9893 308.433 23.9893C308.017 23.9893 307.671 24.0971 307.394 24.3125C307.117 24.5279 306.908 24.8219 306.766 25.1942C306.628 25.5666 306.559 25.9867 306.559 26.4545C306.559 26.9285 306.629 27.3548 306.771 27.7333C306.913 28.1119 307.122 28.4119 307.399 28.6335C307.679 28.852 308.024 28.9613 308.433 28.9613ZM320.362 22.9091V24.017H316.489V22.9091H320.362ZM317.527 21.2102H318.908V27.918C318.908 28.1857 318.948 28.3873 319.028 28.5227C319.108 28.6551 319.211 28.7459 319.337 28.7951C319.466 28.8413 319.606 28.8643 319.757 28.8643C319.868 28.8643 319.965 28.8567 320.048 28.8413C320.131 28.8259 320.196 28.8136 320.242 28.8043L320.491 29.9446C320.411 29.9754 320.297 30.0062 320.15 30.0369C320.002 30.0708 319.817 30.0893 319.596 30.0923C319.232 30.0985 318.894 30.0339 318.58 29.8984C318.266 29.763 318.012 29.5537 317.818 29.2706C317.624 28.9875 317.527 28.632 317.527 28.2042V21.2102ZM324.8 30.1431C324.135 30.1431 323.555 29.9908 323.059 29.6861C322.564 29.3814 322.179 28.9551 321.905 28.4073C321.631 27.8595 321.494 27.2193 321.494 26.4869C321.494 25.7513 321.631 25.1081 321.905 24.5572C322.179 24.0063 322.564 23.5785 323.059 23.2738C323.555 22.9691 324.135 22.8168 324.8 22.8168C325.464 22.8168 326.044 22.9691 326.54 23.2738C327.035 23.5785 327.42 24.0063 327.694 24.5572C327.968 25.1081 328.105 25.7513 328.105 26.4869C328.105 27.2193 327.968 27.8595 327.694 28.4073C327.42 28.9551 327.035 29.3814 326.54 29.6861C326.044 29.9908 325.464 30.1431 324.8 30.1431ZM324.804 28.9844C325.235 28.9844 325.592 28.8705 325.875 28.6428C326.158 28.415 326.368 28.1119 326.503 27.7333C326.642 27.3548 326.711 26.9377 326.711 26.4822C326.711 26.0298 326.642 25.6143 326.503 25.2358C326.368 24.8542 326.158 24.5479 325.875 24.3171C325.592 24.0863 325.235 23.9709 324.804 23.9709C324.37 23.9709 324.01 24.0863 323.724 24.3171C323.441 24.5479 323.23 24.8542 323.091 25.2358C322.956 25.6143 322.888 26.0298 322.888 26.4822C322.888 26.9377 322.956 27.3548 323.091 27.7333C323.23 28.1119 323.441 28.415 323.724 28.6428C324.01 28.8705 324.37 28.9844 324.804 28.9844ZM336.396 22.9091V24.017H332.523V22.9091H336.396ZM333.562 21.2102H334.942V27.918C334.942 28.1857 334.982 28.3873 335.062 28.5227C335.142 28.6551 335.245 28.7459 335.371 28.7951C335.501 28.8413 335.641 28.8643 335.791 28.8643C335.902 28.8643 335.999 28.8567 336.082 28.8413C336.165 28.8259 336.23 28.8136 336.276 28.8043L336.525 29.9446C336.445 29.9754 336.331 30.0062 336.184 30.0369C336.036 30.0708 335.851 30.0893 335.63 30.0923C335.267 30.0985 334.928 30.0339 334.614 29.8984C334.3 29.763 334.046 29.5537 333.852 29.2706C333.659 28.9875 333.562 28.632 333.562 28.2042V21.2102ZM342.415 27.0593V22.9091H343.8V30H342.443V28.772H342.369C342.206 29.1506 341.944 29.466 341.584 29.7184C341.227 29.9677 340.782 30.0923 340.25 30.0923C339.794 30.0923 339.391 29.9923 339.04 29.7923C338.692 29.5891 338.419 29.2891 338.218 28.892C338.022 28.495 337.923 28.0041 337.923 27.4194V22.9091H339.303V27.2532C339.303 27.7364 339.437 28.1211 339.705 28.4073C339.973 28.6935 340.321 28.8366 340.748 28.8366C341.007 28.8366 341.264 28.772 341.519 28.6428C341.778 28.5135 341.992 28.3181 342.161 28.0565C342.333 27.7949 342.418 27.4625 342.415 27.0593ZM345.654 30V22.9091H346.989V24.0355H347.062C347.192 23.6539 347.42 23.3538 347.746 23.1353C348.075 22.9137 348.447 22.8029 348.863 22.8029C348.949 22.8029 349.051 22.806 349.168 22.8121C349.288 22.8183 349.382 22.826 349.449 22.8352V24.1555C349.394 24.1402 349.295 24.1232 349.154 24.1048C349.012 24.0832 348.871 24.0724 348.729 24.0724C348.403 24.0724 348.112 24.1417 347.857 24.2802C347.604 24.4156 347.404 24.6049 347.256 24.848C347.109 25.0881 347.035 25.362 347.035 25.6697V30H345.654ZM352.024 25.7898V30H350.644V22.9091H351.969V24.0632H352.056C352.219 23.6877 352.475 23.3861 352.823 23.1584C353.174 22.9306 353.615 22.8168 354.148 22.8168C354.631 22.8168 355.054 22.9183 355.417 23.1214C355.78 23.3215 356.062 23.62 356.262 24.017C356.462 24.4141 356.562 24.9049 356.562 25.4897V30H355.182V25.6559C355.182 25.1419 355.048 24.7403 354.78 24.451C354.512 24.1586 354.145 24.0124 353.677 24.0124C353.357 24.0124 353.072 24.0817 352.823 24.2202C352.576 24.3587 352.381 24.5618 352.236 24.8295C352.095 25.0942 352.024 25.4143 352.024 25.7898ZM47.9148 49.1431C47.25 49.1431 46.6699 48.9908 46.1744 48.6861C45.6789 48.3814 45.2942 47.9551 45.0202 47.4073C44.7463 46.8595 44.6094 46.2193 44.6094 45.4869C44.6094 44.7513 44.7463 44.1081 45.0202 43.5572C45.2942 43.0063 45.6789 42.5785 46.1744 42.2738C46.6699 41.9691 47.25 41.8168 47.9148 41.8168C48.5795 41.8168 49.1597 41.9691 49.6552 42.2738C50.1507 42.5785 50.5354 43.0063 50.8093 43.5572C51.0832 44.1081 51.2202 44.7513 51.2202 45.4869C51.2202 46.2193 51.0832 46.8595 50.8093 47.4073C50.5354 47.9551 50.1507 48.3814 49.6552 48.6861C49.1597 48.9908 48.5795 49.1431 47.9148 49.1431ZM47.9194 47.9844C48.3503 47.9844 48.7073 47.8705 48.9904 47.6428C49.2736 47.415 49.4828 47.1119 49.6183 46.7333C49.7567 46.3548 49.826 45.9377 49.826 45.4822C49.826 45.0298 49.7567 44.6143 49.6183 44.2358C49.4828 43.8542 49.2736 43.5479 48.9904 43.3171C48.7073 43.0863 48.3503 42.9709 47.9194 42.9709C47.4854 42.9709 47.1254 43.0863 46.8391 43.3171C46.556 43.5479 46.3452 43.8542 46.2067 44.2358C46.0713 44.6143 46.0036 45.0298 46.0036 45.4822C46.0036 45.9377 46.0713 46.3548 46.2067 46.7333C46.3452 47.1119 46.556 47.415 46.8391 47.6428C47.1254 47.8705 47.4854 47.9844 47.9194 47.9844ZM54.1412 44.7898V49H52.7609V41.9091H54.0858V43.0632H54.1736C54.3367 42.6877 54.5921 42.3861 54.9399 42.1584C55.2907 41.9306 55.7324 41.8168 56.2648 41.8168C56.748 41.8168 57.1712 41.9183 57.5344 42.1214C57.8975 42.3215 58.1791 42.62 58.3792 43.017C58.5792 43.4141 58.6792 43.9049 58.6792 44.4897V49H57.2989V44.6559C57.2989 44.1419 57.165 43.7403 56.8973 43.451C56.6295 43.1586 56.2617 43.0124 55.7939 43.0124C55.4739 43.0124 55.1892 43.0817 54.9399 43.2202C54.6937 43.3587 54.4983 43.5618 54.3536 43.8295C54.212 44.0942 54.1412 44.4143 54.1412 44.7898ZM67.2809 41.9091V43.017H63.4077V41.9091H67.2809ZM64.4464 40.2102H65.8267V46.918C65.8267 47.1857 65.8667 47.3873 65.9467 47.5227C66.0268 47.6551 66.1299 47.7459 66.256 47.7951C66.3853 47.8413 66.5253 47.8643 66.6761 47.8643C66.7869 47.8643 66.8839 47.8567 66.967 47.8413C67.0501 47.8259 67.1147 47.8136 67.1609 47.8043L67.4102 48.9446C67.3301 48.9754 67.2163 49.0062 67.0685 49.0369C66.9208 49.0708 66.7362 49.0893 66.5146 49.0923C66.1514 49.0985 65.8129 49.0339 65.4989 48.8984C65.185 48.763 64.9311 48.5537 64.7372 48.2706C64.5433 47.9875 64.4464 47.632 64.4464 47.2042V40.2102ZM70.3405 44.7898V49H68.9601V39.5455H70.322V43.0632H70.4097C70.5759 42.6816 70.8298 42.3784 71.1714 42.1538C71.5131 41.9291 71.9593 41.8168 72.5102 41.8168C72.9965 41.8168 73.4212 41.9168 73.7844 42.1168C74.1506 42.3169 74.4337 42.6154 74.6338 43.0124C74.8369 43.4064 74.9385 43.8988 74.9385 44.4897V49H73.5581V44.6559C73.5581 44.1358 73.4243 43.7326 73.1565 43.4464C72.8888 43.1571 72.5164 43.0124 72.0393 43.0124C71.7131 43.0124 71.4207 43.0817 71.1622 43.2202C70.9068 43.3587 70.7052 43.5618 70.5574 43.8295C70.4128 44.0942 70.3405 44.4143 70.3405 44.7898ZM79.8366 49.1431C79.1379 49.1431 78.5363 48.9938 78.0315 48.6953C77.5299 48.3937 77.1421 47.9705 76.8682 47.4258C76.5973 46.878 76.4619 46.2363 76.4619 45.5007C76.4619 44.7744 76.5973 44.1342 76.8682 43.5803C77.1421 43.0263 77.5237 42.5939 78.0131 42.283C78.5055 41.9722 79.081 41.8168 79.7396 41.8168C80.1397 41.8168 80.5275 41.8829 80.903 42.0153C81.2784 42.1476 81.6154 42.3554 81.914 42.6385C82.2125 42.9216 82.4479 43.2894 82.6203 43.7418C82.7926 44.1912 82.8788 44.7375 82.8788 45.3807V45.87H77.2421V44.8359H81.5262C81.5262 44.4728 81.4523 44.1512 81.3046 43.8711C81.1569 43.5879 80.9491 43.3648 80.6814 43.2017C80.4167 43.0386 80.1059 42.957 79.7488 42.957C79.3611 42.957 79.0225 43.0524 78.7332 43.2433C78.447 43.431 78.2254 43.6772 78.0684 43.9819C77.9146 44.2835 77.8376 44.6113 77.8376 44.9652V45.7731C77.8376 46.247 77.9207 46.6502 78.0869 46.9826C78.2562 47.315 78.4916 47.5689 78.7932 47.7443C79.0948 47.9167 79.4472 48.0028 79.8504 48.0028C80.112 48.0028 80.3505 47.9659 80.566 47.892C80.7814 47.8151 80.9676 47.7012 81.1246 47.5504C81.2815 47.3996 81.4015 47.2134 81.4846 46.9918L82.7911 47.2273C82.6865 47.612 82.4987 47.949 82.2279 48.2383C81.9601 48.5245 81.6231 48.7476 81.2169 48.9077C80.8137 49.0646 80.3536 49.1431 79.8366 49.1431ZM95.8142 42.62H94.3738C94.3184 42.3123 94.2153 42.0414 94.0645 41.8075C93.9137 41.5736 93.7291 41.3751 93.5106 41.212C93.2921 41.0489 93.0474 40.9258 92.7765 40.8427C92.5088 40.7596 92.2241 40.718 91.9225 40.718C91.3778 40.718 90.8899 40.855 90.4591 41.1289C90.0313 41.4028 89.6927 41.8045 89.4434 42.3338C89.1972 42.8632 89.0741 43.5095 89.0741 44.2727C89.0741 45.0421 89.1972 45.6915 89.4434 46.2209C89.6927 46.7502 90.0328 47.1503 90.4637 47.4212C90.8946 47.692 91.3793 47.8274 91.9179 47.8274C92.2164 47.8274 92.4996 47.7874 92.7673 47.7074C93.0381 47.6243 93.2828 47.5027 93.5013 47.3427C93.7198 47.1826 93.9045 46.9872 94.0553 46.7564C94.2092 46.5225 94.3154 46.2547 94.3738 45.9531L95.8142 45.9577C95.7372 46.4225 95.588 46.8503 95.3664 47.2411C95.1479 47.6289 94.8663 47.9644 94.5216 48.2475C94.18 48.5276 93.7891 48.7446 93.349 48.8984C92.9089 49.0523 92.4288 49.1293 91.9086 49.1293C91.09 49.1293 90.3606 48.9354 89.7204 48.5476C89.0803 48.1567 88.5756 47.5981 88.2062 46.8718C87.84 46.1455 87.6569 45.2791 87.6569 44.2727C87.6569 43.2633 87.8415 42.3969 88.2108 41.6737C88.5802 40.9473 89.0849 40.3903 89.7251 40.0025C90.3652 39.6116 91.0931 39.4162 91.9086 39.4162C92.4103 39.4162 92.8781 39.4885 93.3121 39.6332C93.7491 39.7747 94.1415 39.984 94.4893 40.261C94.837 40.5349 95.1248 40.8704 95.3525 41.2674C95.5803 41.6613 95.7342 42.1122 95.8142 42.62ZM98.7907 44.7898V49H97.4103V39.5455H98.7722V43.0632H98.8599C99.0261 42.6816 99.28 42.3784 99.6216 42.1538C99.9632 41.9291 100.41 41.8168 100.96 41.8168C101.447 41.8168 101.871 41.9168 102.235 42.1168C102.601 42.3169 102.884 42.6154 103.084 43.0124C103.287 43.4064 103.389 43.8988 103.389 44.4897V49H102.008V44.6559C102.008 44.1358 101.874 43.7326 101.607 43.4464C101.339 43.1571 100.967 43.0124 100.49 43.0124C100.163 43.0124 99.8709 43.0817 99.6124 43.2202C99.3569 43.3587 99.1554 43.5618 99.0076 43.8295C98.863 44.0942 98.7907 44.4143 98.7907 44.7898ZM108.287 49.1431C107.588 49.1431 106.986 48.9938 106.482 48.6953C105.98 48.3937 105.592 47.9705 105.318 47.4258C105.048 46.878 104.912 46.2363 104.912 45.5007C104.912 44.7744 105.048 44.1342 105.318 43.5803C105.592 43.0263 105.974 42.5939 106.463 42.283C106.956 41.9722 107.531 41.8168 108.19 41.8168C108.59 41.8168 108.978 41.8829 109.353 42.0153C109.729 42.1476 110.066 42.3554 110.364 42.6385C110.663 42.9216 110.898 43.2894 111.07 43.7418C111.243 44.1912 111.329 44.7375 111.329 45.3807V45.87H105.692V44.8359H109.976C109.976 44.4728 109.903 44.1512 109.755 43.8711C109.607 43.5879 109.399 43.3648 109.132 43.2017C108.867 43.0386 108.556 42.957 108.199 42.957C107.811 42.957 107.473 43.0524 107.183 43.2433C106.897 43.431 106.676 43.6772 106.519 43.9819C106.365 44.2835 106.288 44.6113 106.288 44.9652V45.7731C106.288 46.247 106.371 46.6502 106.537 46.9826C106.706 47.315 106.942 47.5689 107.243 47.7443C107.545 47.9167 107.897 48.0028 108.301 48.0028C108.562 48.0028 108.801 47.9659 109.016 47.892C109.232 47.8151 109.418 47.7012 109.575 47.5504C109.732 47.3996 109.852 47.2134 109.935 46.9918L111.241 47.2273C111.137 47.612 110.949 47.949 110.678 48.2383C110.41 48.5245 110.073 48.7476 109.667 48.9077C109.264 49.0646 108.804 49.1431 108.287 49.1431ZM115.847 49.1431C115.161 49.1431 114.57 48.9877 114.075 48.6768C113.582 48.3629 113.204 47.9305 112.939 47.3796C112.674 46.8287 112.542 46.1978 112.542 45.4869C112.542 44.7667 112.677 44.1312 112.948 43.5803C113.219 43.0263 113.601 42.5939 114.093 42.283C114.586 41.9722 115.166 41.8168 115.834 41.8168C116.372 41.8168 116.852 41.9168 117.274 42.1168C117.696 42.3138 118.036 42.5908 118.294 42.9478C118.556 43.3048 118.711 43.7218 118.76 44.1989H117.417C117.343 43.8665 117.174 43.5803 116.909 43.3402C116.648 43.1001 116.297 42.9801 115.857 42.9801C115.472 42.9801 115.135 43.0817 114.846 43.2848C114.559 43.4848 114.336 43.7711 114.176 44.1435C114.016 44.5128 113.936 44.9498 113.936 45.4545C113.936 45.9716 114.015 46.4179 114.172 46.7933C114.329 47.1688 114.55 47.4596 114.836 47.6658C115.126 47.872 115.466 47.9751 115.857 47.9751C116.118 47.9751 116.355 47.9274 116.568 47.832C116.783 47.7335 116.963 47.5935 117.108 47.4119C117.255 47.2304 117.359 47.0118 117.417 46.7564H118.76C118.711 47.215 118.562 47.6243 118.313 47.9844C118.063 48.3445 117.729 48.6276 117.311 48.8338C116.895 49.04 116.408 49.1431 115.847 49.1431ZM121.506 46.5948L121.497 44.9098H121.737L124.562 41.9091H126.215L122.993 45.3253H122.776L121.506 46.5948ZM120.237 49V39.5455H121.617V49H120.237ZM124.714 49L122.175 45.63L123.126 44.6651L126.409 49H124.714ZM127.473 49V41.9091H128.798V43.0632H128.885C129.033 42.6723 129.275 42.3677 129.61 42.1491C129.946 41.9276 130.347 41.8168 130.815 41.8168C131.289 41.8168 131.686 41.9276 132.006 42.1491C132.329 42.3707 132.568 42.6754 132.722 43.0632H132.796C132.965 42.6847 133.234 42.383 133.604 42.1584C133.973 41.9306 134.413 41.8168 134.924 41.8168C135.567 41.8168 136.092 42.0183 136.498 42.4215C136.907 42.8247 137.112 43.4325 137.112 44.245V49H135.732V44.3743C135.732 43.8942 135.601 43.5464 135.339 43.331C135.078 43.1155 134.765 43.0078 134.402 43.0078C133.953 43.0078 133.604 43.1463 133.354 43.4233C133.105 43.6972 132.98 44.0496 132.98 44.4805V49H131.605V44.2866C131.605 43.9019 131.485 43.5926 131.244 43.3587C131.004 43.1248 130.692 43.0078 130.307 43.0078C130.046 43.0078 129.804 43.0771 129.583 43.2156C129.364 43.351 129.187 43.5402 129.052 43.7834C128.919 44.0265 128.853 44.3081 128.853 44.6282V49H127.473ZM141.026 49.157C140.576 49.157 140.17 49.0739 139.807 48.9077C139.444 48.7384 139.156 48.4937 138.944 48.1737C138.734 47.8536 138.63 47.4612 138.63 46.9964C138.63 46.5964 138.707 46.267 138.861 46.0085C139.014 45.75 139.222 45.5453 139.484 45.3945C139.745 45.2437 140.038 45.1299 140.361 45.0529C140.684 44.976 141.013 44.9175 141.349 44.8775C141.774 44.8282 142.118 44.7882 142.383 44.7575C142.648 44.7236 142.84 44.6697 142.96 44.5959C143.08 44.522 143.14 44.402 143.14 44.2358V44.2035C143.14 43.8003 143.026 43.4879 142.798 43.2663C142.574 43.0447 142.238 42.9339 141.792 42.9339C141.327 42.9339 140.961 43.037 140.693 43.2433C140.429 43.4464 140.245 43.6726 140.144 43.9219L138.847 43.6264C139.001 43.1955 139.225 42.8478 139.521 42.5831C139.819 42.3153 140.162 42.1214 140.55 42.0014C140.938 41.8783 141.346 41.8168 141.774 41.8168C142.057 41.8168 142.357 41.8506 142.674 41.9183C142.994 41.983 143.292 42.103 143.569 42.2784C143.849 42.4538 144.079 42.7047 144.257 43.0309C144.436 43.354 144.525 43.7741 144.525 44.2912V49H143.177V48.0305H143.122C143.032 48.209 142.898 48.3845 142.72 48.5568C142.541 48.7292 142.312 48.8723 142.032 48.9862C141.752 49.1 141.417 49.157 141.026 49.157ZM141.326 48.049C141.707 48.049 142.034 47.9736 142.304 47.8228C142.578 47.672 142.786 47.475 142.928 47.2319C143.072 46.9857 143.145 46.7225 143.145 46.4425V45.5284C143.095 45.5777 143 45.6238 142.858 45.6669C142.72 45.7069 142.561 45.7423 142.383 45.7731C142.204 45.8008 142.031 45.8269 141.861 45.8516C141.692 45.8731 141.55 45.8916 141.437 45.907C141.169 45.9408 140.924 45.9978 140.703 46.0778C140.484 46.1578 140.309 46.2732 140.176 46.424C140.047 46.5717 139.982 46.7687 139.982 47.0149C139.982 47.3565 140.109 47.6151 140.361 47.7905C140.613 47.9628 140.935 48.049 141.326 48.049ZM146.363 49V41.9091H147.698V43.0355H147.771C147.901 42.6539 148.128 42.3538 148.455 42.1353C148.784 41.9137 149.156 41.8029 149.572 41.8029C149.658 41.8029 149.76 41.806 149.877 41.8121C149.997 41.8183 150.09 41.826 150.158 41.8352V43.1555C150.103 43.1402 150.004 43.1232 149.863 43.1048C149.721 43.0832 149.58 43.0724 149.438 43.0724C149.112 43.0724 148.821 43.1417 148.566 43.2802C148.313 43.4156 148.113 43.6049 147.965 43.848C147.818 44.0881 147.744 44.362 147.744 44.6697V49H146.363ZM152.658 41.9091L154.223 44.6697L155.802 41.9091H157.311L155.1 45.4545L157.33 49H155.82L154.223 46.3501L152.63 49H151.116L153.323 45.4545L151.144 41.9091H152.658ZM162.28 39.5455H164.011L167.021 46.8949H167.132L170.142 39.5455H171.873V49H170.516V42.1584H170.428L167.64 48.9862H166.513L163.725 42.1538H163.637V49H162.28V39.5455ZM181.8 42.62H180.359C180.304 42.3123 180.201 42.0414 180.05 41.8075C179.899 41.5736 179.714 41.3751 179.496 41.212C179.277 41.0489 179.033 40.9258 178.762 40.8427C178.494 40.7596 178.209 40.718 177.908 40.718C177.363 40.718 176.875 40.855 176.444 41.1289C176.017 41.4028 175.678 41.8045 175.429 42.3338C175.183 42.8632 175.059 43.5095 175.059 44.2727C175.059 45.0421 175.183 45.6915 175.429 46.2209C175.678 46.7502 176.018 47.1503 176.449 47.4212C176.88 47.692 177.365 47.8274 177.903 47.8274C178.202 47.8274 178.485 47.7874 178.753 47.7074C179.023 47.6243 179.268 47.5027 179.487 47.3427C179.705 47.1826 179.89 46.9872 180.041 46.7564C180.195 46.5225 180.301 46.2547 180.359 45.9531L181.8 45.9577C181.723 46.4225 181.573 46.8503 181.352 47.2411C181.133 47.6289 180.852 47.9644 180.507 48.2475C180.165 48.5276 179.774 48.7446 179.334 48.8984C178.894 49.0523 178.414 49.1293 177.894 49.1293C177.075 49.1293 176.346 48.9354 175.706 48.5476C175.066 48.1567 174.561 47.5981 174.192 46.8718C173.825 46.1455 173.642 45.2791 173.642 44.2727C173.642 43.2633 173.827 42.3969 174.196 41.6737C174.566 40.9473 175.07 40.3903 175.71 40.0025C176.351 39.6116 177.078 39.4162 177.894 39.4162C178.396 39.4162 178.863 39.4885 179.297 39.6332C179.734 39.7747 180.127 39.984 180.475 40.261C180.822 40.5349 181.11 40.8704 181.338 41.2674C181.566 41.6613 181.72 42.1122 181.8 42.62ZM183.506 49V39.5455H186.877C187.612 39.5455 188.221 39.6793 188.705 39.9471C189.188 40.2148 189.549 40.5811 189.79 41.0458C190.03 41.5075 190.15 42.0276 190.15 42.6062C190.15 43.1879 190.028 43.7111 189.785 44.1758C189.545 44.6374 189.182 45.0037 188.695 45.2745C188.212 45.5423 187.604 45.6761 186.872 45.6761H184.554V44.4666H186.743C187.207 44.4666 187.584 44.3866 187.874 44.2266C188.163 44.0634 188.375 43.8419 188.511 43.5618C188.646 43.2817 188.714 42.9632 188.714 42.6062C188.714 42.2492 188.646 41.9322 188.511 41.6552C188.375 41.3782 188.161 41.1612 187.869 41.0043C187.58 40.8473 187.198 40.7688 186.724 40.7688H184.933V49H183.506ZM198.138 49.1431C197.474 49.1431 196.893 48.9908 196.398 48.6861C195.902 48.3814 195.518 47.9551 195.244 47.4073C194.97 46.8595 194.833 46.2193 194.833 45.4869C194.833 44.7513 194.97 44.1081 195.244 43.5572C195.518 43.0063 195.902 42.5785 196.398 42.2738C196.893 41.9691 197.474 41.8168 198.138 41.8168C198.803 41.8168 199.383 41.9691 199.879 42.2738C200.374 42.5785 200.759 43.0063 201.033 43.5572C201.307 44.1081 201.444 44.7513 201.444 45.4869C201.444 46.2193 201.307 46.8595 201.033 47.4073C200.759 47.9551 200.374 48.3814 199.879 48.6861C199.383 48.9908 198.803 49.1431 198.138 49.1431ZM198.143 47.9844C198.574 47.9844 198.931 47.8705 199.214 47.6428C199.497 47.415 199.706 47.1119 199.842 46.7333C199.98 46.3548 200.05 45.9377 200.05 45.4822C200.05 45.0298 199.98 44.6143 199.842 44.2358C199.706 43.8542 199.497 43.5479 199.214 43.3171C198.931 43.0863 198.574 42.9709 198.143 42.9709C197.709 42.9709 197.349 43.0863 197.063 43.3171C196.78 43.5479 196.569 43.8542 196.43 44.2358C196.295 44.6143 196.227 45.0298 196.227 45.4822C196.227 45.9377 196.295 46.3548 196.43 46.7333C196.569 47.1119 196.78 47.415 197.063 47.6428C197.349 47.8705 197.709 47.9844 198.143 47.9844ZM202.985 51.6591V41.9091H204.333V43.0586H204.448C204.528 42.9109 204.643 42.7401 204.794 42.5462C204.945 42.3523 205.154 42.183 205.422 42.0384C205.69 41.8906 206.044 41.8168 206.484 41.8168C207.056 41.8168 207.567 41.9614 208.017 42.2507C208.466 42.54 208.818 42.957 209.074 43.5018C209.332 44.0465 209.461 44.7021 209.461 45.4684C209.461 46.2347 209.334 46.8918 209.078 47.4396C208.823 47.9844 208.472 48.4045 208.026 48.6999C207.579 48.9923 207.07 49.1385 206.498 49.1385C206.067 49.1385 205.714 49.0662 205.441 48.9215C205.17 48.7769 204.957 48.6076 204.803 48.4137C204.65 48.2198 204.531 48.0475 204.448 47.8967H204.365V51.6591H202.985ZM204.337 45.4545C204.337 45.9531 204.41 46.3902 204.554 46.7656C204.699 47.1411 204.908 47.435 205.182 47.6474C205.456 47.8567 205.791 47.9613 206.188 47.9613C206.601 47.9613 206.945 47.852 207.222 47.6335C207.499 47.4119 207.709 47.1119 207.85 46.7333C207.995 46.3548 208.067 45.9285 208.067 45.4545C208.067 44.9867 207.997 44.5666 207.855 44.1942C207.716 43.8219 207.507 43.5279 207.227 43.3125C206.95 43.0971 206.604 42.9893 206.188 42.9893C205.788 42.9893 205.45 43.0924 205.173 43.2987C204.899 43.5049 204.691 43.7926 204.55 44.1619C204.408 44.5312 204.337 44.9621 204.337 45.4545ZM214.318 41.9091V43.017H210.445V41.9091H214.318ZM211.483 40.2102H212.864V46.918C212.864 47.1857 212.904 47.3873 212.984 47.5227C213.064 47.6551 213.167 47.7459 213.293 47.7951C213.422 47.8413 213.562 47.8643 213.713 47.8643C213.824 47.8643 213.921 47.8567 214.004 47.8413C214.087 47.8259 214.152 47.8136 214.198 47.8043L214.447 48.9446C214.367 48.9754 214.253 49.0062 214.106 49.0369C213.958 49.0708 213.773 49.0893 213.552 49.0923C213.189 49.0985 212.85 49.0339 212.536 48.8984C212.222 48.763 211.968 48.5537 211.774 48.2706C211.58 47.9875 211.483 47.632 211.483 47.2042V40.2102ZM215.845 49V41.9091H217.225V49H215.845ZM216.542 40.815C216.302 40.815 216.096 40.735 215.923 40.5749C215.754 40.4118 215.669 40.2179 215.669 39.9933C215.669 39.7655 215.754 39.5716 215.923 39.4116C216.096 39.2485 216.302 39.1669 216.542 39.1669C216.782 39.1669 216.987 39.2485 217.156 39.4116C217.328 39.5716 217.415 39.7655 217.415 39.9933C217.415 40.2179 217.328 40.4118 217.156 40.5749C216.987 40.735 216.782 40.815 216.542 40.815ZM222.069 49.1431C221.404 49.1431 220.824 48.9908 220.329 48.6861C219.833 48.3814 219.448 47.9551 219.175 47.4073C218.901 46.8595 218.764 46.2193 218.764 45.4869C218.764 44.7513 218.901 44.1081 219.175 43.5572C219.448 43.0063 219.833 42.5785 220.329 42.2738C220.824 41.9691 221.404 41.8168 222.069 41.8168C222.734 41.8168 223.314 41.9691 223.809 42.2738C224.305 42.5785 224.69 43.0063 224.964 43.5572C225.238 44.1081 225.374 44.7513 225.374 45.4869C225.374 46.2193 225.238 46.8595 224.964 47.4073C224.69 47.9551 224.305 48.3814 223.809 48.6861C223.314 48.9908 222.734 49.1431 222.069 49.1431ZM222.074 47.9844C222.505 47.9844 222.862 47.8705 223.145 47.6428C223.428 47.415 223.637 47.1119 223.773 46.7333C223.911 46.3548 223.98 45.9377 223.98 45.4822C223.98 45.0298 223.911 44.6143 223.773 44.2358C223.637 43.8542 223.428 43.5479 223.145 43.3171C222.862 43.0863 222.505 42.9709 222.074 42.9709C221.64 42.9709 221.28 43.0863 220.993 43.3171C220.71 43.5479 220.499 43.8542 220.361 44.2358C220.226 44.6143 220.158 45.0298 220.158 45.4822C220.158 45.9377 220.226 46.3548 220.361 46.7333C220.499 47.1119 220.71 47.415 220.993 47.6428C221.28 47.8705 221.64 47.9844 222.074 47.9844ZM228.296 44.7898V49H226.915V41.9091H228.24V43.0632H228.328C228.491 42.6877 228.746 42.3861 229.094 42.1584C229.445 41.9306 229.887 41.8168 230.419 41.8168C230.902 41.8168 231.325 41.9183 231.689 42.1214C232.052 42.3215 232.333 42.62 232.533 43.017C232.734 43.4141 232.834 43.9049 232.834 44.4897V49H231.453V44.6559C231.453 44.1419 231.319 43.7403 231.052 43.451C230.784 43.1586 230.416 43.0124 229.948 43.0124C229.628 43.0124 229.343 43.0817 229.094 43.2202C228.848 43.3587 228.653 43.5618 228.508 43.8295C228.366 44.0942 228.296 44.4143 228.296 44.7898ZM238.125 49V41.9091H239.506V49H238.125ZM238.822 40.815C238.582 40.815 238.376 40.735 238.204 40.5749C238.034 40.4118 237.95 40.2179 237.95 39.9933C237.95 39.7655 238.034 39.5716 238.204 39.4116C238.376 39.2485 238.582 39.1669 238.822 39.1669C239.062 39.1669 239.267 39.2485 239.436 39.4116C239.609 39.5716 239.695 39.7655 239.695 39.9933C239.695 40.2179 239.609 40.4118 239.436 40.5749C239.267 40.735 239.062 40.815 238.822 40.815ZM242.743 44.7898V49H241.362V41.9091H242.687V43.0632H242.775C242.938 42.6877 243.194 42.3861 243.541 42.1584C243.892 41.9306 244.334 41.8168 244.866 41.8168C245.35 41.8168 245.773 41.9183 246.136 42.1214C246.499 42.3215 246.781 42.62 246.981 43.017C247.181 43.4141 247.281 43.9049 247.281 44.4897V49H245.9V44.6559C245.9 44.1419 245.767 43.7403 245.499 43.451C245.231 43.1586 244.863 43.0124 244.396 43.0124C244.075 43.0124 243.791 43.0817 243.541 43.2202C243.295 43.3587 243.1 43.5618 242.955 43.8295C242.814 44.0942 242.743 44.4143 242.743 44.7898ZM253.445 51.6591C253.239 51.6591 253.051 51.6422 252.882 51.6083C252.712 51.5775 252.586 51.5437 252.503 51.5067L252.836 50.3757C253.088 50.4434 253.313 50.4727 253.51 50.4634C253.707 50.4542 253.88 50.3803 254.031 50.2418C254.185 50.1033 254.321 49.8771 254.438 49.5632L254.608 49.0923L252.014 41.9091H253.491L255.287 47.4119H255.361L257.157 41.9091H258.638L255.716 49.9464C255.581 50.3157 255.408 50.6281 255.199 50.8835C254.99 51.142 254.741 51.3359 254.451 51.4652C254.162 51.5945 253.827 51.6591 253.445 51.6591ZM262.681 49.1431C262.017 49.1431 261.436 48.9908 260.941 48.6861C260.445 48.3814 260.061 47.9551 259.787 47.4073C259.513 46.8595 259.376 46.2193 259.376 45.4869C259.376 44.7513 259.513 44.1081 259.787 43.5572C260.061 43.0063 260.445 42.5785 260.941 42.2738C261.436 41.9691 262.017 41.8168 262.681 41.8168C263.346 41.8168 263.926 41.9691 264.422 42.2738C264.917 42.5785 265.302 43.0063 265.576 43.5572C265.85 44.1081 265.987 44.7513 265.987 45.4869C265.987 46.2193 265.85 46.8595 265.576 47.4073C265.302 47.9551 264.917 48.3814 264.422 48.6861C263.926 48.9908 263.346 49.1431 262.681 49.1431ZM262.686 47.9844C263.117 47.9844 263.474 47.8705 263.757 47.6428C264.04 47.415 264.249 47.1119 264.385 46.7333C264.523 46.3548 264.593 45.9377 264.593 45.4822C264.593 45.0298 264.523 44.6143 264.385 44.2358C264.249 43.8542 264.04 43.5479 263.757 43.3171C263.474 43.0863 263.117 42.9709 262.686 42.9709C262.252 42.9709 261.892 43.0863 261.606 43.3171C261.323 43.5479 261.112 43.8542 260.973 44.2358C260.838 44.6143 260.77 45.0298 260.77 45.4822C260.77 45.9377 260.838 46.3548 260.973 46.7333C261.112 47.1119 261.323 47.415 261.606 47.6428C261.892 47.8705 262.252 47.9844 262.686 47.9844ZM272.019 46.0593V41.9091H273.404V49H272.047V47.772H271.973C271.81 48.1506 271.548 48.466 271.188 48.7184C270.831 48.9677 270.387 49.0923 269.854 49.0923C269.399 49.0923 268.996 48.9923 268.645 48.7923C268.297 48.5891 268.023 48.2891 267.823 47.892C267.626 47.495 267.528 47.0041 267.528 46.4194V41.9091H268.908V46.2532C268.908 46.7364 269.042 47.1211 269.309 47.4073C269.577 47.6935 269.925 47.8366 270.353 47.8366C270.611 47.8366 270.868 47.772 271.124 47.6428C271.382 47.5135 271.596 47.3181 271.765 47.0565C271.938 46.7949 272.022 46.4625 272.019 46.0593ZM275.259 49V41.9091H276.593V43.0355H276.667C276.796 42.6539 277.024 42.3538 277.35 42.1353C277.68 41.9137 278.052 41.8029 278.467 41.8029C278.554 41.8029 278.655 41.806 278.772 41.8121C278.892 41.8183 278.986 41.826 279.054 41.8352V43.1555C278.998 43.1402 278.9 43.1232 278.758 43.1048C278.617 43.0832 278.475 43.0724 278.334 43.0724C278.007 43.0724 277.716 43.1417 277.461 43.2802C277.209 43.4156 277.009 43.6049 276.861 43.848C276.713 44.0881 276.639 44.362 276.639 44.6697V49H275.259ZM291.652 42.62H290.212C290.156 42.3123 290.053 42.0414 289.902 41.8075C289.752 41.5736 289.567 41.3751 289.348 41.212C289.13 41.0489 288.885 40.9258 288.614 40.8427C288.347 40.7596 288.062 40.718 287.76 40.718C287.216 40.718 286.728 40.855 286.297 41.1289C285.869 41.4028 285.531 41.8045 285.281 42.3338C285.035 42.8632 284.912 43.5095 284.912 44.2727C284.912 45.0421 285.035 45.6915 285.281 46.2209C285.531 46.7502 285.871 47.1503 286.302 47.4212C286.732 47.692 287.217 47.8274 287.756 47.8274C288.054 47.8274 288.337 47.7874 288.605 47.7074C288.876 47.6243 289.121 47.5027 289.339 47.3427C289.558 47.1826 289.742 46.9872 289.893 46.7564C290.047 46.5225 290.153 46.2547 290.212 45.9531L291.652 45.9577C291.575 46.4225 291.426 46.8503 291.204 47.2411C290.986 47.6289 290.704 47.9644 290.359 48.2475C290.018 48.5276 289.627 48.7446 289.187 48.8984C288.747 49.0523 288.267 49.1293 287.747 49.1293C286.928 49.1293 286.198 48.9354 285.558 48.5476C284.918 48.1567 284.413 47.5981 284.044 46.8718C283.678 46.1455 283.495 45.2791 283.495 44.2727C283.495 43.2633 283.679 42.3969 284.049 41.6737C284.418 40.9473 284.923 40.3903 285.563 40.0025C286.203 39.6116 286.931 39.4162 287.747 39.4162C288.248 39.4162 288.716 39.4885 289.15 39.6332C289.587 39.7747 289.979 39.984 290.327 40.261C290.675 40.5349 290.963 40.8704 291.19 41.2674C291.418 41.6613 291.572 42.1122 291.652 42.62ZM294.338 41.9091L295.903 44.6697L297.482 41.9091H298.991L296.78 45.4545L299.01 49H297.5L295.903 46.3501L294.31 49H292.796L295.002 45.4545L292.824 41.9091H294.338ZM308.732 44.2727C308.732 45.2822 308.547 46.1501 308.178 46.8764C307.809 47.5997 307.302 48.1567 306.659 48.5476C306.019 48.9354 305.291 49.1293 304.475 49.1293C303.657 49.1293 302.926 48.9354 302.283 48.5476C301.643 48.1567 301.138 47.5981 300.768 46.8718C300.399 46.1455 300.214 45.2791 300.214 44.2727C300.214 43.2633 300.399 42.3969 300.768 41.6737C301.138 40.9473 301.643 40.3903 302.283 40.0025C302.926 39.6116 303.657 39.4162 304.475 39.4162C305.291 39.4162 306.019 39.6116 306.659 40.0025C307.302 40.3903 307.809 40.9473 308.178 41.6737C308.547 42.3969 308.732 43.2633 308.732 44.2727ZM307.319 44.2727C307.319 43.5033 307.195 42.8555 306.945 42.3292C306.699 41.7998 306.361 41.3997 305.93 41.1289C305.502 40.855 305.017 40.718 304.475 40.718C303.931 40.718 303.444 40.855 303.017 41.1289C302.589 41.3997 302.25 41.7998 302.001 42.3292C301.755 42.8555 301.632 43.5033 301.632 44.2727C301.632 45.0421 301.755 45.6915 302.001 46.2209C302.25 46.7472 302.589 47.1473 303.017 47.4212C303.444 47.692 303.931 47.8274 304.475 47.8274C305.017 47.8274 305.502 47.692 305.93 47.4212C306.361 47.1473 306.699 46.7472 306.945 46.2209C307.195 45.6915 307.319 45.0421 307.319 44.2727ZM311.78 44.7898V49H310.4V41.9091H311.725V43.0632H311.812C311.975 42.6877 312.231 42.3861 312.579 42.1584C312.929 41.9306 313.371 41.8168 313.903 41.8168C314.387 41.8168 314.81 41.9183 315.173 42.1214C315.536 42.3215 315.818 42.62 316.018 43.017C316.218 43.4141 316.318 43.9049 316.318 44.4897V49H314.938V44.6559C314.938 44.1419 314.804 43.7403 314.536 43.451C314.268 43.1586 313.9 43.0124 313.433 43.0124C313.113 43.0124 312.828 43.0817 312.579 43.2202C312.332 43.3587 312.137 43.5618 311.992 43.8295C311.851 44.0942 311.78 44.4143 311.78 44.7898ZM321.225 49.1431C320.527 49.1431 319.925 48.9938 319.42 48.6953C318.919 48.3937 318.531 47.9705 318.257 47.4258C317.986 46.878 317.851 46.2363 317.851 45.5007C317.851 44.7744 317.986 44.1342 318.257 43.5803C318.531 43.0263 318.912 42.5939 319.402 42.283C319.894 41.9722 320.47 41.8168 321.128 41.8168C321.528 41.8168 321.916 41.8829 322.292 42.0153C322.667 42.1476 323.004 42.3554 323.303 42.6385C323.601 42.9216 323.837 43.2894 324.009 43.7418C324.181 44.1912 324.267 44.7375 324.267 45.3807V45.87H318.631V44.8359H322.915C322.915 44.4728 322.841 44.1512 322.693 43.8711C322.546 43.5879 322.338 43.3648 322.07 43.2017C321.805 43.0386 321.495 42.957 321.138 42.957C320.75 42.957 320.411 43.0524 320.122 43.2433C319.836 43.431 319.614 43.6772 319.457 43.9819C319.303 44.2835 319.226 44.6113 319.226 44.9652V45.7731C319.226 46.247 319.309 46.6502 319.476 46.9826C319.645 47.315 319.88 47.5689 320.182 47.7443C320.484 47.9167 320.836 48.0028 321.239 48.0028C321.501 48.0028 321.739 47.9659 321.955 47.892C322.17 47.8151 322.356 47.7012 322.513 47.5504C322.67 47.3996 322.79 47.2134 322.873 46.9918L324.18 47.2273C324.075 47.612 323.887 47.949 323.617 48.2383C323.349 48.5245 323.012 48.7476 322.606 48.9077C322.202 49.0646 321.742 49.1431 321.225 49.1431ZM48.2379 60.9091V62.017H44.3647V60.9091H48.2379ZM45.4034 59.2102H46.7837V65.918C46.7837 66.1857 46.8237 66.3873 46.9038 66.5227C46.9838 66.6551 47.0869 66.7459 47.2131 66.7951C47.3423 66.8413 47.4824 66.8643 47.6332 66.8643C47.744 66.8643 47.8409 66.8567 47.924 66.8413C48.0071 66.8259 48.0717 66.8136 48.1179 66.8043L48.3672 67.9446C48.2872 67.9754 48.1733 68.0062 48.0256 68.0369C47.8778 68.0708 47.6932 68.0893 47.4716 68.0923C47.1084 68.0985 46.7699 68.0339 46.456 67.8984C46.142 67.763 45.8881 67.5537 45.6942 67.2706C45.5004 66.9875 45.4034 66.632 45.4034 66.2042V59.2102ZM52.7448 68.1431C52.0461 68.1431 51.4445 67.9938 50.9397 67.6953C50.4381 67.3937 50.0503 66.9705 49.7764 66.4258C49.5055 65.878 49.3701 65.2363 49.3701 64.5007C49.3701 63.7744 49.5055 63.1342 49.7764 62.5803C50.0503 62.0263 50.4319 61.5939 50.9213 61.283C51.4137 60.9722 51.9892 60.8168 52.6478 60.8168C53.0479 60.8168 53.4357 60.8829 53.8112 61.0153C54.1866 61.1476 54.5236 61.3554 54.8222 61.6385C55.1207 61.9216 55.3561 62.2894 55.5285 62.7418C55.7008 63.1912 55.787 63.7375 55.787 64.3807V64.87H50.1503V63.8359H54.4344C54.4344 63.4728 54.3605 63.1512 54.2128 62.8711C54.0651 62.5879 53.8573 62.3648 53.5896 62.2017C53.3249 62.0386 53.0141 61.957 52.657 61.957C52.2693 61.957 51.9307 62.0524 51.6414 62.2433C51.3552 62.431 51.1336 62.6772 50.9767 62.9819C50.8228 63.2835 50.7458 63.6113 50.7458 63.9652V64.7731C50.7458 65.247 50.8289 65.6502 50.9951 65.9826C51.1644 66.315 51.3998 66.5689 51.7014 66.7443C52.003 66.9167 52.3554 67.0028 52.7586 67.0028C53.0202 67.0028 53.2587 66.9659 53.4742 66.892C53.6896 66.8151 53.8758 66.7012 54.0328 66.5504C54.1897 66.3996 54.3097 66.2134 54.3928 65.9918L55.6993 66.2273C55.5947 66.612 55.4069 66.949 55.1361 67.2383C54.8683 67.5245 54.5313 67.7476 54.1251 67.9077C53.7219 68.0646 53.2618 68.1431 52.7448 68.1431ZM58.6989 63.7898V68H57.3185V60.9091H58.6435V62.0632H58.7312C58.8943 61.6877 59.1497 61.3861 59.4975 61.1584C59.8484 60.9306 60.29 60.8168 60.8224 60.8168C61.3056 60.8168 61.7288 60.9183 62.092 61.1214C62.4551 61.3215 62.7367 61.62 62.9368 62.017C63.1368 62.4141 63.2369 62.9049 63.2369 63.4897V68H61.8565V63.6559C61.8565 63.1419 61.7227 62.7403 61.4549 62.451C61.1871 62.1586 60.8194 62.0124 60.3516 62.0124C60.0315 62.0124 59.7468 62.0817 59.4975 62.2202C59.2513 62.3587 59.0559 62.5618 58.9112 62.8295C58.7696 63.0942 58.6989 63.4143 58.6989 63.7898ZM67.1516 68.157C66.7023 68.157 66.296 68.0739 65.9329 67.9077C65.5697 67.7384 65.282 67.4937 65.0696 67.1737C64.8603 66.8536 64.7557 66.4612 64.7557 65.9964C64.7557 65.5964 64.8326 65.267 64.9865 65.0085C65.1404 64.75 65.3481 64.5453 65.6097 64.3945C65.8713 64.2437 66.1637 64.1299 66.4869 64.0529C66.81 63.976 67.1393 63.9175 67.4748 63.8775C67.8995 63.8282 68.2442 63.7882 68.5089 63.7575C68.7736 63.7236 68.9659 63.6697 69.0859 63.5959C69.206 63.522 69.266 63.402 69.266 63.2358V63.2035C69.266 62.8003 69.1521 62.4879 68.9244 62.2663C68.6997 62.0447 68.3642 61.9339 67.918 61.9339C67.4532 61.9339 67.087 62.037 66.8192 62.2433C66.5546 62.4464 66.3714 62.6726 66.2699 62.9219L64.9727 62.6264C65.1265 62.1955 65.3512 61.8478 65.6467 61.5831C65.9452 61.3153 66.2884 61.1214 66.6761 61.0014C67.0639 60.8783 67.4717 60.8168 67.8995 60.8168C68.1826 60.8168 68.4827 60.8506 68.7997 60.9183C69.1198 60.983 69.4183 61.103 69.6953 61.2784C69.9754 61.4538 70.2047 61.7047 70.3832 62.0309C70.5617 62.354 70.6509 62.7741 70.6509 63.2912V68H69.3029V67.0305H69.2475C69.1583 67.209 69.0244 67.3845 68.8459 67.5568C68.6674 67.7292 68.4381 67.8723 68.158 67.9862C67.878 68.1 67.5425 68.157 67.1516 68.157ZM67.4517 67.049C67.8333 67.049 68.1596 66.9736 68.4304 66.8228C68.7043 66.672 68.9121 66.475 69.0536 66.2319C69.1983 65.9857 69.2706 65.7225 69.2706 65.4425V64.5284C69.2214 64.5777 69.1259 64.6238 68.9844 64.6669C68.8459 64.7069 68.6874 64.7423 68.5089 64.7731C68.3304 64.8008 68.1565 64.8269 67.9872 64.8516C67.8179 64.8731 67.6764 64.8916 67.5625 64.907C67.2947 64.9408 67.0501 64.9978 66.8285 65.0778C66.61 65.1578 66.4345 65.2732 66.3022 65.424C66.1729 65.5717 66.1083 65.7687 66.1083 66.0149C66.1083 66.3565 66.2345 66.6151 66.4869 66.7905C66.7392 66.9628 67.0608 67.049 67.4517 67.049ZM73.8698 63.7898V68H72.4894V60.9091H73.8144V62.0632H73.9021C74.0652 61.6877 74.3206 61.3861 74.6684 61.1584C75.0193 60.9306 75.4609 60.8168 75.9933 60.8168C76.4765 60.8168 76.8997 60.9183 77.2629 61.1214C77.626 61.3215 77.9076 61.62 78.1077 62.017C78.3077 62.4141 78.4078 62.9049 78.4078 63.4897V68H77.0274V63.6559C77.0274 63.1419 76.8936 62.7403 76.6258 62.451C76.358 62.1586 75.9903 62.0124 75.5225 62.0124C75.2024 62.0124 74.9177 62.0817 74.6684 62.2202C74.4222 62.3587 74.2268 62.5618 74.0821 62.8295C73.9405 63.0942 73.8698 63.4143 73.8698 63.7898ZM83.569 60.9091V62.017H79.6958V60.9091H83.569ZM80.7345 59.2102H82.1148V65.918C82.1148 66.1857 82.1548 66.3873 82.2348 66.5227C82.3148 66.6551 82.4179 66.7459 82.5441 66.7951C82.6734 66.8413 82.8134 66.8643 82.9642 66.8643C83.075 66.8643 83.172 66.8567 83.2551 66.8413C83.3382 66.8259 83.4028 66.8136 83.449 66.8043L83.6982 67.9446C83.6182 67.9754 83.5044 68.0062 83.3566 68.0369C83.2089 68.0708 83.0242 68.0893 82.8026 68.0923C82.4395 68.0985 82.1009 68.0339 81.787 67.8984C81.4731 67.763 81.2192 67.5537 81.0253 67.2706C80.8314 66.9875 80.7345 66.632 80.7345 66.2042V59.2102ZM93.8499 62.6403L92.5988 62.8619C92.5465 62.7018 92.4634 62.5495 92.3495 62.4048C92.2387 62.2602 92.0879 62.1417 91.8971 62.0494C91.7063 61.957 91.4678 61.9109 91.1816 61.9109C90.7907 61.9109 90.4645 61.9986 90.2029 62.174C89.9413 62.3464 89.8105 62.5695 89.8105 62.8434C89.8105 63.0804 89.8982 63.2712 90.0736 63.4158C90.249 63.5605 90.5322 63.679 90.923 63.7713L92.0494 64.0298C92.7019 64.1806 93.1882 64.413 93.5083 64.7269C93.8283 65.0408 93.9884 65.4486 93.9884 65.9503C93.9884 66.375 93.8653 66.7536 93.6191 67.0859C93.3759 67.4152 93.0358 67.6738 92.5988 67.8615C92.1649 68.0492 91.6617 68.1431 91.0892 68.1431C90.2952 68.1431 89.6473 67.9738 89.1457 67.6353C88.644 67.2937 88.3363 66.8089 88.2224 66.1811L89.5566 65.978C89.6396 66.3258 89.8105 66.5889 90.069 66.7674C90.3275 66.9428 90.6645 67.0305 91.08 67.0305C91.5324 67.0305 91.894 66.9367 92.1649 66.7489C92.4357 66.5581 92.5711 66.3258 92.5711 66.0518C92.5711 65.8303 92.488 65.6441 92.3218 65.4933C92.1587 65.3424 91.9079 65.2286 91.5693 65.1516L90.3691 64.8885C89.7074 64.7377 89.218 64.4976 88.901 64.1683C88.5871 63.839 88.4301 63.422 88.4301 62.9173C88.4301 62.4987 88.5471 62.1325 88.781 61.8185C89.0149 61.5046 89.338 61.2599 89.7504 61.0845C90.1628 60.906 90.6353 60.8168 91.1677 60.8168C91.934 60.8168 92.5373 60.983 92.9774 61.3153C93.4175 61.6446 93.7083 62.0863 93.8499 62.6403ZM98.5621 68.1431C97.8635 68.1431 97.2618 67.9938 96.7571 67.6953C96.2554 67.3937 95.8677 66.9705 95.5938 66.4258C95.3229 65.878 95.1875 65.2363 95.1875 64.5007C95.1875 63.7744 95.3229 63.1342 95.5938 62.5803C95.8677 62.0263 96.2493 61.5939 96.7386 61.283C97.2311 60.9722 97.8066 60.8168 98.4652 60.8168C98.8653 60.8168 99.2531 60.8829 99.6286 61.0153C100.004 61.1476 100.341 61.3554 100.64 61.6385C100.938 61.9216 101.174 62.2894 101.346 62.7418C101.518 63.1912 101.604 63.7375 101.604 64.3807V64.87H95.9677V63.8359H100.252C100.252 63.4728 100.178 63.1512 100.03 62.8711C99.8825 62.5879 99.6747 62.3648 99.407 62.2017C99.1423 62.0386 98.8314 61.957 98.4744 61.957C98.0866 61.957 97.7481 62.0524 97.4588 62.2433C97.1726 62.431 96.951 62.6772 96.794 62.9819C96.6402 63.2835 96.5632 63.6113 96.5632 63.9652V64.7731C96.5632 65.247 96.6463 65.6502 96.8125 65.9826C96.9818 66.315 97.2172 66.5689 97.5188 66.7443C97.8204 66.9167 98.1728 67.0028 98.576 67.0028C98.8376 67.0028 99.0761 66.9659 99.2915 66.892C99.507 66.8151 99.6932 66.7012 99.8501 66.5504C100.007 66.3996 100.127 66.2134 100.21 65.9918L101.517 66.2273C101.412 66.612 101.224 66.949 100.953 67.2383C100.686 67.5245 100.349 67.7476 99.9425 67.9077C99.5393 68.0646 99.0792 68.1431 98.5621 68.1431ZM106.446 60.9091V62.017H102.573V60.9091H106.446ZM103.611 59.2102H104.992V65.918C104.992 66.1857 105.032 66.3873 105.112 66.5227C105.192 66.6551 105.295 66.7459 105.421 66.7951C105.55 66.8413 105.69 66.8643 105.841 66.8643C105.952 66.8643 106.049 66.8567 106.132 66.8413C106.215 66.8259 106.28 66.8136 106.326 66.8043L106.575 67.9446C106.495 67.9754 106.381 68.0062 106.234 68.0369C106.086 68.0708 105.901 68.0893 105.68 68.0923C105.316 68.0985 104.978 68.0339 104.664 67.8984C104.35 67.763 104.096 67.5537 103.902 67.2706C103.708 66.9875 103.611 66.632 103.611 66.2042V59.2102ZM111.283 60.9091V62.017H107.41V60.9091H111.283ZM108.448 59.2102H109.829V65.918C109.829 66.1857 109.869 66.3873 109.949 66.5227C110.029 66.6551 110.132 66.7459 110.258 66.7951C110.387 66.8413 110.527 66.8643 110.678 66.8643C110.789 66.8643 110.886 66.8567 110.969 66.8413C111.052 66.8259 111.117 66.8136 111.163 66.8043L111.412 67.9446C111.332 67.9754 111.218 68.0062 111.07 68.0369C110.923 68.0708 110.738 68.0893 110.517 68.0923C110.153 68.0985 109.815 68.0339 109.501 67.8984C109.187 67.763 108.933 67.5537 108.739 67.2706C108.545 66.9875 108.448 66.632 108.448 66.2042V59.2102ZM112.81 68V60.9091H114.19V68H112.81ZM113.507 59.815C113.267 59.815 113.061 59.735 112.888 59.5749C112.719 59.4118 112.634 59.2179 112.634 58.9933C112.634 58.7655 112.719 58.5716 112.888 58.4116C113.061 58.2485 113.267 58.1669 113.507 58.1669C113.747 58.1669 113.952 58.2485 114.121 58.4116C114.293 58.5716 114.379 58.7655 114.379 58.9933C114.379 59.2179 114.293 59.4118 114.121 59.5749C113.952 59.735 113.747 59.815 113.507 59.815ZM117.427 63.7898V68H116.047V60.9091H117.372V62.0632H117.46C117.623 61.6877 117.878 61.3861 118.226 61.1584C118.577 60.9306 119.019 60.8168 119.551 60.8168C120.034 60.8168 120.457 60.9183 120.82 61.1214C121.184 61.3215 121.465 61.62 121.665 62.017C121.865 62.4141 121.965 62.9049 121.965 63.4897V68H120.585V63.6559C120.585 63.1419 120.451 62.7403 120.183 62.451C119.916 62.1586 119.548 62.0124 119.08 62.0124C118.76 62.0124 118.475 62.0817 118.226 62.2202C117.98 62.3587 117.784 62.5618 117.64 62.8295C117.498 63.0942 117.427 63.4143 117.427 63.7898ZM126.79 70.8068C126.226 70.8068 125.742 70.733 125.335 70.5852C124.932 70.4375 124.603 70.2421 124.347 69.9989C124.092 69.7558 123.901 69.4896 123.775 69.2003L124.961 68.7109C125.045 68.8464 125.155 68.9895 125.294 69.1403C125.435 69.2942 125.626 69.425 125.866 69.5327C126.109 69.6404 126.422 69.6942 126.803 69.6942C127.327 69.6942 127.759 69.5665 128.101 69.3111C128.442 69.0587 128.613 68.6555 128.613 68.1016V66.7074H128.525C128.442 66.8582 128.322 67.0259 128.165 67.2106C128.011 67.3952 127.799 67.5553 127.528 67.6907C127.257 67.8261 126.905 67.8938 126.471 67.8938C125.911 67.8938 125.406 67.763 124.957 67.5014C124.511 67.2367 124.157 66.8474 123.895 66.3335C123.637 65.8164 123.507 65.1809 123.507 64.4268C123.507 63.6728 123.635 63.0265 123.89 62.4879C124.149 61.9493 124.503 61.5369 124.952 61.2507C125.402 60.9614 125.911 60.8168 126.48 60.8168C126.92 60.8168 127.276 60.8906 127.547 61.0384C127.818 61.183 128.028 61.3523 128.179 61.5462C128.333 61.7401 128.452 61.9109 128.535 62.0586H128.636V60.9091H129.989V68.157C129.989 68.7663 129.847 69.2665 129.564 69.6573C129.281 70.0482 128.898 70.3375 128.415 70.5252C127.934 70.7129 127.393 70.8068 126.79 70.8068ZM126.776 66.7489C127.173 66.7489 127.508 66.6566 127.782 66.4719C128.059 66.2842 128.268 66.0165 128.41 65.6687C128.555 65.3178 128.627 64.8977 128.627 64.4084C128.627 63.9313 128.556 63.5112 128.415 63.1481C128.273 62.7849 128.065 62.5018 127.791 62.2987C127.517 62.0924 127.179 61.9893 126.776 61.9893C126.36 61.9893 126.014 62.0971 125.737 62.3125C125.46 62.5249 125.251 62.8142 125.109 63.1804C124.971 63.5466 124.901 63.956 124.901 64.4084C124.901 64.8731 124.972 65.2809 125.114 65.6317C125.255 65.9826 125.465 66.2565 125.742 66.4535C126.022 66.6504 126.366 66.7489 126.776 66.7489ZM137.154 62.6403L135.903 62.8619C135.85 62.7018 135.767 62.5495 135.653 62.4048C135.542 62.2602 135.392 62.1417 135.201 62.0494C135.01 61.957 134.771 61.9109 134.485 61.9109C134.094 61.9109 133.768 61.9986 133.507 62.174C133.245 62.3464 133.114 62.5695 133.114 62.8434C133.114 63.0804 133.202 63.2712 133.377 63.4158C133.553 63.5605 133.836 63.679 134.227 63.7713L135.353 64.0298C136.006 64.1806 136.492 64.413 136.812 64.7269C137.132 65.0408 137.292 65.4486 137.292 65.9503C137.292 66.375 137.169 66.7536 136.923 67.0859C136.68 67.4152 136.34 67.6738 135.903 67.8615C135.469 68.0492 134.965 68.1431 134.393 68.1431C133.599 68.1431 132.951 67.9738 132.449 67.6353C131.948 67.2937 131.64 66.8089 131.526 66.1811L132.86 65.978C132.943 66.3258 133.114 66.5889 133.373 66.7674C133.631 66.9428 133.968 67.0305 134.384 67.0305C134.836 67.0305 135.198 66.9367 135.469 66.7489C135.739 66.5581 135.875 66.3258 135.875 66.0518C135.875 65.8303 135.792 65.6441 135.626 65.4933C135.462 65.3424 135.212 65.2286 134.873 65.1516L133.673 64.8885C133.011 64.7377 132.522 64.4976 132.205 64.1683C131.891 63.839 131.734 63.422 131.734 62.9173C131.734 62.4987 131.851 62.1325 132.085 61.8185C132.319 61.5046 132.642 61.2599 133.054 61.0845C133.467 60.906 133.939 60.8168 134.471 60.8168C135.238 60.8168 135.841 60.983 136.281 61.3153C136.721 61.6446 137.012 62.0863 137.154 62.6403ZM139.719 68.0877C139.467 68.0877 139.25 67.9985 139.068 67.82C138.887 67.6384 138.796 67.4199 138.796 67.1644C138.796 66.9121 138.887 66.6966 139.068 66.5181C139.25 66.3365 139.467 66.2457 139.719 66.2457C139.972 66.2457 140.189 66.3365 140.37 66.5181C140.552 66.6966 140.642 66.9121 140.642 67.1644C140.642 67.3337 140.599 67.4891 140.513 67.6307C140.43 67.7692 140.319 67.88 140.181 67.9631C140.042 68.0462 139.888 68.0877 139.719 68.0877Z" fill="white" fill-opacity="0.7"/>
</svg>
