<svg width="20" height="20" viewBox="0 0 20 20" fill="none" xmlns="http://www.w3.org/2000/svg">
<path fill-rule="evenodd" clip-rule="evenodd" d="M10 18C14.4183 18 18 14.4183 18 10C18 5.58172 14.4183 2 10 2C5.58172 2 2 5.58172 2 10C2 14.4183 5.58172 18 10 18ZM13.4908 13.4909C13.298 13.6837 12.9855 13.6837 12.7927 13.4909L9.99997 10.6982L7.20725 13.4909C7.01445 13.6837 6.70187 13.6837 6.50907 13.4909C6.31627 13.2981 6.31627 12.9856 6.50907 12.7928L9.30179 10L6.50905 7.20728C6.31625 7.01448 6.31625 6.7019 6.50905 6.5091C6.70185 6.3163 7.01443 6.3163 7.20723 6.5091L9.99997 9.30185L12.7927 6.50912C12.9855 6.31632 13.2981 6.31632 13.4909 6.50912C13.6837 6.70192 13.6837 7.0145 13.4909 7.2073L10.6981 10L13.4908 12.7927C13.6836 12.9855 13.6836 13.2981 13.4908 13.4909Z" fill="#F8788F"/>
<path d="M12.7927 13.4909C12.9855 13.6837 13.298 13.6837 13.4908 13.4909C13.6836 13.2981 13.6836 12.9855 13.4908 12.7927L10.6981 10L13.4909 7.2073C13.6837 7.0145 13.6837 6.70192 13.4909 6.50912C13.2981 6.31632 12.9855 6.31632 12.7927 6.50912L9.99997 9.30185L7.20723 6.5091C7.01443 6.3163 6.70185 6.3163 6.50905 6.5091C6.31625 6.7019 6.31625 7.01448 6.50905 7.20728L9.30179 10L6.50907 12.7928C6.31627 12.9856 6.31627 13.2981 6.50907 13.4909C6.70187 13.6837 7.01445 13.6837 7.20725 13.4909L9.99997 10.6982L12.7927 13.4909Z" fill="white"/>
</svg>
