<svg width="12" height="12" viewBox="0 0 12 12" fill="none" xmlns="http://www.w3.org/2000/svg">
<path d="M1.41781 1.64076C2.89023 1.53149 4.34066 1.02625 5.60969 0.125046C5.84264 -0.04038 6.15712 -0.04038 6.39007 0.125046C7.6591 1.02625 9.10953 1.53149 10.582 1.64076C10.9184 1.66573 11.1927 1.94074 11.1884 2.27808C11.0897 10.0232 9.09557 10.8165 6.24758 11.9494L6.22731 11.9575C6.08156 12.0155 5.91819 12.0155 5.77245 11.9575L5.75218 11.9494C2.90419 10.8165 0.910022 10.0232 0.811329 2.27808C0.80703 1.94074 1.08136 1.66573 1.41781 1.64076Z" fill="#FF3B6C"/>
<path d="M3.91791 8.38293V3.49598H4.95114V5.51233H7.04862V3.49598H8.07946V8.38293H7.04862V6.3642H4.95114V8.38293H3.91791Z" fill="black"/>
</svg>
