<svg xmlns="http://www.w3.org/2000/svg" xmlns:xlink="http://www.w3.org/1999/xlink" version="1.1" width="45.31100082397461" height="45.31100082397461" style="" xml:space="preserve"><rect id="backgroundrect" width="100%" height="100%" x="0" y="0" fill="none" stroke="none"/>
















<g class="currentLayer" style=""><title>Layer 1</title><g id="svg_1" class="" fill="#ffffff" fill-opacity="1" stroke="#e76767" stroke-opacity="1" stroke-width="3">
	<path d="M23.28105926513672,-0.7800000086426735 c-0.006000000052154064,0 -0.014000000432133675,0.0010000000474974513 -0.020000003278255463,0.0010000000474974513 c-0.007000000216066837,0 -0.013000000268220901,-0.0010000000474974513 -0.020000003278255463,-0.0010000000474974513 C10.741061210632324,-0.7800000086426735 0.6060605645179749,9.354000270366669 0.6060605645179749,21.856000125408173 c0,12.5 10.135000228881836,22.635000228881836 22.635000228881836,22.635000228881836 c0.007000000216066837,0 0.013000000268220901,0 0.020000003278255463,0 c0.006000000052154064,0 0.014000000432133675,0 0.020000003278255463,0 c12.5,0 22.635000228881836,-10.135000228881836 22.635000228881836,-22.635000228881836 C45.91706085205078,9.354000270366669 35.78205871582031,-0.7800000086426735 23.28105926513672,-0.7800000086426735 zM23.28105926513672,38.01100081205368 c-0.006000000052154064,0 -0.014000000432133675,-0.0010000000474974513 -0.020000003278255463,-0.0010000000474974513 c-0.007000000216066837,0 -0.013000000268220901,0.0010000000474974513 -0.020000003278255463,0.0010000000474974513 c-2.0460000038146973,0 -3.7049999237060547,-1.6579999923706055 -3.7049999237060547,-3.7049999237060547 c0,-2.0450000762939453 1.6590001583099365,-3.703000068664551 3.7049999237060547,-3.703000068664551 c0.007000000216066837,0 0.013000000268220901,0 0.020000003278255463,0 c0.006000000052154064,0 0.014000000432133675,0 0.020000003278255463,0 c2.0450000762939453,0 3.7059998512268066,1.6579999923706055 3.7059998512268066,3.703000068664551 C26.987060546875,36.352000415325165 25.329059600830078,38.01100081205368 23.28105926513672,38.01100081205368 zM28.59406089782715,9.778000056743622 c-0.2420000284910202,3.697000026702881 -1.9320001602172852,14.692000389099121 -1.9320001602172852,14.692000389099121 c0,1.8540000915527344 -1.5190000534057617,3.3559999465942383 -3.372999906539917,3.3559999465942383 c-0.010000001639127731,0 -0.020000003278255463,0 -0.02900000475347042,0 c-0.009000001475214958,0 -0.020000003278255463,0 -0.02900000475347042,0 c-1.8530001640319824,0 -3.371999979019165,-1.503999948501587 -3.371999979019165,-3.3559999465942383 c0,0 -1.6890000104904175,-10.994999885559082 -1.930999994277954,-14.692000389099121 C17.808059692382812,7.9270002245903015 19.22606086730957,4.489999949932098 23.232059478759766,4.489999949932098 c0.010000001639127731,0 0.020000003278255463,0.0010000000474974513 0.02900000475347042,0.0010000000474974513 c0.009000001475214958,0 0.01900000311434269,-0.0010000000474974513 0.02900000475347042,-0.0010000000474974513 C27.295059204101562,4.489999949932098 28.715059280395508,7.9270002245903015 28.59406089782715,9.778000056743622 z" id="svg_2" fill="#ffffff" fill-opacity="1" stroke="#e76767" stroke-opacity="1" transform="" stroke-width="3"/>
</g><g id="svg_3">
</g><g id="svg_4">
</g><g id="svg_5">
</g><g id="svg_6">
</g><g id="svg_7">
</g><g id="svg_8">
</g><g id="svg_9">
</g><g id="svg_10">
</g><g id="svg_11">
</g><g id="svg_12">
</g><g id="svg_13">
</g><g id="svg_14">
</g><g id="svg_15">
</g><g id="svg_16">
</g><g id="svg_17">
</g></g></svg>