<svg width="16" height="16" viewBox="0 0 16 16" fill="none" xmlns="http://www.w3.org/2000/svg">
<path fill-rule="evenodd" clip-rule="evenodd" d="M13.9961 8C13.9961 11.3137 11.3098 14 7.99609 14C4.68239 14 1.99609 11.3137 1.99609 8C1.99609 4.68629 4.68239 2 7.99609 2C11.3098 2 13.9961 4.68629 13.9961 8ZM12.7961 8C12.7961 10.651 10.6471 12.8 7.99609 12.8C6.81439 12.8 5.73242 12.373 4.89608 11.6648L11.7797 5.04596C12.4165 5.86049 12.7961 6.88592 12.7961 8ZM4.08357 10.7813L10.9286 4.19962C10.1175 3.57289 9.10036 3.2 7.99609 3.2C5.34513 3.2 3.19609 5.34903 3.19609 8C3.19609 9.03671 3.52476 9.99666 4.08357 10.7813Z" fill="white" fill-opacity="0.7"/>
</svg>
