<svg xmlns="http://www.w3.org/2000/svg" fill="#BDBDBD" width="13.058" height="16"><rect id="backgroundrect" width="100%" height="100%" x="0" y="0" fill="none" stroke="none" class="" style=""/>
  
  
<g class="currentLayer" style=""><title>Layer 1</title><path d="M0.0279998779296875,2.5190000534057617 c2.447000026702881,-0.015000000596046448 4.647000312805176,-0.6940000653266907 6.447000026702881,-2.5190000534057617 c1.7929999828338623,1.809999942779541 4,2.503999948501587 6.504000186920166,2.51200008392334 c0,0.5080000162124634 -0.014000000432133675,0.9800000190734863 0,1.4520000219345093 c0.04200000315904617,1.6460000276565552 0.04200000315904617,3.2920000553131104 -0.24000000953674316,4.915999889373779 c-0.49799999594688416,2.8980000019073486 -1.975000023841858,5.079999923706055 -4.583000183105469,6.419000148773193 c-0.4780000150203705,0.24300001561641693 -0.9850000143051147,0.45000001788139343 -1.4769999980926514,0.6580000519752502 a0.48000001907348633,0.48000001907348633 0 0 1 -0.33000001311302185,0.021000001579523087 c-2.1659998893737793,-0.7719999551773071 -3.9800000190734863,-2.009999990463257 -5.125999927520752,-4.099999904632568 A9.041999816894531,9.041999816894531 0 0 1 0.10500001907348633,8 c-0.09800000488758087,-1.7669999599456787 -0.07700000703334808,-3.5420000553131104 -0.10500000417232513,-5.316999912261963 c0,-0.05000000447034836 0.014000000432133675,-0.09300000220537186 0.02800000086426735,-0.1639999896287918 z" id="svg_1" class="" fill-opacity="1" fill="#499dba"/><rect x="5.168999671936035" y="2.8299999237060547" width="2.428999900817871" height="10.765999794006348" style="fill: rgb(255, 255, 255);" id="svg_2" class="" transform=""/></g></svg>