<svg width="16" height="16" viewBox="0 0 16 16" fill="none" xmlns="http://www.w3.org/2000/svg">
<path d="M7.30394 5.87093L9.97822 7.87665C10.0605 7.93836 10.0605 8.06179 9.97822 8.12351L7.30394 10.1292C7.20223 10.2055 7.05708 10.1329 7.05708 10.0058V8.6001L2.6 8.6001C2.26863 8.6001 2 8.33147 2 8.0001C2 7.66873 2.26863 7.4001 2.6 7.4001L7.05708 7.4001V5.99436C7.05708 5.86722 7.20223 5.79465 7.30394 5.87093Z" fill="white"/>
<path d="M12.8 8.0001C12.8 10.3197 10.9196 12.2001 8.6 12.2001C6.92456 12.2001 5.47826 11.2191 4.80418 9.8001H3.50727C4.24858 11.8974 6.24881 13.4001 8.6 13.4001C11.5823 13.4001 14 10.9824 14 8.0001C14 5.01776 11.5823 2.6001 8.6 2.6001C6.24881 2.6001 4.24858 4.10275 3.50727 6.2001H4.80418C5.47826 4.78113 6.92456 3.8001 8.6 3.8001C10.9196 3.8001 12.8 5.6805 12.8 8.0001Z" fill="white"/>
</svg>
