<svg xmlns="http://www.w3.org/2000/svg" xmlns:xlink="http://www.w3.org/1999/xlink" version="1.1" style="enable-background:new 0 0 460 460;" xml:space="preserve" width="460" height="460"><rect id="backgroundrect" width="100%" height="100%" x="0" y="0" fill="none" stroke="none"/>
















<g class="currentLayer" style=""><title>Layer 1</title><g id="XMLID_1055_" class="" fill-opacity="1" fill="#ffffff" stroke-opacity="1" stroke="#499dba" stroke-width="30">
	<g id="svg_1" fill="#ffffff" fill-opacity="1" stroke="#499dba" stroke-width="30">
		<path d="M230,0C102.975,0,0,102.975,0,230s102.975,230,230,230s230-102.974,230-230S357.025,0,230,0z M268.333,377.36    c0,8.676-7.034,15.71-15.71,15.71h-43.101c-8.676,0-15.71-7.034-15.71-15.71V202.477c0-8.676,7.033-15.71,15.71-15.71h43.101    c8.676,0,15.71,7.033,15.71,15.71V377.36z M230,157c-21.539,0-39-17.461-39-39s17.461-39,39-39s39,17.461,39,39    S251.539,157,230,157z" id="svg_2" fill="#ffffff" fill-opacity="1" stroke="#499dba" stroke-width="30"/>
	</g>
</g><g id="svg_3">
</g><g id="svg_4">
</g><g id="svg_5">
</g><g id="svg_6">
</g><g id="svg_7">
</g><g id="svg_8">
</g><g id="svg_9">
</g><g id="svg_10">
</g><g id="svg_11">
</g><g id="svg_12">
</g><g id="svg_13">
</g><g id="svg_14">
</g><g id="svg_15">
</g><g id="svg_16">
</g><g id="svg_17">
</g></g></svg>