<svg width="12" height="12" viewBox="0 0 12 12" fill="none" xmlns="http://www.w3.org/2000/svg">
<path d="M1.41805 1.64076C2.89047 1.53149 4.3409 1.02625 5.60993 0.125046C5.84288 -0.04038 6.15737 -0.04038 6.39031 0.125046C7.65934 1.02625 9.10977 1.53149 10.5822 1.64076C10.9186 1.66573 11.193 1.94074 11.1887 2.27808C11.09 10.0232 9.09581 10.8165 6.24782 11.9494L6.22755 11.9575C6.08181 12.0155 5.91844 12.0155 5.77269 11.9575L5.75243 11.9494C2.90443 10.8165 0.910267 10.0232 0.811573 2.27808C0.807275 1.94074 1.0816 1.66573 1.41805 1.64076Z" fill="#D8C461"/>
<path d="M4.51859 8.38293V3.49598H5.55181V7.53106H7.6469V8.38293H4.51859Z" fill="black"/>
</svg>
