<svg width="16" height="16" viewBox="0 0 16 16" fill="none" xmlns="http://www.w3.org/2000/svg">
<circle cx="7.99995" cy="8.00117" r="6.3" fill="#D40003"/>
<path fill-rule="evenodd" clip-rule="evenodd" d="M4.73363 7.76549C4.73363 6.11821 6.16746 4.73216 8.00029 4.73216C9.83313 4.73216 11.267 6.11821 11.267 7.76549C11.267 8.52533 10.966 9.22316 10.4604 9.76035C10.379 9.84691 10.3336 9.9613 10.3336 10.0802V11.2655H9.40038V10.3325C9.40038 10.0748 9.19145 9.86586 8.93372 9.86586C8.67598 9.86586 8.46705 10.0748 8.46705 10.3325V11.2655H7.53363V10.3325C7.53363 10.0748 7.32469 9.86586 7.06696 9.86586C6.80923 9.86586 6.60029 10.0748 6.60029 10.3325V11.2655H5.66696V10.0802C5.66696 9.96123 5.62156 9.8468 5.54002 9.76022C5.03467 9.22361 4.73363 8.52585 4.73363 7.76549ZM5.94042 6.87219C6.11545 6.69716 6.35285 6.59883 6.60038 6.59883C6.84792 6.59883 7.08532 6.69716 7.26035 6.87219C7.43538 7.04723 7.53372 7.28463 7.53372 7.53216C7.53372 7.7797 7.43538 8.01709 7.26035 8.19213C7.08532 8.36716 6.84792 8.46549 6.60038 8.46549C6.35285 8.46549 6.11545 8.36716 5.94042 8.19213C5.76538 8.01709 5.66705 7.7797 5.66705 7.53216C5.66705 7.28463 5.76538 7.04723 5.94042 6.87219ZM9.40038 6.59883C9.15285 6.59883 8.91545 6.69716 8.74042 6.87219C8.56538 7.04723 8.46705 7.28463 8.46705 7.53216C8.46705 7.7797 8.56538 8.01709 8.74042 8.19213C8.91545 8.36716 9.15285 8.46549 9.40038 8.46549C9.64792 8.46549 9.88532 8.36716 10.0604 8.19213C10.2354 8.01709 10.3337 7.7797 10.3337 7.53216C10.3337 7.28463 10.2354 7.04723 10.0604 6.87219C9.88532 6.69716 9.64792 6.59883 9.40038 6.59883Z" fill="white"/>
</svg>
