<svg width="16" height="16" viewBox="0 0 16 16" fill="none" xmlns="http://www.w3.org/2000/svg">
<circle cx="8.00005" cy="7.9998" r="7.2" fill="#D40003"/>
<path fill-rule="evenodd" clip-rule="evenodd" d="M4.26686 7.73353C4.26686 5.85092 5.90553 4.26686 8.0002 4.26686C10.0949 4.26686 11.7335 5.85092 11.7335 7.73353C11.7335 8.60191 11.3895 9.39944 10.8118 10.0134C10.7187 10.1123 10.6669 10.243 10.6669 10.3789V11.7335H9.6003V10.6673C9.6003 10.3727 9.36152 10.1339 9.06697 10.1339C8.77241 10.1339 8.53363 10.3727 8.53363 10.6673V11.7335H7.46686V10.6673C7.46686 10.3727 7.22808 10.1339 6.93353 10.1339C6.63898 10.1339 6.4002 10.3727 6.4002 10.6673V11.7335H5.33353V10.3789C5.33353 10.2429 5.28164 10.1122 5.18846 10.0132C4.61091 9.39995 4.26686 8.60251 4.26686 7.73353ZM5.64605 6.71261C5.84609 6.51258 6.1174 6.4002 6.4003 6.4002C6.6832 6.4002 6.95451 6.51258 7.15455 6.71261C7.35459 6.91265 7.46697 7.18396 7.46697 7.46686C7.46697 7.74976 7.35459 8.02107 7.15455 8.22111C6.95451 8.42115 6.6832 8.53353 6.4003 8.53353C6.1174 8.53353 5.84609 8.42115 5.64605 8.22111C5.44601 8.02107 5.33363 7.74976 5.33363 7.46686C5.33363 7.18396 5.44601 6.91265 5.64605 6.71261ZM9.6003 6.4002C9.3174 6.4002 9.04609 6.51258 8.84605 6.71261C8.64601 6.91265 8.53363 7.18396 8.53363 7.46686C8.53363 7.74976 8.64601 8.02107 8.84605 8.22111C9.04609 8.42115 9.3174 8.53353 9.6003 8.53353C9.8832 8.53353 10.1545 8.42115 10.3545 8.22111C10.5546 8.02107 10.667 7.74976 10.667 7.46686C10.667 7.18396 10.5546 6.91265 10.3545 6.71261C10.1545 6.51258 9.8832 6.4002 9.6003 6.4002Z" fill="white"/>
</svg>
