<svg width="12" height="12" viewBox="0 0 12 12" fill="none" xmlns="http://www.w3.org/2000/svg">
<path d="M1.41781 1.63979C2.89023 1.53052 4.34066 1.02528 5.60969 0.12407C5.84264 -0.0413566 6.15712 -0.0413566 6.39007 0.12407C7.6591 1.02528 9.10953 1.53052 10.582 1.63979C10.9184 1.66475 11.1927 1.93976 11.1884 2.27711C11.0897 10.0222 9.09557 10.8155 6.24758 11.9485L6.22731 11.9565C6.08156 12.0145 5.91819 12.0145 5.77245 11.9565L5.75218 11.9485C2.90419 10.8155 0.910022 10.0222 0.811329 2.27711C0.80703 1.93976 1.08136 1.66475 1.41781 1.63979Z" fill="#FF7B00"/>
<path d="M3.32077 3.49501H4.595L5.94082 6.77843H5.99809L7.34391 3.49501H8.61814V8.38196H7.61594V5.20114H7.57537L6.31068 8.3581H5.62823L4.36354 5.18921H4.32297V8.38196H3.32077V3.49501Z" fill="black"/>
</svg>
