<svg width="12" height="12" viewBox="0 0 12 12" fill="none" xmlns="http://www.w3.org/2000/svg">
<path fill-rule="evenodd" clip-rule="evenodd" d="M5.99988 10.7319C4.6608 10.195 3.8666 9.81895 3.26917 8.91745C2.63821 7.96535 2.13281 6.26021 2.04336 2.80314C3.42776 2.62087 4.78075 2.13121 5.99988 1.33613C7.21901 2.13121 8.57199 2.62087 9.9564 2.80314C9.86695 6.26021 9.36155 7.96535 8.73059 8.91745C8.13315 9.81895 7.33896 10.195 5.99988 10.7319ZM6.24758 11.9485C9.09557 10.8155 11.0897 10.0222 11.1884 2.27711C11.1927 1.93976 10.9184 1.66475 10.582 1.63979C9.10953 1.53052 7.6591 1.02528 6.39007 0.12407C6.15712 -0.0413566 5.84264 -0.0413566 5.60969 0.12407C4.34066 1.02528 2.89023 1.53052 1.41781 1.63979C1.08136 1.66475 0.80703 1.93976 0.811329 2.27711C0.910022 10.0222 2.90419 10.8155 5.75218 11.9485L5.77245 11.9565C5.91819 12.0145 6.08156 12.0145 6.22731 11.9565L6.24758 11.9485Z" fill="#C37242"/>
<path fill-rule="evenodd" clip-rule="evenodd" d="M5.97001 4.2C5.5353 4.2 5.17137 4.50881 5.08803 4.91936C5.02211 5.24411 4.70541 5.45393 4.38066 5.38801C4.05591 5.32209 3.84609 5.00539 3.91201 4.68064C4.10664 3.72185 4.95335 3 5.97001 3C7.12981 3 8.07001 3.9402 8.07001 5.1C8.07001 6.05174 7.43741 6.85455 6.57001 7.11287V7.2C6.57001 7.53137 6.30139 7.8 5.97001 7.8C5.63864 7.8 5.37001 7.53137 5.37001 7.2V6.9C5.37001 6.38015 5.78016 6.05669 6.14951 5.98222C6.56063 5.89933 6.87001 5.53512 6.87001 5.1C6.87001 4.60294 6.46707 4.2 5.97001 4.2Z" fill="#C37242"/>
<path d="M6.57002 9C6.57002 9.33137 6.30139 9.6 5.97002 9.6C5.63865 9.6 5.37002 9.33137 5.37002 9C5.37002 8.66863 5.63865 8.4 5.97002 8.4C6.30139 8.4 6.57002 8.66863 6.57002 9Z" fill="#C37242"/>
</svg>
