<svg width="16" height="16" viewBox="0 0 16 16" fill="none" xmlns="http://www.w3.org/2000/svg">
<path d="M6.3518 2.978L7.7063 4.91299C7.83001 5.08973 7.70357 5.33258 7.48783 5.33258H6.66668V9.59873C6.66668 9.89328 6.42789 10.1321 6.13334 10.1321C5.83879 10.1321 5.60001 9.89328 5.60001 9.59873V5.33258H4.77885C4.56311 5.33258 4.43667 5.08973 4.56039 4.91299L5.91488 2.978C6.02104 2.82634 6.24564 2.82634 6.3518 2.978Z" fill="white"/>
<path d="M9.86668 5.86643C9.57212 5.86643 9.33334 6.10522 9.33334 6.39977V10.6659H8.51218C8.29644 10.6659 8.17 10.9088 8.29372 11.0855L9.64821 13.0205C9.75437 13.1721 9.97898 13.1721 10.0851 13.0205L11.4396 11.0855C11.5633 10.9088 11.4369 10.6659 11.2212 10.6659H10.4V6.39977C10.4 6.10522 10.1612 5.86643 9.86668 5.86643Z" fill="white"/>
</svg>
