<svg width="16" height="16" viewBox="0 0 16 16" fill="none" xmlns="http://www.w3.org/2000/svg">
<path fill-rule="evenodd" clip-rule="evenodd" d="M1.19485 3.98089C0.676978 4.29161 0.67698 5.04216 1.19485 5.35288L7.58839 9.189C7.84174 9.34101 8.15824 9.34101 8.41158 9.189L14.8051 5.35288C15.323 5.04216 15.323 4.29161 14.8051 3.98089L8.41158 0.144767C8.15824 -0.00724038 7.84174 -0.00723996 7.58839 0.144768L1.19485 3.98089ZM3.14133 4.66689L7.99999 7.58208L12.8586 4.66689L7.99999 1.75169L3.14133 4.66689Z" fill="white"/>
<path d="M1.83902 7.38471C1.62022 7.25042 1.34453 7.25042 1.12572 7.38471C0.692151 7.6508 0.692151 8.28083 1.12572 8.54693L7.581 12.5088C7.83773 12.6663 8.1612 12.6663 8.41793 12.5088L14.8732 8.54693C15.3068 8.28083 15.3068 7.6508 14.8732 7.38471C14.6544 7.25042 14.3787 7.25042 14.1599 7.38471L8.41793 10.9088C8.1612 11.0663 7.83773 11.0663 7.581 10.9088L1.83902 7.38471Z" fill="white"/>
<path d="M1.12055 10.7513C1.33927 10.6172 1.61471 10.6172 1.83343 10.7513L7.58474 14.2765C7.84127 14.4338 8.16434 14.4338 8.42088 14.2765L14.1722 10.7513C14.3909 10.6172 14.6664 10.6172 14.8851 10.7513C15.3192 11.0174 15.3192 11.6482 14.8851 11.9143L8.42088 15.8765C8.16434 16.0338 7.84127 16.0338 7.58474 15.8765L1.12055 11.9143C0.68638 11.6482 0.68638 11.0174 1.12055 10.7513Z" fill="white"/>
</svg>
