<svg width="40" height="22" viewBox="0 0 40 22" fill="none" xmlns="http://www.w3.org/2000/svg">
<rect x="0.5" y="0.5" width="39" height="21" rx="3.5" stroke="white" stroke-opacity="0.3"/>
<path d="M13.1367 9.19922C13.1003 8.85807 12.9466 8.59245 12.6758 8.40234C12.4076 8.21224 12.0586 8.11719 11.6289 8.11719C11.3268 8.11719 11.0677 8.16276 10.8516 8.25391C10.6354 8.34505 10.4701 8.46875 10.3555 8.625C10.2409 8.78125 10.1823 8.95964 10.1797 9.16016C10.1797 9.32682 10.2174 9.47135 10.293 9.59375C10.3711 9.71615 10.4766 9.82031 10.6094 9.90625C10.7422 9.98958 10.8893 10.0599 11.0508 10.1172C11.2122 10.1745 11.375 10.2227 11.5391 10.2617L12.2891 10.4492C12.5911 10.5195 12.8815 10.6146 13.1602 10.7344C13.4414 10.8542 13.6927 11.0052 13.9141 11.1875C14.138 11.3698 14.3151 11.5898 14.4453 11.8477C14.5755 12.1055 14.6406 12.4076 14.6406 12.7539C14.6406 13.2227 14.5208 13.6354 14.2813 13.9922C14.0417 14.3464 13.6953 14.6237 13.2422 14.8242C12.7917 15.0221 12.2461 15.1211 11.6055 15.1211C10.9831 15.1211 10.4427 15.0247 9.98438 14.832C9.52865 14.6393 9.17188 14.3581 8.91406 13.9883C8.65885 13.6185 8.52083 13.168 8.5 12.6367H9.92578C9.94661 12.9154 10.0326 13.1471 10.1836 13.332C10.3346 13.5169 10.5313 13.6549 10.7734 13.7461C11.0182 13.8372 11.2917 13.8828 11.5938 13.8828C11.9089 13.8828 12.1849 13.8359 12.4219 13.7422C12.6615 13.6458 12.849 13.513 12.9844 13.3437C13.1198 13.1719 13.1888 12.9714 13.1914 12.7422C13.1888 12.5339 13.1276 12.362 13.0078 12.2266C12.888 12.0885 12.7201 11.974 12.5039 11.8828C12.2904 11.7891 12.0404 11.7057 11.7539 11.6328L10.8438 11.3984C10.1849 11.2292 9.66406 10.9727 9.28125 10.6289C8.90104 10.2826 8.71094 9.82292 8.71094 9.25C8.71094 8.77865 8.83854 8.36589 9.09375 8.01172C9.35156 7.65755 9.70182 7.38281 10.1445 7.1875C10.5872 6.98958 11.0885 6.89062 11.6484 6.89062C12.2161 6.89062 12.7135 6.98958 13.1406 7.1875C13.5703 7.38281 13.9076 7.65495 14.1523 8.00391C14.3971 8.35026 14.5234 8.7487 14.5312 9.19922H13.1367ZM22.7803 9.69922H21.3193C21.2777 9.45964 21.2008 9.2474 21.0889 9.0625C20.9769 8.875 20.8376 8.71615 20.6709 8.58594C20.5042 8.45573 20.3141 8.35807 20.1006 8.29297C19.8896 8.22526 19.6618 8.19141 19.417 8.19141C18.9821 8.19141 18.5967 8.30078 18.2607 8.51953C17.9248 8.73568 17.6618 9.05339 17.4717 9.47266C17.2816 9.88932 17.1865 10.3984 17.1865 11C17.1865 11.612 17.2816 12.1276 17.4717 12.5469C17.6644 12.9635 17.9274 13.2786 18.2607 13.4922C18.5967 13.7031 18.9808 13.8086 19.4131 13.8086C19.6527 13.8086 19.8766 13.7773 20.085 13.7148C20.2959 13.6497 20.4847 13.5547 20.6514 13.4297C20.8206 13.3047 20.9626 13.151 21.0771 12.9687C21.1943 12.7865 21.2751 12.5781 21.3193 12.3437L22.7803 12.3516C22.7256 12.7318 22.6071 13.0885 22.4248 13.4219C22.2451 13.7552 22.0094 14.0495 21.7178 14.3047C21.4261 14.5573 21.085 14.7552 20.6943 14.8984C20.3037 15.0391 19.8701 15.1094 19.3936 15.1094C18.6904 15.1094 18.0628 14.9466 17.5107 14.6211C16.9587 14.2956 16.5238 13.8255 16.2061 13.2109C15.8883 12.5964 15.7295 11.8594 15.7295 11C15.7295 10.138 15.8896 9.40104 16.21 8.78906C16.5303 8.17448 16.9665 7.70443 17.5186 7.37891C18.0706 7.05339 18.6956 6.89062 19.3936 6.89062C19.8389 6.89062 20.2529 6.95312 20.6357 7.07812C21.0186 7.20312 21.3597 7.38672 21.6592 7.62891C21.9587 7.86849 22.2048 8.16276 22.3975 8.51172C22.5928 8.85807 22.7204 9.25391 22.7803 9.69922ZM25.0381 15H23.4912L26.3076 7H28.0967L30.917 15H29.3701L27.2334 8.64062H27.1709L25.0381 15ZM25.0889 11.8633H29.3076V13.0273H25.0889V11.8633Z" fill="white" fill-opacity="0.7"/>
</svg>
