<svg xmlns="http://www.w3.org/2000/svg" width="56" height="56" fill="none" viewBox="0 0 56 56">
  <rect width="53" height="53" x="1.5" y="1.5" fill="#fff" rx="10.5"/>
  <rect width="53" height="53" x="1.5" y="1.5" stroke="url(#a)" stroke-width="3" rx="10.5"/>
  <path fill="#343434" fill-rule="evenodd" d="M28.412 37.914c4.747-1.888 8.07-3.21 8.235-16.119.007-.562-.45-1.02-1.011-1.062a13.815 13.815 0 0 1-6.987-2.526 1.126 1.126 0 0 0-1.3 0 13.814 13.814 0 0 1-6.987 2.526c-.56.042-1.017.5-1.01 1.062.164 12.909 3.488 14.23 8.234 16.12l.034.013c.243.096.515.096.758 0l.034-.014Z" clip-rule="evenodd"/>
  <path fill="#fff" d="M28 24a2.247 2.247 0 0 1 1 4.263V31a1 1 0 1 1-2 0v-2.737A2.247 2.247 0 0 1 28 24Z"/>
  <defs>
    <linearGradient id="a" x1="0" x2="56" y1="0" y2="56" gradientUnits="userSpaceOnUse">
      <stop offset=".399" stop-color="#DA0007"/>
      <stop offset=".51" stop-color="#FFA9A9"/>
      <stop offset=".625" stop-color="#DA0007"/>
    </linearGradient>
  </defs>
</svg>
