<svg xmlns="http://www.w3.org/2000/svg" width="56" height="56" fill="none" viewBox="0 0 56 56">
  <rect width="53" height="53" x="1.5" y="1.5" fill="#fff" rx="10.5"/>
  <rect width="53" height="53" x="1.5" y="1.5" stroke="#DA0007" stroke-width="3" rx="10.5"/>
  <path fill="#343434" fill-rule="evenodd" d="M36.495 22.009c-.161 12.679-3.426 13.977-8.088 15.832l-.033.013a1.01 1.01 0 0 1-.745 0l-.033-.013c-4.662-1.855-7.927-3.153-8.088-15.832-.007-.552.442-1.003.993-1.043a13.57 13.57 0 0 0 6.862-2.482c.381-.27.896-.27 1.277 0a13.57 13.57 0 0 0 6.862 2.482c.551.04 1 .49.993 1.043Zm-8.493 7.238 2.132 2.133a.88.88 0 1 0 1.245-1.244l-2.133-2.133 2.133-2.133a.88.88 0 1 0-1.245-1.245l-2.132 2.133-2.133-2.133a.88.88 0 0 0-1.245 1.245l2.133 2.133-2.133 2.132a.88.88 0 0 0 1.245 1.245l2.133-2.133Z" clip-rule="evenodd"/>
  <path fill="#fff" d="M31.38 31.38a.88.88 0 0 1-1.246 0l-2.132-2.133-2.133 2.133a.88.88 0 1 1-1.245-1.245l2.133-2.132-2.133-2.133a.88.88 0 0 1 1.245-1.245l2.133 2.133 2.132-2.133a.88.88 0 0 1 1.245 1.245l-2.133 2.133 2.133 2.133a.88.88 0 0 1 0 1.244Z"/>
</svg>
