<svg width="121" height="30" viewBox="0 0 121 30" fill="none" xmlns="http://www.w3.org/2000/svg">
<path fill-rule="evenodd" clip-rule="evenodd" d="M119.281 1.375C119.668 1.39244 120.033 1.57542 120.281 1.87598C120.502 2.14422 120.609 2.48744 120.581 2.84277C120.554 3.18493 120.404 3.50775 120.161 3.75195L113.502 9.90527C113.447 9.96162 113.412 10.0486 113.412 10.1396C113.412 10.2295 113.448 10.3151 113.511 10.3809L117.146 13.5117C117.418 13.7814 117.571 14.1463 117.576 14.5205C117.582 14.9135 117.431 15.2733 117.152 15.5322C117.024 15.6515 116.874 15.7455 116.711 15.8086C116.551 15.8703 116.384 15.9014 116.214 15.9014C116.037 15.9013 115.862 15.8679 115.697 15.8008C115.527 15.731 115.374 15.6305 115.242 15.499L115.227 15.4824L112.06 11.8115C111.941 11.6977 111.715 11.6975 111.586 11.8223L108.422 15.4912C108.284 15.6306 108.129 15.732 107.959 15.8018C107.638 15.9318 107.27 15.9353 106.946 15.8105C106.783 15.7475 106.634 15.6548 106.505 15.5342C106.226 15.2752 106.076 14.9166 106.081 14.5234C106.086 14.1505 106.239 13.7841 106.502 13.5225L106.519 13.5059L110.157 10.3721C110.21 10.3171 110.244 10.2309 110.244 10.1396C110.244 10.0485 110.209 9.9628 110.146 9.89844L106.508 6.76367C106.254 6.51149 106.105 6.1897 106.078 5.84766C106.05 5.49208 106.158 5.14824 106.379 4.87988C106.627 4.5794 106.992 4.39732 107.38 4.37988C107.766 4.36116 108.142 4.50675 108.414 4.78027L108.431 4.79785L111.597 8.46875C111.716 8.5828 111.948 8.58022 112.074 8.4541L118.236 1.78809C118.503 1.52125 118.858 1.37402 119.219 1.37402C119.239 1.37402 119.26 1.37368 119.281 1.375ZM6.03809 1.05469C9.44053 1.05485 11.0787 2.89855 11.2236 6.75195H8.41504C8.31306 4.62012 7.57544 3.63691 6.03809 3.63672C4.23477 3.63672 3.51664 4.96872 3.5166 8.45312C3.5166 12.0397 4.19313 13.2705 6.03809 13.2705C7.6157 13.2703 8.33359 12.3887 8.45703 10.1133H11.3057C11.1406 14.007 9.44054 15.8524 6.03809 15.8525C2.24619 15.8525 0.585938 13.5976 0.585938 8.45312C0.586002 3.30891 2.24626 1.05469 6.03809 1.05469ZM31.0088 4.53809C34.5145 4.53825 36.1322 6.4234 35.7432 10.6055H28.5693C28.6713 12.7375 29.4303 13.6396 31.0283 13.6396C32.197 13.6396 32.975 13.1684 33.1602 12.2051H35.7021C35.4566 14.4392 33.7547 15.7314 30.9463 15.7314C27.6056 15.73 25.8439 13.9052 25.8438 10.1338C25.8438 6.34188 27.6275 4.53809 31.0088 4.53809ZM86.6191 4.53906C89.5708 4.53917 90.9854 5.8105 90.9854 8.43359V15.5264H88.8525L88.5859 14.4189H87.9912L87.3975 15.0137C86.9064 15.5048 86.1263 15.7314 85.0811 15.7314C82.7652 15.7301 81.5361 14.6229 81.5361 12.6143C81.5362 10.4822 82.9507 9.35547 85.4102 9.35547H88.2178V8.55566C88.2178 7.22334 87.6238 6.66998 86.3936 6.66992C85.3485 6.66992 84.6104 7.08065 84.5283 8.08398H82.0273C82.1094 5.85018 83.6674 4.53906 86.6191 4.53906ZM43.3438 4.53809C46.4174 4.5382 48.0368 6.05562 48.1201 8.8623H45.4355C45.312 7.48989 44.6153 6.87402 43.3447 6.87402C41.7668 6.87403 41.0693 7.81786 41.0693 10.1338C41.0694 12.4494 41.7655 13.3926 43.3447 13.3926C44.6355 13.3926 45.3537 12.7777 45.457 11.2803H48.1836C48.1017 14.1906 46.4399 15.7285 43.3457 15.7285C39.9822 15.7297 38.2189 13.9051 38.2188 10.1338C38.2188 6.34188 39.9826 4.53809 43.3438 4.53809ZM53.7891 8.53418H55.04L57.8682 4.74219H61.0254L57.3555 9.76465L61.1475 15.5234H57.8887L54.998 10.9951H53.7891V15.5244H51.0225V0.355469H53.7891V8.53418ZM75.9141 4.53809C78.2715 4.53811 79.4186 5.74717 79.4199 8.18652V15.5244H76.6533V8.9248C76.6533 7.59242 76.0777 6.99806 74.8486 6.99805C73.5418 6.99805 72.8872 7.64832 72.8818 8.9082L72.8584 8.88379V15.5244H70.0918V8.9248C70.0918 7.59257 69.5192 6.9982 68.2891 6.99805C66.9768 6.99805 66.3203 7.65413 66.3203 8.9248V15.5244H63.5518V4.74316H65.6006L65.8877 5.85059H66.4824L67.0771 5.25586C67.5897 4.74341 68.3691 4.5381 69.3525 4.53809C70.7681 4.53809 71.7469 4.97574 72.3037 5.85059H73.0439L73.6387 5.25586C74.1512 4.74346 74.9307 4.53809 75.9141 4.53809ZM16.5361 3.94238L16.29 5.70508L16.8643 5.84863L17.459 5.25488C17.9715 4.74233 18.6893 4.53712 19.6514 4.53711C21.9686 4.53711 23.0742 5.74617 23.0742 8.18555V15.5234H20.3076V8.92285C20.3076 7.59059 19.7329 6.99609 18.5039 6.99609C17.1919 6.99619 16.5362 7.6524 16.5361 8.92285V15.5234H13.7686V0.355469H16.5361V3.94238ZM104.11 7.01758H101.384C100.072 7.01759 99.3955 7.6526 99.3955 8.82129V13.1875H102.838V15.5234H93.6553V13.1875H96.627V7.05762H94.0039V4.74316H98.6152L98.8828 5.85059H99.4971L100.092 5.25586C100.584 4.74339 101.362 4.53811 102.367 4.53809H104.11V7.01758ZM86.1064 10.9541C84.9378 10.9541 84.3428 11.447 84.3428 12.3486C84.3428 13.1469 84.8153 13.6591 86.0039 13.6592C87.4181 13.6592 88.2177 12.9216 88.2178 11.6309V10.9541H86.1064ZM31.0088 6.58691C29.6363 6.58691 28.8765 7.30475 28.6309 8.8623H33.2021C33.1604 7.38673 32.4427 6.58709 31.0088 6.58691Z" fill="#121185"/>
<path d="M5.18432 19.864H6.03171L7.39004 27.7148H6.60495L6.18125 25.1851H2.46766L0.82271 27.7148H0.000236208L5.18432 19.864ZM5.3837 20.7114L2.89136 24.5246H6.0691L5.43355 20.7114H5.3837ZM11.0295 19.864H11.7896L9.83312 27.7148H9.07296L11.0295 19.864ZM16.8698 22.3065L17.0318 26.6681H17.0817L19.4992 22.3065H20.2594L17.1564 27.7148H16.4461L16.2966 23.3782H16.2467L13.879 27.7148H13.1562L12.8073 22.3065H13.555L13.7668 26.6681H13.8167L16.2093 22.3065H16.8698ZM24.5358 25.2973L24.6106 24.9733L23.003 25.1851C22.031 25.3222 21.3581 25.5963 21.3581 26.4313C21.3581 26.9796 21.7444 27.2787 22.3176 27.2787C23.4018 27.2787 24.2243 26.5061 24.5358 25.2973ZM25.4954 24.3502L24.9097 26.693C24.81 27.0668 24.9471 27.2288 25.2212 27.2288C25.3832 27.2288 25.5452 27.1915 25.7321 27.1167L25.6325 27.5778C25.4331 27.7398 25.2212 27.827 24.8972 27.827C24.324 27.827 24.0872 27.3535 24.1994 26.6556C23.8504 27.4033 23.0155 27.8644 22.1556 27.8644C21.2085 27.8644 20.6104 27.3161 20.6104 26.5061C20.6104 25.3097 21.6198 24.8113 22.9033 24.6493L24.7601 24.4L24.81 24.1882C25.0094 23.3283 24.6854 22.7675 23.7632 22.7675C23.028 22.7675 22.3675 23.0915 22.0061 23.8891L21.3705 23.7396C21.7818 22.7426 22.7538 22.1569 23.8754 22.1569C25.2835 22.1569 25.8194 23.0542 25.4954 24.3502ZM27.8531 29.8333H27.0431L28.5385 27.6276L27.6038 22.3065H28.364L29.0992 26.7802H29.1491L32.0651 22.3065H32.8502L27.8531 29.8333ZM33.217 25.696L33.8276 25.6462C33.7653 26.7927 34.6376 27.2787 35.485 27.2787C36.3947 27.2787 36.8683 26.8425 36.8683 26.2817C36.8683 25.7708 36.5069 25.5714 35.9336 25.397L35.2607 25.1976C34.4881 24.9733 34.0021 24.5122 34.0021 23.8019C34.0021 22.8423 34.7996 22.1569 35.9586 22.1569C37.429 22.1569 38.1892 22.9171 38.102 24.2754L37.5038 24.3253C37.5412 23.3034 36.9804 22.7426 35.9586 22.7426C35.2109 22.7426 34.7248 23.104 34.7248 23.7146C34.7248 24.1882 35.0488 24.4125 35.6221 24.5745L36.3075 24.7739C37.105 25.0106 37.6035 25.4717 37.6035 26.1821C37.6035 27.2787 36.6689 27.8644 35.485 27.8644C34.2264 27.8644 33.0924 27.1541 33.217 25.696ZM48.2627 27.7148H47.4277C47.3903 27.6401 47.3654 27.503 47.3654 27.2538C47.3654 26.7802 47.5773 25.9453 47.5773 25.4468C47.5773 24.8611 47.2408 24.4 46.2812 24.4H43.8761L43.0537 27.7148H42.281L44.2375 19.864H47.166C48.7611 19.864 49.5961 20.512 49.5961 21.6958C49.5961 23.0791 48.6241 23.9389 47.2283 24.1259C48.0384 24.2879 48.3748 24.7116 48.3748 25.397C48.3748 25.8705 48.1505 26.6805 48.1505 27.2538C48.1505 27.4531 48.1879 27.6027 48.2627 27.7148ZM44.0381 23.752H46.3311C47.7268 23.752 48.7985 23.1165 48.7985 21.7955C48.7985 20.973 48.2627 20.5244 47.0414 20.5244H44.8357L44.0381 23.752ZM54.8704 25.7833L55.5059 25.883C55.0698 27.1167 54.0604 27.8644 52.7394 27.8644C51.2814 27.8644 50.3717 27.0045 50.3717 25.559C50.3717 23.7769 51.7425 22.1569 53.5495 22.1569C55.2443 22.1569 55.6929 23.3782 55.6929 24.5246C55.6929 24.724 55.6555 25.0106 55.6181 25.1976H51.1568C50.9948 26.5434 51.6802 27.2413 52.8267 27.2413C53.8236 27.2413 54.509 26.7428 54.8704 25.7833ZM51.2814 24.6617H54.9202C55.0449 23.6025 54.6087 22.7675 53.4622 22.7675C52.3905 22.7675 51.568 23.6025 51.2814 24.6617ZM60.8335 25.2973L60.9083 24.9733L59.3007 25.1851C58.3287 25.3222 57.6558 25.5963 57.6558 26.4313C57.6558 26.9796 58.0421 27.2787 58.6153 27.2787C59.6995 27.2787 60.522 26.5061 60.8335 25.2973ZM61.7931 24.3502L61.2074 26.693C61.1077 27.0668 61.2448 27.2288 61.5189 27.2288C61.6809 27.2288 61.8429 27.1915 62.0299 27.1167L61.9302 27.5778C61.7308 27.7398 61.5189 27.827 61.1949 27.827C60.6217 27.827 60.3849 27.3535 60.4971 26.6556C60.1481 27.4033 59.3132 27.8644 58.4533 27.8644C57.5062 27.8644 56.9081 27.3161 56.9081 26.5061C56.9081 25.3097 57.9175 24.8113 59.201 24.6493L61.0578 24.4L61.1077 24.1882C61.3071 23.3283 60.9831 22.7675 60.0609 22.7675C59.3257 22.7675 58.6652 23.0915 58.3038 23.8891L57.6682 23.7396C58.0795 22.7426 59.0515 22.1569 60.1731 22.1569C61.5812 22.1569 62.1171 23.0542 61.7931 24.3502ZM68.1715 25.4094L68.3086 24.8611C68.6202 23.6149 67.9722 22.7551 66.8257 22.7551C65.3178 22.7551 64.4206 24.238 64.4206 25.721C64.4206 26.7054 64.9564 27.2538 65.9409 27.2538C66.8631 27.2538 67.8849 26.5684 68.1715 25.4094ZM68.6326 23.4654L69.5299 19.864H70.29L68.3335 27.7148H67.5734L67.8351 26.6805C67.4363 27.3659 66.6138 27.8644 65.6667 27.8644C64.3333 27.8644 63.623 26.9796 63.623 25.721C63.623 24.076 64.757 22.1569 66.7883 22.1569C67.7728 22.1569 68.4457 22.7302 68.6326 23.4654ZM71.5431 29.8333H70.7331L72.2285 27.6276L71.2939 22.3065H72.0541L72.7893 26.7802H72.8391L75.7552 22.3065H76.5403L71.5431 29.8333ZM82.9844 27.7148H82.1994L83.9814 20.5244H81.0778L81.2523 19.864H87.8819L87.7074 20.5244H84.7665L82.9844 27.7148ZM89.3423 27.2662C90.7754 27.2662 91.6477 25.9702 91.6477 24.5122C91.6477 23.3906 90.9872 22.7551 90.0277 22.7551C88.5946 22.7551 87.7222 24.0511 87.7222 25.5091C87.7222 26.6307 88.3827 27.2662 89.3423 27.2662ZM89.3423 27.8644C87.9466 27.8644 86.9372 27.0045 86.9372 25.5091C86.9372 23.7271 88.1833 22.1569 90.0277 22.1569C91.4234 22.1569 92.4328 23.0168 92.4328 24.5122C92.4328 26.2942 91.1866 27.8644 89.3423 27.8644ZM102.648 27.7148H101.813C101.776 27.6401 101.751 27.503 101.751 27.2538C101.751 26.7802 101.963 25.9453 101.963 25.4468C101.963 24.8611 101.627 24.4 100.667 24.4H98.2618L97.4394 27.7148H96.6667L98.6232 19.864H101.552C103.147 19.864 103.982 20.512 103.982 21.6958C103.982 23.0791 103.01 23.9389 101.614 24.1259C102.424 24.2879 102.761 24.7116 102.761 25.397C102.761 25.8705 102.536 26.6805 102.536 27.2538C102.536 27.4531 102.574 27.6027 102.648 27.7148ZM98.4238 23.752H100.717C102.113 23.752 103.184 23.1165 103.184 21.7955C103.184 20.973 102.648 20.5244 101.427 20.5244H99.2214L98.4238 23.752ZM108.756 25.4219L109.529 22.3065H110.289L108.943 27.7148H108.183L108.445 26.6805C107.996 27.3659 107.298 27.8644 106.413 27.8644C105.105 27.8644 104.631 26.9547 104.955 25.6587L105.79 22.3065H106.55L105.716 25.6836C105.466 26.7054 105.728 27.2662 106.675 27.2662C107.535 27.2662 108.47 26.5933 108.756 25.4219ZM112.776 24.5994L112.003 27.7148H111.243L112.589 22.3065H113.349L113.087 23.3408C113.536 22.6554 114.234 22.1569 115.119 22.1569C116.452 22.1569 116.963 23.0666 116.639 24.3626L115.804 27.7148H115.044L115.879 24.3377C116.116 23.3782 115.804 22.7551 114.857 22.7551C113.997 22.7551 113.062 23.428 112.776 24.5994Z" fill="#353AB0"/>
</svg>
