<svg width="120" height="30" viewBox="0 0 120 30" fill="none" xmlns="http://www.w3.org/2000/svg">
<path fill-rule="evenodd" clip-rule="evenodd" d="M118.695 1.37695C119.082 1.3944 119.447 1.57737 119.695 1.87793C119.916 2.14615 120.024 2.48941 119.996 2.84473C119.969 3.18688 119.818 3.5097 119.575 3.75391L112.916 9.90723C112.861 9.96357 112.826 10.0506 112.826 10.1416C112.826 10.2315 112.862 10.3171 112.925 10.3828L116.56 13.5137C116.832 13.7833 116.985 14.1482 116.99 14.5225C116.996 14.9155 116.845 15.2752 116.566 15.5342C116.438 15.6535 116.289 15.7475 116.125 15.8105C115.965 15.8723 115.798 15.9033 115.628 15.9033C115.451 15.9033 115.276 15.8698 115.111 15.8027C114.941 15.733 114.788 15.6324 114.656 15.501L114.641 15.4844L111.474 11.8135C111.355 11.6996 111.129 11.6995 111 11.8242L107.836 15.4932C107.698 15.6325 107.543 15.734 107.373 15.8037C107.052 15.9338 106.684 15.9372 106.36 15.8125C106.197 15.7495 106.048 15.6568 105.919 15.5361C105.64 15.2772 105.49 14.9185 105.495 14.5254C105.5 14.1524 105.653 13.7861 105.916 13.5244L105.933 13.5078L109.571 10.374C109.624 10.319 109.658 10.2328 109.658 10.1416C109.658 10.0505 109.624 9.96476 109.561 9.90039L105.922 6.76562C105.668 6.51344 105.519 6.19166 105.492 5.84961C105.464 5.49403 105.572 5.15019 105.793 4.88184C106.041 4.58135 106.406 4.39928 106.794 4.38184C107.18 4.36311 107.556 4.50871 107.828 4.78223L107.845 4.7998L111.011 8.4707C111.13 8.58475 111.362 8.58217 111.488 8.45605L117.65 1.79004C117.917 1.5232 118.272 1.37598 118.633 1.37598C118.653 1.37598 118.674 1.37563 118.695 1.37695ZM5.45215 1.05664C8.85459 1.05681 10.4928 2.90051 10.6377 6.75391H7.8291C7.72712 4.62207 6.98951 3.63887 5.45215 3.63867C3.64884 3.63867 2.93071 4.97067 2.93066 8.45508C2.93066 12.0417 3.60719 13.2725 5.45215 13.2725C7.02976 13.2723 7.74765 12.3907 7.87109 10.1152H10.7197C10.5547 14.0089 8.85461 15.8543 5.45215 15.8545C1.66025 15.8545 0 13.5995 0 8.45508C6.47857e-05 3.31086 1.66033 1.05664 5.45215 1.05664ZM30.4229 4.54004C33.9286 4.5402 35.5463 6.42535 35.1572 10.6074H27.9834C28.0854 12.7395 28.8444 13.6416 30.4424 13.6416C31.6111 13.6416 32.389 13.1704 32.5742 12.207H35.1162C34.8707 14.4411 33.1687 15.7334 30.3604 15.7334C27.0196 15.7319 25.2579 13.9071 25.2578 10.1357C25.2578 6.34384 27.0415 4.54004 30.4229 4.54004ZM86.0332 4.54102C88.9849 4.54112 90.3994 5.81245 90.3994 8.43555V15.5283H88.2666L88 14.4209H87.4053L86.8115 15.0156C86.3204 15.5067 85.5404 15.7334 84.4951 15.7334C82.1792 15.732 80.9502 14.6249 80.9502 12.6162C80.9502 10.4841 82.3647 9.35742 84.8242 9.35742H87.6318V8.55762C87.6318 7.22528 87.0379 6.67193 85.8076 6.67188C84.7625 6.67188 84.0244 7.0826 83.9424 8.08594H81.4414C81.5235 5.85213 83.0815 4.54102 86.0332 4.54102ZM42.7578 4.54004C45.8315 4.54016 47.4509 6.05757 47.5342 8.86426H44.8496C44.7261 7.49184 44.0294 6.87598 42.7588 6.87598C41.1809 6.87598 40.4834 7.81982 40.4834 10.1357C40.4835 12.4513 41.1796 13.3945 42.7588 13.3945C44.0496 13.3945 44.7678 12.7797 44.8711 11.2822H47.5977C47.5158 14.1926 45.8539 15.7305 42.7598 15.7305C39.3963 15.7317 37.6329 13.9071 37.6328 10.1357C37.6328 6.34384 39.3966 4.54004 42.7578 4.54004ZM53.2031 8.53613H54.4541L57.2822 4.74414H60.4395L56.7695 9.7666L60.5615 15.5254H57.3027L54.4121 10.9971H53.2031V15.5264H50.4365V0.357422H53.2031V8.53613ZM75.3281 4.54004C77.6856 4.54006 78.8326 5.74912 78.834 8.18848V15.5264H76.0674V8.92676C76.0674 7.59437 75.4918 7.00001 74.2627 7C72.9558 7 72.3013 7.65027 72.2959 8.91016L72.2725 8.88574V15.5264H69.5059V8.92676C69.5059 7.59452 68.9332 7.00015 67.7031 7C66.3909 7 65.7344 7.65608 65.7344 8.92676V15.5264H62.9658V4.74512H65.0146L65.3018 5.85254H65.8965L66.4912 5.25781C67.0038 4.74536 67.7832 4.54005 68.7666 4.54004C70.1822 4.54004 71.1609 4.97769 71.7178 5.85254H72.458L73.0527 5.25781C73.5653 4.7454 74.3447 4.54004 75.3281 4.54004ZM15.9502 3.94434L15.7041 5.70703L16.2783 5.85059L16.873 5.25684C17.3856 4.74428 18.1034 4.53907 19.0654 4.53906C21.3827 4.53906 22.4883 5.74812 22.4883 8.1875V15.5254H19.7217V8.9248C19.7216 7.59255 19.147 6.99805 17.918 6.99805C16.606 6.99814 15.9503 7.65435 15.9502 8.9248V15.5254H13.1826V0.357422H15.9502V3.94434ZM103.524 7.01953H100.798C99.4856 7.01955 98.8096 7.65456 98.8096 8.82324V13.1895H102.252V15.5254H93.0693V13.1895H96.041V7.05957H93.418V4.74512H98.0303L98.2969 5.85254H98.9111L99.5059 5.25781C99.9983 4.74535 100.776 4.54006 101.781 4.54004H103.524V7.01953ZM85.5205 10.9561C84.3518 10.9561 83.7568 11.4489 83.7568 12.3506C83.7568 13.1489 84.2294 13.661 85.418 13.6611C86.8322 13.6611 87.6318 12.9236 87.6318 11.6328V10.9561H85.5205ZM30.4229 6.58887C29.0503 6.58887 28.2905 7.30671 28.0449 8.86426H32.6162C32.5745 7.38868 31.8568 6.58904 30.4229 6.58887Z" fill="#FCF9FE"/>
<path d="M6.09838 19.9362H6.94578L8.30411 27.7871H7.51902L7.09532 25.2574H3.38172L1.73677 27.7871H0.914299L6.09838 19.9362ZM6.29777 20.7836L3.80542 24.5969H6.98316L6.34761 20.7836H6.29777ZM11.9435 19.9362H12.7037L10.7472 27.7871H9.98702L11.9435 19.9362ZM17.7839 22.3787L17.9459 26.7403H17.9957L20.4133 22.3787H21.1735L18.0705 27.7871H17.3602L17.2106 23.4504H17.1608L14.7931 27.7871H14.0703L13.7214 22.3787H14.4691L14.6809 26.7403H14.7308L17.1234 22.3787H17.7839ZM25.4499 25.3695L25.5247 25.0455L23.9171 25.2574C22.9451 25.3945 22.2721 25.6686 22.2721 26.5036C22.2721 27.0519 22.6585 27.3509 23.2317 27.3509C24.3159 27.3509 25.1383 26.5783 25.4499 25.3695ZM26.4094 24.4224L25.8237 26.7652C25.724 27.1391 25.8611 27.3011 26.1353 27.3011C26.2973 27.3011 26.4593 27.2637 26.6462 27.1889L26.5465 27.65C26.3471 27.812 26.1353 27.8993 25.8113 27.8993C25.238 27.8993 25.0013 27.4257 25.1134 26.7279C24.7645 27.4756 23.9296 27.9367 23.0697 27.9367C22.1226 27.9367 21.5244 27.3883 21.5244 26.5783C21.5244 25.382 22.5338 24.8835 23.8174 24.7215L25.6742 24.4723L25.724 24.2604C25.9234 23.4006 25.5994 22.8398 24.6773 22.8398C23.942 22.8398 23.2815 23.1638 22.9202 23.9614L22.2846 23.8118C22.6958 22.8149 23.6679 22.2292 24.7894 22.2292C26.1976 22.2292 26.7334 23.1264 26.4094 24.4224ZM28.7671 29.9056H27.9571L29.4525 27.6999L28.5179 22.3787H29.2781L30.0133 26.8525H30.0632L32.9792 22.3787H33.7643L28.7671 29.9056ZM34.131 25.7683L34.7417 25.7185C34.6794 26.8649 35.5517 27.3509 36.3991 27.3509C37.3088 27.3509 37.7823 26.9148 37.7823 26.354C37.7823 25.8431 37.4209 25.6437 36.8477 25.4692L36.1748 25.2698C35.4021 25.0455 34.9161 24.5844 34.9161 23.8741C34.9161 22.9146 35.7137 22.2292 36.8726 22.2292C38.3431 22.2292 39.1033 22.9893 39.016 24.3477L38.4179 24.3975C38.4553 23.3757 37.8945 22.8149 36.8726 22.8149C36.1249 22.8149 35.6389 23.1763 35.6389 23.7869C35.6389 24.2604 35.9629 24.4848 36.5362 24.6468L37.2216 24.8461C38.0191 25.0829 38.5176 25.544 38.5176 26.2543C38.5176 27.3509 37.5829 27.9367 36.3991 27.9367C35.1404 27.9367 34.0064 27.2263 34.131 25.7683ZM49.1767 27.7871H48.3418C48.3044 27.7123 48.2795 27.5753 48.2795 27.326C48.2795 26.8525 48.4913 26.0175 48.4913 25.5191C48.4913 24.9334 48.1549 24.4723 47.1953 24.4723H44.7902L43.9677 27.7871H43.1951L45.1516 19.9362H48.0801C49.6752 19.9362 50.5101 20.5842 50.5101 21.7681C50.5101 23.1513 49.5381 24.0112 48.1424 24.1981C48.9524 24.3601 49.2889 24.7838 49.2889 25.4692C49.2889 25.9428 49.0646 26.7528 49.0646 27.326C49.0646 27.5254 49.102 27.675 49.1767 27.7871ZM44.9522 23.8243H47.2452C48.6409 23.8243 49.7126 23.1887 49.7126 21.8678C49.7126 21.0453 49.1767 20.5967 47.9555 20.5967H45.7498L44.9522 23.8243ZM55.7845 25.8555L56.42 25.9552C55.9839 27.1889 54.9745 27.9367 53.6535 27.9367C52.1955 27.9367 51.2858 27.0768 51.2858 25.6312C51.2858 23.8492 52.6566 22.2292 54.4635 22.2292C56.1583 22.2292 56.6069 23.4504 56.6069 24.5969C56.6069 24.7963 56.5696 25.0829 56.5322 25.2698H52.0709C51.9089 26.6157 52.5943 27.3136 53.7407 27.3136C54.7377 27.3136 55.4231 26.8151 55.7845 25.8555ZM52.1955 24.734H55.8343C55.9589 23.6747 55.5228 22.8398 54.3763 22.8398C53.3046 22.8398 52.4821 23.6747 52.1955 24.734ZM61.7476 25.3695L61.8224 25.0455L60.2148 25.2574C59.2428 25.3945 58.5699 25.6686 58.5699 26.5036C58.5699 27.0519 58.9562 27.3509 59.5294 27.3509C60.6136 27.3509 61.4361 26.5783 61.7476 25.3695ZM62.7072 24.4224L62.1215 26.7652C62.0218 27.1391 62.1588 27.3011 62.433 27.3011C62.595 27.3011 62.757 27.2637 62.9439 27.1889L62.8442 27.65C62.6448 27.812 62.433 27.8993 62.109 27.8993C61.5358 27.8993 61.299 27.4257 61.4111 26.7279C61.0622 27.4756 60.2273 27.9367 59.3674 27.9367C58.4203 27.9367 57.8222 27.3883 57.8222 26.5783C57.8222 25.382 58.8316 24.8835 60.1151 24.7215L61.9719 24.4723L62.0218 24.2604C62.2211 23.4006 61.8971 22.8398 60.975 22.8398C60.2397 22.8398 59.5793 23.1638 59.2179 23.9614L58.5823 23.8118C58.9936 22.8149 59.9656 22.2292 61.0871 22.2292C62.4953 22.2292 63.0312 23.1264 62.7072 24.4224ZM69.0856 25.4817L69.2227 24.9334C69.5342 23.6872 68.8862 22.8273 67.7397 22.8273C66.2319 22.8273 65.3346 24.3103 65.3346 25.7932C65.3346 26.7777 65.8705 27.326 66.855 27.326C67.7771 27.326 68.799 26.6406 69.0856 25.4817ZM69.5467 23.5377L70.4439 19.9362H71.2041L69.2476 27.7871H68.4875L68.7491 26.7528C68.3504 27.4382 67.5279 27.9367 66.5808 27.9367C65.2474 27.9367 64.5371 27.0519 64.5371 25.7932C64.5371 24.1483 65.6711 22.2292 67.7024 22.2292C68.6868 22.2292 69.3598 22.8024 69.5467 23.5377ZM72.4572 29.9056H71.6472L73.1426 27.6999L72.208 22.3787H72.9681L73.7034 26.8525H73.7532L76.6693 22.3787H77.4543L72.4572 29.9056ZM83.8985 27.7871H83.1134L84.8955 20.5967H81.9919L82.1663 19.9362H88.796L88.6215 20.5967H85.6806L83.8985 27.7871ZM90.2563 27.3385C91.6894 27.3385 92.5618 26.0425 92.5618 24.5844C92.5618 23.4629 91.9013 22.8273 90.9417 22.8273C89.5086 22.8273 88.6363 24.1234 88.6363 25.5814C88.6363 26.7029 89.2968 27.3385 90.2563 27.3385ZM90.2563 27.9367C88.8606 27.9367 87.8512 27.0768 87.8512 25.5814C87.8512 23.7994 89.0974 22.2292 90.9417 22.2292C92.3375 22.2292 93.3469 23.089 93.3469 24.5844C93.3469 26.3665 92.1007 27.9367 90.2563 27.9367ZM103.562 27.7871H102.728C102.69 27.7123 102.665 27.5753 102.665 27.326C102.665 26.8525 102.877 26.0175 102.877 25.5191C102.877 24.9334 102.541 24.4723 101.581 24.4723H99.1759L98.3534 27.7871H97.5808L99.5373 19.9362H102.466C104.061 19.9362 104.896 20.5842 104.896 21.7681C104.896 23.1513 103.924 24.0112 102.528 24.1981C103.338 24.3601 103.675 24.7838 103.675 25.4692C103.675 25.9428 103.45 26.7528 103.45 27.326C103.45 27.5254 103.488 27.675 103.562 27.7871ZM99.3379 23.8243H101.631C103.027 23.8243 104.098 23.1887 104.098 21.8678C104.098 21.0453 103.562 20.5967 102.341 20.5967H100.135L99.3379 23.8243ZM109.67 25.4942L110.443 22.3787H111.203L109.857 27.7871H109.097L109.359 26.7528C108.91 27.4382 108.212 27.9367 107.327 27.9367C106.019 27.9367 105.545 27.0269 105.869 25.7309L106.704 22.3787H107.465L106.63 25.7558C106.38 26.7777 106.642 27.3385 107.589 27.3385C108.449 27.3385 109.384 26.6656 109.67 25.4942ZM113.69 24.6717L112.917 27.7871H112.157L113.503 22.3787H114.263L114.001 23.413C114.45 22.7276 115.148 22.2292 116.033 22.2292C117.366 22.2292 117.877 23.1389 117.553 24.4349L116.718 27.7871H115.958L116.793 24.41C117.03 23.4504 116.718 22.8273 115.771 22.8273C114.911 22.8273 113.977 23.5003 113.69 24.6717Z" fill="#B2B8FA"/>
</svg>
