<svg width="220" height="55" viewBox="0 0 220 55" fill="none" xmlns="http://www.w3.org/2000/svg">
<path d="M217.608 1.86914C218.317 1.90115 218.986 2.23514 219.441 2.78613C219.847 3.27812 220.044 3.90866 219.992 4.56055C219.943 5.18769 219.667 5.77797 219.222 6.22559L207.014 17.5068C206.913 17.6102 206.849 17.7702 206.849 17.9375C206.849 18.1023 206.913 18.2594 207.028 18.3799L213.692 24.1191C214.192 24.6135 214.472 25.2826 214.481 25.9688C214.491 26.6895 214.216 27.3494 213.704 27.8242C213.468 28.043 213.195 28.2155 212.896 28.3311C212.603 28.4442 212.297 28.5 211.984 28.5C211.66 28.4999 211.34 28.4383 211.038 28.3154C210.726 28.1876 210.445 28.0036 210.204 27.7627L210.175 27.7324L204.369 21.0029C204.153 20.7939 203.737 20.7938 203.501 21.0225L197.7 27.748C197.447 28.0038 197.164 28.1905 196.852 28.3184C196.264 28.557 195.587 28.5617 194.994 28.333C194.694 28.2174 194.421 28.0476 194.185 27.8262C193.673 27.3514 193.397 26.6943 193.407 25.9736C193.417 25.2899 193.698 24.6183 194.18 24.1387L194.209 24.1094L200.881 18.3633C200.977 18.2624 201.041 18.1047 201.041 17.9375C201.041 17.7702 200.977 17.6122 200.861 17.4941L194.189 11.748C193.725 11.2857 193.452 10.6955 193.402 10.0684C193.351 9.41647 193.547 8.78594 193.953 8.29395C194.408 7.74309 195.077 7.40906 195.788 7.37695C196.497 7.34251 197.186 7.61047 197.686 8.1123L197.715 8.14453L203.521 14.875C203.739 15.0837 204.164 15.0786 204.396 14.8477L215.692 2.62695C216.182 2.13756 216.831 1.86634 217.492 1.86621C217.529 1.86621 217.569 1.86668 217.608 1.86914ZM9.99512 1.28125C16.2333 1.28138 19.2373 4.66171 19.5029 11.7266H14.3535C14.1666 7.81786 12.814 6.0148 9.99512 6.01465C6.68896 6.01465 5.37208 8.45725 5.37207 14.8457C5.37207 21.4212 6.61269 23.6768 9.99512 23.6768C12.8878 23.6766 14.2034 22.0606 14.4297 17.8887H19.6523C19.3498 25.0273 16.2333 28.41 9.99512 28.4102C3.04331 28.4102 0 24.2772 0 14.8457C1.37949e-05 5.41429 3.04332 1.28125 9.99512 1.28125ZM55.7744 7.66797C62.2022 7.66798 65.1685 11.1243 64.4551 18.792H51.3018C51.4888 22.7005 52.8818 24.3535 55.8115 24.3535C57.954 24.3535 59.3803 23.4898 59.7197 21.7236H64.3789C63.9287 25.8195 60.8098 28.1885 55.6611 28.1885C49.536 28.186 46.3057 24.8406 46.3057 17.9258C46.3057 10.974 49.5753 7.66797 55.7744 7.66797ZM157.727 7.66992C163.138 7.66992 165.731 9.99957 165.731 14.8086V27.8125H161.822L161.333 25.7832H160.243L159.153 26.8721C158.253 27.7724 156.824 28.1884 154.908 28.1885C150.662 28.186 148.408 26.1562 148.408 22.4736C148.408 18.5651 151.002 16.499 155.511 16.499H160.659V15.0332C160.659 12.5905 159.569 11.5762 157.313 11.5762C155.397 11.5762 154.045 12.3292 153.895 14.1689H149.309C149.459 10.0734 152.315 7.67003 157.727 7.66992ZM78.3887 7.66797C84.0243 7.66797 86.9939 10.4497 87.1465 15.5957H82.2236C81.9972 13.0796 80.7208 11.9503 78.3916 11.9502C75.4987 11.9502 74.2188 13.6799 74.2188 17.9258C74.2188 22.1715 75.4963 23.9004 78.3916 23.9004C80.7577 23.9002 82.0732 22.7741 82.2627 20.0293H87.2617C87.1115 25.3647 84.0661 28.1836 78.3936 28.1836C72.2265 28.186 68.9942 24.8406 68.9941 17.9258C68.9941 10.974 72.2265 7.66797 78.3887 7.66797ZM97.5391 14.9932H99.832L105.018 8.04199H110.806L104.078 17.249L111.029 27.8076H105.055L99.7559 19.5049H97.5391V27.8096H92.4668V0H97.5391V14.9932ZM138.102 7.66797C142.424 7.66801 144.527 9.88429 144.529 14.3564V27.8096H139.457V15.709C139.457 13.2665 138.402 12.1768 136.148 12.1768C133.752 12.1768 132.552 13.3698 132.542 15.6797L132.5 15.6357V27.8096H127.428V15.709C127.428 13.2664 126.377 12.1768 124.121 12.1768C121.716 12.1769 120.513 13.3797 120.513 15.709V27.8096H115.438V8.04395H119.194L119.721 10.0732H120.811L121.9 8.9834C122.84 8.04388 124.269 7.66798 126.072 7.66797C128.667 7.66797 130.461 8.46954 131.481 10.0732H132.84L133.93 8.9834C134.869 8.04392 136.299 7.66797 138.102 7.66797ZM29.2412 6.5752L28.791 9.80762L29.8438 10.0713L30.9336 8.98145C31.8732 8.04179 33.1895 7.66508 34.9531 7.66504C39.2014 7.66504 41.2284 9.8815 41.2285 14.3535V27.8076H36.1562V15.707C36.1562 13.2645 35.1036 12.174 32.8506 12.1738C30.4448 12.1738 29.2412 13.3775 29.2412 15.707V27.8076H24.1689V0H29.2412V6.5752ZM189.795 12.2139H184.796C182.39 12.214 181.15 13.3772 181.15 15.5195V23.5244H187.463V27.8076H170.627V23.5244H176.075V12.2871H171.267V8.04395H179.722L180.211 10.0732H181.338L182.428 8.9834C183.331 8.04399 184.757 7.66797 186.6 7.66797H189.795V12.2139ZM156.787 19.4307C154.645 19.4307 153.555 20.3342 153.555 21.9873C153.555 23.4508 154.421 24.3906 156.601 24.3906C159.193 24.3905 160.659 23.0373 160.659 20.6709V19.4307H156.787ZM55.7744 11.4238C53.258 11.4238 51.8653 12.7399 51.415 15.5957H59.7969C59.7205 12.89 58.404 11.4238 55.7744 11.4238Z" fill="#FCF9FE"/>
<path d="M11.1804 36.3938H12.7339L15.2242 50.7871H13.7849L13.0081 46.1493H6.19982L3.18408 50.7871H1.67621L11.1804 36.3938ZM11.5459 37.9474L6.9766 44.9384H12.8025L11.6373 37.9474H11.5459ZM21.8964 36.3938H23.2901L19.7032 50.7871H18.3095L21.8964 36.3938ZM32.6038 40.8717L32.9008 48.868H32.9922L37.4244 40.8717H38.818L33.1293 50.7871H31.827L31.5528 42.8365H31.4615L27.1206 50.7871H25.7955L25.1558 40.8717H26.5266L26.915 48.868H27.0064L31.3929 40.8717H32.6038ZM46.6581 46.3549L46.7952 45.7609L43.848 46.1493C42.066 46.4006 40.8323 46.9032 40.8323 48.4339C40.8323 49.4392 41.5405 49.9875 42.5915 49.9875C44.5791 49.9875 46.087 48.571 46.6581 46.3549ZM48.4173 44.6186L47.3435 48.9137C47.1608 49.5991 47.4121 49.8961 47.9147 49.8961C48.2117 49.8961 48.5087 49.8276 48.8514 49.6905L48.6686 50.5358C48.3031 50.8328 47.9147 50.9927 47.3207 50.9927C46.2697 50.9927 45.8357 50.1246 46.0413 48.8452C45.4016 50.2159 43.8709 51.0613 42.2945 51.0613C40.5581 51.0613 39.4615 50.056 39.4615 48.571C39.4615 46.3777 41.3121 45.4639 43.6652 45.1669L47.0694 44.7099L47.1608 44.3215C47.5263 42.7451 46.9323 41.717 45.2417 41.717C43.8937 41.717 42.6828 42.3111 42.0203 43.7732L40.8551 43.4991C41.6091 41.6714 43.3911 40.5976 45.4473 40.5976C48.0289 40.5976 49.0113 42.2425 48.4173 44.6186ZM52.7398 54.671H51.2547L53.9963 50.6272L52.2828 40.8717H53.6765L55.0244 49.0736H55.1158L60.4619 40.8717H61.9012L52.7398 54.671ZM62.5736 47.086L63.6931 46.9946C63.5788 49.0965 65.1781 49.9875 66.7316 49.9875C68.3994 49.9875 69.2676 49.1879 69.2676 48.1598C69.2676 47.2231 68.6051 46.8575 67.5541 46.5377L66.3204 46.1721C64.9039 45.7609 64.0129 44.9156 64.0129 43.6133C64.0129 41.8541 65.4751 40.5976 67.5998 40.5976C70.2957 40.5976 71.6893 41.9912 71.5294 44.4815L70.4328 44.5729C70.5013 42.6994 69.4732 41.6714 67.5998 41.6714C66.229 41.6714 65.338 42.3339 65.338 43.4534C65.338 44.3215 65.932 44.7328 66.983 45.0298L68.2395 45.3953C69.7017 45.8294 70.6156 46.6747 70.6156 47.977C70.6156 49.9875 68.9021 51.0613 66.7316 51.0613C64.4242 51.0613 62.3451 49.759 62.5736 47.086ZM90.1573 50.7871H88.6266C88.5581 50.65 88.5124 50.3987 88.5124 49.9418C88.5124 49.0736 88.9008 47.5429 88.9008 46.629C88.9008 45.5553 88.2839 44.7099 86.5248 44.7099H82.1154L80.6075 50.7871H79.191L82.7779 36.3938H88.1469C91.0712 36.3938 92.6019 37.5818 92.6019 39.7522C92.6019 42.2882 90.8199 43.8646 88.2611 44.2073C89.7461 44.5043 90.363 45.2811 90.363 46.5377C90.363 47.4058 89.9517 48.8908 89.9517 49.9418C89.9517 50.3073 90.0203 50.5815 90.1573 50.7871ZM82.4124 43.5219H86.6161C89.1749 43.5219 91.1397 42.3567 91.1397 39.935C91.1397 38.4271 90.1573 37.6047 87.9184 37.6047H83.8746L82.4124 43.5219ZM102.272 47.2459L103.437 47.4287C102.637 49.6905 100.787 51.0613 98.3648 51.0613C95.6917 51.0613 94.0239 49.4849 94.0239 46.8347C94.0239 43.5676 96.5371 40.5976 99.8498 40.5976C102.957 40.5976 103.779 42.8365 103.779 44.9384C103.779 45.3039 103.711 45.8294 103.642 46.1721H95.4633C95.1663 48.6395 96.4228 49.9189 98.5247 49.9189C100.352 49.9189 101.609 49.0051 102.272 47.2459ZM95.6917 45.1897H102.363C102.591 43.2478 101.792 41.717 99.6899 41.717C97.7251 41.717 96.2172 43.2478 95.6917 45.1897ZM113.204 46.3549L113.341 45.7609L110.394 46.1493C108.612 46.4006 107.378 46.9032 107.378 48.4339C107.378 49.4392 108.086 49.9875 109.137 49.9875C111.125 49.9875 112.633 48.571 113.204 46.3549ZM114.963 44.6186L113.889 48.9137C113.707 49.5991 113.958 49.8961 114.46 49.8961C114.758 49.8961 115.055 49.8276 115.397 49.6905L115.214 50.5358C114.849 50.8328 114.46 50.9927 113.866 50.9927C112.816 50.9927 112.381 50.1246 112.587 48.8452C111.947 50.2159 110.417 51.0613 108.84 51.0613C107.104 51.0613 106.007 50.056 106.007 48.571C106.007 46.3777 107.858 45.4639 110.211 45.1669L113.615 44.7099L113.707 44.3215C114.072 42.7451 113.478 41.717 111.787 41.717C110.44 41.717 109.229 42.3111 108.566 43.7732L107.401 43.4991C108.155 41.6714 109.937 40.5976 111.993 40.5976C114.575 40.5976 115.557 42.2425 114.963 44.6186ZM126.657 46.5605L126.908 45.5553C127.479 43.2706 126.291 41.6942 124.19 41.6942C121.425 41.6942 119.78 44.4129 119.78 47.1317C119.78 48.9365 120.763 49.9418 122.567 49.9418C124.258 49.9418 126.131 48.6852 126.657 46.5605ZM127.502 42.9964L129.147 36.3938H130.541L126.954 50.7871H125.56L126.04 48.8908C125.309 50.1474 123.801 51.0613 122.065 51.0613C119.62 51.0613 118.318 49.4392 118.318 47.1317C118.318 44.1159 120.397 40.5976 124.121 40.5976C125.926 40.5976 127.16 41.6485 127.502 42.9964ZM132.838 54.671H131.353L134.095 50.6272L132.381 40.8717H133.775L135.123 49.0736H135.214L140.56 40.8717H142L132.838 54.671ZM153.814 50.7871H152.375L155.642 37.6047H150.318L150.638 36.3938H162.793L162.473 37.6047H157.081L153.814 50.7871ZM165.47 49.9646C168.097 49.9646 169.697 47.5886 169.697 44.9156C169.697 42.8594 168.486 41.6942 166.727 41.6942C164.099 41.6942 162.5 44.0702 162.5 46.7433C162.5 48.7995 163.711 49.9646 165.47 49.9646ZM165.47 51.0613C162.911 51.0613 161.061 49.4849 161.061 46.7433C161.061 43.4762 163.345 40.5976 166.727 40.5976C169.285 40.5976 171.136 42.174 171.136 44.9156C171.136 48.1826 168.851 51.0613 165.47 51.0613ZM189.865 50.7871H188.334C188.265 50.65 188.22 50.3987 188.22 49.9418C188.22 49.0736 188.608 47.5429 188.608 46.629C188.608 45.5553 187.991 44.7099 186.232 44.7099H181.823L180.315 50.7871H178.898L182.485 36.3938H187.854C190.778 36.3938 192.309 37.5818 192.309 39.7522C192.309 42.2882 190.527 43.8646 187.968 44.2073C189.453 44.5043 190.07 45.2811 190.07 46.5377C190.07 47.4058 189.659 48.8908 189.659 49.9418C189.659 50.3073 189.727 50.5815 189.865 50.7871ZM182.12 43.5219H186.323C188.882 43.5219 190.847 42.3567 190.847 39.935C190.847 38.4271 189.865 37.6047 187.626 37.6047H183.582L182.12 43.5219ZM201.062 46.5834L202.479 40.8717H203.872L201.405 50.7871H200.011L200.491 48.8908C199.669 50.1474 198.389 51.0613 196.767 51.0613C194.368 51.0613 193.5 49.3935 194.094 47.0174L195.625 40.8717H197.018L195.488 47.0631C195.031 48.9365 195.51 49.9646 197.247 49.9646C198.823 49.9646 200.537 48.7309 201.062 46.5834ZM208.432 45.0755L207.015 50.7871H205.621L208.089 40.8717H209.483L209.003 42.768C209.825 41.5114 211.105 40.5976 212.727 40.5976C215.171 40.5976 216.108 42.2654 215.514 44.6414L213.983 50.7871H212.59L214.12 44.5957C214.554 42.8365 213.983 41.6942 212.247 41.6942C210.671 41.6942 208.957 42.9279 208.432 45.0755Z" fill="#B2B8FA"/>
</svg>
