<svg width="222" height="55" viewBox="0 0 222 55" fill="none" xmlns="http://www.w3.org/2000/svg">
<path fill-rule="evenodd" clip-rule="evenodd" d="M218.683 1.86914C219.391 1.90115 220.061 2.23514 220.516 2.78613C220.922 3.27812 221.118 3.90866 221.066 4.56055C221.017 5.18769 220.741 5.77797 220.296 6.22559L208.088 17.5068C207.987 17.6102 207.923 17.7702 207.923 17.9375C207.923 18.1023 207.987 18.2594 208.103 18.3799L214.767 24.1191C215.266 24.6135 215.546 25.2826 215.556 25.9688C215.566 26.6895 215.29 27.3494 214.778 27.8242C214.542 28.043 214.27 28.2155 213.97 28.3311C213.677 28.4442 213.371 28.5 213.059 28.5C212.734 28.4999 212.415 28.4383 212.112 28.3154C211.8 28.1876 211.519 28.0036 211.278 27.7627L211.248 27.7324L205.443 21.0029C205.227 20.7938 204.81 20.7937 204.574 21.0225L198.774 27.748C198.521 28.0038 198.238 28.1905 197.926 28.3184C197.338 28.557 196.661 28.5617 196.068 28.333C195.768 28.2174 195.495 28.0476 195.259 27.8262C194.747 27.3514 194.472 26.6943 194.481 25.9736C194.491 25.2899 194.772 24.6183 195.254 24.1387L195.283 24.1094L201.955 18.3633C202.051 18.2624 202.115 18.1047 202.115 17.9375C202.115 17.7702 202.051 17.6122 201.936 17.4941L195.264 11.748C194.799 11.2857 194.526 10.6955 194.477 10.0684C194.425 9.41647 194.621 8.78594 195.027 8.29395C195.482 7.74309 196.152 7.40905 196.862 7.37695C197.571 7.34251 198.26 7.61047 198.76 8.1123L198.789 8.14453L204.595 14.875C204.814 15.0837 205.239 15.0786 205.47 14.8477L216.767 2.62695C217.256 2.13756 217.905 1.86634 218.566 1.86621C218.603 1.86621 218.643 1.86668 218.683 1.86914ZM11.0693 1.28125C17.3075 1.28138 20.3115 4.66171 20.5771 11.7266H15.4277C15.2408 7.81786 13.8882 6.0148 11.0693 6.01465C7.76318 6.01465 6.4463 8.45725 6.44629 14.8457C6.44629 21.4212 7.68691 23.6768 11.0693 23.6768C13.962 23.6766 15.2776 22.0606 15.5039 17.8887H20.7266C20.424 25.0273 17.3075 28.41 11.0693 28.4102C4.11752 28.4102 1.07422 24.2772 1.07422 14.8457C1.07423 5.41429 4.11754 1.28125 11.0693 1.28125ZM56.8486 7.66797C63.2765 7.66798 66.2427 11.1243 65.5293 18.792H52.376C52.563 22.7005 53.9561 24.3535 56.8857 24.3535C59.0282 24.3535 60.4545 23.4898 60.7939 21.7236H65.4531C65.003 25.8195 61.884 28.1885 56.7354 28.1885C50.6102 28.186 47.3799 24.8406 47.3799 17.9258C47.3799 10.974 50.6496 7.66797 56.8486 7.66797ZM158.801 7.66992C164.213 7.66992 166.806 9.99957 166.806 14.8086V27.8125H162.896L162.407 25.7832H161.317L160.228 26.8721C159.327 27.7724 157.899 28.1884 155.982 28.1885C151.737 28.186 149.482 26.1562 149.482 22.4736C149.483 18.5651 152.076 16.499 156.585 16.499H161.733V15.0332C161.733 12.5905 160.643 11.5762 158.388 11.5762C156.472 11.5762 155.119 12.3292 154.969 14.1689H150.383C150.533 10.0734 153.389 7.67002 158.801 7.66992ZM79.4629 7.66797C85.0985 7.66797 88.0681 10.4497 88.2207 15.5957H83.2979C83.0715 13.0796 81.795 11.9503 79.4658 11.9502C76.5729 11.9502 75.293 13.6799 75.293 17.9258C75.293 22.1715 76.5705 23.9004 79.4658 23.9004C81.8319 23.9002 83.1474 22.7741 83.3369 20.0293H88.3359C88.1857 25.3647 85.1403 28.1836 79.4678 28.1836C73.3008 28.186 70.0684 24.8406 70.0684 17.9258C70.0684 10.974 73.3007 7.66797 79.4629 7.66797ZM98.6133 14.9932H100.906L106.092 8.04199H111.88L105.152 17.249L112.104 27.8076H106.129L100.83 19.5049H98.6133V27.8096H93.541V0H98.6133V14.9932ZM139.176 7.66797C143.498 7.66801 145.601 9.8843 145.604 14.3564V27.8096H140.531V15.709C140.531 13.2665 139.476 12.1768 137.223 12.1768C134.827 12.1768 133.626 13.3698 133.616 15.6797L133.574 15.6357V27.8096H128.502V15.709C128.502 13.2664 127.451 12.1768 125.195 12.1768C122.79 12.1769 121.587 13.3797 121.587 15.709V27.8096H116.512V8.04395H120.269L120.795 10.0732H121.885L122.975 8.9834C123.914 8.04388 125.344 7.66797 127.146 7.66797C129.742 7.66797 131.535 8.46954 132.556 10.0732H133.914L135.004 8.9834C135.944 8.04392 137.373 7.66797 139.176 7.66797ZM30.3154 6.5752L29.8652 9.80762L30.918 10.0713L32.0078 8.98145C32.9475 8.04179 34.2637 7.66508 36.0273 7.66504C40.2756 7.66504 42.3027 9.8815 42.3027 14.3535V27.8076H37.2305V15.707C37.2305 13.2645 36.1778 12.174 33.9248 12.1738C31.519 12.1738 30.3154 13.3775 30.3154 15.707V27.8076H25.2432V0H30.3154V6.5752ZM190.869 12.2139H185.87C183.465 12.214 182.225 13.3772 182.225 15.5195V23.5244H188.537V27.8076H171.701V23.5244H177.149V12.2871H172.341V8.04395H180.796L181.285 10.0732H182.412L183.501 8.9834C184.404 8.0437 185.831 7.66797 187.674 7.66797H190.869V12.2139ZM157.861 19.4307C155.719 19.4307 154.629 20.3342 154.629 21.9873C154.629 23.4508 155.495 24.3906 157.675 24.3906C160.267 24.3905 161.733 23.0373 161.733 20.6709V19.4307H157.861ZM56.8486 11.4238C54.3322 11.4238 52.9395 12.7399 52.4893 15.5957H60.8711C60.7947 12.89 59.4782 11.4238 56.8486 11.4238Z" fill="#121185"/>
<path d="M9.50458 36.2629H11.0581L13.5484 50.6562H12.1091L11.3323 46.0184H4.52404L1.5083 50.6562H0.000432914L9.50458 36.2629ZM9.87012 37.8165L5.30082 44.8075H11.1267L9.96151 37.8165H9.87012ZM20.2207 36.2629H21.6143L18.0274 50.6562H16.6338L20.2207 36.2629ZM30.928 40.7409L31.225 48.7371H31.3164L35.7486 40.7409H37.1422L31.4535 50.6562H30.1512L29.8771 42.7057H29.7857L25.4448 50.6562H24.1197L23.48 40.7409H24.8508L25.2392 48.7371H25.3306L29.7171 40.7409H30.928ZM44.9823 46.224L45.1194 45.63L42.1722 46.0184C40.3902 46.2697 39.1565 46.7723 39.1565 48.3031C39.1565 49.3083 39.8647 49.8566 40.9157 49.8566C42.9033 49.8566 44.4112 48.4401 44.9823 46.224ZM46.7415 44.4877L45.6677 48.7828C45.485 49.4682 45.7363 49.7652 46.2389 49.7652C46.5359 49.7652 46.8329 49.6967 47.1756 49.5596L46.9928 50.4049C46.6273 50.7019 46.2389 50.8619 45.6449 50.8619C44.594 50.8619 44.1599 49.9937 44.3655 48.7143C43.7258 50.0851 42.1951 50.9304 40.6187 50.9304C38.8823 50.9304 37.7857 49.9252 37.7857 48.4401C37.7857 46.2469 39.6363 45.333 41.9895 45.036L45.3936 44.5791L45.485 44.1907C45.8505 42.6143 45.2565 41.5862 43.5659 41.5862C42.2179 41.5862 41.0071 42.1802 40.3445 43.6424L39.1793 43.3682C39.9333 41.5405 41.7153 40.4667 43.7715 40.4667C46.3531 40.4667 47.3355 42.1117 46.7415 44.4877ZM51.064 54.5402H49.579L52.3205 50.4963L50.607 40.7409H52.0007L53.3486 48.9428H53.44L58.7861 40.7409H60.2254L51.064 54.5402ZM60.8978 46.9551L62.0173 46.8637C61.903 48.9656 63.5023 49.8566 65.0559 49.8566C66.7237 49.8566 67.5918 49.057 67.5918 48.0289C67.5918 47.0922 66.9293 46.7267 65.8783 46.4068L64.6446 46.0413C63.2281 45.63 62.3371 44.7847 62.3371 43.4824C62.3371 41.7233 63.7993 40.4667 65.924 40.4667C68.6199 40.4667 70.0136 41.8603 69.8536 44.3506L68.757 44.442C68.8255 42.5686 67.7974 41.5405 65.924 41.5405C64.5532 41.5405 63.6622 42.203 63.6622 43.3225C63.6622 44.1907 64.2562 44.6019 65.3072 44.8989L66.5637 45.2645C68.0259 45.6986 68.9398 46.5439 68.9398 47.8461C68.9398 49.8566 67.2263 50.9304 65.0559 50.9304C62.7484 50.9304 60.6693 49.6282 60.8978 46.9551ZM88.4816 50.6562H86.9508C86.8823 50.5192 86.8366 50.2679 86.8366 49.8109C86.8366 48.9428 87.225 47.412 87.225 46.4982C87.225 45.4244 86.6082 44.5791 84.849 44.5791H80.4396L78.9317 50.6562H77.5152L81.1021 36.2629H86.4711C89.3954 36.2629 90.9261 37.451 90.9261 39.6214C90.9261 42.1573 89.1441 43.7338 86.5853 44.0765C88.0703 44.3735 88.6872 45.1502 88.6872 46.4068C88.6872 47.275 88.2759 48.76 88.2759 49.8109C88.2759 50.1765 88.3445 50.4506 88.4816 50.6562ZM80.7366 43.3911H84.9404C87.4992 43.3911 89.464 42.2259 89.464 39.8042C89.464 38.2963 88.4816 37.4738 86.2426 37.4738H82.1988L80.7366 43.3911ZM100.596 47.115L101.761 47.2978C100.961 49.5596 99.1107 50.9304 96.689 50.9304C94.0159 50.9304 92.3482 49.354 92.3482 46.7038C92.3482 43.4368 94.8613 40.4667 98.174 40.4667C101.281 40.4667 102.104 42.7057 102.104 44.8075C102.104 45.1731 102.035 45.6986 101.967 46.0413H93.7875C93.4905 48.5087 94.747 49.7881 96.8489 49.7881C98.6766 49.7881 99.9332 48.8742 100.596 47.115ZM94.0159 45.0589H100.687C100.916 43.1169 100.116 41.5862 98.0141 41.5862C96.0493 41.5862 94.5414 43.1169 94.0159 45.0589ZM111.528 46.224L111.665 45.63L108.718 46.0184C106.936 46.2697 105.702 46.7723 105.702 48.3031C105.702 49.3083 106.411 49.8566 107.461 49.8566C109.449 49.8566 110.957 48.4401 111.528 46.224ZM113.287 44.4877L112.214 48.7828C112.031 49.4682 112.282 49.7652 112.785 49.7652C113.082 49.7652 113.379 49.6967 113.721 49.5596L113.539 50.4049C113.173 50.7019 112.785 50.8619 112.191 50.8619C111.14 50.8619 110.706 49.9937 110.911 48.7143C110.272 50.0851 108.741 50.9304 107.164 50.9304C105.428 50.9304 104.332 49.9252 104.332 48.4401C104.332 46.2469 106.182 45.333 108.535 45.036L111.939 44.5791L112.031 44.1907C112.396 42.6143 111.802 41.5862 110.112 41.5862C108.764 41.5862 107.553 42.1802 106.89 43.6424L105.725 43.3682C106.479 41.5405 108.261 40.4667 110.317 40.4667C112.899 40.4667 113.881 42.1117 113.287 44.4877ZM124.981 46.4296L125.232 45.4244C125.804 43.1397 124.616 41.5633 122.514 41.5633C119.749 41.5633 118.104 44.2821 118.104 47.0008C118.104 48.8057 119.087 49.8109 120.892 49.8109C122.582 49.8109 124.456 48.5544 124.981 46.4296ZM125.826 42.8656L127.471 36.2629H128.865L125.278 50.6562H123.885L124.364 48.76C123.633 50.0165 122.125 50.9304 120.389 50.9304C117.944 50.9304 116.642 49.3083 116.642 47.0008C116.642 43.9851 118.721 40.4667 122.445 40.4667C124.25 40.4667 125.484 41.5176 125.826 42.8656ZM131.162 54.5402H129.677L132.419 50.4963L130.705 40.7409H132.099L133.447 48.9428H133.538L138.885 40.7409H140.324L131.162 54.5402ZM152.138 50.6562H150.699L153.966 37.4738H148.643L148.963 36.2629H161.117L160.797 37.4738H155.405L152.138 50.6562ZM163.794 49.8338C166.422 49.8338 168.021 47.4577 168.021 44.7847C168.021 42.7285 166.81 41.5633 165.051 41.5633C162.423 41.5633 160.824 43.9394 160.824 46.6124C160.824 48.6686 162.035 49.8338 163.794 49.8338ZM163.794 50.9304C161.235 50.9304 159.385 49.354 159.385 46.6124C159.385 43.3454 161.669 40.4667 165.051 40.4667C167.61 40.4667 169.46 42.0431 169.46 44.7847C169.46 48.0517 167.175 50.9304 163.794 50.9304ZM188.189 50.6562H186.658C186.589 50.5192 186.544 50.2679 186.544 49.8109C186.544 48.9428 186.932 47.412 186.932 46.4982C186.932 45.4244 186.315 44.5791 184.556 44.5791H180.147L178.639 50.6562H177.222L180.809 36.2629H186.178C189.103 36.2629 190.633 37.451 190.633 39.6214C190.633 42.1573 188.851 43.7338 186.292 44.0765C187.777 44.3735 188.394 45.1502 188.394 46.4068C188.394 47.275 187.983 48.76 187.983 49.8109C187.983 50.1765 188.052 50.4506 188.189 50.6562ZM180.444 43.3911H184.648C187.206 43.3911 189.171 42.2259 189.171 39.8042C189.171 38.2963 188.189 37.4738 185.95 37.4738H181.906L180.444 43.3911ZM199.386 46.4525L200.803 40.7409H202.196L199.729 50.6562H198.335L198.815 48.76C197.993 50.0165 196.713 50.9304 195.091 50.9304C192.692 50.9304 191.824 49.2626 192.418 46.8866L193.949 40.7409H195.343L193.812 46.9323C193.355 48.8057 193.835 49.8338 195.571 49.8338C197.147 49.8338 198.861 48.6001 199.386 46.4525ZM206.756 44.9446L205.339 50.6562H203.946L206.413 40.7409H207.807L207.327 42.6371C208.149 41.3806 209.429 40.4667 211.051 40.4667C213.495 40.4667 214.432 42.1345 213.838 44.5105L212.307 50.6562H210.914L212.445 44.4648C212.879 42.7057 212.307 41.5633 210.571 41.5633C208.995 41.5633 207.281 42.7971 206.756 44.9446Z" fill="#353AB0"/>
</svg>
