<svg width="16" height="16" viewBox="0 0 16 16" fill="none" xmlns="http://www.w3.org/2000/svg">
<path fill-rule="evenodd" clip-rule="evenodd" d="M3.33333 8C3.33333 10.5773 5.42267 12.6667 8 12.6667C10.5773 12.6667 12.6667 10.5773 12.6667 8C12.6667 5.42267 10.5773 3.33333 8 3.33333C5.42267 3.33333 3.33333 5.42267 3.33333 8ZM8 2C4.68629 2 2 4.68629 2 8C2 11.3137 4.68629 14 8 14C11.3137 14 14 11.3137 14 8C14 4.68629 11.3137 2 8 2Z" fill="#BCBCBC"/>
<path d="M8.00035 11.3286C7.61127 11.3286 7.29918 11.0069 7.31087 10.618L7.39657 7.76795C7.40636 7.44215 7.6733 7.18312 7.99925 7.18312C8.32502 7.18312 8.59188 7.44187 8.60192 7.76748L8.68981 10.6175C8.70181 11.0066 8.38964 11.3286 8.00035 11.3286ZM7.99902 4.7C8.20996 4.7 8.39107 4.77457 8.54235 4.92372C8.69363 5.07287 8.7682 5.25398 8.76607 5.46705C8.7682 5.67585 8.69363 5.85483 8.54235 6.00398C8.39107 6.15313 8.20996 6.2277 7.99902 6.2277C7.79448 6.2277 7.61657 6.15313 7.46529 6.00398C7.31188 5.85483 7.23411 5.67585 7.23198 5.46705C7.23411 5.25398 7.31188 5.07287 7.46529 4.92372C7.61657 4.77457 7.79448 4.7 7.99902 4.7Z" fill="#BCBCBC"/>
</svg>
