<svg width="12" height="13" viewBox="0 0 12 13" fill="none" xmlns="http://www.w3.org/2000/svg">
<path fill-rule="evenodd" clip-rule="evenodd" d="M5.60969 0.625046C4.34066 1.52625 2.89023 2.03149 1.41781 2.14076C1.08136 2.16573 0.80703 2.44074 0.811329 2.77808C0.910022 10.5232 2.90419 11.3165 5.75218 12.4494L5.77245 12.4575C5.9182 12.5155 6.08156 12.5155 6.22731 12.4575L6.24758 12.4494C9.09557 11.3165 11.0897 10.5232 11.1884 2.77808C11.1927 2.44074 10.9184 2.16573 10.582 2.14076C9.10953 2.03149 7.6591 1.52625 6.39007 0.625046C6.15712 0.45962 5.84264 0.45962 5.60969 0.625046ZM4.6896 8.67422C5.04116 8.88942 5.46197 8.99702 5.95203 8.99702C6.36325 8.99702 6.72121 8.92244 7.02589 8.7733C7.33058 8.62202 7.57135 8.41321 7.74819 8.14688C7.92504 7.87841 8.02731 7.57053 8.05501 7.22322H6.94919C6.9151 7.40007 6.85224 7.55028 6.76062 7.67386C6.669 7.79744 6.55501 7.89226 6.41865 7.95831C6.28442 8.02223 6.13207 8.05419 5.96162 8.05419C5.72085 8.05419 5.51098 7.99027 5.332 7.86243C5.15515 7.73246 5.01772 7.54815 4.91971 7.30952C4.8217 7.06875 4.7727 6.78111 4.7727 6.44659C4.7727 6.11633 4.8217 5.83295 4.91971 5.59645C5.01986 5.35994 5.15942 5.17883 5.33839 5.05312C5.51737 4.92528 5.72511 4.86136 5.96162 4.86136C6.24074 4.86136 6.46339 4.94126 6.62959 5.10107C6.79791 5.25874 6.90444 5.45582 6.94919 5.69233H8.05501C8.02944 5.33864 7.92504 5.02969 7.7418 4.76548C7.55856 4.49915 7.31247 4.29354 7.00352 4.14865C6.6967 4.00163 6.34407 3.92813 5.94564 3.92813C5.46623 3.92813 5.05075 4.03572 4.69919 4.25092C4.34976 4.46399 4.07916 4.76229 3.8874 5.14581C3.69564 5.5272 3.59976 5.96719 3.59976 6.46577C3.59976 6.96222 3.69351 7.40114 3.88101 7.78253C4.07064 8.16179 4.34017 8.45902 4.6896 8.67422Z" fill="#E81C26"/>
<path d="M5.95203 8.99702C5.46197 8.99702 5.04116 8.88942 4.6896 8.67422C4.34017 8.45902 4.07064 8.16179 3.88101 7.78253C3.69351 7.40114 3.59976 6.96222 3.59976 6.46577C3.59976 5.96719 3.69564 5.5272 3.8874 5.14581C4.07916 4.76229 4.34976 4.46399 4.69919 4.25092C5.05075 4.03572 5.46623 3.92813 5.94564 3.92813C6.34407 3.92813 6.6967 4.00163 7.00352 4.14865C7.31247 4.29354 7.55856 4.49915 7.7418 4.76548C7.92504 5.02969 8.02944 5.33864 8.05501 5.69233H6.94919C6.90444 5.45582 6.79791 5.25874 6.62959 5.10107C6.46339 4.94126 6.24074 4.86136 5.96162 4.86136C5.72511 4.86136 5.51737 4.92528 5.33839 5.05312C5.15942 5.17883 5.01986 5.35994 4.91971 5.59645C4.8217 5.83295 4.7727 6.11633 4.7727 6.44659C4.7727 6.78111 4.8217 7.06875 4.91971 7.30952C5.01772 7.54815 5.15515 7.73246 5.332 7.86243C5.51098 7.99027 5.72085 8.05419 5.96162 8.05419C6.13207 8.05419 6.28442 8.02223 6.41865 7.95831C6.55501 7.89226 6.669 7.79744 6.76062 7.67386C6.85224 7.55028 6.9151 7.40007 6.94919 7.22322H8.05501C8.02731 7.57053 7.92504 7.87841 7.74819 8.14688C7.57135 8.41321 7.33058 8.62202 7.02589 8.7733C6.72121 8.92244 6.36325 8.99702 5.95203 8.99702Z" fill="black"/>
</svg>
