<svg width="16" height="16" viewBox="0 0 16 16" fill="none" xmlns="http://www.w3.org/2000/svg">
<path fill-rule="evenodd" clip-rule="evenodd" d="M7.99988 12.7319C6.6608 12.195 5.8666 11.8189 5.26917 10.9174C4.63821 9.96535 4.13281 8.26021 4.04336 4.80313C5.42776 4.62087 6.78075 4.13121 7.99988 3.33613C9.21901 4.13121 10.572 4.62087 11.9564 4.80313C11.867 8.26021 11.3615 9.96535 10.7306 10.9174C10.1332 11.8189 9.33896 12.195 7.99988 12.7319ZM8.24758 13.9485C11.0956 12.8155 13.0897 12.0222 13.1884 4.27711C13.1927 3.93976 12.9184 3.66475 12.5819 3.63979C11.1095 3.53052 9.6591 3.02528 8.39007 2.12407C8.15712 1.95864 7.84264 1.95864 7.60969 2.12407C6.34066 3.02528 4.89023 3.53052 3.41781 3.63979C3.08136 3.66475 2.80703 3.93976 2.81133 4.27711C2.91002 12.0222 4.90419 12.8155 7.75218 13.9485L7.77245 13.9565C7.91819 14.0145 8.08156 14.0145 8.22731 13.9565L8.24758 13.9485Z" fill="#308D25"/>
<path d="M10.6145 6.37574C10.3802 6.14142 10.0003 6.14142 9.76602 6.37574L7.59311 8.54864L6.7442 7.69973C6.50989 7.46541 6.12999 7.46541 5.89567 7.69973C5.66136 7.93404 5.66136 8.31394 5.89567 8.54826L7.15439 9.80697C7.15903 9.81193 7.16377 9.81683 7.16861 9.82167C7.40292 10.056 7.78282 10.056 8.01714 9.82167L10.6145 7.22426C10.8489 6.98995 10.8489 6.61005 10.6145 6.37574Z" fill="#308D25"/>
<path fill-rule="evenodd" clip-rule="evenodd" d="M7.99988 12.7319C6.6608 12.195 5.8666 11.8189 5.26917 10.9174C4.63821 9.96535 4.13281 8.26021 4.04336 4.80313C5.42776 4.62087 6.78075 4.13121 7.99988 3.33613C9.21901 4.13121 10.572 4.62087 11.9564 4.80313C11.867 8.26021 11.3615 9.96535 10.7306 10.9174C10.1332 11.8189 9.33896 12.195 7.99988 12.7319ZM10.6145 6.37574C10.3802 6.14142 10.0003 6.14142 9.76602 6.37574L7.59311 8.54864L6.7442 7.69973C6.50989 7.46541 6.12999 7.46541 5.89567 7.69973C5.66136 7.93404 5.66136 8.31394 5.89567 8.54826L7.15439 9.80697C7.15903 9.81193 7.16377 9.81683 7.16861 9.82167C7.40292 10.056 7.78282 10.056 8.01714 9.82167L10.6145 7.22426C10.8489 6.98995 10.8489 6.61005 10.6145 6.37574Z" fill="#2A2A2A"/>
</svg>
