<svg width="12" height="13" viewBox="0 0 12 13" fill="none" xmlns="http://www.w3.org/2000/svg">
<path d="M1.41781 2.14076C2.89023 2.03149 4.34066 1.52625 5.60969 0.625046C5.84264 0.45962 6.15712 0.45962 6.39007 0.625046C7.6591 1.52625 9.10953 2.03149 10.582 2.14076C10.9184 2.16573 11.1927 2.44074 11.1884 2.77808C11.0897 10.5232 9.09557 11.3165 6.24758 12.4494L6.22731 12.4575C6.08156 12.5155 5.91819 12.5155 5.77245 12.4575L5.75218 12.4494C2.90419 11.3165 0.910022 10.5232 0.811329 2.77808C0.80703 2.44074 1.08136 2.16573 1.41781 2.14076Z" fill="#FF3B6C"/>
<path d="M3.91791 8.88293V3.99598H4.95114V6.01233H7.04862V3.99598H8.07946V8.88293H7.04862V6.8642H4.95114V8.88293H3.91791Z" fill="black"/>
</svg>
