<svg width="12" height="13" viewBox="0 0 12 13" fill="none" xmlns="http://www.w3.org/2000/svg">
<path d="M1.41781 2.13979C2.89023 2.03052 4.34066 1.52528 5.60969 0.62407C5.84264 0.458643 6.15712 0.458643 6.39007 0.62407C7.6591 1.52528 9.10953 2.03052 10.582 2.13979C10.9184 2.16475 11.1927 2.43976 11.1884 2.77711C11.0897 10.5222 9.09557 11.3155 6.24758 12.4485L6.22731 12.4565C6.08156 12.5145 5.91819 12.5145 5.77245 12.4565L5.75218 12.4485C2.90419 11.3155 0.910022 10.5222 0.811329 2.77711C0.80703 2.43976 1.08136 2.16475 1.41781 2.13979Z" fill="#FF7B00"/>
<path d="M3.32077 3.99501H4.595L5.94082 7.27843H5.99809L7.34391 3.99501H8.61814V8.88196H7.61594V5.70114H7.57537L6.31068 8.8581H5.62823L4.36354 5.68921H4.32297V8.88196H3.32077V3.99501Z" fill="black"/>
</svg>
